<svg version="1.1" xmlns="http://www.w3.org/2000/svg" viewBox="0 0 390.5570316202479 362.0717782498457" width="781.1140632404959" height="724.1435564996914">
  <!-- svg-source:excalidraw -->
  
  <defs>
    <style class="style-fonts">
      @font-face {
        font-family: "Virgil";
        src: url("https://excalidraw.com/Virgil.woff2");
      }
      @font-face {
        font-family: "Cascadia";
        src: url("https://excalidraw.com/Cascadia.woff2");
      }
    </style>
  </defs>
  <g stroke-linecap="round" transform="translate(30.03748023083199 71.79145804603945) rotate(0 175.25977569470797 140.14016010190312)"><path d="M32 0 L318.52 0 L326.02 0.5 L332.52 2 L338.02 4.5 L342.52 8 L346.02 12.5 L348.52 18 L350.02 24.5 L350.52 32 L350.52 248.28 L350.02 255.78 L348.52 262.28 L346.02 267.78 L342.52 272.28 L338.02 275.78 L332.52 278.28 L326.02 279.78 L318.52 280.28 L32 280.28 L24.5 279.78 L18 278.28 L12.5 275.78 L8 272.28 L4.5 267.78 L2 262.28 L0.5 255.78 L0 248.28 L0.5 24.5 L2 18 L4.5 12.5 L8 8 L12.5 4.5 L18 2 L24.5 0.5 L32 0" stroke="none" stroke-width="0" fill="#ffffff"></path><path d="M32 0 M32 0 C125.1 0, 218.2 0, 318.52 0 M32 0 C89.8 0, 147.61 0, 318.52 0 M318.52 0 C339.85 0, 350.52 10.67, 350.52 32 M318.52 0 C339.85 0, 350.52 10.67, 350.52 32 M350.52 32 C350.52 76.4, 350.52 120.79, 350.52 248.28 M350.52 32 C350.52 102.18, 350.52 172.37, 350.52 248.28 M350.52 248.28 C350.52 269.61, 339.85 280.28, 318.52 280.28 M350.52 248.28 C350.52 269.61, 339.85 280.28, 318.52 280.28 M318.52 280.28 C212.52 280.28, 106.51 280.28, 32 280.28 M318.52 280.28 C239.16 280.28, 159.8 280.28, 32 280.28 M32 280.28 C10.67 280.28, 0 269.61, 0 248.28 M32 280.28 C10.67 280.28, 0 269.61, 0 248.28 M0 248.28 C0 172.93, 0 97.58, 0 32 M0 248.28 C0 188.28, 0 128.29, 0 32 M0 32 C0 10.67, 10.67 0, 32 0 M0 32 C0 10.67, 10.67 0, 32 0" stroke="#28343c" stroke-width="2" fill="none"></path></g><g stroke-linecap="round" transform="translate(10 10) rotate(0 119.64096662835414 37.23093017455767)"><path d="M0 0 L239.28 0 L239.28 74.46 L0 74.46" stroke="none" stroke-width="0" fill="#ffffff"></path><path d="M0 0 C95.17 0, 190.35 0, 239.28 0 M0 0 C61.33 0, 122.66 0, 239.28 0 M239.28 0 C239.28 23.17, 239.28 46.35, 239.28 74.46 M239.28 0 C239.28 20.42, 239.28 40.85, 239.28 74.46 M239.28 74.46 C154.41 74.46, 69.54 74.46, 0 74.46 M239.28 74.46 C146.47 74.46, 53.66 74.46, 0 74.46 M0 74.46 C0 44.87, 0 15.28, 0 0 M0 74.46 C0 46.05, 0 17.65, 0 0" stroke="transparent" stroke-width="4" fill="none"></path></g><g stroke-linecap="round"><g transform="translate(70.97601865678462 53.520838230532945) rotate(0 -15.634885076157389 7.185872063104739)" fill-rule="evenodd"><path d="M0 0 L-0.17 23.58 L-10.5 17.85 L-10.61 5.67 L-15.72 2.75 L-21 6.18 L-21.11 17.96 L-31.27 23.63 L-31.27 0.06 L-15.66 -9.26 L0 0" stroke="none" stroke-width="0" fill="#263238" fill-rule="evenodd"></path><path d="M0 0 C-0.04 6.08, -0.09 12.17, -0.17 23.58 M-0.17 23.58 C-3.81 21.56, -7.44 19.55, -10.5 17.85 M-10.5 17.85 C-10.53 14.74, -10.56 11.62, -10.61 5.67 M-10.61 5.67 C-12.29 4.71, -13.97 3.75, -15.72 2.75 M-15.72 2.75 C-17.4 3.84, -19.07 4.93, -21 6.18 M-21 6.18 C-21.02 8.55, -21.04 10.93, -21.11 17.96 M-21.11 17.96 C-23.65 19.38, -26.18 20.8, -31.27 23.63 M-31.27 23.63 C-31.27 18.19, -31.27 12.74, -31.27 0.06 M-31.27 0.06 C-25.8 -3.21, -20.32 -6.48, -15.66 -9.26 M-15.66 -9.26 C-12.43 -7.35, -9.19 -5.44, 0 0 M0 0 C0 0, 0 0, 0 0" stroke="transparent" stroke-width="1.5" fill="none" stroke-dasharray="1.5 7"></path></g></g><mask></mask><g stroke-linecap="round"><g transform="translate(81.58641060293758 53.633114485012584) rotate(0 15.859446579654787 8.95426997125196)" fill-rule="evenodd"><path d="M0 0 L15.44 -9.32 L31.94 0.22 L31.83 17.74 L15.72 27.23 L-0.22 17.57 L0 0" stroke="none" stroke-width="0" fill="#82c91e" fill-rule="evenodd"></path><path d="M0 0 C3.54 -2.14, 7.08 -4.28, 15.44 -9.32 M15.44 -9.32 C20.81 -6.21, 26.18 -3.11, 31.94 0.22 M31.94 0.22 C31.92 4.28, 31.89 8.34, 31.83 17.74 M31.83 17.74 C28.11 19.93, 24.39 22.12, 15.72 27.23 M15.72 27.23 C12.29 25.15, 8.87 23.08, -0.22 17.57 M-0.22 17.57 C-0.16 12.61, -0.1 7.65, 0 0 M0 0 C0 0, 0 0, 0 0" stroke="transparent" stroke-width="1.5" fill="none" stroke-dasharray="1.5 7"></path></g></g><mask></mask><g stroke-linecap="round"><g transform="translate(144.21817167314202 47.45862646515775) rotate(0 -5.005348963167762 5.158573907570599)" fill-rule="evenodd"><path d="M0 0 L-5.11 -2.55 L-20.74 6.28 L-20.69 24.36 L-5.11 33.4 L10.57 24.26 L10.73 -17.52 L0.41 -23.09 L0 0" stroke="none" stroke-width="0" fill="#263238" fill-rule="evenodd"></path><path d="M0 0 C-1.3 -0.65, -2.6 -1.3, -5.11 -2.55 M-5.11 -2.55 C-9.78 0.09, -14.45 2.73, -20.74 6.28 M-20.74 6.28 C-20.72 10.5, -20.71 14.72, -20.69 24.36 M-20.69 24.36 C-16.42 26.84, -12.15 29.31, -5.11 33.4 M-5.11 33.4 C0.22 30.3, 5.54 27.2, 10.57 24.26 M10.57 24.26 C10.62 11.99, 10.66 -0.28, 10.73 -17.52 M10.73 -17.52 C8.32 -18.82, 5.91 -20.12, 0.41 -23.09 M0.41 -23.09 C0.31 -17.76, 0.22 -12.43, 0 0 M0 0 C0 0, 0 0, 0 0" stroke="transparent" stroke-width="1.5" fill="none" stroke-dasharray="1.5 7"></path></g></g><mask></mask><g stroke-linecap="round"><g transform="translate(165.00569458585323 53.74084801665981) rotate(0 15.807707543566266 8.708284729897855)" fill-rule="evenodd"><path d="M0 0 L15.88 -9.19 L31.62 0.05 L31.56 5.36 L21.04 11.8 L21.09 5.77 L15.99 2.71 L10.57 5.92 L10.52 11.8 L25.64 20.84 L16.19 26.61 L0.15 17.47 L0 0" stroke="none" stroke-width="0" fill="#263238" fill-rule="evenodd"></path><path d="M0 0 C6.04 -3.5, 12.08 -6.99, 15.88 -9.19 M15.88 -9.19 C22.08 -5.55, 28.27 -1.91, 31.62 0.05 M31.62 0.05 C31.6 1.2, 31.59 2.34, 31.56 5.36 M31.56 5.36 C27.57 7.81, 23.57 10.25, 21.04 11.8 M21.04 11.8 C21.05 10.54, 21.06 9.29, 21.09 5.77 M21.09 5.77 C19.88 5.05, 18.67 4.32, 15.99 2.71 M15.99 2.71 C14.84 3.39, 13.69 4.07, 10.57 5.92 M10.57 5.92 C10.56 7.89, 10.54 9.85, 10.52 11.8 M10.52 11.8 C14.83 14.38, 19.14 16.95, 25.64 20.84 M25.64 20.84 C23.15 22.36, 20.66 23.88, 16.19 26.61 M16.19 26.61 C10.07 23.12, 3.95 19.63, 0.15 17.47 M0.15 17.47 C0.12 13.11, 0.08 8.76, 0 0 M0 0 C0 0, 0 0, 0 0" stroke="transparent" stroke-width="1.5" fill="none" stroke-dasharray="1.5 7"></path></g></g><mask></mask><g stroke-linecap="round"><g transform="translate(138.97406190806487 56.65879575869917) rotate(0 0.11689674143167395 6.096607690590304)" fill-rule="evenodd"><path d="M0 0 L5.49 3.15 L5.49 8.93 L0.33 12.19 L-5.25 9.27 L-5.23 3 L0 0" stroke="none" stroke-width="0" fill="#ffffff" fill-rule="evenodd"></path><path d="M0 0 C1.64 0.94, 3.27 1.88, 5.49 3.15 M5.49 3.15 C5.49 5.36, 5.49 7.56, 5.49 8.93 M5.49 8.93 C4.01 9.86, 2.54 10.8, 0.33 12.19 M0.33 12.19 C-0.79 11.6, -1.92 11.01, -5.25 9.27 M-5.25 9.27 C-5.24 7.06, -5.23 4.85, -5.23 3 M-5.23 3 C-3.53 2.03, -1.83 1.05, 0 0 M0 0 C0 0, 0 0, 0 0" stroke="transparent" stroke-width="1.5" fill="none" stroke-dasharray="1.5 7"></path></g></g><mask></mask><g stroke-linecap="round"><g transform="translate(207.42746975676437 53.179043265018436) rotate(0 15.423738241528099 9.276172068390565)" fill-rule="evenodd"><path d="M0 0 L0.71 -0.78 L1.86 -1.58 L7.25 -4.64 L14.48 -8.74 L16.15 -8.83 L19.19 -7.07 L23.34 -4.75 L27.55 -2.39 L29.73 -1.11 L30.84 -0.3 L31.42 0.88 L31.42 18.27 L23.92 22.8 L16.5 26.91 L15.51 27.38 L14.35 26.91 L9.38 23.98 L9.38 23.5 L11.6 22.41 L15.07 24.51 L15.55 24.53 L21.81 21.07 L28.29 17.35 L28.86 16.91 L28.85 1.79 L28.55 1.12 L21.94 -2.71 L15.32 -6.34 L8.83 -2.63 L1.93 1.66 L1.81 16.47 L3.84 18.14 L6.04 19.44 L6.75 19.54 L8.23 19.01 L8.58 18.52 L8.56 2.39 L9.98 2.3 L11.48 2.35 L11.34 19.16 L9.81 21.32 L7.83 22.26 L5.8 21.87 L4.53 21.36 L2.39 20.22 L0.86 19.17 L-0.22 18.27 L-0.58 17.41 L-0.5 1.05" stroke="none" stroke-width="0" fill="#82c91e" fill-rule="evenodd"></path><path d="M0 0 C0.15 -0.16, 0.3 -0.33, 0.71 -0.78 M0.71 -0.78 C1.14 -1.08, 1.57 -1.38, 1.86 -1.58 M1.86 -1.58 C3.38 -2.44, 4.9 -3.3, 7.25 -4.64 M7.25 -4.64 C9.44 -5.88, 11.63 -7.12, 14.48 -8.74 M14.48 -8.74 C15.05 -8.77, 15.61 -8.8, 16.15 -8.83 M16.15 -8.83 C17.16 -8.24, 18.16 -7.66, 19.19 -7.07 M19.19 -7.07 C20.31 -6.44, 21.43 -5.82, 23.34 -4.75 M23.34 -4.75 C24.49 -4.1, 25.64 -3.46, 27.55 -2.39 M27.55 -2.39 C28.11 -2.06, 28.66 -1.74, 29.73 -1.11 M29.73 -1.11 C30.16 -0.79, 30.59 -0.48, 30.84 -0.3 M30.84 -0.3 C30.98 -0.02, 31.12 0.27, 31.42 0.88 M31.42 0.88 C31.42 7.68, 31.42 14.48, 31.42 18.27 M31.42 18.27 C29.48 19.44, 27.55 20.61, 23.92 22.8 M23.92 22.8 C22.14 23.79, 20.36 24.77, 16.5 26.91 M16.5 26.91 C16.2 27.05, 15.9 27.19, 15.51 27.38 M15.51 27.38 C15.08 27.21, 14.66 27.04, 14.35 26.91 M14.35 26.91 C13.27 26.28, 12.2 25.65, 9.38 23.98 M9.38 23.98 C9.38 23.86, 9.38 23.73, 9.38 23.5 M9.38 23.5 C9.86 23.27, 10.33 23.04, 11.6 22.41 M11.6 22.41 C12.6 23.02, 13.61 23.63, 15.07 24.51 M15.07 24.51 C15.23 24.52, 15.4 24.53, 15.55 24.53 M15.55 24.53 C17.51 23.45, 19.47 22.37, 21.81 21.07 M21.81 21.07 C23.16 20.3, 24.52 19.52, 28.29 17.35 M28.29 17.35 C28.44 17.24, 28.59 17.12, 28.86 16.91 M28.86 16.91 C28.85 13.42, 28.85 9.93, 28.85 1.79 M28.85 1.79 C28.74 1.54, 28.63 1.3, 28.55 1.12 M28.55 1.12 C26.1 -0.3, 23.65 -1.72, 21.94 -2.71 M21.94 -2.71 C19.56 -4.02, 17.18 -5.33, 15.32 -6.34 M15.32 -6.34 C13.96 -5.57, 12.6 -4.79, 8.83 -2.63 M8.83 -2.63 C6.95 -1.46, 5.06 -0.29, 1.93 1.66 M1.93 1.66 C1.9 5.29, 1.87 8.92, 1.81 16.47 M1.81 16.47 C2.33 16.9, 2.85 17.32, 3.84 18.14 M3.84 18.14 C4.69 18.64, 5.53 19.14, 6.04 19.44 M6.04 19.44 C6.31 19.48, 6.57 19.52, 6.75 19.54 M6.75 19.54 C7.1 19.42, 7.44 19.29, 8.23 19.01 M8.23 19.01 C8.3 18.9, 8.37 18.8, 8.58 18.52 M8.58 18.52 C8.58 15.14, 8.57 11.77, 8.56 2.39 M8.56 2.39 C8.98 2.36, 9.4 2.34, 9.98 2.3 M9.98 2.3 C10.29 2.31, 10.6 2.32, 11.48 2.35 M11.48 2.35 C11.44 7.01, 11.4 11.67, 11.34 19.16 M11.34 19.16 C10.87 19.83, 10.4 20.49, 9.81 21.32 M9.81 21.32 C9.09 21.66, 8.38 22, 7.83 22.26 M7.83 22.26 C7.27 22.15, 6.71 22.05, 5.8 21.87 M5.8 21.87 C5.42 21.72, 5.04 21.56, 4.53 21.36 M4.53 21.36 C3.99 21.07, 3.45 20.78, 2.39 20.22 M2.39 20.22 C1.79 19.81, 1.19 19.39, 0.86 19.17 M0.86 19.17 C0.61 18.96, 0.36 18.74, -0.22 18.27 M-0.22 18.27 C-0.33 18, -0.44 17.73, -0.58 17.41 M-0.58 17.41 C-0.55 11.11, -0.52 4.82, -0.5 1.05 M-0.5 1.05 C-0.36 0.75, -0.21 0.44, 0 0" stroke="transparent" stroke-width="1.5" fill="none" stroke-dasharray="1.5 7"></path></g></g><mask></mask><g stroke-linecap="round"><g transform="translate(232.9364271632994 60.36927795828592) rotate(0 -6.160527967108692 2.1934081956887894)" fill-rule="evenodd"><path d="M0 0 L-2.42 -0.01 L-2.72 -1.02 L-3.14 -1.91 L-4.19 -2.45 L-6.23 -2.62 L-7.84 -2.65 L-8.99 -2.46 L-9.51 -2.17 L-9.88 -1.66 L-9.92 -1.19 L-9.76 -0.71 L-9.57 -0.37 L-9.09 -0.01 L-6.39 0.58 L-3.14 1.17 L-2.03 1.41 L-0.98 1.86 L-0.29 2.46 L0.35 3.57 L0.59 4.22 L0.7 4.89 L0.59 5.53 L0.37 6.22 L-0.36 7.57 L-1.17 8.41 L-2.16 8.91 L-3.17 9.25 L-4.6 9.47 L-6.3 9.6 L-8.15 9.38 L-9.81 8.95 L-11.44 8.3 L-12.41 7.3 L-12.71 6.38 L-13.01 5.33 L-13.02 4.24 L-10.43 4.24 L-10.33 5.4 L-9.68 6.4 L-8.9 6.7 L-7.98 6.95 L-6.75 7.05 L-5.36 7.05 L-4.21 7.01 L-3.16 6.56 L-2.48 5.77 L-2.11 5.19 L-2.19 4.6 L-3.17 3.85 L-4.72 3.41 L-7.11 3.18 L-9.18 2.89 L-10.96 2.3 L-12.19 1.08 L-12.64 -0.5 L-12.44 -2.28 L-11.56 -3.65 L-10.15 -4.67 L-8.84 -4.98 L-7.54 -5.21 L-6.23 -5.18 L-4.9 -5 L-3.07 -4.77 L-1.36 -3.72 L-0.51 -2.86 L-0.06 -1.86 L0.13 -0.84 L0 0" stroke="none" stroke-width="0" fill="#82c91e" fill-rule="evenodd"></path><path d="M0 0 C-0.7 0, -1.39 -0.01, -2.42 -0.01 M0 0 C-0.58 0, -1.16 -0.01, -2.42 -0.01 M-2.42 -0.01 C-2.53 -0.37, -2.63 -0.72, -2.72 -1.02 M-2.42 -0.01 C-2.51 -0.32, -2.6 -0.62, -2.72 -1.02 M-2.72 -1.02 C-2.85 -1.29, -2.98 -1.56, -3.14 -1.91 M-2.72 -1.02 C-2.87 -1.34, -3.03 -1.67, -3.14 -1.91 M-3.14 -1.91 C-3.44 -2.06, -3.74 -2.22, -4.19 -2.45 M-3.14 -1.91 C-3.41 -2.04, -3.67 -2.18, -4.19 -2.45 M-4.19 -2.45 C-4.96 -2.51, -5.73 -2.58, -6.23 -2.62 M-4.19 -2.45 C-4.93 -2.51, -5.68 -2.58, -6.23 -2.62 M-6.23 -2.62 C-6.59 -2.63, -6.96 -2.63, -7.84 -2.65 M-6.23 -2.62 C-6.82 -2.63, -7.41 -2.64, -7.84 -2.65 M-7.84 -2.65 C-8.11 -2.6, -8.38 -2.56, -8.99 -2.46 M-7.84 -2.65 C-8.16 -2.6, -8.48 -2.54, -8.99 -2.46 M-8.99 -2.46 C-9.19 -2.35, -9.39 -2.24, -9.51 -2.17 M-8.99 -2.46 C-9.19 -2.35, -9.39 -2.24, -9.51 -2.17 M-9.51 -2.17 C-9.59 -2.06, -9.67 -1.95, -9.88 -1.66 M-9.51 -2.17 C-9.63 -2.02, -9.74 -1.86, -9.88 -1.66 M-9.88 -1.66 C-9.89 -1.54, -9.9 -1.43, -9.92 -1.19 M-9.88 -1.66 C-9.89 -1.52, -9.91 -1.37, -9.92 -1.19 M-9.92 -1.19 C-9.89 -1.09, -9.86 -0.99, -9.76 -0.71 M-9.92 -1.19 C-9.86 -1, -9.8 -0.82, -9.76 -0.71 M-9.76 -0.71 C-9.72 -0.64, -9.68 -0.57, -9.57 -0.37 M-9.76 -0.71 C-9.69 -0.58, -9.62 -0.45, -9.57 -0.37 M-9.57 -0.37 C-9.41 -0.25, -9.24 -0.12, -9.09 -0.01 M-9.57 -0.37 C-9.45 -0.28, -9.33 -0.19, -9.09 -0.01 M-9.09 -0.01 C-8.17 0.19, -7.26 0.39, -6.39 0.58 M-9.09 -0.01 C-8.12 0.2, -7.15 0.41, -6.39 0.58 M-6.39 0.58 C-5.37 0.76, -4.36 0.95, -3.14 1.17 M-6.39 0.58 C-5.16 0.8, -3.94 1.02, -3.14 1.17 M-3.14 1.17 C-2.91 1.22, -2.68 1.27, -2.03 1.41 M-3.14 1.17 C-2.7 1.26, -2.27 1.36, -2.03 1.41 M-2.03 1.41 C-1.61 1.59, -1.2 1.77, -0.98 1.86 M-2.03 1.41 C-1.62 1.59, -1.22 1.76, -0.98 1.86 M-0.98 1.86 C-0.79 2.03, -0.6 2.19, -0.29 2.46 M-0.98 1.86 C-0.75 2.06, -0.52 2.26, -0.29 2.46 M-0.29 2.46 C-0.12 2.77, 0.06 3.07, 0.35 3.57 M-0.29 2.46 C-0.11 2.77, 0.07 3.08, 0.35 3.57 M0.35 3.57 C0.41 3.75, 0.48 3.94, 0.59 4.22 M0.35 3.57 C0.41 3.75, 0.48 3.92, 0.59 4.22 M0.59 4.22 C0.61 4.36, 0.64 4.51, 0.7 4.89 M0.59 4.22 C0.61 4.36, 0.63 4.49, 0.7 4.89 M0.7 4.89 C0.67 5.06, 0.64 5.24, 0.59 5.53 M0.7 4.89 C0.66 5.12, 0.62 5.36, 0.59 5.53 M0.59 5.53 C0.52 5.73, 0.46 5.92, 0.37 6.22 M0.59 5.53 C0.52 5.72, 0.46 5.91, 0.37 6.22 M0.37 6.22 C0.09 6.72, -0.18 7.22, -0.36 7.57 M0.37 6.22 C0.19 6.53, 0.02 6.85, -0.36 7.57 M-0.36 7.57 C-0.62 7.84, -0.88 8.11, -1.17 8.41 M-0.36 7.57 C-0.66 7.88, -0.96 8.19, -1.17 8.41 M-1.17 8.41 C-1.37 8.52, -1.58 8.62, -2.16 8.91 M-1.17 8.41 C-1.52 8.59, -1.88 8.77, -2.16 8.91 M-2.16 8.91 C-2.54 9.04, -2.92 9.17, -3.17 9.25 M-2.16 8.91 C-2.47 9.02, -2.79 9.12, -3.17 9.25 M-3.17 9.25 C-3.57 9.31, -3.98 9.37, -4.6 9.47 M-3.17 9.25 C-3.55 9.31, -3.93 9.37, -4.6 9.47 M-4.6 9.47 C-5.06 9.5, -5.52 9.54, -6.3 9.6 M-4.6 9.47 C-5.09 9.5, -5.58 9.54, -6.3 9.6 M-6.3 9.6 C-7.04 9.51, -7.77 9.43, -8.15 9.38 M-6.3 9.6 C-6.95 9.52, -7.61 9.45, -8.15 9.38 M-8.15 9.38 C-8.53 9.29, -8.92 9.19, -9.81 8.95 M-8.15 9.38 C-8.57 9.28, -8.99 9.17, -9.81 8.95 M-9.81 8.95 C-10.22 8.79, -10.63 8.62, -11.44 8.3 M-9.81 8.95 C-10.26 8.77, -10.72 8.59, -11.44 8.3 M-11.44 8.3 C-11.7 8.03, -11.97 7.76, -12.41 7.3 M-11.44 8.3 C-11.75 7.98, -12.06 7.66, -12.41 7.3 M-12.41 7.3 C-12.48 7.1, -12.54 6.89, -12.71 6.38 M-12.41 7.3 C-12.51 6.98, -12.62 6.65, -12.71 6.38 M-12.71 6.38 C-12.82 5.97, -12.94 5.56, -13.01 5.33 M-12.71 6.38 C-12.81 6.01, -12.92 5.65, -13.01 5.33 M-13.01 5.33 C-13.01 4.91, -13.02 4.49, -13.02 4.24 M-13.01 5.33 C-13.01 4.95, -13.02 4.57, -13.02 4.24 M-13.02 4.24 C-12.03 4.24, -11.04 4.24, -10.43 4.24 M-13.02 4.24 C-12.06 4.24, -11.09 4.24, -10.43 4.24 M-10.43 4.24 C-10.4 4.59, -10.37 4.94, -10.33 5.4 M-10.43 4.24 C-10.4 4.59, -10.37 4.94, -10.33 5.4 M-10.33 5.4 C-10.18 5.63, -10.03 5.87, -9.68 6.4 M-10.33 5.4 C-10.09 5.78, -9.84 6.15, -9.68 6.4 M-9.68 6.4 C-9.5 6.47, -9.32 6.54, -8.9 6.7 M-9.68 6.4 C-9.45 6.49, -9.21 6.58, -8.9 6.7 M-8.9 6.7 C-8.61 6.78, -8.32 6.86, -7.98 6.95 M-8.9 6.7 C-8.62 6.78, -8.33 6.86, -7.98 6.95 M-7.98 6.95 C-7.6 6.98, -7.23 7.01, -6.75 7.05 M-7.98 6.95 C-7.62 6.98, -7.26 7.01, -6.75 7.05 M-6.75 7.05 C-6.2 7.05, -5.65 7.05, -5.36 7.05 M-6.75 7.05 C-6.37 7.05, -6 7.05, -5.36 7.05 M-5.36 7.05 C-4.93 7.03, -4.5 7.02, -4.21 7.01 M-5.36 7.05 C-5.02 7.04, -4.68 7.03, -4.21 7.01 M-4.21 7.01 C-3.97 6.91, -3.73 6.8, -3.16 6.56 M-4.21 7.01 C-3.86 6.86, -3.51 6.71, -3.16 6.56 M-3.16 6.56 C-2.92 6.27, -2.68 5.99, -2.48 5.77 M-3.16 6.56 C-2.9 6.26, -2.65 5.96, -2.48 5.77 M-2.48 5.77 C-2.35 5.56, -2.21 5.35, -2.11 5.19 M-2.48 5.77 C-2.36 5.58, -2.24 5.4, -2.11 5.19 M-2.11 5.19 C-2.13 5.03, -2.15 4.87, -2.19 4.6 M-2.11 5.19 C-2.13 5.03, -2.15 4.88, -2.19 4.6 M-2.19 4.6 C-2.52 4.35, -2.84 4.09, -3.17 3.85 M-2.19 4.6 C-2.39 4.44, -2.6 4.29, -3.17 3.85 M-3.17 3.85 C-3.52 3.75, -3.88 3.65, -4.72 3.41 M-3.17 3.85 C-3.7 3.7, -4.24 3.54, -4.72 3.41 M-4.72 3.41 C-5.37 3.35, -6.02 3.28, -7.11 3.18 M-4.72 3.41 C-5.55 3.33, -6.39 3.25, -7.11 3.18 M-7.11 3.18 C-7.58 3.12, -8.04 3.05, -9.18 2.89 M-7.11 3.18 C-7.68 3.1, -8.24 3.03, -9.18 2.89 M-9.18 2.89 C-9.7 2.72, -10.22 2.55, -10.96 2.3 M-9.18 2.89 C-9.61 2.75, -10.04 2.61, -10.96 2.3 M-10.96 2.3 C-11.38 1.88, -11.81 1.46, -12.19 1.08 M-10.96 2.3 C-11.39 1.87, -11.82 1.45, -12.19 1.08 M-12.19 1.08 C-12.33 0.59, -12.47 0.11, -12.64 -0.5 M-12.19 1.08 C-12.35 0.53, -12.51 -0.03, -12.64 -0.5 M-12.64 -0.5 C-12.57 -1.16, -12.49 -1.82, -12.44 -2.28 M-12.64 -0.5 C-12.57 -1.12, -12.5 -1.73, -12.44 -2.28 M-12.44 -2.28 C-12.25 -2.57, -12.07 -2.85, -11.56 -3.65 M-12.44 -2.28 C-12.18 -2.68, -11.93 -3.08, -11.56 -3.65 M-11.56 -3.65 C-11.04 -4.03, -10.51 -4.41, -10.15 -4.67 M-11.56 -3.65 C-11.16 -3.94, -10.76 -4.23, -10.15 -4.67 M-10.15 -4.67 C-9.76 -4.76, -9.37 -4.85, -8.84 -4.98 M-10.15 -4.67 C-9.82 -4.75, -9.49 -4.82, -8.84 -4.98 M-8.84 -4.98 C-8.44 -5.05, -8.03 -5.12, -7.54 -5.21 M-8.84 -4.98 C-8.51 -5.04, -8.18 -5.09, -7.54 -5.21 M-7.54 -5.21 C-7.22 -5.2, -6.89 -5.2, -6.23 -5.18 M-7.54 -5.21 C-7.06 -5.2, -6.57 -5.19, -6.23 -5.18 M-6.23 -5.18 C-5.91 -5.14, -5.59 -5.09, -4.9 -5 M-6.23 -5.18 C-5.7 -5.11, -5.18 -5.04, -4.9 -5 M-4.9 -5 C-4.29 -4.92, -3.68 -4.85, -3.07 -4.77 M-4.9 -5 C-4.28 -4.92, -3.65 -4.84, -3.07 -4.77 M-3.07 -4.77 C-2.56 -4.46, -2.06 -4.15, -1.36 -3.72 M-3.07 -4.77 C-2.53 -4.44, -1.98 -4.1, -1.36 -3.72 M-1.36 -3.72 C-1.18 -3.53, -0.99 -3.34, -0.51 -2.86 M-1.36 -3.72 C-1.16 -3.52, -0.97 -3.32, -0.51 -2.86 M-0.51 -2.86 C-0.37 -2.54, -0.23 -2.23, -0.06 -1.86 M-0.51 -2.86 C-0.38 -2.58, -0.26 -2.3, -0.06 -1.86 M-0.06 -1.86 C0.01 -1.51, 0.08 -1.15, 0.13 -0.84 M-0.06 -1.86 C-0.01 -1.6, 0.04 -1.34, 0.13 -0.84 M0.13 -0.84 C0.1 -0.66, 0.07 -0.47, 0 0 M0.13 -0.84 C0.1 -0.66, 0.08 -0.49, 0 0 M0 0 C0 0, 0 0, 0 0 M0 0 C0 0, 0 0, 0 0" stroke="transparent" stroke-width="1" fill="none"></path></g></g><mask></mask><g stroke-linecap="round" transform="translate(45.70850020299167 263.071182024657) rotate(0 54.90733479043115 35.32499860643111)"><path d="M17.66 0 L92.15 0 L96.29 0.28 L102.92 2.48 L107.33 6.9 L109.54 13.52 L109.81 52.99 L109.54 57.13 L107.33 63.75 L102.92 68.17 L96.29 70.37 L92.15 70.65 L17.66 70.65 L13.52 70.37 L6.9 68.17 L2.48 63.75 L0.28 57.13 L0.28 13.52 L2.48 6.9 L6.9 2.48 L13.52 0.28 L17.66 0" stroke="none" stroke-width="0" fill="#ffffff"></path><path d="M17.66 0 M17.66 0 C41.2 0, 64.74 0, 92.15 0 M92.15 0 C103.93 0, 109.81 5.89, 109.81 17.66 M109.81 17.66 C109.81 29.52, 109.81 41.39, 109.81 52.99 M109.81 52.99 C109.81 64.76, 103.93 70.65, 92.15 70.65 M92.15 70.65 C63.63 70.65, 35.1 70.65, 17.66 70.65 M17.66 70.65 C5.89 70.65, 0 64.76, 0 52.99 M0 52.99 C0 39.41, 0 25.84, 0 17.66 M0 17.66 C0 5.89, 5.89 0, 17.66 0" stroke="#000000" stroke-width="1.5" fill="none" stroke-dasharray="1.5 7"></path></g><g transform="translate(53.049964303020715 269.58113119094355) rotate(0 48 28.5)"><text x="48" y="13" font-family="Virgil, Segoe UI Emoji" font-size="15.093512093461456px" fill="#000000" text-anchor="middle" style="white-space: pre;" direction="ltr">1 Thread</text><text x="48" y="32" font-family="Virgil, Segoe UI Emoji" font-size="15.093512093461456px" fill="#000000" text-anchor="middle" style="white-space: pre;" direction="ltr">+</text><text x="48" y="51" font-family="Virgil, Segoe UI Emoji" font-size="15.093512093461456px" fill="#000000" text-anchor="middle" style="white-space: pre;" direction="ltr">1 Event Loop</text></g><g stroke-linecap="round" transform="translate(260.01012210468934 265.00976894415226) rotate(0 54.90733479043115 35.32499860643111)"><path d="M17.66 0 L92.15 0 L96.29 0.28 L102.92 2.48 L107.33 6.9 L109.54 13.52 L109.81 52.99 L109.54 57.13 L107.33 63.75 L102.92 68.17 L96.29 70.37 L92.15 70.65 L17.66 70.65 L13.52 70.37 L6.9 68.17 L2.48 63.75 L0.28 57.13 L0.28 13.52 L2.48 6.9 L6.9 2.48 L13.52 0.28 L17.66 0" stroke="none" stroke-width="0" fill="#ffffff"></path><path d="M17.66 0 M17.66 0 C40.43 0, 63.2 0, 92.15 0 M92.15 0 C103.93 0, 109.81 5.89, 109.81 17.66 M109.81 17.66 C109.81 27.99, 109.81 38.32, 109.81 52.99 M109.81 52.99 C109.81 64.76, 103.93 70.65, 92.15 70.65 M92.15 70.65 C63.2 70.65, 34.24 70.65, 17.66 70.65 M17.66 70.65 C5.89 70.65, 0 64.76, 0 52.99 M0 52.99 C0 45.13, 0 37.27, 0 17.66 M0 17.66 C0 5.89, 5.89 0, 17.66 0" stroke="#000000" stroke-width="1.5" fill="none" stroke-dasharray="1.5 7"></path></g><g transform="translate(267.35158620471884 271.5197181104386) rotate(0 48 28.5)"><text x="48" y="13" font-family="Virgil, Segoe UI Emoji" font-size="15.093512093461456px" fill="#000000" text-anchor="middle" style="white-space: pre;" direction="ltr">1 Thread</text><text x="48" y="32" font-family="Virgil, Segoe UI Emoji" font-size="15.093512093461456px" fill="#000000" text-anchor="middle" style="white-space: pre;" direction="ltr">+</text><text x="48" y="51" font-family="Virgil, Segoe UI Emoji" font-size="15.093512093461456px" fill="#000000" text-anchor="middle" style="white-space: pre;" direction="ltr">1 Event Loop</text></g><g stroke-linecap="round" transform="translate(157.39708247725594 111.80868767635411) rotate(0 54.90733479043115 35.32499860643111)"><path d="M17.66 0 L92.15 0 L96.29 0.28 L102.92 2.48 L107.33 6.9 L109.54 13.52 L109.81 52.99 L109.54 57.13 L107.33 63.75 L102.92 68.17 L96.29 70.37 L92.15 70.65 L17.66 70.65 L13.52 70.37 L6.9 68.17 L2.48 63.75 L0.28 57.13 L0.28 13.52 L2.48 6.9 L6.9 2.48 L13.52 0.28 L17.66 0" stroke="none" stroke-width="0" fill="#ffffff"></path><path d="M17.66 0 M17.66 0 C36.33 0, 54.99 0, 92.15 0 M92.15 0 C103.93 0, 109.81 5.89, 109.81 17.66 M109.81 17.66 C109.81 30.86, 109.81 44.05, 109.81 52.99 M109.81 52.99 C109.81 64.76, 103.93 70.65, 92.15 70.65 M92.15 70.65 C66.27 70.65, 40.38 70.65, 17.66 70.65 M17.66 70.65 C5.89 70.65, 0 64.76, 0 52.99 M0 52.99 C0 43.14, 0 33.3, 0 17.66 M0 17.66 C0 5.89, 5.89 0, 17.66 0" stroke="#000000" stroke-width="1.5" fill="none" stroke-dasharray="1.5 7"></path></g><g transform="translate(164.73854657728498 118.3186368426409) rotate(0 48 28.5)"><text x="48" y="13" font-family="Virgil, Segoe UI Emoji" font-size="15.093512093461456px" fill="#000000" text-anchor="middle" style="white-space: pre;" direction="ltr">1 Thread</text><text x="48" y="32" font-family="Virgil, Segoe UI Emoji" font-size="15.093512093461456px" fill="#000000" text-anchor="middle" style="white-space: pre;" direction="ltr">+</text><text x="48" y="51" font-family="Virgil, Segoe UI Emoji" font-size="15.093512093461456px" fill="#000000" text-anchor="middle" style="white-space: pre;" direction="ltr">1 Event Loop</text></g><g transform="translate(154.42517356710232 83.22469428734871) rotate(0 58.5 12.5)"><text x="58.5" y="18" font-family="Virgil, Segoe UI Emoji" font-size="20px" fill="#000000" text-anchor="middle" style="white-space: pre;" direction="ltr">main thread</text></g><g stroke-linecap="round"><g transform="translate(101.76353546554765 263.0270872675667) rotate(0 108.26257339919903 -14.269543327221186)"><path d="M0 0 C0 -10.24, 0 -20.47, 0 -29.94 M0 0 C0 -6.58, 0 -13.16, 0 -29.94 M0 -29.94 C57.64 -29.77, 115.29 -29.6, 215.94 -29.3 M0 -29.94 C57.58 -29.77, 115.16 -29.6, 215.94 -29.3 M215.94 -29.3 C216.1 -20.97, 216.26 -12.63, 216.53 1.4 M215.94 -29.3 C216.09 -21.28, 216.24 -13.26, 216.53 1.4" stroke="#000000" stroke-width="1" fill="none"></path></g><g transform="translate(101.76353546554765 263.0270872675667) rotate(0 108.26257339919903 -14.269543327221186)"><path d="M0 0 L-6.34 -13.59 L6.34 -13.59 L0 0" stroke="none" stroke-width="0" fill="#000000" fill-rule="evenodd"></path><path d="M0 0 C-2.17 -4.65, -4.34 -9.3, -6.34 -13.59 M0 0 C-1.39 -2.99, -2.79 -5.98, -6.34 -13.59 M-6.34 -13.59 C-2.95 -13.59, 0.43 -13.59, 6.34 -13.59 M-6.34 -13.59 C-2.96 -13.59, 0.42 -13.59, 6.34 -13.59 M6.34 -13.59 C4.62 -9.9, 2.9 -6.21, 0 0 M6.34 -13.59 C4.68 -10.04, 3.03 -6.49, 0 0 M0 0 C0 0, 0 0, 0 0 M0 0 C0 0, 0 0, 0 0" stroke="#000000" stroke-width="1" fill="none"></path></g><g transform="translate(101.76353546554765 263.0270872675667) rotate(0 108.26257339919903 -14.269543327221186)"><path d="M216.53 1.4 L209.93 -12.07 L222.6 -12.31 L216.53 1.4" stroke="none" stroke-width="0" fill="#000000" fill-rule="evenodd"></path><path d="M216.53 1.4 C214.27 -3.2, 212.01 -7.81, 209.93 -12.07 M216.53 1.4 C215.07 -1.56, 213.62 -4.52, 209.93 -12.07 M209.93 -12.07 C213.31 -12.13, 216.69 -12.2, 222.6 -12.31 M209.93 -12.07 C213.31 -12.13, 216.69 -12.2, 222.6 -12.31 M222.6 -12.31 C220.95 -8.59, 219.3 -4.86, 216.53 1.4 M222.6 -12.31 C221.02 -8.73, 219.43 -5.15, 216.53 1.4 M216.53 1.4 C216.53 1.4, 216.53 1.4, 216.53 1.4 M216.53 1.4 C216.53 1.4, 216.53 1.4, 216.53 1.4" stroke="#000000" stroke-width="1" fill="none"></path></g></g><mask></mask><g stroke-linecap="round"><g transform="translate(212.2683234717406 182.20233621172065) rotate(0 -0.1767953029348064 25.482368188014334)"><path d="M0 0 C-0.08 11.96, -0.17 23.91, -0.35 50.96 M0 0 C-0.08 10.89, -0.15 21.79, -0.35 50.96" stroke="#000000" stroke-width="1" fill="none"></path></g></g><mask></mask><g transform="translate(137.73938556458234 234.78100896741967) rotate(0 74.5 12.5)"><text x="74.5" y="18" font-family="Virgil, Segoe UI Emoji" font-size="20px" fill="#000000" text-anchor="middle" style="white-space: pre;" direction="ltr">worker threads</text></g></svg>