<svg version="1.1" xmlns="http://www.w3.org/2000/svg" viewBox="0 0 607.9039288090598 371.875313552428" width="1215.8078576181197" height="743.750627104856">
  <!-- svg-source:excalidraw -->
  
  <defs>
    <style class="style-fonts">
      @font-face {
        font-family: "Virgil";
        src: url("https://excalidraw.com/Virgil.woff2");
      }
      @font-face {
        font-family: "Cascadia";
        src: url("https://excalidraw.com/Cascadia.woff2");
      }
    </style>
  </defs>
  <g stroke-linecap="round" transform="translate(43.174703049463915 154.1070083073546) rotate(0 75.36707456441377 56.103443278004875)"><path d="M28.05 0 L122.68 0 L134.96 1.75 L139.78 3.94 L143.72 7.01 L146.79 10.96 L148.98 15.78 L150.73 28.05 L150.3 90.73 L148.98 96.43 L146.79 101.25 L143.72 105.19 L139.78 108.26 L134.96 110.45 L122.68 112.21 L28.05 112.21 L15.78 110.45 L10.96 108.26 L7.01 105.19 L3.94 101.25 L1.75 96.43 L0.44 90.73 L0.44 21.48 L1.75 15.78 L3.94 10.96 L7.01 7.01 L10.96 3.94 L15.78 1.75 L28.05 0" stroke="none" stroke-width="0" fill="#ffffff"></path><path d="M28.05 0 M28.05 0 C58.52 0, 88.98 0, 122.68 0 M28.05 0 C59.95 0, 91.85 0, 122.68 0 M122.68 0 C141.38 0, 150.73 9.35, 150.73 28.05 M122.68 0 C141.38 0, 150.73 9.35, 150.73 28.05 M150.73 28.05 C150.73 44.87, 150.73 61.69, 150.73 84.16 M150.73 28.05 C150.73 42.88, 150.73 57.71, 150.73 84.16 M150.73 84.16 C150.73 102.86, 141.38 112.21, 122.68 112.21 M150.73 84.16 C150.73 102.86, 141.38 112.21, 122.68 112.21 M122.68 112.21 C101.72 112.21, 80.75 112.21, 28.05 112.21 M122.68 112.21 C99.75 112.21, 76.82 112.21, 28.05 112.21 M28.05 112.21 C9.35 112.21, 0 102.86, 0 84.16 M28.05 112.21 C9.35 112.21, 0 102.86, 0 84.16 M0 84.16 C0 63.91, 0 43.66, 0 28.05 M0 84.16 C0 68.13, 0 52.11, 0 28.05 M0 28.05 C0 9.35, 9.35 0, 28.05 0 M0 28.05 C0 9.35, 9.35 0, 28.05 0" stroke="#28343c" stroke-width="2" fill="none"></path></g><g stroke-linecap="round" transform="translate(63.105910013232915 176.81344513212616) rotate(0 54.90733479043115 35.32499860643111)"><path d="M17.66 0 L92.15 0 L96.29 0.28 L102.92 2.48 L107.33 6.9 L109.54 13.52 L109.81 52.99 L109.54 57.13 L107.33 63.75 L102.92 68.17 L96.29 70.37 L92.15 70.65 L17.66 70.65 L13.52 70.37 L6.9 68.17 L2.48 63.75 L0.28 57.13 L0.28 13.52 L2.48 6.9 L6.9 2.48 L13.52 0.28 L17.66 0" stroke="none" stroke-width="0" fill="#ffffff"></path><path d="M17.66 0 M17.66 0 C42.7 0, 67.73 0, 92.15 0 M92.15 0 C103.93 0, 109.81 5.89, 109.81 17.66 M109.81 17.66 C109.81 27.06, 109.81 36.45, 109.81 52.99 M109.81 52.99 C109.81 64.76, 103.93 70.65, 92.15 70.65 M92.15 70.65 C71.34 70.65, 50.53 70.65, 17.66 70.65 M17.66 70.65 C5.89 70.65, 0 64.76, 0 52.99 M0 52.99 C0 45.71, 0 38.44, 0 17.66 M0 17.66 C0 5.89, 5.89 0, 17.66 0" stroke="#000000" stroke-width="1.5" fill="none" stroke-dasharray="1.5 7"></path></g><g transform="translate(70.44737411326196 183.32339429841295) rotate(0 48 28.5)"><text x="48" y="13" font-family="Virgil, Segoe UI Emoji" font-size="15.093512093461456px" fill="#000000" text-anchor="middle" style="white-space: pre;" direction="ltr">1 Thread</text><text x="48" y="32" font-family="Virgil, Segoe UI Emoji" font-size="15.093512093461456px" fill="#000000" text-anchor="middle" style="white-space: pre;" direction="ltr">+</text><text x="48" y="51" font-family="Virgil, Segoe UI Emoji" font-size="15.093512093461456px" fill="#000000" text-anchor="middle" style="white-space: pre;" direction="ltr">1 Event Loop</text></g><g stroke-linecap="round" transform="translate(10 117.44291996839956) rotate(0 78.94394024193798 24.566470914449155)"><path d="M0 0 L157.89 0 L157.89 49.13 L0 49.13" stroke="none" stroke-width="0" fill="#ffffff"></path><path d="M0 0 C31.95 0, 63.91 0, 157.89 0 M0 0 C42.58 0, 85.16 0, 157.89 0 M157.89 0 C157.89 18, 157.89 36.01, 157.89 49.13 M157.89 0 C157.89 13.03, 157.89 26.07, 157.89 49.13 M157.89 49.13 C103.33 49.13, 48.77 49.13, 0 49.13 M157.89 49.13 C123.41 49.13, 88.94 49.13, 0 49.13 M0 49.13 C0 29.48, 0 9.83, 0 0 M0 49.13 C0 39.26, 0 29.38, 0 0" stroke="transparent" stroke-width="4" fill="none"></path></g><g stroke-linecap="round"><g transform="translate(50.23443899434096 146.15972617093303) rotate(0 -10.316528426051718 4.741528514209676)" fill-rule="evenodd"><path d="M0 0 L-0.11 15.56 L-6.93 11.78 L-7 3.74 L-10.37 1.82 L-13.85 4.07 L-13.93 11.85 L-20.63 15.6 L-20.63 0.04 L-10.34 -6.11 L0 0" stroke="none" stroke-width="0" fill="#263238" fill-rule="evenodd"></path><path d="M0 0 C-0.03 4.33, -0.06 8.65, -0.11 15.56 M-0.11 15.56 C-2.79 14.07, -5.48 12.58, -6.93 11.78 M-6.93 11.78 C-6.95 9.8, -6.96 7.81, -7 3.74 M-7 3.74 C-8.15 3.09, -9.29 2.43, -10.37 1.82 M-10.37 1.82 C-11.36 2.46, -12.36 3.1, -13.85 4.07 M-13.85 4.07 C-13.87 5.98, -13.89 7.89, -13.93 11.85 M-13.93 11.85 C-15.59 12.78, -17.24 13.7, -20.63 15.6 M-20.63 15.6 C-20.63 11.27, -20.63 6.95, -20.63 0.04 M-20.63 0.04 C-16.61 -2.36, -12.59 -4.77, -10.34 -6.11 M-10.34 -6.11 C-7.95 -4.7, -5.57 -3.29, 0 0 M0 0 C0 0, 0 0, 0 0" stroke="transparent" stroke-width="1.5" fill="none" stroke-dasharray="1.5 7"></path></g></g><mask></mask><g stroke-linecap="round"><g transform="translate(57.235603991131484 146.2338105767517) rotate(0 10.46470317264857 5.908388852428175)" fill-rule="evenodd"><path d="M0 0 L10.19 -6.15 L21.08 0.15 L21 11.71 L10.37 17.97 L-0.15 11.59 L0 0" stroke="none" stroke-width="0" fill="#82c91e" fill-rule="evenodd"></path><path d="M0 0 C2.57 -1.55, 5.15 -3.11, 10.19 -6.15 M10.19 -6.15 C14.16 -3.85, 18.13 -1.56, 21.08 0.15 M21.08 0.15 C21.06 3.48, 21.03 6.81, 21 11.71 M21 11.71 C17.36 13.85, 13.72 16, 10.37 17.97 M10.37 17.97 C7.32 16.12, 4.27 14.27, -0.15 11.59 M-0.15 11.59 C-0.1 7.7, -0.05 3.8, 0 0 M0 0 C0 0, 0 0, 0 0" stroke="transparent" stroke-width="1.5" fill="none" stroke-dasharray="1.5 7"></path></g></g><mask></mask><g stroke-linecap="round"><g transform="translate(98.5625686798453 142.15963408854145) rotate(0 -3.302731335043518 3.4038353397619403)" fill-rule="evenodd"><path d="M0 0 L-3.37 -1.69 L-13.68 4.15 L-13.65 16.08 L-3.37 22.04 L6.98 16.01 L7.08 -11.56 L0.27 -15.23 L0 0" stroke="none" stroke-width="0" fill="#263238" fill-rule="evenodd"></path><path d="M0 0 C-0.87 -0.43, -1.73 -0.87, -3.37 -1.69 M-3.37 -1.69 C-6.5 0.08, -9.62 1.85, -13.68 4.15 M-13.68 4.15 C-13.67 8.91, -13.66 13.67, -13.65 16.08 M-13.65 16.08 C-11.01 17.61, -8.37 19.14, -3.37 22.04 M-3.37 22.04 C-0.9 20.6, 1.58 19.15, 6.98 16.01 M6.98 16.01 C7.02 5.09, 7.06 -5.82, 7.08 -11.56 M7.08 -11.56 C5.26 -12.54, 3.44 -13.52, 0.27 -15.23 M0.27 -15.23 C0.18 -10.1, 0.09 -4.97, 0 0 M0 0 C0 0, 0 0, 0 0" stroke="transparent" stroke-width="1.5" fill="none" stroke-dasharray="1.5 7"></path></g></g><mask></mask><g stroke-linecap="round"><g transform="translate(112.27901558633539 146.30489751063465) rotate(0 10.430563667692468 5.746077858617923)" fill-rule="evenodd"><path d="M0 0 L10.48 -6.07 L20.86 0.03 L20.83 3.54 L13.88 7.79 L13.92 3.81 L10.55 1.79 L6.98 3.91 L6.94 7.79 L16.92 13.75 L10.68 17.56 L0.1 11.53 L0 0" stroke="none" stroke-width="0" fill="#263238" fill-rule="evenodd"></path><path d="M0 0 C2.47 -1.43, 4.95 -2.86, 10.48 -6.07 M10.48 -6.07 C13.05 -4.56, 15.61 -3.05, 20.86 0.03 M20.86 0.03 C20.85 0.77, 20.85 1.51, 20.83 3.54 M20.83 3.54 C19.4 4.41, 17.97 5.28, 13.88 7.79 M13.88 7.79 C13.9 6.34, 13.91 4.9, 13.92 3.81 M13.92 3.81 C12.99 3.25, 12.06 2.69, 10.55 1.79 M10.55 1.79 C9.74 2.27, 8.93 2.75, 6.98 3.91 M6.98 3.91 C6.97 5.02, 6.96 6.12, 6.94 7.79 M6.94 7.79 C9.86 9.53, 12.78 11.28, 16.92 13.75 M16.92 13.75 C15.48 14.63, 14.03 15.51, 10.68 17.56 M10.68 17.56 C8.54 16.34, 6.4 15.12, 0.1 11.53 M0.1 11.53 C0.06 7.18, 0.02 2.83, 0 0 M0 0 C0 0, 0 0, 0 0" stroke="transparent" stroke-width="1.5" fill="none" stroke-dasharray="1.5 7"></path></g></g><mask></mask><g stroke-linecap="round"><g transform="translate(95.10229332782137 148.23027724191206) rotate(0 0.07713318966011684 4.022787902571508)" fill-rule="evenodd"><path d="M0 0 L3.62 2.08 L3.62 5.89 L0.22 8.05 L-3.47 6.11 L-3.45 1.98 L0 0" stroke="none" stroke-width="0" fill="#ffffff" fill-rule="evenodd"></path><path d="M0 0 C0.93 0.54, 1.87 1.07, 3.62 2.08 M3.62 2.08 C3.62 3.1, 3.62 4.12, 3.62 5.89 M3.62 5.89 C2.4 6.66, 1.19 7.43, 0.22 8.05 M0.22 8.05 C-1.15 7.33, -2.52 6.61, -3.47 6.11 M-3.47 6.11 C-3.46 4.6, -3.45 3.09, -3.45 1.98 M-3.45 1.98 C-2.22 1.28, -0.99 0.57, 0 0 M0 0 C0 0, 0 0, 0 0" stroke="transparent" stroke-width="1.5" fill="none" stroke-dasharray="1.5 7"></path></g></g><mask></mask><g stroke-linecap="round"><g transform="translate(140.27061560785933 145.93419605283907) rotate(0 10.17720521958654 6.120792852800264)" fill-rule="evenodd"><path d="M0 0 L0.47 -0.51 L1.23 -1.04 L4.79 -3.06 L9.56 -5.77 L10.66 -5.82 L12.66 -4.67 L15.4 -3.13 L18.18 -1.58 L19.62 -0.73 L20.35 -0.2 L20.73 0.58 L20.73 12.05 L15.78 15.05 L10.89 17.76 L10.23 18.06 L9.47 17.76 L6.19 15.82 L6.19 15.51 L7.65 14.78 L9.94 16.18 L10.26 16.19 L14.39 13.9 L18.67 11.45 L19.04 11.16 L19.04 1.18 L18.84 0.74 L14.48 -1.79 L10.11 -4.19 L5.83 -1.74 L1.27 1.1 L1.2 10.87 L2.54 11.97 L3.99 12.83 L4.45 12.9 L5.43 12.54 L5.66 12.22 L5.65 1.57 L6.59 1.52 L7.58 1.55 L7.48 12.65 L6.47 14.07 L5.17 14.69 L3.83 14.43 L2.99 14.09 L1.58 13.34 L0.57 12.65 L-0.14 12.05 L-0.38 11.49 L-0.33 0.69" stroke="none" stroke-width="0" fill="#82c91e" fill-rule="evenodd"></path><path d="M0 0 C0.14 -0.15, 0.28 -0.31, 0.47 -0.51 M0.47 -0.51 C0.68 -0.66, 0.9 -0.81, 1.23 -1.04 M1.23 -1.04 C2.04 -1.5, 2.85 -1.96, 4.79 -3.06 M4.79 -3.06 C6.52 -4.04, 8.24 -5.02, 9.56 -5.77 M9.56 -5.77 C9.96 -5.79, 10.37 -5.81, 10.66 -5.82 M10.66 -5.82 C11.1 -5.56, 11.55 -5.31, 12.66 -4.67 M12.66 -4.67 C13.43 -4.23, 14.2 -3.8, 15.4 -3.13 M15.4 -3.13 C16.05 -2.77, 16.69 -2.41, 18.18 -1.58 M18.18 -1.58 C18.61 -1.33, 19.03 -1.08, 19.62 -0.73 M19.62 -0.73 C19.77 -0.62, 19.93 -0.5, 20.35 -0.2 M20.35 -0.2 C20.47 0.05, 20.59 0.29, 20.73 0.58 M20.73 0.58 C20.73 4.41, 20.73 8.23, 20.73 12.05 M20.73 12.05 C19.63 12.72, 18.53 13.39, 15.78 15.05 M15.78 15.05 C14.78 15.6, 13.79 16.15, 10.89 17.76 M10.89 17.76 C10.7 17.85, 10.5 17.94, 10.23 18.06 M10.23 18.06 C9.95 17.95, 9.66 17.84, 9.47 17.76 M9.47 17.76 C8.2 17.01, 6.93 16.26, 6.19 15.82 M6.19 15.82 C6.19 15.76, 6.19 15.69, 6.19 15.51 M6.19 15.51 C6.73 15.24, 7.27 14.97, 7.65 14.78 M7.65 14.78 C8.13 15.07, 8.6 15.36, 9.94 16.18 M9.94 16.18 C10.04 16.18, 10.14 16.18, 10.26 16.19 M10.26 16.19 C11.45 15.53, 12.64 14.87, 14.39 13.9 M14.39 13.9 C15.65 13.18, 16.91 12.46, 18.67 11.45 M18.67 11.45 C18.77 11.37, 18.87 11.29, 19.04 11.16 M19.04 11.16 C19.04 8.99, 19.04 6.82, 19.04 1.18 M19.04 1.18 C18.96 1.01, 18.89 0.85, 18.84 0.74 M18.84 0.74 C17.95 0.23, 17.06 -0.29, 14.48 -1.79 M14.48 -1.79 C12.98 -2.61, 11.48 -3.43, 10.11 -4.19 M10.11 -4.19 C9.21 -3.67, 8.31 -3.16, 5.83 -1.74 M5.83 -1.74 C4.59 -0.97, 3.35 -0.2, 1.27 1.1 M1.27 1.1 C1.26 3.3, 1.24 5.5, 1.2 10.87 M1.2 10.87 C1.69 11.27, 2.18 11.68, 2.54 11.97 M2.54 11.97 C2.95 12.22, 3.37 12.46, 3.99 12.83 M3.99 12.83 C4.09 12.84, 4.18 12.86, 4.45 12.9 M4.45 12.9 C4.72 12.8, 4.99 12.7, 5.43 12.54 M5.43 12.54 C5.49 12.46, 5.54 12.38, 5.66 12.22 M5.66 12.22 C5.66 8.63, 5.65 5.05, 5.65 1.57 M5.65 1.57 C5.93 1.56, 6.22 1.54, 6.59 1.52 M6.59 1.52 C6.85 1.53, 7.12 1.54, 7.58 1.55 M7.58 1.55 C7.55 4.3, 7.53 7.04, 7.48 12.65 M7.48 12.65 C7.14 13.13, 6.79 13.61, 6.47 14.07 M6.47 14.07 C6.06 14.27, 5.65 14.46, 5.17 14.69 M5.17 14.69 C4.77 14.61, 4.37 14.54, 3.83 14.43 M3.83 14.43 C3.5 14.3, 3.18 14.17, 2.99 14.09 M2.99 14.09 C2.47 13.82, 1.95 13.54, 1.58 13.34 M1.58 13.34 C1.3 13.15, 1.02 12.96, 0.57 12.65 M0.57 12.65 C0.39 12.49, 0.2 12.34, -0.14 12.05 M-0.14 12.05 C-0.2 11.92, -0.26 11.78, -0.38 11.49 M-0.38 11.49 C-0.36 7.43, -0.34 3.37, -0.33 0.69 M-0.33 0.69 C-0.24 0.51, -0.15 0.32, 0 0" stroke="transparent" stroke-width="1.5" fill="none" stroke-dasharray="1.5 7"></path></g></g><mask></mask><g stroke-linecap="round"><g transform="translate(157.10245561957618 150.67860320656973) rotate(0 -4.064965081776336 1.4472992855742177)" fill-rule="evenodd"><path d="M0 0 L-1.6 -0.01 L-1.79 -0.67 L-2.07 -1.26 L-2.76 -1.62 L-4.11 -1.73 L-5.17 -1.75 L-5.93 -1.62 L-6.28 -1.43 L-6.52 -1.09 L-6.55 -0.79 L-6.44 -0.47 L-6.32 -0.25 L-6 -0.01 L-4.21 0.38 L-2.07 0.77 L-1.34 0.93 L-0.65 1.23 L-0.19 1.63 L0.23 2.36 L0.39 2.78 L0.46 3.23 L0.39 3.65 L0.24 4.1 L-0.24 4.99 L-0.77 5.55 L-1.43 5.88 L-2.09 6.11 L-3.04 6.25 L-4.16 6.33 L-5.37 6.19 L-6.47 5.91 L-7.55 5.47 L-8.19 4.82 L-8.38 4.21 L-8.58 3.52 L-8.59 2.8 L-6.88 2.8 L-6.82 3.56 L-6.38 4.22 L-5.87 4.42 L-5.27 4.59 L-4.46 4.65 L-3.54 4.65 L-2.78 4.63 L-2.08 4.33 L-1.64 3.81 L-1.39 3.42 L-1.45 3.03 L-2.09 2.54 L-3.11 2.25 L-4.69 2.1 L-6.06 1.91 L-7.23 1.52 L-8.04 0.71 L-8.34 -0.33 L-8.21 -1.51 L-7.63 -2.41 L-6.7 -3.08 L-5.83 -3.28 L-4.98 -3.44 L-4.11 -3.42 L-3.24 -3.3 L-2.02 -3.15 L-0.9 -2.45 L-0.34 -1.89 L-0.04 -1.23 L0.09 -0.55 L0 0" stroke="none" stroke-width="0" fill="#82c91e" fill-rule="evenodd"></path><path d="M0 0 C-0.37 0, -0.74 0, -1.6 -0.01 M0 0 C-0.33 0, -0.65 0, -1.6 -0.01 M-1.6 -0.01 C-1.65 -0.17, -1.69 -0.33, -1.79 -0.67 M-1.6 -0.01 C-1.67 -0.26, -1.75 -0.52, -1.79 -0.67 M-1.79 -0.67 C-1.88 -0.84, -1.96 -1.02, -2.07 -1.26 M-1.79 -0.67 C-1.9 -0.89, -2.01 -1.12, -2.07 -1.26 M-2.07 -1.26 C-2.27 -1.36, -2.46 -1.46, -2.76 -1.62 M-2.07 -1.26 C-2.26 -1.36, -2.45 -1.45, -2.76 -1.62 M-2.76 -1.62 C-3.21 -1.65, -3.65 -1.69, -4.11 -1.73 M-2.76 -1.62 C-3.07 -1.64, -3.37 -1.67, -4.11 -1.73 M-4.11 -1.73 C-4.46 -1.74, -4.82 -1.74, -5.17 -1.75 M-4.11 -1.73 C-4.41 -1.74, -4.72 -1.74, -5.17 -1.75 M-5.17 -1.75 C-5.33 -1.72, -5.49 -1.7, -5.93 -1.62 M-5.17 -1.75 C-5.33 -1.72, -5.48 -1.7, -5.93 -1.62 M-5.93 -1.62 C-6 -1.59, -6.07 -1.55, -6.28 -1.43 M-5.93 -1.62 C-6.01 -1.58, -6.08 -1.54, -6.28 -1.43 M-6.28 -1.43 C-6.37 -1.31, -6.46 -1.18, -6.52 -1.09 M-6.28 -1.43 C-6.34 -1.34, -6.41 -1.25, -6.52 -1.09 M-6.52 -1.09 C-6.53 -1, -6.54 -0.9, -6.55 -0.79 M-6.52 -1.09 C-6.53 -1.03, -6.53 -0.96, -6.55 -0.79 M-6.55 -0.79 C-6.52 -0.71, -6.5 -0.64, -6.44 -0.47 M-6.55 -0.79 C-6.52 -0.71, -6.5 -0.63, -6.44 -0.47 M-6.44 -0.47 C-6.39 -0.38, -6.34 -0.29, -6.32 -0.25 M-6.44 -0.47 C-6.41 -0.41, -6.38 -0.35, -6.32 -0.25 M-6.32 -0.25 C-6.21 -0.17, -6.11 -0.09, -6 -0.01 M-6.32 -0.25 C-6.22 -0.18, -6.13 -0.11, -6 -0.01 M-6 -0.01 C-5.29 0.15, -4.58 0.3, -4.21 0.38 M-6 -0.01 C-5.45 0.11, -4.9 0.23, -4.21 0.38 M-4.21 0.38 C-3.39 0.53, -2.56 0.68, -2.07 0.77 M-4.21 0.38 C-3.75 0.47, -3.28 0.55, -2.07 0.77 M-2.07 0.77 C-1.82 0.83, -1.57 0.88, -1.34 0.93 M-2.07 0.77 C-1.86 0.82, -1.65 0.86, -1.34 0.93 M-1.34 0.93 C-1.14 1.02, -0.94 1.1, -0.65 1.23 M-1.34 0.93 C-1.11 1.03, -0.87 1.13, -0.65 1.23 M-0.65 1.23 C-0.5 1.35, -0.36 1.48, -0.19 1.63 M-0.65 1.23 C-0.49 1.37, -0.33 1.5, -0.19 1.63 M-0.19 1.63 C-0.08 1.82, 0.03 2.02, 0.23 2.36 M-0.19 1.63 C-0.08 1.81, 0.02 2, 0.23 2.36 M0.23 2.36 C0.27 2.47, 0.31 2.57, 0.39 2.78 M0.23 2.36 C0.29 2.53, 0.35 2.69, 0.39 2.78 M0.39 2.78 C0.41 2.93, 0.44 3.07, 0.46 3.23 M0.39 2.78 C0.41 2.9, 0.43 3.02, 0.46 3.23 M0.46 3.23 C0.44 3.38, 0.41 3.54, 0.39 3.65 M0.46 3.23 C0.44 3.38, 0.41 3.53, 0.39 3.65 M0.39 3.65 C0.36 3.74, 0.33 3.84, 0.24 4.1 M0.39 3.65 C0.34 3.81, 0.28 3.97, 0.24 4.1 M0.24 4.1 C0.09 4.37, -0.05 4.64, -0.24 4.99 M0.24 4.1 C0.08 4.4, -0.09 4.71, -0.24 4.99 M-0.24 4.99 C-0.37 5.12, -0.49 5.26, -0.77 5.55 M-0.24 4.99 C-0.35 5.1, -0.45 5.22, -0.77 5.55 M-0.77 5.55 C-1.03 5.68, -1.29 5.81, -1.43 5.88 M-0.77 5.55 C-0.93 5.63, -1.08 5.71, -1.43 5.88 M-1.43 5.88 C-1.62 5.94, -1.81 6.01, -2.09 6.11 M-1.43 5.88 C-1.67 5.96, -1.92 6.05, -2.09 6.11 M-2.09 6.11 C-2.3 6.14, -2.5 6.17, -3.04 6.25 M-2.09 6.11 C-2.41 6.15, -2.73 6.2, -3.04 6.25 M-3.04 6.25 C-3.48 6.28, -3.91 6.31, -4.16 6.33 M-3.04 6.25 C-3.39 6.27, -3.74 6.3, -4.16 6.33 M-4.16 6.33 C-4.41 6.3, -4.66 6.27, -5.37 6.19 M-4.16 6.33 C-4.54 6.29, -4.92 6.24, -5.37 6.19 M-5.37 6.19 C-5.75 6.09, -6.13 6, -6.47 5.91 M-5.37 6.19 C-5.8 6.08, -6.23 5.97, -6.47 5.91 M-6.47 5.91 C-6.75 5.79, -7.04 5.68, -7.55 5.47 M-6.47 5.91 C-6.73 5.8, -7 5.7, -7.55 5.47 M-7.55 5.47 C-7.74 5.28, -7.93 5.09, -8.19 4.82 M-7.55 5.47 C-7.7 5.32, -7.85 5.17, -8.19 4.82 M-8.19 4.82 C-8.25 4.61, -8.32 4.4, -8.38 4.21 M-8.19 4.82 C-8.26 4.59, -8.34 4.36, -8.38 4.21 M-8.38 4.21 C-8.46 3.96, -8.53 3.71, -8.58 3.52 M-8.38 4.21 C-8.46 3.95, -8.53 3.7, -8.58 3.52 M-8.58 3.52 C-8.59 3.33, -8.59 3.14, -8.59 2.8 M-8.58 3.52 C-8.59 3.25, -8.59 2.98, -8.59 2.8 M-8.59 2.8 C-8.24 2.8, -7.88 2.8, -6.88 2.8 M-8.59 2.8 C-8.21 2.8, -7.83 2.8, -6.88 2.8 M-6.88 2.8 C-6.86 3.03, -6.84 3.25, -6.82 3.56 M-6.88 2.8 C-6.86 3, -6.85 3.19, -6.82 3.56 M-6.82 3.56 C-6.7 3.74, -6.58 3.92, -6.38 4.22 M-6.82 3.56 C-6.69 3.76, -6.56 3.96, -6.38 4.22 M-6.38 4.22 C-6.19 4.3, -5.99 4.38, -5.87 4.42 M-6.38 4.22 C-6.24 4.28, -6.1 4.33, -5.87 4.42 M-5.87 4.42 C-5.67 4.48, -5.46 4.53, -5.27 4.59 M-5.87 4.42 C-5.75 4.46, -5.62 4.49, -5.27 4.59 M-5.27 4.59 C-5 4.61, -4.74 4.63, -4.46 4.65 M-5.27 4.59 C-5.07 4.6, -4.87 4.62, -4.46 4.65 M-4.46 4.65 C-4.13 4.65, -3.8 4.65, -3.54 4.65 M-4.46 4.65 C-4.24 4.65, -4.02 4.65, -3.54 4.65 M-3.54 4.65 C-3.26 4.64, -2.99 4.63, -2.78 4.63 M-3.54 4.65 C-3.25 4.64, -2.97 4.63, -2.78 4.63 M-2.78 4.63 C-2.61 4.55, -2.44 4.48, -2.08 4.33 M-2.78 4.63 C-2.52 4.52, -2.27 4.41, -2.08 4.33 M-2.08 4.33 C-1.99 4.22, -1.9 4.11, -1.64 3.81 M-2.08 4.33 C-1.96 4.19, -1.85 4.05, -1.64 3.81 M-1.64 3.81 C-1.57 3.71, -1.51 3.61, -1.39 3.42 M-1.64 3.81 C-1.57 3.7, -1.5 3.6, -1.39 3.42 M-1.39 3.42 C-1.4 3.33, -1.42 3.23, -1.45 3.03 M-1.39 3.42 C-1.41 3.3, -1.43 3.18, -1.45 3.03 M-1.45 3.03 C-1.59 2.92, -1.74 2.8, -2.09 2.54 M-1.45 3.03 C-1.65 2.88, -1.85 2.72, -2.09 2.54 M-2.09 2.54 C-2.41 2.45, -2.72 2.36, -3.11 2.25 M-2.09 2.54 C-2.41 2.45, -2.73 2.36, -3.11 2.25 M-3.11 2.25 C-3.67 2.2, -4.23 2.14, -4.69 2.1 M-3.11 2.25 C-3.66 2.2, -4.21 2.14, -4.69 2.1 M-4.69 2.1 C-5.08 2.05, -5.46 1.99, -6.06 1.91 M-4.69 2.1 C-5 2.06, -5.3 2.01, -6.06 1.91 M-6.06 1.91 C-6.49 1.77, -6.92 1.62, -7.23 1.52 M-6.06 1.91 C-6.44 1.78, -6.81 1.66, -7.23 1.52 M-7.23 1.52 C-7.49 1.26, -7.74 1.01, -8.04 0.71 M-7.23 1.52 C-7.41 1.34, -7.58 1.17, -8.04 0.71 M-8.04 0.71 C-8.16 0.32, -8.27 -0.08, -8.34 -0.33 M-8.04 0.71 C-8.12 0.43, -8.21 0.15, -8.34 -0.33 M-8.34 -0.33 C-8.31 -0.59, -8.28 -0.86, -8.21 -1.51 M-8.34 -0.33 C-8.31 -0.62, -8.28 -0.91, -8.21 -1.51 M-8.21 -1.51 C-8.06 -1.73, -7.92 -1.96, -7.63 -2.41 M-8.21 -1.51 C-8.02 -1.79, -7.84 -2.08, -7.63 -2.41 M-7.63 -2.41 C-7.37 -2.59, -7.12 -2.78, -6.7 -3.08 M-7.63 -2.41 C-7.38 -2.58, -7.14 -2.76, -6.7 -3.08 M-6.7 -3.08 C-6.51 -3.12, -6.33 -3.17, -5.83 -3.28 M-6.7 -3.08 C-6.46 -3.14, -6.21 -3.2, -5.83 -3.28 M-5.83 -3.28 C-5.49 -3.35, -5.15 -3.41, -4.98 -3.44 M-5.83 -3.28 C-5.49 -3.35, -5.15 -3.41, -4.98 -3.44 M-4.98 -3.44 C-4.76 -3.43, -4.54 -3.43, -4.11 -3.42 M-4.98 -3.44 C-4.74 -3.43, -4.51 -3.43, -4.11 -3.42 M-4.11 -3.42 C-3.77 -3.37, -3.44 -3.33, -3.24 -3.3 M-4.11 -3.42 C-3.77 -3.37, -3.43 -3.33, -3.24 -3.3 M-3.24 -3.3 C-2.87 -3.25, -2.51 -3.21, -2.02 -3.15 M-3.24 -3.3 C-2.89 -3.26, -2.55 -3.21, -2.02 -3.15 M-2.02 -3.15 C-1.71 -2.95, -1.4 -2.76, -0.9 -2.45 M-2.02 -3.15 C-1.64 -2.91, -1.26 -2.67, -0.9 -2.45 M-0.9 -2.45 C-0.75 -2.3, -0.6 -2.15, -0.34 -1.89 M-0.9 -2.45 C-0.78 -2.34, -0.67 -2.22, -0.34 -1.89 M-0.34 -1.89 C-0.22 -1.63, -0.1 -1.37, -0.04 -1.23 M-0.34 -1.89 C-0.23 -1.64, -0.11 -1.4, -0.04 -1.23 M-0.04 -1.23 C-0.01 -1.08, 0.02 -0.93, 0.09 -0.55 M-0.04 -1.23 C-0.01 -1.08, 0.02 -0.94, 0.09 -0.55 M0.09 -0.55 C0.06 -0.4, 0.04 -0.24, 0 0 M0.09 -0.55 C0.05 -0.34, 0.02 -0.13, 0 0 M0 0 C0 0, 0 0, 0 0 M0 0 C0 0, 0 0, 0 0" stroke="transparent" stroke-width="1" fill="none"></path></g></g><mask></mask><g stroke-linecap="round" transform="translate(446.5273608870125 46.664088338955025) rotate(0 75.36707456441366 56.103443278004875)"><path d="M28.05 0 L122.68 0 L134.96 1.75 L139.78 3.94 L143.72 7.01 L146.79 10.96 L148.98 15.78 L150.73 28.05 L150.3 90.73 L148.98 96.43 L146.79 101.25 L143.72 105.19 L139.78 108.26 L134.96 110.45 L122.68 112.21 L28.05 112.21 L15.78 110.45 L10.96 108.26 L7.01 105.19 L3.94 101.25 L1.75 96.43 L0.44 90.73 L0.44 21.48 L1.75 15.78 L3.94 10.96 L7.01 7.01 L10.96 3.94 L15.78 1.75 L28.05 0" stroke="none" stroke-width="0" fill="#ffffff"></path><path d="M28.05 0 M28.05 0 C54.29 0, 80.52 0, 122.68 0 M28.05 0 C54.8 0, 81.54 0, 122.68 0 M122.68 0 C141.38 0, 150.73 9.35, 150.73 28.05 M122.68 0 C141.38 0, 150.73 9.35, 150.73 28.05 M150.73 28.05 C150.73 39.32, 150.73 50.59, 150.73 84.16 M150.73 28.05 C150.73 46.12, 150.73 64.19, 150.73 84.16 M150.73 84.16 C150.73 102.86, 141.38 112.21, 122.68 112.21 M150.73 84.16 C150.73 102.86, 141.38 112.21, 122.68 112.21 M122.68 112.21 C96.69 112.21, 70.7 112.21, 28.05 112.21 M122.68 112.21 C86.58 112.21, 50.48 112.21, 28.05 112.21 M28.05 112.21 C9.35 112.21, 0 102.86, 0 84.16 M28.05 112.21 C9.35 112.21, 0 102.86, 0 84.16 M0 84.16 C0 63.54, 0 42.93, 0 28.05 M0 84.16 C0 72.46, 0 60.77, 0 28.05 M0 28.05 C0 9.35, 9.35 0, 28.05 0 M0 28.05 C0 9.35, 9.35 0, 28.05 0" stroke="#28343c" stroke-width="2" fill="none"></path></g><g stroke-linecap="round" transform="translate(466.4585678507815 69.3705251637266) rotate(0 54.90733479043104 35.32499860643111)"><path d="M17.66 0 L92.15 0 L96.29 0.28 L102.92 2.48 L107.33 6.9 L109.54 13.52 L109.81 52.99 L109.54 57.13 L107.33 63.75 L102.92 68.17 L96.29 70.37 L92.15 70.65 L17.66 70.65 L13.52 70.37 L6.9 68.17 L2.48 63.75 L0.28 57.13 L0.28 13.52 L2.48 6.9 L6.9 2.48 L13.52 0.28 L17.66 0" stroke="none" stroke-width="0" fill="#ffffff"></path><path d="M17.66 0 M17.66 0 C34.53 0, 51.4 0, 92.15 0 M92.15 0 C103.93 0, 109.81 5.89, 109.81 17.66 M109.81 17.66 C109.81 25.62, 109.81 33.58, 109.81 52.99 M109.81 52.99 C109.81 64.76, 103.93 70.65, 92.15 70.65 M92.15 70.65 C62.51 70.65, 32.87 70.65, 17.66 70.65 M17.66 70.65 C5.89 70.65, 0 64.76, 0 52.99 M0 52.99 C0 40.21, 0 27.42, 0 17.66 M0 17.66 C0 5.89, 5.89 0, 17.66 0" stroke="#000000" stroke-width="1.5" fill="none" stroke-dasharray="1.5 7"></path></g><g transform="translate(473.80003195081076 75.88047433001339) rotate(0 48 28.5)"><text x="48" y="13" font-family="Virgil, Segoe UI Emoji" font-size="15.093512093461456px" fill="#000000" text-anchor="middle" style="white-space: pre;" direction="ltr">1 Thread</text><text x="48" y="32" font-family="Virgil, Segoe UI Emoji" font-size="15.093512093461456px" fill="#000000" text-anchor="middle" style="white-space: pre;" direction="ltr">+</text><text x="48" y="51" font-family="Virgil, Segoe UI Emoji" font-size="15.093512093461456px" fill="#000000" text-anchor="middle" style="white-space: pre;" direction="ltr">1 Event Loop</text></g><g stroke-linecap="round" transform="translate(413.35265783754903 10) rotate(0 78.94394024193798 24.566470914449155)"><path d="M0 0 L157.89 0 L157.89 49.13 L0 49.13" stroke="none" stroke-width="0" fill="#ffffff"></path><path d="M0 0 C52.39 0, 104.78 0, 157.89 0 M0 0 C31.97 0, 63.94 0, 157.89 0 M157.89 0 C157.89 14.85, 157.89 29.69, 157.89 49.13 M157.89 0 C157.89 15.51, 157.89 31.02, 157.89 49.13 M157.89 49.13 C125.27 49.13, 92.64 49.13, 0 49.13 M157.89 49.13 C114.12 49.13, 70.35 49.13, 0 49.13 M0 49.13 C0 30.52, 0 11.9, 0 0 M0 49.13 C0 39.27, 0 29.4, 0 0" stroke="transparent" stroke-width="4" fill="none"></path></g><g stroke-linecap="round"><g transform="translate(453.58709683189 38.71680620253346) rotate(0 -10.316528426051832 4.741528514209676)" fill-rule="evenodd"><path d="M0 0 L-0.11 15.56 L-6.93 11.78 L-7 3.74 L-10.37 1.82 L-13.85 4.07 L-13.93 11.85 L-20.63 15.6 L-20.63 0.04 L-10.34 -6.11 L0 0" stroke="none" stroke-width="0" fill="#263238" fill-rule="evenodd"></path><path d="M0 0 C-0.04 5.78, -0.08 11.55, -0.11 15.56 M-0.11 15.56 C-1.65 14.71, -3.19 13.85, -6.93 11.78 M-6.93 11.78 C-6.95 8.93, -6.98 6.08, -7 3.74 M-7 3.74 C-8.05 3.14, -9.09 2.55, -10.37 1.82 M-10.37 1.82 C-11.64 2.64, -12.91 3.46, -13.85 4.07 M-13.85 4.07 C-13.88 6.86, -13.91 9.65, -13.93 11.85 M-13.93 11.85 C-16.39 13.22, -18.84 14.6, -20.63 15.6 M-20.63 15.6 C-20.63 11.27, -20.63 6.95, -20.63 0.04 M-20.63 0.04 C-17.45 -1.86, -14.27 -3.76, -10.34 -6.11 M-10.34 -6.11 C-8.11 -4.79, -5.88 -3.48, 0 0 M0 0 C0 0, 0 0, 0 0" stroke="transparent" stroke-width="1.5" fill="none" stroke-dasharray="1.5 7"></path></g></g><mask></mask><g stroke-linecap="round"><g transform="translate(460.58826182868006 38.79089060835213) rotate(0 10.46470317264857 5.908388852428175)" fill-rule="evenodd"><path d="M0 0 L10.19 -6.15 L21.08 0.15 L21 11.71 L10.37 17.97 L-0.15 11.59 L0 0" stroke="none" stroke-width="0" fill="#82c91e" fill-rule="evenodd"></path><path d="M0 0 C2.52 -1.52, 5.04 -3.04, 10.19 -6.15 M10.19 -6.15 C13.89 -4.01, 17.6 -1.87, 21.08 0.15 M21.08 0.15 C21.05 3.8, 21.03 7.45, 21 11.71 M21 11.71 C17.84 13.57, 14.67 15.44, 10.37 17.97 M10.37 17.97 C6.32 15.51, 2.27 13.06, -0.15 11.59 M-0.15 11.59 C-0.09 7.35, -0.04 3.1, 0 0 M0 0 C0 0, 0 0, 0 0" stroke="transparent" stroke-width="1.5" fill="none" stroke-dasharray="1.5 7"></path></g></g><mask></mask><g stroke-linecap="round"><g transform="translate(501.9152265173948 34.71671412014166) rotate(0 -3.302731335043518 3.4038353397619403)" fill-rule="evenodd"><path d="M0 0 L-3.37 -1.69 L-13.68 4.15 L-13.65 16.08 L-3.37 22.04 L6.98 16.01 L7.08 -11.56 L0.27 -15.23 L0 0" stroke="none" stroke-width="0" fill="#263238" fill-rule="evenodd"></path><path d="M0 0 C-1.33 -0.66, -2.66 -1.33, -3.37 -1.69 M-3.37 -1.69 C-6.68 0.19, -9.99 2.06, -13.68 4.15 M-13.68 4.15 C-13.67 7.31, -13.66 10.47, -13.65 16.08 M-13.65 16.08 C-9.92 18.24, -6.18 20.41, -3.37 22.04 M-3.37 22.04 C0.33 19.88, 4.03 17.72, 6.98 16.01 M6.98 16.01 C7 10.34, 7.02 4.66, 7.08 -11.56 M7.08 -11.56 C4.66 -12.86, 2.24 -14.17, 0.27 -15.23 M0.27 -15.23 C0.19 -10.6, 0.11 -5.97, 0 0 M0 0 C0 0, 0 0, 0 0" stroke="transparent" stroke-width="1.5" fill="none" stroke-dasharray="1.5 7"></path></g></g><mask></mask><g stroke-linecap="round"><g transform="translate(515.6316734238849 38.861977542234854) rotate(0 10.430563667692468 5.746077858617923)" fill-rule="evenodd"><path d="M0 0 L10.48 -6.07 L20.86 0.03 L20.83 3.54 L13.88 7.79 L13.92 3.81 L10.55 1.79 L6.98 3.91 L6.94 7.79 L16.92 13.75 L10.68 17.56 L0.1 11.53 L0 0" stroke="none" stroke-width="0" fill="#263238" fill-rule="evenodd"></path><path d="M0 0 C3.69 -2.14, 7.38 -4.27, 10.48 -6.07 M10.48 -6.07 C14.12 -3.93, 17.77 -1.78, 20.86 0.03 M20.86 0.03 C20.85 0.8, 20.85 1.57, 20.83 3.54 M20.83 3.54 C19.42 4.4, 18 5.27, 13.88 7.79 M13.88 7.79 C13.89 6.64, 13.9 5.49, 13.92 3.81 M13.92 3.81 C12.74 3.1, 11.57 2.4, 10.55 1.79 M10.55 1.79 C9.44 2.44, 8.34 3.1, 6.98 3.91 M6.98 3.91 C6.96 5.28, 6.95 6.64, 6.94 7.79 M6.94 7.79 C10.41 9.86, 13.88 11.94, 16.92 13.75 M16.92 13.75 C15.08 14.87, 13.25 15.99, 10.68 17.56 M10.68 17.56 C7.72 15.87, 4.76 14.18, 0.1 11.53 M0.1 11.53 C0.06 7.26, 0.03 3, 0 0 M0 0 C0 0, 0 0, 0 0" stroke="transparent" stroke-width="1.5" fill="none" stroke-dasharray="1.5 7"></path></g></g><mask></mask><g stroke-linecap="round"><g transform="translate(498.45495116536995 40.7873572735125) rotate(0 0.07713318966000315 4.022787902571508)" fill-rule="evenodd"><path d="M0 0 L3.62 2.08 L3.62 5.89 L0.22 8.05 L-3.47 6.11 L-3.45 1.98 L0 0" stroke="none" stroke-width="0" fill="#ffffff" fill-rule="evenodd"></path><path d="M0 0 C0.89 0.51, 1.78 1.02, 3.62 2.08 M3.62 2.08 C3.62 3.21, 3.62 4.34, 3.62 5.89 M3.62 5.89 C2.33 6.71, 1.05 7.52, 0.22 8.05 M0.22 8.05 C-0.72 7.55, -1.65 7.06, -3.47 6.11 M-3.47 6.11 C-3.46 5.28, -3.46 4.44, -3.45 1.98 M-3.45 1.98 C-2.17 1.25, -0.89 0.51, 0 0 M0 0 C0 0, 0 0, 0 0" stroke="transparent" stroke-width="1.5" fill="none" stroke-dasharray="1.5 7"></path></g></g><mask></mask><g stroke-linecap="round"><g transform="translate(543.6232734454084 38.491276084439505) rotate(0 10.177205219586654 6.120792852800264)" fill-rule="evenodd"><path d="M0 0 L0.47 -0.51 L1.23 -1.04 L4.79 -3.06 L9.56 -5.77 L10.66 -5.82 L12.66 -4.67 L15.4 -3.13 L18.18 -1.58 L19.62 -0.73 L20.35 -0.2 L20.73 0.58 L20.73 12.05 L15.78 15.05 L10.89 17.76 L10.23 18.06 L9.47 17.76 L6.19 15.82 L6.19 15.51 L7.65 14.78 L9.94 16.18 L10.26 16.19 L14.39 13.9 L18.67 11.45 L19.04 11.16 L19.04 1.18 L18.84 0.74 L14.48 -1.79 L10.11 -4.19 L5.83 -1.74 L1.27 1.1 L1.2 10.87 L2.54 11.97 L3.99 12.83 L4.45 12.9 L5.43 12.54 L5.66 12.22 L5.65 1.57 L6.59 1.52 L7.58 1.55 L7.48 12.65 L6.47 14.07 L5.17 14.69 L3.83 14.43 L2.99 14.09 L1.58 13.34 L0.57 12.65 L-0.14 12.05 L-0.38 11.49 L-0.33 0.69" stroke="none" stroke-width="0" fill="#82c91e" fill-rule="evenodd"></path><path d="M0 0 C0.16 -0.18, 0.33 -0.36, 0.47 -0.51 M0.47 -0.51 C0.68 -0.66, 0.89 -0.81, 1.23 -1.04 M1.23 -1.04 C2.43 -1.73, 3.64 -2.41, 4.79 -3.06 M4.79 -3.06 C5.77 -3.62, 6.76 -4.18, 9.56 -5.77 M9.56 -5.77 C9.99 -5.79, 10.43 -5.81, 10.66 -5.82 M10.66 -5.82 C11.26 -5.47, 11.87 -5.13, 12.66 -4.67 M12.66 -4.67 C13.35 -4.28, 14.03 -3.9, 15.4 -3.13 M15.4 -3.13 C16.05 -2.77, 16.71 -2.4, 18.18 -1.58 M18.18 -1.58 C18.49 -1.4, 18.79 -1.22, 19.62 -0.73 M19.62 -0.73 C19.78 -0.61, 19.94 -0.5, 20.35 -0.2 M20.35 -0.2 C20.46 0.03, 20.58 0.26, 20.73 0.58 M20.73 0.58 C20.73 5.11, 20.73 9.64, 20.73 12.05 M20.73 12.05 C19.23 12.96, 17.73 13.87, 15.78 15.05 M15.78 15.05 C14.55 15.73, 13.32 16.41, 10.89 17.76 M10.89 17.76 C10.69 17.85, 10.49 17.95, 10.23 18.06 M10.23 18.06 C10.06 18, 9.88 17.93, 9.47 17.76 M9.47 17.76 C8.31 17.08, 7.16 16.4, 6.19 15.82 M6.19 15.82 C6.19 15.72, 6.19 15.63, 6.19 15.51 M6.19 15.51 C6.71 15.25, 7.23 14.99, 7.65 14.78 M7.65 14.78 C8.26 15.15, 8.87 15.52, 9.94 16.18 M9.94 16.18 C10.07 16.18, 10.19 16.18, 10.26 16.19 M10.26 16.19 C11.12 15.71, 11.97 15.24, 14.39 13.9 M14.39 13.9 C16.07 12.94, 17.75 11.98, 18.67 11.45 M18.67 11.45 C18.76 11.38, 18.84 11.31, 19.04 11.16 M19.04 11.16 C19.04 8.9, 19.04 6.64, 19.04 1.18 M19.04 1.18 C18.99 1.08, 18.95 0.98, 18.84 0.74 M18.84 0.74 C17.91 0.2, 16.98 -0.34, 14.48 -1.79 M14.48 -1.79 C13.37 -2.4, 12.26 -3, 10.11 -4.19 M10.11 -4.19 C9.23 -3.68, 8.35 -3.18, 5.83 -1.74 M5.83 -1.74 C4.16 -0.7, 2.5 0.34, 1.27 1.1 M1.27 1.1 C1.25 3.85, 1.23 6.6, 1.2 10.87 M1.2 10.87 C1.5 11.12, 1.8 11.36, 2.54 11.97 M2.54 11.97 C2.89 12.18, 3.25 12.39, 3.99 12.83 M3.99 12.83 C4.12 12.85, 4.26 12.87, 4.45 12.9 M4.45 12.9 C4.76 12.78, 5.07 12.67, 5.43 12.54 M5.43 12.54 C5.48 12.46, 5.54 12.38, 5.66 12.22 M5.66 12.22 C5.66 9.87, 5.66 7.52, 5.65 1.57 M5.65 1.57 C6 1.55, 6.35 1.53, 6.59 1.52 M6.59 1.52 C6.88 1.53, 7.17 1.54, 7.58 1.55 M7.58 1.55 C7.54 5.98, 7.5 10.42, 7.48 12.65 M7.48 12.65 C7.11 13.17, 6.74 13.69, 6.47 14.07 M6.47 14.07 C6.12 14.24, 5.77 14.4, 5.17 14.69 M5.17 14.69 C4.82 14.62, 4.48 14.56, 3.83 14.43 M3.83 14.43 C3.52 14.31, 3.21 14.18, 2.99 14.09 M2.99 14.09 C2.6 13.89, 2.21 13.68, 1.58 13.34 M1.58 13.34 C1.25 13.11, 0.91 12.89, 0.57 12.65 M0.57 12.65 C0.35 12.47, 0.14 12.29, -0.14 12.05 M-0.14 12.05 C-0.2 11.93, -0.25 11.8, -0.38 11.49 M-0.38 11.49 C-0.37 8.27, -0.35 5.05, -0.33 0.69 M-0.33 0.69 C-0.2 0.43, -0.07 0.16, 0 0" stroke="transparent" stroke-width="1.5" fill="none" stroke-dasharray="1.5 7"></path></g></g><mask></mask><g stroke-linecap="round"><g transform="translate(560.4551134571252 43.23568323817017) rotate(0 -4.064965081776336 1.4472992855742177)" fill-rule="evenodd"><path d="M0 0 L-1.6 -0.01 L-1.79 -0.67 L-2.07 -1.26 L-2.76 -1.62 L-4.11 -1.73 L-5.17 -1.75 L-5.93 -1.62 L-6.28 -1.43 L-6.52 -1.09 L-6.55 -0.79 L-6.44 -0.47 L-6.32 -0.25 L-6 -0.01 L-4.21 0.38 L-2.07 0.77 L-1.34 0.93 L-0.65 1.23 L-0.19 1.63 L0.23 2.36 L0.39 2.78 L0.46 3.23 L0.39 3.65 L0.24 4.1 L-0.24 4.99 L-0.77 5.55 L-1.43 5.88 L-2.09 6.11 L-3.04 6.25 L-4.16 6.33 L-5.37 6.19 L-6.47 5.91 L-7.55 5.47 L-8.19 4.82 L-8.38 4.21 L-8.58 3.52 L-8.59 2.8 L-6.88 2.8 L-6.82 3.56 L-6.38 4.22 L-5.87 4.42 L-5.27 4.59 L-4.46 4.65 L-3.54 4.65 L-2.78 4.63 L-2.08 4.33 L-1.64 3.81 L-1.39 3.42 L-1.45 3.03 L-2.09 2.54 L-3.11 2.25 L-4.69 2.1 L-6.06 1.91 L-7.23 1.52 L-8.04 0.71 L-8.34 -0.33 L-8.21 -1.51 L-7.63 -2.41 L-6.7 -3.08 L-5.83 -3.28 L-4.98 -3.44 L-4.11 -3.42 L-3.24 -3.3 L-2.02 -3.15 L-0.9 -2.45 L-0.34 -1.89 L-0.04 -1.23 L0.09 -0.55 L0 0" stroke="none" stroke-width="0" fill="#82c91e" fill-rule="evenodd"></path><path d="M0 0 C-0.5 0, -1 -0.01, -1.6 -0.01 M0 0 C-0.44 0, -0.87 -0.01, -1.6 -0.01 M-1.6 -0.01 C-1.65 -0.19, -1.71 -0.38, -1.79 -0.67 M-1.6 -0.01 C-1.66 -0.2, -1.71 -0.4, -1.79 -0.67 M-1.79 -0.67 C-1.87 -0.82, -1.94 -0.97, -2.07 -1.26 M-1.79 -0.67 C-1.87 -0.84, -1.95 -1, -2.07 -1.26 M-2.07 -1.26 C-2.3 -1.38, -2.53 -1.49, -2.76 -1.62 M-2.07 -1.26 C-2.3 -1.37, -2.52 -1.49, -2.76 -1.62 M-2.76 -1.62 C-3.05 -1.64, -3.34 -1.67, -4.11 -1.73 M-2.76 -1.62 C-3.28 -1.66, -3.79 -1.7, -4.11 -1.73 M-4.11 -1.73 C-4.41 -1.74, -4.72 -1.74, -5.17 -1.75 M-4.11 -1.73 C-4.33 -1.73, -4.55 -1.74, -5.17 -1.75 M-5.17 -1.75 C-5.44 -1.7, -5.71 -1.66, -5.93 -1.62 M-5.17 -1.75 C-5.34 -1.72, -5.51 -1.69, -5.93 -1.62 M-5.93 -1.62 C-6.03 -1.57, -6.13 -1.51, -6.28 -1.43 M-5.93 -1.62 C-6 -1.58, -6.08 -1.54, -6.28 -1.43 M-6.28 -1.43 C-6.33 -1.35, -6.39 -1.27, -6.52 -1.09 M-6.28 -1.43 C-6.33 -1.36, -6.38 -1.28, -6.52 -1.09 M-6.52 -1.09 C-6.53 -0.98, -6.54 -0.86, -6.55 -0.79 M-6.52 -1.09 C-6.53 -1.02, -6.53 -0.94, -6.55 -0.79 M-6.55 -0.79 C-6.53 -0.72, -6.5 -0.66, -6.44 -0.47 M-6.55 -0.79 C-6.51 -0.68, -6.48 -0.57, -6.44 -0.47 M-6.44 -0.47 C-6.41 -0.41, -6.38 -0.35, -6.32 -0.25 M-6.44 -0.47 C-6.41 -0.4, -6.37 -0.34, -6.32 -0.25 M-6.32 -0.25 C-6.25 -0.2, -6.19 -0.15, -6 -0.01 M-6.32 -0.25 C-6.22 -0.17, -6.12 -0.1, -6 -0.01 M-6 -0.01 C-5.36 0.13, -4.72 0.27, -4.21 0.38 M-6 -0.01 C-5.33 0.14, -4.65 0.29, -4.21 0.38 M-4.21 0.38 C-3.43 0.52, -2.65 0.67, -2.07 0.77 M-4.21 0.38 C-3.7 0.48, -3.18 0.57, -2.07 0.77 M-2.07 0.77 C-1.81 0.83, -1.54 0.89, -1.34 0.93 M-2.07 0.77 C-1.92 0.8, -1.77 0.84, -1.34 0.93 M-1.34 0.93 C-1.2 0.99, -1.05 1.06, -0.65 1.23 M-1.34 0.93 C-1.09 1.04, -0.84 1.15, -0.65 1.23 M-0.65 1.23 C-0.52 1.34, -0.4 1.44, -0.19 1.63 M-0.65 1.23 C-0.5 1.36, -0.35 1.49, -0.19 1.63 M-0.19 1.63 C-0.09 1.81, 0.02 1.99, 0.23 2.36 M-0.19 1.63 C-0.07 1.84, 0.05 2.05, 0.23 2.36 M0.23 2.36 C0.29 2.51, 0.34 2.67, 0.39 2.78 M0.23 2.36 C0.28 2.51, 0.34 2.66, 0.39 2.78 M0.39 2.78 C0.42 2.95, 0.45 3.12, 0.46 3.23 M0.39 2.78 C0.42 2.96, 0.45 3.13, 0.46 3.23 M0.46 3.23 C0.45 3.32, 0.43 3.41, 0.39 3.65 M0.46 3.23 C0.44 3.38, 0.41 3.53, 0.39 3.65 M0.39 3.65 C0.34 3.79, 0.3 3.93, 0.24 4.1 M0.39 3.65 C0.33 3.83, 0.27 4, 0.24 4.1 M0.24 4.1 C0.1 4.35, -0.03 4.61, -0.24 4.99 M0.24 4.1 C0.11 4.35, -0.03 4.6, -0.24 4.99 M-0.24 4.99 C-0.4 5.17, -0.57 5.34, -0.77 5.55 M-0.24 4.99 C-0.44 5.2, -0.64 5.42, -0.77 5.55 M-0.77 5.55 C-0.99 5.66, -1.2 5.77, -1.43 5.88 M-0.77 5.55 C-0.97 5.65, -1.17 5.75, -1.43 5.88 M-1.43 5.88 C-1.6 5.94, -1.78 6, -2.09 6.11 M-1.43 5.88 C-1.56 5.93, -1.7 5.97, -2.09 6.11 M-2.09 6.11 C-2.47 6.16, -2.85 6.22, -3.04 6.25 M-2.09 6.11 C-2.36 6.15, -2.62 6.18, -3.04 6.25 M-3.04 6.25 C-3.29 6.27, -3.55 6.29, -4.16 6.33 M-3.04 6.25 C-3.34 6.27, -3.64 6.29, -4.16 6.33 M-4.16 6.33 C-4.43 6.3, -4.7 6.27, -5.37 6.19 M-4.16 6.33 C-4.55 6.29, -4.95 6.24, -5.37 6.19 M-5.37 6.19 C-5.66 6.12, -5.95 6.04, -6.47 5.91 M-5.37 6.19 C-5.75 6.1, -6.12 6, -6.47 5.91 M-6.47 5.91 C-6.72 5.81, -6.97 5.71, -7.55 5.47 M-6.47 5.91 C-6.69 5.82, -6.92 5.73, -7.55 5.47 M-7.55 5.47 C-7.69 5.33, -7.83 5.19, -8.19 4.82 M-7.55 5.47 C-7.77 5.25, -7.98 5.03, -8.19 4.82 M-8.19 4.82 C-8.25 4.61, -8.32 4.41, -8.38 4.21 M-8.19 4.82 C-8.26 4.61, -8.33 4.39, -8.38 4.21 M-8.38 4.21 C-8.45 3.98, -8.51 3.76, -8.58 3.52 M-8.38 4.21 C-8.45 3.97, -8.52 3.72, -8.58 3.52 M-8.58 3.52 C-8.59 3.26, -8.59 3.01, -8.59 2.8 M-8.58 3.52 C-8.59 3.34, -8.59 3.16, -8.59 2.8 M-8.59 2.8 C-8.22 2.8, -7.85 2.8, -6.88 2.8 M-8.59 2.8 C-8.21 2.8, -7.82 2.8, -6.88 2.8 M-6.88 2.8 C-6.86 3.08, -6.83 3.37, -6.82 3.56 M-6.88 2.8 C-6.86 2.99, -6.85 3.18, -6.82 3.56 M-6.82 3.56 C-6.68 3.77, -6.55 3.97, -6.38 4.22 M-6.82 3.56 C-6.66 3.8, -6.51 4.04, -6.38 4.22 M-6.38 4.22 C-6.19 4.3, -5.99 4.38, -5.87 4.42 M-6.38 4.22 C-6.2 4.29, -6.02 4.37, -5.87 4.42 M-5.87 4.42 C-5.75 4.46, -5.62 4.49, -5.27 4.59 M-5.87 4.42 C-5.68 4.47, -5.49 4.53, -5.27 4.59 M-5.27 4.59 C-5.05 4.61, -4.83 4.62, -4.46 4.65 M-5.27 4.59 C-5.07 4.6, -4.87 4.62, -4.46 4.65 M-4.46 4.65 C-4.16 4.65, -3.86 4.65, -3.54 4.65 M-4.46 4.65 C-4.26 4.65, -4.07 4.65, -3.54 4.65 M-3.54 4.65 C-3.38 4.65, -3.23 4.64, -2.78 4.63 M-3.54 4.65 C-3.36 4.64, -3.19 4.64, -2.78 4.63 M-2.78 4.63 C-2.62 4.56, -2.45 4.49, -2.08 4.33 M-2.78 4.63 C-2.54 4.52, -2.31 4.42, -2.08 4.33 M-2.08 4.33 C-1.98 4.2, -1.88 4.08, -1.64 3.81 M-2.08 4.33 C-1.95 4.17, -1.81 4.01, -1.64 3.81 M-1.64 3.81 C-1.56 3.68, -1.48 3.56, -1.39 3.42 M-1.64 3.81 C-1.56 3.68, -1.48 3.56, -1.39 3.42 M-1.39 3.42 C-1.41 3.3, -1.43 3.17, -1.45 3.03 M-1.39 3.42 C-1.41 3.3, -1.42 3.18, -1.45 3.03 M-1.45 3.03 C-1.68 2.85, -1.92 2.67, -2.09 2.54 M-1.45 3.03 C-1.69 2.85, -1.93 2.66, -2.09 2.54 M-2.09 2.54 C-2.4 2.45, -2.72 2.36, -3.11 2.25 M-2.09 2.54 C-2.45 2.44, -2.81 2.34, -3.11 2.25 M-3.11 2.25 C-3.62 2.2, -4.14 2.15, -4.69 2.1 M-3.11 2.25 C-3.51 2.21, -3.91 2.17, -4.69 2.1 M-4.69 2.1 C-5.13 2.04, -5.57 1.98, -6.06 1.91 M-4.69 2.1 C-5.23 2.02, -5.76 1.95, -6.06 1.91 M-6.06 1.91 C-6.47 1.77, -6.88 1.64, -7.23 1.52 M-6.06 1.91 C-6.37 1.8, -6.69 1.7, -7.23 1.52 M-7.23 1.52 C-7.55 1.2, -7.86 0.89, -8.04 0.71 M-7.23 1.52 C-7.44 1.31, -7.65 1.1, -8.04 0.71 M-8.04 0.71 C-8.16 0.31, -8.27 -0.09, -8.34 -0.33 M-8.04 0.71 C-8.14 0.39, -8.23 0.07, -8.34 -0.33 M-8.34 -0.33 C-8.31 -0.59, -8.28 -0.85, -8.21 -1.51 M-8.34 -0.33 C-8.31 -0.6, -8.28 -0.87, -8.21 -1.51 M-8.21 -1.51 C-8 -1.83, -7.79 -2.16, -7.63 -2.41 M-8.21 -1.51 C-7.98 -1.86, -7.75 -2.22, -7.63 -2.41 M-7.63 -2.41 C-7.42 -2.56, -7.21 -2.71, -6.7 -3.08 M-7.63 -2.41 C-7.4 -2.57, -7.17 -2.74, -6.7 -3.08 M-6.7 -3.08 C-6.52 -3.12, -6.34 -3.17, -5.83 -3.28 M-6.7 -3.08 C-6.4 -3.15, -6.11 -3.22, -5.83 -3.28 M-5.83 -3.28 C-5.58 -3.33, -5.33 -3.37, -4.98 -3.44 M-5.83 -3.28 C-5.57 -3.33, -5.3 -3.38, -4.98 -3.44 M-4.98 -3.44 C-4.77 -3.43, -4.55 -3.43, -4.11 -3.42 M-4.98 -3.44 C-4.72 -3.43, -4.46 -3.43, -4.11 -3.42 M-4.11 -3.42 C-3.92 -3.39, -3.73 -3.37, -3.24 -3.3 M-4.11 -3.42 C-3.86 -3.38, -3.61 -3.35, -3.24 -3.3 M-3.24 -3.3 C-2.79 -3.24, -2.35 -3.19, -2.02 -3.15 M-3.24 -3.3 C-2.78 -3.24, -2.33 -3.19, -2.02 -3.15 M-2.02 -3.15 C-1.73 -2.97, -1.43 -2.78, -0.9 -2.45 M-2.02 -3.15 C-1.7 -2.95, -1.38 -2.75, -0.9 -2.45 M-0.9 -2.45 C-0.74 -2.29, -0.59 -2.14, -0.34 -1.89 M-0.9 -2.45 C-0.76 -2.31, -0.62 -2.17, -0.34 -1.89 M-0.34 -1.89 C-0.28 -1.75, -0.22 -1.62, -0.04 -1.23 M-0.34 -1.89 C-0.25 -1.69, -0.16 -1.5, -0.04 -1.23 M-0.04 -1.23 C-0.01 -1.05, 0.03 -0.88, 0.09 -0.55 M-0.04 -1.23 C0.01 -0.99, 0.05 -0.75, 0.09 -0.55 M0.09 -0.55 C0.06 -0.39, 0.04 -0.23, 0 0 M0.09 -0.55 C0.06 -0.36, 0.03 -0.16, 0 0 M0 0 C0 0, 0 0, 0 0 M0 0 C0 0, 0 0, 0 0" stroke="transparent" stroke-width="1" fill="none"></path></g></g><mask></mask><g stroke-linecap="round" transform="translate(447.1697796802325 249.66842699641825) rotate(0 75.36707456441366 56.103443278004875)"><path d="M28.05 0 L122.68 0 L134.96 1.75 L139.78 3.94 L143.72 7.01 L146.79 10.96 L148.98 15.78 L150.73 28.05 L150.3 90.73 L148.98 96.43 L146.79 101.25 L143.72 105.19 L139.78 108.26 L134.96 110.45 L122.68 112.21 L28.05 112.21 L15.78 110.45 L10.96 108.26 L7.01 105.19 L3.94 101.25 L1.75 96.43 L0.44 90.73 L0.44 21.48 L1.75 15.78 L3.94 10.96 L7.01 7.01 L10.96 3.94 L15.78 1.75 L28.05 0" stroke="none" stroke-width="0" fill="#ffffff"></path><path d="M28.05 0 M28.05 0 C65.18 0, 102.32 0, 122.68 0 M28.05 0 C47.85 0, 67.66 0, 122.68 0 M122.68 0 C141.38 0, 150.73 9.35, 150.73 28.05 M122.68 0 C141.38 0, 150.73 9.35, 150.73 28.05 M150.73 28.05 C150.73 41.52, 150.73 54.98, 150.73 84.16 M150.73 28.05 C150.73 40.15, 150.73 52.25, 150.73 84.16 M150.73 84.16 C150.73 102.86, 141.38 112.21, 122.68 112.21 M150.73 84.16 C150.73 102.86, 141.38 112.21, 122.68 112.21 M122.68 112.21 C99.16 112.21, 75.63 112.21, 28.05 112.21 M122.68 112.21 C101.33 112.21, 79.97 112.21, 28.05 112.21 M28.05 112.21 C9.35 112.21, 0 102.86, 0 84.16 M28.05 112.21 C9.35 112.21, 0 102.86, 0 84.16 M0 84.16 C0 62.13, 0 40.1, 0 28.05 M0 84.16 C0 65.05, 0 45.95, 0 28.05 M0 28.05 C0 9.35, 9.35 0, 28.05 0 M0 28.05 C0 9.35, 9.35 0, 28.05 0" stroke="#28343c" stroke-width="2" fill="none"></path></g><g stroke-linecap="round" transform="translate(467.1009866440015 272.3748638211898) rotate(0 54.90733479043104 35.32499860643122)"><path d="M17.66 0 L92.15 0 L96.29 0.28 L102.92 2.48 L107.33 6.9 L109.54 13.52 L109.81 52.99 L109.54 57.13 L107.33 63.75 L102.92 68.17 L96.29 70.37 L92.15 70.65 L17.66 70.65 L13.52 70.37 L6.9 68.17 L2.48 63.75 L0.28 57.13 L0.28 13.52 L2.48 6.9 L6.9 2.48 L13.52 0.28 L17.66 0" stroke="none" stroke-width="0" fill="#ffffff"></path><path d="M17.66 0 M17.66 0 C39.53 0, 61.4 0, 92.15 0 M92.15 0 C103.93 0, 109.81 5.89, 109.81 17.66 M109.81 17.66 C109.81 27.04, 109.81 36.41, 109.81 52.99 M109.81 52.99 C109.81 64.76, 103.93 70.65, 92.15 70.65 M92.15 70.65 C68.26 70.65, 44.37 70.65, 17.66 70.65 M17.66 70.65 C5.89 70.65, 0 64.76, 0 52.99 M0 52.99 C0 41.34, 0 29.69, 0 17.66 M0 17.66 C0 5.89, 5.89 0, 17.66 0" stroke="#000000" stroke-width="1.5" fill="none" stroke-dasharray="1.5 7"></path></g><g transform="translate(474.4424507440308 278.8848129874766) rotate(0 48 28.499999999999886)"><text x="48" y="13" font-family="Virgil, Segoe UI Emoji" font-size="15.093512093461456px" fill="#000000" text-anchor="middle" style="white-space: pre;" direction="ltr">1 Thread</text><text x="48" y="32" font-family="Virgil, Segoe UI Emoji" font-size="15.093512093461456px" fill="#000000" text-anchor="middle" style="white-space: pre;" direction="ltr">+</text><text x="48" y="51" font-family="Virgil, Segoe UI Emoji" font-size="15.093512093461456px" fill="#000000" text-anchor="middle" style="white-space: pre;" direction="ltr">1 Event Loop</text></g><g stroke-linecap="round" transform="translate(413.9950766307686 213.00433865746322) rotate(0 78.94394024193798 24.566470914449155)"><path d="M0 0 L157.89 0 L157.89 49.13 L0 49.13" stroke="none" stroke-width="0" fill="#ffffff"></path><path d="M0 0 C37.75 0, 75.5 0, 157.89 0 M0 0 C49.04 0, 98.09 0, 157.89 0 M157.89 0 C157.89 15, 157.89 29.99, 157.89 49.13 M157.89 0 C157.89 10.72, 157.89 21.44, 157.89 49.13 M157.89 49.13 C107.52 49.13, 57.15 49.13, 0 49.13 M157.89 49.13 C95.93 49.13, 33.98 49.13, 0 49.13 M0 49.13 C0 36.9, 0 24.66, 0 0 M0 49.13 C0 37.34, 0 25.55, 0 0" stroke="transparent" stroke-width="4" fill="none"></path></g><g stroke-linecap="round"><g transform="translate(454.22951562511 241.72114485999668) rotate(0 -10.316528426051832 4.741528514209676)" fill-rule="evenodd"><path d="M0 0 L-0.11 15.56 L-6.93 11.78 L-7 3.74 L-10.37 1.82 L-13.85 4.07 L-13.93 11.85 L-20.63 15.6 L-20.63 0.04 L-10.34 -6.11 L0 0" stroke="none" stroke-width="0" fill="#263238" fill-rule="evenodd"></path><path d="M0 0 C-0.02 3.18, -0.05 6.36, -0.11 15.56 M-0.11 15.56 C-2.23 14.38, -4.35 13.21, -6.93 11.78 M-6.93 11.78 C-6.95 9.38, -6.97 6.97, -7 3.74 M-7 3.74 C-8.28 3.01, -9.55 2.29, -10.37 1.82 M-10.37 1.82 C-11.1 2.29, -11.83 2.76, -13.85 4.07 M-13.85 4.07 C-13.87 6.08, -13.89 8.09, -13.93 11.85 M-13.93 11.85 C-15.96 12.98, -17.98 14.12, -20.63 15.6 M-20.63 15.6 C-20.63 9.68, -20.63 3.77, -20.63 0.04 M-20.63 0.04 C-17.24 -1.99, -13.85 -4.01, -10.34 -6.11 M-10.34 -6.11 C-7.15 -4.23, -3.96 -2.34, 0 0 M0 0 C0 0, 0 0, 0 0" stroke="transparent" stroke-width="1.5" fill="none" stroke-dasharray="1.5 7"></path></g></g><mask></mask><g stroke-linecap="round"><g transform="translate(461.2306806219001 241.79522926581535) rotate(0 10.46470317264857 5.908388852428175)" fill-rule="evenodd"><path d="M0 0 L10.19 -6.15 L21.08 0.15 L21 11.71 L10.37 17.97 L-0.15 11.59 L0 0" stroke="none" stroke-width="0" fill="#82c91e" fill-rule="evenodd"></path><path d="M0 0 C2.67 -1.61, 5.33 -3.22, 10.19 -6.15 M10.19 -6.15 C14.21 -3.82, 18.23 -1.5, 21.08 0.15 M21.08 0.15 C21.06 2.55, 21.05 4.95, 21 11.71 M21 11.71 C18.64 13.1, 16.28 14.49, 10.37 17.97 M10.37 17.97 C7.23 16.07, 4.09 14.16, -0.15 11.59 M-0.15 11.59 C-0.11 8.6, -0.07 5.6, 0 0 M0 0 C0 0, 0 0, 0 0" stroke="transparent" stroke-width="1.5" fill="none" stroke-dasharray="1.5 7"></path></g></g><mask></mask><g stroke-linecap="round"><g transform="translate(502.5576453106148 237.72105277760488) rotate(0 -3.302731335043518 3.4038353397619403)" fill-rule="evenodd"><path d="M0 0 L-3.37 -1.69 L-13.68 4.15 L-13.65 16.08 L-3.37 22.04 L6.98 16.01 L7.08 -11.56 L0.27 -15.23 L0 0" stroke="none" stroke-width="0" fill="#263238" fill-rule="evenodd"></path><path d="M0 0 C-1.12 -0.56, -2.25 -1.12, -3.37 -1.69 M-3.37 -1.69 C-6.4 0.03, -9.42 1.74, -13.68 4.15 M-13.68 4.15 C-13.67 7.79, -13.66 11.44, -13.65 16.08 M-13.65 16.08 C-11.01 17.61, -8.38 19.14, -3.37 22.04 M-3.37 22.04 C-0.66 20.46, 2.05 18.88, 6.98 16.01 M6.98 16.01 C7 8.8, 7.03 1.59, 7.08 -11.56 M7.08 -11.56 C5.01 -12.68, 2.93 -13.8, 0.27 -15.23 M0.27 -15.23 C0.17 -9.64, 0.07 -4.04, 0 0 M0 0 C0 0, 0 0, 0 0" stroke="transparent" stroke-width="1.5" fill="none" stroke-dasharray="1.5 7"></path></g></g><mask></mask><g stroke-linecap="round"><g transform="translate(516.2740922171049 241.86631619969808) rotate(0 10.430563667692468 5.746077858617923)" fill-rule="evenodd"><path d="M0 0 L10.48 -6.07 L20.86 0.03 L20.83 3.54 L13.88 7.79 L13.92 3.81 L10.55 1.79 L6.98 3.91 L6.94 7.79 L16.92 13.75 L10.68 17.56 L0.1 11.53 L0 0" stroke="none" stroke-width="0" fill="#263238" fill-rule="evenodd"></path><path d="M0 0 C3.6 -2.08, 7.2 -4.16, 10.48 -6.07 M10.48 -6.07 C12.99 -4.59, 15.5 -3.12, 20.86 0.03 M20.86 0.03 C20.85 1.21, 20.84 2.38, 20.83 3.54 M20.83 3.54 C18.2 5.15, 15.57 6.75, 13.88 7.79 M13.88 7.79 C13.89 6.81, 13.9 5.83, 13.92 3.81 M13.92 3.81 C12.6 3.02, 11.28 2.22, 10.55 1.79 M10.55 1.79 C9.76 2.26, 8.96 2.73, 6.98 3.91 M6.98 3.91 C6.96 5.37, 6.95 6.84, 6.94 7.79 M6.94 7.79 C9.16 9.11, 11.38 10.44, 16.92 13.75 M16.92 13.75 C14.72 15.09, 12.53 16.43, 10.68 17.56 M10.68 17.56 C7.44 15.71, 4.19 13.86, 0.1 11.53 M0.1 11.53 C0.08 8.59, 0.05 5.65, 0 0 M0 0 C0 0, 0 0, 0 0" stroke="transparent" stroke-width="1.5" fill="none" stroke-dasharray="1.5 7"></path></g></g><mask></mask><g stroke-linecap="round"><g transform="translate(499.09736995859 243.79169593097572) rotate(0 0.07713318966000315 4.022787902571508)" fill-rule="evenodd"><path d="M0 0 L3.62 2.08 L3.62 5.89 L0.22 8.05 L-3.47 6.11 L-3.45 1.98 L0 0" stroke="none" stroke-width="0" fill="#ffffff" fill-rule="evenodd"></path><path d="M0 0 C0.81 0.47, 1.62 0.93, 3.62 2.08 M3.62 2.08 C3.62 3.01, 3.62 3.95, 3.62 5.89 M3.62 5.89 C2.63 6.52, 1.64 7.15, 0.22 8.05 M0.22 8.05 C-0.94 7.44, -2.1 6.83, -3.47 6.11 M-3.47 6.11 C-3.46 5.11, -3.46 4.1, -3.45 1.98 M-3.45 1.98 C-2.69 1.54, -1.93 1.11, 0 0 M0 0 C0 0, 0 0, 0 0" stroke="transparent" stroke-width="1.5" fill="none" stroke-dasharray="1.5 7"></path></g></g><mask></mask><g stroke-linecap="round"><g transform="translate(544.2656922386284 241.49561474190273) rotate(0 10.177205219586654 6.120792852800264)" fill-rule="evenodd"><path d="M0 0 L0.47 -0.51 L1.23 -1.04 L4.79 -3.06 L9.56 -5.77 L10.66 -5.82 L12.66 -4.67 L15.4 -3.13 L18.18 -1.58 L19.62 -0.73 L20.35 -0.2 L20.73 0.58 L20.73 12.05 L15.78 15.05 L10.89 17.76 L10.23 18.06 L9.47 17.76 L6.19 15.82 L6.19 15.51 L7.65 14.78 L9.94 16.18 L10.26 16.19 L14.39 13.9 L18.67 11.45 L19.04 11.16 L19.04 1.18 L18.84 0.74 L14.48 -1.79 L10.11 -4.19 L5.83 -1.74 L1.27 1.1 L1.2 10.87 L2.54 11.97 L3.99 12.83 L4.45 12.9 L5.43 12.54 L5.66 12.22 L5.65 1.57 L6.59 1.52 L7.58 1.55 L7.48 12.65 L6.47 14.07 L5.17 14.69 L3.83 14.43 L2.99 14.09 L1.58 13.34 L0.57 12.65 L-0.14 12.05 L-0.38 11.49 L-0.33 0.69" stroke="none" stroke-width="0" fill="#82c91e" fill-rule="evenodd"></path><path d="M0 0 C0.1 -0.1, 0.19 -0.21, 0.47 -0.51 M0.47 -0.51 C0.63 -0.63, 0.79 -0.74, 1.23 -1.04 M1.23 -1.04 C2.52 -1.78, 3.81 -2.51, 4.79 -3.06 M4.79 -3.06 C6.08 -3.79, 7.37 -4.53, 9.56 -5.77 M9.56 -5.77 C9.91 -5.79, 10.27 -5.8, 10.66 -5.82 M10.66 -5.82 C11.15 -5.54, 11.65 -5.25, 12.66 -4.67 M12.66 -4.67 C13.45 -4.22, 14.24 -3.78, 15.4 -3.13 M15.4 -3.13 C16.41 -2.57, 17.42 -2, 18.18 -1.58 M18.18 -1.58 C18.69 -1.28, 19.19 -0.98, 19.62 -0.73 M19.62 -0.73 C19.9 -0.53, 20.17 -0.33, 20.35 -0.2 M20.35 -0.2 C20.5 0.1, 20.65 0.41, 20.73 0.58 M20.73 0.58 C20.73 3.02, 20.73 5.45, 20.73 12.05 M20.73 12.05 C18.96 13.13, 17.19 14.2, 15.78 15.05 M15.78 15.05 C14.27 15.88, 12.76 16.72, 10.89 17.76 M10.89 17.76 C10.63 17.88, 10.38 18, 10.23 18.06 M10.23 18.06 C10.01 17.98, 9.8 17.89, 9.47 17.76 M9.47 17.76 C8.55 17.22, 7.64 16.68, 6.19 15.82 M6.19 15.82 C6.19 15.73, 6.19 15.63, 6.19 15.51 M6.19 15.51 C6.74 15.23, 7.3 14.96, 7.65 14.78 M7.65 14.78 C8.41 15.24, 9.17 15.7, 9.94 16.18 M9.94 16.18 C10.04 16.18, 10.13 16.18, 10.26 16.19 M10.26 16.19 C11.34 15.59, 12.42 14.99, 14.39 13.9 M14.39 13.9 C15.26 13.41, 16.13 12.91, 18.67 11.45 M18.67 11.45 C18.82 11.33, 18.96 11.22, 19.04 11.16 M19.04 11.16 C19.04 8.36, 19.04 5.56, 19.04 1.18 M19.04 1.18 C18.99 1.08, 18.95 0.98, 18.84 0.74 M18.84 0.74 C17.67 0.06, 16.5 -0.61, 14.48 -1.79 M14.48 -1.79 C13.5 -2.32, 12.52 -2.86, 10.11 -4.19 M10.11 -4.19 C8.72 -3.39, 7.32 -2.59, 5.83 -1.74 M5.83 -1.74 C4.62 -0.99, 3.42 -0.24, 1.27 1.1 M1.27 1.1 C1.25 4.4, 1.22 7.7, 1.2 10.87 M1.2 10.87 C1.51 11.12, 1.82 11.38, 2.54 11.97 M2.54 11.97 C2.83 12.15, 3.13 12.32, 3.99 12.83 M3.99 12.83 C4.09 12.84, 4.19 12.86, 4.45 12.9 M4.45 12.9 C4.78 12.78, 5.11 12.66, 5.43 12.54 M5.43 12.54 C5.51 12.43, 5.59 12.32, 5.66 12.22 M5.66 12.22 C5.66 8.48, 5.65 4.75, 5.65 1.57 M5.65 1.57 C5.96 1.56, 6.26 1.54, 6.59 1.52 M6.59 1.52 C6.94 1.53, 7.29 1.54, 7.58 1.55 M7.58 1.55 C7.54 5.46, 7.51 9.37, 7.48 12.65 M7.48 12.65 C7.23 13, 6.98 13.36, 6.47 14.07 M6.47 14.07 C6.19 14.21, 5.9 14.34, 5.17 14.69 M5.17 14.69 C4.87 14.63, 4.56 14.57, 3.83 14.43 M3.83 14.43 C3.52 14.31, 3.2 14.18, 2.99 14.09 M2.99 14.09 C2.64 13.91, 2.28 13.72, 1.58 13.34 M1.58 13.34 C1.27 13.13, 0.95 12.91, 0.57 12.65 M0.57 12.65 C0.31 12.43, 0.06 12.22, -0.14 12.05 M-0.14 12.05 C-0.23 11.84, -0.33 11.62, -0.38 11.49 M-0.38 11.49 C-0.36 7.62, -0.34 3.75, -0.33 0.69 M-0.33 0.69 C-0.26 0.55, -0.19 0.4, 0 0" stroke="transparent" stroke-width="1.5" fill="none" stroke-dasharray="1.5 7"></path></g></g><mask></mask><g stroke-linecap="round"><g transform="translate(561.0975322503452 246.2400218956334) rotate(0 -4.064965081776336 1.4472992855742177)" fill-rule="evenodd"><path d="M0 0 L-1.6 -0.01 L-1.79 -0.67 L-2.07 -1.26 L-2.76 -1.62 L-4.11 -1.73 L-5.17 -1.75 L-5.93 -1.62 L-6.28 -1.43 L-6.52 -1.09 L-6.55 -0.79 L-6.44 -0.47 L-6.32 -0.25 L-6 -0.01 L-4.21 0.38 L-2.07 0.77 L-1.34 0.93 L-0.65 1.23 L-0.19 1.63 L0.23 2.36 L0.39 2.78 L0.46 3.23 L0.39 3.65 L0.24 4.1 L-0.24 4.99 L-0.77 5.55 L-1.43 5.88 L-2.09 6.11 L-3.04 6.25 L-4.16 6.33 L-5.37 6.19 L-6.47 5.91 L-7.55 5.47 L-8.19 4.82 L-8.38 4.21 L-8.58 3.52 L-8.59 2.8 L-6.88 2.8 L-6.82 3.56 L-6.38 4.22 L-5.87 4.42 L-5.27 4.59 L-4.46 4.65 L-3.54 4.65 L-2.78 4.63 L-2.08 4.33 L-1.64 3.81 L-1.39 3.42 L-1.45 3.03 L-2.09 2.54 L-3.11 2.25 L-4.69 2.1 L-6.06 1.91 L-7.23 1.52 L-8.04 0.71 L-8.34 -0.33 L-8.21 -1.51 L-7.63 -2.41 L-6.7 -3.08 L-5.83 -3.28 L-4.98 -3.44 L-4.11 -3.42 L-3.24 -3.3 L-2.02 -3.15 L-0.9 -2.45 L-0.34 -1.89 L-0.04 -1.23 L0.09 -0.55 L0 0" stroke="none" stroke-width="0" fill="#82c91e" fill-rule="evenodd"></path><path d="M0 0 C-0.59 0, -1.18 -0.01, -1.6 -0.01 M0 0 C-0.43 0, -0.87 -0.01, -1.6 -0.01 M-1.6 -0.01 C-1.66 -0.22, -1.72 -0.43, -1.79 -0.67 M-1.6 -0.01 C-1.67 -0.26, -1.75 -0.51, -1.79 -0.67 M-1.79 -0.67 C-1.89 -0.88, -1.99 -1.09, -2.07 -1.26 M-1.79 -0.67 C-1.85 -0.79, -1.91 -0.92, -2.07 -1.26 M-2.07 -1.26 C-2.23 -1.34, -2.38 -1.42, -2.76 -1.62 M-2.07 -1.26 C-2.22 -1.34, -2.37 -1.41, -2.76 -1.62 M-2.76 -1.62 C-3.17 -1.65, -3.58 -1.69, -4.11 -1.73 M-2.76 -1.62 C-3.07 -1.64, -3.37 -1.67, -4.11 -1.73 M-4.11 -1.73 C-4.35 -1.73, -4.59 -1.74, -5.17 -1.75 M-4.11 -1.73 C-4.47 -1.74, -4.83 -1.74, -5.17 -1.75 M-5.17 -1.75 C-5.39 -1.71, -5.61 -1.68, -5.93 -1.62 M-5.17 -1.75 C-5.34 -1.72, -5.52 -1.69, -5.93 -1.62 M-5.93 -1.62 C-6.01 -1.58, -6.1 -1.53, -6.28 -1.43 M-5.93 -1.62 C-6.01 -1.58, -6.08 -1.54, -6.28 -1.43 M-6.28 -1.43 C-6.35 -1.33, -6.42 -1.23, -6.52 -1.09 M-6.28 -1.43 C-6.37 -1.3, -6.46 -1.17, -6.52 -1.09 M-6.52 -1.09 C-6.53 -0.98, -6.54 -0.87, -6.55 -0.79 M-6.52 -1.09 C-6.53 -1.01, -6.53 -0.93, -6.55 -0.79 M-6.55 -0.79 C-6.51 -0.66, -6.46 -0.53, -6.44 -0.47 M-6.55 -0.79 C-6.52 -0.69, -6.48 -0.59, -6.44 -0.47 M-6.44 -0.47 C-6.41 -0.41, -6.37 -0.35, -6.32 -0.25 M-6.44 -0.47 C-6.41 -0.41, -6.38 -0.35, -6.32 -0.25 M-6.32 -0.25 C-6.21 -0.16, -6.1 -0.08, -6 -0.01 M-6.32 -0.25 C-6.22 -0.17, -6.12 -0.1, -6 -0.01 M-6 -0.01 C-5.52 0.1, -5.03 0.2, -4.21 0.38 M-6 -0.01 C-5.39 0.12, -4.79 0.26, -4.21 0.38 M-4.21 0.38 C-3.78 0.46, -3.34 0.54, -2.07 0.77 M-4.21 0.38 C-3.54 0.5, -2.87 0.63, -2.07 0.77 M-2.07 0.77 C-1.91 0.81, -1.75 0.84, -1.34 0.93 M-2.07 0.77 C-1.91 0.81, -1.75 0.84, -1.34 0.93 M-1.34 0.93 C-1.13 1.02, -0.92 1.11, -0.65 1.23 M-1.34 0.93 C-1.11 1.03, -0.88 1.13, -0.65 1.23 M-0.65 1.23 C-0.47 1.38, -0.3 1.53, -0.19 1.63 M-0.65 1.23 C-0.49 1.37, -0.33 1.5, -0.19 1.63 M-0.19 1.63 C-0.07 1.83, 0.05 2.04, 0.23 2.36 M-0.19 1.63 C-0.1 1.79, 0 1.96, 0.23 2.36 M0.23 2.36 C0.26 2.44, 0.29 2.53, 0.39 2.78 M0.23 2.36 C0.28 2.5, 0.34 2.65, 0.39 2.78 M0.39 2.78 C0.41 2.9, 0.43 3.01, 0.46 3.23 M0.39 2.78 C0.41 2.93, 0.44 3.07, 0.46 3.23 M0.46 3.23 C0.44 3.37, 0.41 3.51, 0.39 3.65 M0.46 3.23 C0.43 3.39, 0.41 3.55, 0.39 3.65 M0.39 3.65 C0.35 3.77, 0.31 3.88, 0.24 4.1 M0.39 3.65 C0.33 3.83, 0.27 4.01, 0.24 4.1 M0.24 4.1 C0.14 4.29, 0.04 4.48, -0.24 4.99 M0.24 4.1 C0.14 4.28, 0.05 4.46, -0.24 4.99 M-0.24 4.99 C-0.44 5.2, -0.63 5.4, -0.77 5.55 M-0.24 4.99 C-0.4 5.16, -0.55 5.32, -0.77 5.55 M-0.77 5.55 C-0.94 5.64, -1.11 5.72, -1.43 5.88 M-0.77 5.55 C-0.97 5.65, -1.17 5.75, -1.43 5.88 M-1.43 5.88 C-1.69 5.97, -1.95 6.06, -2.09 6.11 M-1.43 5.88 C-1.64 5.95, -1.85 6.02, -2.09 6.11 M-2.09 6.11 C-2.36 6.15, -2.63 6.19, -3.04 6.25 M-2.09 6.11 C-2.42 6.15, -2.74 6.2, -3.04 6.25 M-3.04 6.25 C-3.28 6.26, -3.53 6.28, -4.16 6.33 M-3.04 6.25 C-3.29 6.27, -3.55 6.29, -4.16 6.33 M-4.16 6.33 C-4.52 6.29, -4.89 6.25, -5.37 6.19 M-4.16 6.33 C-4.56 6.29, -4.97 6.24, -5.37 6.19 M-5.37 6.19 C-5.62 6.13, -5.86 6.07, -6.47 5.91 M-5.37 6.19 C-5.64 6.12, -5.91 6.05, -6.47 5.91 M-6.47 5.91 C-6.8 5.78, -7.12 5.65, -7.55 5.47 M-6.47 5.91 C-6.74 5.8, -7 5.69, -7.55 5.47 M-7.55 5.47 C-7.72 5.3, -7.89 5.13, -8.19 4.82 M-7.55 5.47 C-7.7 5.32, -7.86 5.16, -8.19 4.82 M-8.19 4.82 C-8.24 4.65, -8.3 4.49, -8.38 4.21 M-8.19 4.82 C-8.23 4.69, -8.27 4.55, -8.38 4.21 M-8.38 4.21 C-8.45 4, -8.51 3.78, -8.58 3.52 M-8.38 4.21 C-8.46 3.96, -8.53 3.71, -8.58 3.52 M-8.58 3.52 C-8.59 3.23, -8.59 2.94, -8.59 2.8 M-8.58 3.52 C-8.59 3.27, -8.59 3.02, -8.59 2.8 M-8.59 2.8 C-8.25 2.8, -7.9 2.8, -6.88 2.8 M-8.59 2.8 C-8.24 2.8, -7.89 2.8, -6.88 2.8 M-6.88 2.8 C-6.87 2.98, -6.85 3.17, -6.82 3.56 M-6.88 2.8 C-6.86 3, -6.85 3.21, -6.82 3.56 M-6.82 3.56 C-6.7 3.75, -6.57 3.94, -6.38 4.22 M-6.82 3.56 C-6.72 3.71, -6.62 3.86, -6.38 4.22 M-6.38 4.22 C-6.2 4.3, -6.02 4.37, -5.87 4.42 M-6.38 4.22 C-6.27 4.27, -6.16 4.31, -5.87 4.42 M-5.87 4.42 C-5.64 4.48, -5.41 4.55, -5.27 4.59 M-5.87 4.42 C-5.66 4.48, -5.46 4.54, -5.27 4.59 M-5.27 4.59 C-5.02 4.61, -4.77 4.63, -4.46 4.65 M-5.27 4.59 C-4.98 4.61, -4.7 4.63, -4.46 4.65 M-4.46 4.65 C-4.26 4.65, -4.07 4.65, -3.54 4.65 M-4.46 4.65 C-4.15 4.65, -3.85 4.65, -3.54 4.65 M-3.54 4.65 C-3.37 4.64, -3.2 4.64, -2.78 4.63 M-3.54 4.65 C-3.38 4.65, -3.23 4.64, -2.78 4.63 M-2.78 4.63 C-2.51 4.51, -2.24 4.39, -2.08 4.33 M-2.78 4.63 C-2.62 4.56, -2.47 4.49, -2.08 4.33 M-2.08 4.33 C-1.98 4.2, -1.87 4.08, -1.64 3.81 M-2.08 4.33 C-1.96 4.19, -1.85 4.05, -1.64 3.81 M-1.64 3.81 C-1.59 3.72, -1.53 3.64, -1.39 3.42 M-1.64 3.81 C-1.56 3.68, -1.48 3.56, -1.39 3.42 M-1.39 3.42 C-1.4 3.32, -1.42 3.21, -1.45 3.03 M-1.39 3.42 C-1.41 3.27, -1.43 3.12, -1.45 3.03 M-1.45 3.03 C-1.63 2.9, -1.81 2.76, -2.09 2.54 M-1.45 3.03 C-1.69 2.85, -1.92 2.67, -2.09 2.54 M-2.09 2.54 C-2.33 2.47, -2.57 2.4, -3.11 2.25 M-2.09 2.54 C-2.47 2.43, -2.86 2.32, -3.11 2.25 M-3.11 2.25 C-3.54 2.21, -3.96 2.17, -4.69 2.1 M-3.11 2.25 C-3.74 2.19, -4.36 2.13, -4.69 2.1 M-4.69 2.1 C-5.02 2.05, -5.34 2.01, -6.06 1.91 M-4.69 2.1 C-4.97 2.06, -5.24 2.02, -6.06 1.91 M-6.06 1.91 C-6.47 1.77, -6.89 1.63, -7.23 1.52 M-6.06 1.91 C-6.36 1.81, -6.66 1.71, -7.23 1.52 M-7.23 1.52 C-7.53 1.22, -7.83 0.92, -8.04 0.71 M-7.23 1.52 C-7.55 1.2, -7.87 0.89, -8.04 0.71 M-8.04 0.71 C-8.16 0.3, -8.28 -0.11, -8.34 -0.33 M-8.04 0.71 C-8.13 0.4, -8.22 0.09, -8.34 -0.33 M-8.34 -0.33 C-8.3 -0.7, -8.26 -1.06, -8.21 -1.51 M-8.34 -0.33 C-8.31 -0.6, -8.28 -0.87, -8.21 -1.51 M-8.21 -1.51 C-8 -1.82, -7.8 -2.14, -7.63 -2.41 M-8.21 -1.51 C-8.03 -1.78, -7.86 -2.05, -7.63 -2.41 M-7.63 -2.41 C-7.31 -2.63, -7 -2.86, -6.7 -3.08 M-7.63 -2.41 C-7.29 -2.65, -6.95 -2.9, -6.7 -3.08 M-6.7 -3.08 C-6.47 -3.14, -6.24 -3.19, -5.83 -3.28 M-6.7 -3.08 C-6.42 -3.15, -6.14 -3.21, -5.83 -3.28 M-5.83 -3.28 C-5.56 -3.33, -5.29 -3.38, -4.98 -3.44 M-5.83 -3.28 C-5.66 -3.32, -5.48 -3.35, -4.98 -3.44 M-4.98 -3.44 C-4.74 -3.43, -4.5 -3.43, -4.11 -3.42 M-4.98 -3.44 C-4.74 -3.43, -4.5 -3.43, -4.11 -3.42 M-4.11 -3.42 C-3.84 -3.38, -3.57 -3.34, -3.24 -3.3 M-4.11 -3.42 C-3.83 -3.38, -3.56 -3.34, -3.24 -3.3 M-3.24 -3.3 C-2.99 -3.27, -2.74 -3.24, -2.02 -3.15 M-3.24 -3.3 C-2.84 -3.25, -2.45 -3.2, -2.02 -3.15 M-2.02 -3.15 C-1.63 -2.9, -1.23 -2.65, -0.9 -2.45 M-2.02 -3.15 C-1.78 -3, -1.54 -2.85, -0.9 -2.45 M-0.9 -2.45 C-0.69 -2.24, -0.48 -2.03, -0.34 -1.89 M-0.9 -2.45 C-0.73 -2.28, -0.56 -2.11, -0.34 -1.89 M-0.34 -1.89 C-0.25 -1.69, -0.16 -1.5, -0.04 -1.23 M-0.34 -1.89 C-0.22 -1.63, -0.1 -1.37, -0.04 -1.23 M-0.04 -1.23 C0.01 -0.97, 0.06 -0.71, 0.09 -0.55 M-0.04 -1.23 C0 -1.03, 0.04 -0.83, 0.09 -0.55 M0.09 -0.55 C0.06 -0.36, 0.03 -0.17, 0 0 M0.09 -0.55 C0.06 -0.39, 0.04 -0.23, 0 0 M0 0 C0 0, 0 0, 0 0 M0 0 C0 0, 0 0, 0 0" stroke="transparent" stroke-width="1" fill="none"></path></g></g><mask></mask><g stroke-linecap="round"><g transform="translate(443.08832684088065 103.3491374464229) rotate(0 -37.90270879996933 104.28767321060855)"><path d="M0 0 C-27.36 0.01, -54.71 0.01, -77.68 0.01 M0 0 C-19.38 0, -38.75 0.01, -77.68 0.01 M-77.68 0.01 C-77.69 45.46, -77.7 90.9, -77.73 208.58 M-77.68 0.01 C-77.69 47.15, -77.7 94.29, -77.73 208.58 M-77.73 208.58 C-48.14 208.58, -18.56 208.58, 1.93 208.58 M-77.73 208.58 C-57.86 208.58, -37.98 208.58, 1.93 208.58" stroke="#28343c" stroke-width="1" fill="none"></path></g><g transform="translate(443.08832684088065 103.3491374464229) rotate(0 -37.90270879996933 104.28767321060855)"><path d="M0 0 L-13.59 6.34 L-13.6 -6.34 L0 0" stroke="none" stroke-width="0" fill="#28343c" fill-rule="evenodd"></path><path d="M0 0 C-4.79 2.23, -9.57 4.47, -13.59 6.34 M0 0 C-3.39 1.58, -6.78 3.16, -13.59 6.34 M-13.59 6.34 C-13.59 3.58, -13.59 0.82, -13.6 -6.34 M-13.59 6.34 C-13.59 3.48, -13.59 0.61, -13.6 -6.34 M-13.6 -6.34 C-8.55 -3.98, -3.5 -1.63, 0 0 M-13.6 -6.34 C-10.2 -4.76, -6.81 -3.17, 0 0 M0 0 C0 0, 0 0, 0 0 M0 0 C0 0, 0 0, 0 0" stroke="#28343c" stroke-width="1" fill="none"></path></g><g transform="translate(443.08832684088065 103.3491374464229) rotate(0 -37.90270879996933 104.28767321060855)"><path d="M1.93 208.58 L-11.67 214.91 L-11.67 202.24 L1.93 208.58" stroke="none" stroke-width="0" fill="#28343c" fill-rule="evenodd"></path><path d="M1.93 208.58 C-2.86 210.81, -7.65 213.04, -11.67 214.91 M1.93 208.58 C-1.46 210.16, -4.85 211.74, -11.67 214.91 M-11.67 214.91 C-11.67 212.15, -11.67 209.39, -11.67 202.24 M-11.67 214.91 C-11.67 212.05, -11.67 209.18, -11.67 202.24 M-11.67 202.24 C-6.62 204.59, -1.57 206.95, 1.93 208.58 M-11.67 202.24 C-8.28 203.82, -4.88 205.4, 1.93 208.58 M1.93 208.58 C1.93 208.58, 1.93 208.58, 1.93 208.58 M1.93 208.58 C1.93 208.58, 1.93 208.58, 1.93 208.58" stroke="#28343c" stroke-width="1" fill="none"></path></g></g><mask></mask><g stroke-linecap="round"><g transform="translate(195.38600685664323 210.31647384232383) rotate(0 84.98898165852529 0.546552936710782)"><path d="M0 0 C55.53 0.36, 111.07 0.71, 169.98 1.09 M0 0 C51.68 0.33, 103.35 0.66, 169.98 1.09" stroke="#28343c" stroke-width="1" fill="none"></path></g></g><mask></mask><g transform="translate(449.68452122373105 182.4829590388265) rotate(0 73.5 12.5)"><text x="73.5" y="18" font-family="Virgil, Segoe UI Emoji" font-size="20px" fill="#000000" text-anchor="middle" style="white-space: pre;" direction="ltr">child processes</text></g></svg>