<svg version="1.1" xmlns="http://www.w3.org/2000/svg" viewBox="0 0 1212.922402465203 453.4342452141052" width="2425.844804930406" height="906.8684904282104">
  <!-- svg-source:excalidraw -->
  
  <defs>
    <style class="style-fonts">
      @font-face {
        font-family: "Virgil";
        src: url("https://excalidraw.com/Virgil.woff2");
      }
      @font-face {
        font-family: "Cascadia";
        src: url("https://excalidraw.com/Cascadia.woff2");
      }
    </style>
  </defs>
  <g stroke-linecap="round" transform="translate(191.75830577499255 10) rotate(0 52.135077445001116 63.06272464659685)"><path d="M26.07 0 L84.31 0.41 L89.61 1.63 L94.09 3.67 L97.75 6.52 L100.6 10.18 L102.64 14.66 L104.27 26.07 L104.27 100.06 L102.64 111.46 L100.6 115.94 L97.75 119.61 L94.09 122.46 L89.61 124.5 L78.2 126.13 L19.96 125.72 L14.66 124.5 L10.18 122.46 L6.52 119.61 L3.67 115.94 L1.63 111.46 L0 100.06 L0.41 19.96 L1.63 14.66 L3.67 10.18 L6.52 6.52 L10.18 3.67 L14.66 1.63 L26.07 0" stroke="none" stroke-width="0" fill="#be4bdb"></path><path d="M26.07 0 M26.07 0 C45.99 0, 65.92 0, 78.2 0 M26.07 0 C44.03 0, 62 0, 78.2 0 M78.2 0 C95.58 0, 104.27 8.69, 104.27 26.07 M78.2 0 C95.58 0, 104.27 8.69, 104.27 26.07 M104.27 26.07 C104.27 41.69, 104.27 57.31, 104.27 100.06 M104.27 26.07 C104.27 42.26, 104.27 58.46, 104.27 100.06 M104.27 100.06 C104.27 117.44, 95.58 126.13, 78.2 126.13 M104.27 100.06 C104.27 117.44, 95.58 126.13, 78.2 126.13 M78.2 126.13 C64.99 126.13, 51.78 126.13, 26.07 126.13 M78.2 126.13 C64.45 126.13, 50.7 126.13, 26.07 126.13 M26.07 126.13 C8.69 126.13, 0 117.44, 0 100.06 M26.07 126.13 C8.69 126.13, 0 117.44, 0 100.06 M0 100.06 C0 75.25, 0 50.45, 0 26.07 M0 100.06 C0 73.12, 0 46.17, 0 26.07 M0 26.07 C0 8.69, 8.69 0, 26.07 0 M0 26.07 C0 8.69, 8.69 0, 26.07 0" stroke="#263238" stroke-width="4" fill="none"></path></g><g stroke-linecap="round" transform="translate(214.30996551876524 28.755083484873467) rotate(0 30.507609013875026 12.029814279919037)"><path d="M61.02 12.03 C61.02 12.73, 60.86 13.43, 60.55 14.12 C60.25 14.8, 59.78 15.49, 59.18 16.14 C58.57 16.8, 57.81 17.44, 56.93 18.04 C56.05 18.65, 55.01 19.23, 53.88 19.76 C52.74 20.3, 51.47 20.8, 50.12 21.25 C48.76 21.69, 47.29 22.1, 45.76 22.45 C44.23 22.8, 42.6 23.1, 40.94 23.33 C39.28 23.57, 37.54 23.76, 35.81 23.88 C34.07 24, 32.27 24.06, 30.51 24.06 C28.74 24.06, 26.95 24, 25.21 23.88 C23.47 23.76, 21.73 23.57, 20.07 23.33 C18.41 23.1, 16.78 22.8, 15.25 22.45 C13.72 22.1, 12.25 21.69, 10.9 21.25 C9.54 20.8, 8.27 20.3, 7.14 19.76 C6 19.23, 4.97 18.65, 4.09 18.04 C3.2 17.44, 2.44 16.8, 1.84 16.14 C1.24 15.49, 0.77 14.8, 0.46 14.12 C0.16 13.43, 0 12.73, 0 12.03 C0 11.33, 0.16 10.63, 0.46 9.94 C0.77 9.26, 1.24 8.57, 1.84 7.92 C2.44 7.26, 3.2 6.62, 4.09 6.01 C4.97 5.41, 6 4.83, 7.14 4.3 C8.27 3.76, 9.54 3.26, 10.9 2.81 C12.25 2.37, 13.72 1.96, 15.25 1.61 C16.78 1.26, 18.41 0.96, 20.07 0.73 C21.73 0.49, 23.47 0.3, 25.21 0.18 C26.95 0.06, 28.74 0, 30.51 0 C32.27 0, 34.07 0.06, 35.81 0.18 C37.54 0.3, 39.28 0.49, 40.94 0.73 C42.6 0.96, 44.23 1.26, 45.76 1.61 C47.29 1.96, 48.76 2.37, 50.12 2.81 C51.47 3.26, 52.74 3.76, 53.88 4.3 C55.01 4.83, 56.05 5.41, 56.93 6.01 C57.81 6.62, 58.57 7.26, 59.18 7.92 C59.78 8.57, 60.25 9.26, 60.55 9.94 C60.86 10.63, 60.94 11.68, 61.02 12.03 C61.09 12.38, 61.09 11.68, 61.02 12.03" stroke="white" stroke-width="2" fill="none"></path></g><g stroke-linecap="round"><g transform="translate(214.41597773362446 39.90518300660915) rotate(0 30.450933332021123 39.95678577231752)"><path d="M0 0 C0 5.49, 0 23.75, 0 32.91 C0 42.08, 0.02 49.94, 0 54.99 C-0.02 60.04, -0.11 60.93, -0.09 63.23 C-0.08 65.54, -0.28 67.36, 0.09 68.83 C0.47 70.29, 0.46 70.7, 2.18 72.05 C3.9 73.39, 7.62 75.69, 10.41 76.88 C13.2 78.06, 15.66 78.65, 18.93 79.15 C22.19 79.66, 25.82 79.94, 30 79.91 C34.18 79.88, 39.79 79.83, 44.01 78.96 C48.22 78.1, 52.56 76.14, 55.27 74.7 C57.98 73.26, 59.35 72.41, 60.28 70.34 C61.21 68.27, 60.73 66.04, 60.85 62.29 C60.98 58.53, 61.03 52.17, 61.04 47.81 C61.05 43.45, 60.92 41.24, 60.91 36.14 C60.89 31.03, 60.96 23.12, 60.95 17.18 C60.94 11.25, 60.87 3.29, 60.85 0.51 M0 0 C0 5.49, 0 23.75, 0 32.91 C0 42.08, 0.02 49.94, 0 54.99 C-0.02 60.04, -0.11 60.93, -0.09 63.23 C-0.08 65.54, -0.28 67.36, 0.09 68.83 C0.47 70.29, 0.46 70.7, 2.18 72.05 C3.9 73.39, 7.62 75.69, 10.41 76.88 C13.2 78.06, 15.66 78.65, 18.93 79.15 C22.19 79.66, 25.82 79.94, 30 79.91 C34.18 79.88, 39.79 79.83, 44.01 78.96 C48.22 78.1, 52.56 76.14, 55.27 74.7 C57.98 73.26, 59.35 72.41, 60.28 70.34 C61.21 68.27, 60.73 66.04, 60.85 62.29 C60.98 58.53, 61.03 52.17, 61.04 47.81 C61.05 43.45, 60.92 41.24, 60.91 36.14 C60.89 31.03, 60.96 23.12, 60.95 17.18 C60.94 11.25, 60.87 3.29, 60.85 0.51" stroke="white" stroke-width="2" fill="none"></path></g></g><mask></mask><g stroke-linecap="round"><g transform="translate(214.6377665026066 65.02866236525733) rotate(0 30.562428615881345 4.919551741262353)"><path d="M0 0 C0.54 0.64, 1.85 2.69, 3.23 3.82 C4.61 4.94, 6.49 5.92, 8.29 6.75 C10.09 7.58, 11.77 8.21, 14.02 8.81 C16.27 9.4, 19.3 10.02, 21.79 10.35 C24.29 10.68, 26.36 10.76, 28.98 10.79 C31.61 10.81, 34.79 10.77, 37.57 10.49 C40.35 10.21, 43.01 9.69, 45.64 9.1 C48.27 8.51, 51.23 7.9, 53.35 6.97 C55.46 6.04, 57.04 4.84, 58.34 3.52 C59.63 2.2, 60.66 -0.21, 61.12 -0.95 M0 0 C0.54 0.64, 1.85 2.69, 3.23 3.82 C4.61 4.94, 6.49 5.92, 8.29 6.75 C10.09 7.58, 11.77 8.21, 14.02 8.81 C16.27 9.4, 19.3 10.02, 21.79 10.35 C24.29 10.68, 26.36 10.76, 28.98 10.79 C31.61 10.81, 34.79 10.77, 37.57 10.49 C40.35 10.21, 43.01 9.69, 45.64 9.1 C48.27 8.51, 51.23 7.9, 53.35 6.97 C55.46 6.04, 57.04 4.84, 58.34 3.52 C59.63 2.2, 60.66 -0.21, 61.12 -0.95" stroke="white" stroke-width="2" fill="none"></path></g></g><mask></mask><g stroke-linecap="round"><g transform="translate(214.7468236169443 88.24203201512137) rotate(0 30.562428615881345 4.919551741262353)"><path d="M0 0 C0.54 0.64, 1.85 2.69, 3.23 3.82 C4.61 4.94, 6.49 5.92, 8.29 6.75 C10.09 7.58, 11.77 8.21, 14.02 8.81 C16.27 9.4, 19.3 10.02, 21.79 10.35 C24.29 10.68, 26.36 10.76, 28.98 10.79 C31.61 10.81, 34.79 10.77, 37.57 10.49 C40.35 10.21, 43.01 9.69, 45.64 9.1 C48.27 8.51, 51.23 7.9, 53.35 6.97 C55.46 6.04, 57.04 4.84, 58.34 3.52 C59.63 2.2, 60.66 -0.21, 61.12 -0.95 M0 0 C0.54 0.64, 1.85 2.69, 3.23 3.82 C4.61 4.94, 6.49 5.92, 8.29 6.75 C10.09 7.58, 11.77 8.21, 14.02 8.81 C16.27 9.4, 19.3 10.02, 21.79 10.35 C24.29 10.68, 26.36 10.76, 28.98 10.79 C31.61 10.81, 34.79 10.77, 37.57 10.49 C40.35 10.21, 43.01 9.69, 45.64 9.1 C48.27 8.51, 51.23 7.9, 53.35 6.97 C55.46 6.04, 57.04 4.84, 58.34 3.52 C59.63 2.2, 60.66 -0.21, 61.12 -0.95" stroke="white" stroke-width="2" fill="none"></path></g></g><mask></mask><g stroke-linecap="round" transform="translate(44.10510048667038 138.70770628691503) rotate(0 52.135077445001116 63.06272464659685)"><path d="M26.07 0 L84.31 0.41 L89.61 1.63 L94.09 3.67 L97.75 6.52 L100.6 10.18 L102.64 14.66 L104.27 26.07 L104.27 100.06 L102.64 111.46 L100.6 115.94 L97.75 119.61 L94.09 122.46 L89.61 124.5 L78.2 126.13 L19.96 125.72 L14.66 124.5 L10.18 122.46 L6.52 119.61 L3.67 115.94 L1.63 111.46 L0 100.06 L0.41 19.96 L1.63 14.66 L3.67 10.18 L6.52 6.52 L10.18 3.67 L14.66 1.63 L26.07 0" stroke="none" stroke-width="0" fill="#be4bdb"></path><path d="M26.07 0 M26.07 0 C40.89 0, 55.71 0, 78.2 0 M26.07 0 C46.46 0, 66.86 0, 78.2 0 M78.2 0 C95.58 0, 104.27 8.69, 104.27 26.07 M78.2 0 C95.58 0, 104.27 8.69, 104.27 26.07 M104.27 26.07 C104.27 43.12, 104.27 60.17, 104.27 100.06 M104.27 26.07 C104.27 50.1, 104.27 74.14, 104.27 100.06 M104.27 100.06 C104.27 117.44, 95.58 126.13, 78.2 126.13 M104.27 100.06 C104.27 117.44, 95.58 126.13, 78.2 126.13 M78.2 126.13 C63.05 126.13, 47.9 126.13, 26.07 126.13 M78.2 126.13 C66.56 126.13, 54.92 126.13, 26.07 126.13 M26.07 126.13 C8.69 126.13, 0 117.44, 0 100.06 M26.07 126.13 C8.69 126.13, 0 117.44, 0 100.06 M0 100.06 C0 79.96, 0 59.86, 0 26.07 M0 100.06 C0 79.29, 0 58.53, 0 26.07 M0 26.07 C0 8.69, 8.69 0, 26.07 0 M0 26.07 C0 8.69, 8.69 0, 26.07 0" stroke="#263238" stroke-width="4" fill="none"></path></g><g stroke-linecap="round" transform="translate(66.65676023044307 157.4627897717885) rotate(0 30.507609013875026 12.029814279919037)"><path d="M61.02 12.03 C61.02 12.73, 60.86 13.43, 60.55 14.12 C60.25 14.8, 59.78 15.49, 59.18 16.14 C58.57 16.8, 57.81 17.44, 56.93 18.04 C56.05 18.65, 55.01 19.23, 53.88 19.76 C52.74 20.3, 51.47 20.8, 50.12 21.25 C48.76 21.69, 47.29 22.1, 45.76 22.45 C44.23 22.8, 42.6 23.1, 40.94 23.33 C39.28 23.57, 37.54 23.76, 35.81 23.88 C34.07 24, 32.27 24.06, 30.51 24.06 C28.74 24.06, 26.95 24, 25.21 23.88 C23.47 23.76, 21.73 23.57, 20.07 23.33 C18.41 23.1, 16.78 22.8, 15.25 22.45 C13.72 22.1, 12.25 21.69, 10.9 21.25 C9.54 20.8, 8.27 20.3, 7.14 19.76 C6 19.23, 4.97 18.65, 4.09 18.04 C3.2 17.44, 2.44 16.8, 1.84 16.14 C1.24 15.49, 0.77 14.8, 0.46 14.12 C0.16 13.43, 0 12.73, 0 12.03 C0 11.33, 0.16 10.63, 0.46 9.94 C0.77 9.26, 1.24 8.57, 1.84 7.92 C2.44 7.26, 3.2 6.62, 4.09 6.01 C4.97 5.41, 6 4.83, 7.14 4.3 C8.27 3.76, 9.54 3.26, 10.9 2.81 C12.25 2.37, 13.72 1.96, 15.25 1.61 C16.78 1.26, 18.41 0.96, 20.07 0.73 C21.73 0.49, 23.47 0.3, 25.21 0.18 C26.95 0.06, 28.74 0, 30.51 0 C32.27 0, 34.07 0.06, 35.81 0.18 C37.54 0.3, 39.28 0.49, 40.94 0.73 C42.6 0.96, 44.23 1.26, 45.76 1.61 C47.29 1.96, 48.76 2.37, 50.12 2.81 C51.47 3.26, 52.74 3.76, 53.88 4.3 C55.01 4.83, 56.05 5.41, 56.93 6.01 C57.81 6.62, 58.57 7.26, 59.18 7.92 C59.78 8.57, 60.25 9.26, 60.55 9.94 C60.86 10.63, 60.94 11.68, 61.02 12.03 C61.09 12.38, 61.09 11.68, 61.02 12.03" stroke="white" stroke-width="2" fill="none"></path></g><g stroke-linecap="round"><g transform="translate(66.76277244530229 168.61288929352418) rotate(0 30.450933332021123 39.95678577231752)"><path d="M0 0 C0 5.49, 0 23.75, 0 32.91 C0 42.08, 0.02 49.94, 0 54.99 C-0.02 60.04, -0.11 60.93, -0.09 63.23 C-0.08 65.54, -0.28 67.36, 0.09 68.83 C0.47 70.29, 0.46 70.7, 2.18 72.05 C3.9 73.39, 7.62 75.69, 10.41 76.88 C13.2 78.06, 15.66 78.65, 18.93 79.15 C22.19 79.66, 25.82 79.94, 30 79.91 C34.18 79.88, 39.79 79.83, 44.01 78.96 C48.22 78.1, 52.56 76.14, 55.27 74.7 C57.98 73.26, 59.35 72.41, 60.28 70.34 C61.21 68.27, 60.73 66.04, 60.85 62.29 C60.98 58.53, 61.03 52.17, 61.04 47.81 C61.05 43.45, 60.92 41.24, 60.91 36.14 C60.89 31.03, 60.96 23.12, 60.95 17.18 C60.94 11.25, 60.87 3.29, 60.85 0.51 M0 0 C0 5.49, 0 23.75, 0 32.91 C0 42.08, 0.02 49.94, 0 54.99 C-0.02 60.04, -0.11 60.93, -0.09 63.23 C-0.08 65.54, -0.28 67.36, 0.09 68.83 C0.47 70.29, 0.46 70.7, 2.18 72.05 C3.9 73.39, 7.62 75.69, 10.41 76.88 C13.2 78.06, 15.66 78.65, 18.93 79.15 C22.19 79.66, 25.82 79.94, 30 79.91 C34.18 79.88, 39.79 79.83, 44.01 78.96 C48.22 78.1, 52.56 76.14, 55.27 74.7 C57.98 73.26, 59.35 72.41, 60.28 70.34 C61.21 68.27, 60.73 66.04, 60.85 62.29 C60.98 58.53, 61.03 52.17, 61.04 47.81 C61.05 43.45, 60.92 41.24, 60.91 36.14 C60.89 31.03, 60.96 23.12, 60.95 17.18 C60.94 11.25, 60.87 3.29, 60.85 0.51" stroke="white" stroke-width="2" fill="none"></path></g></g><mask></mask><g stroke-linecap="round"><g transform="translate(66.98456121428444 193.73636865217236) rotate(0 30.562428615881345 4.919551741262353)"><path d="M0 0 C0.54 0.64, 1.85 2.69, 3.23 3.82 C4.61 4.94, 6.49 5.92, 8.29 6.75 C10.09 7.58, 11.77 8.21, 14.02 8.81 C16.27 9.4, 19.3 10.02, 21.79 10.35 C24.29 10.68, 26.36 10.76, 28.98 10.79 C31.61 10.81, 34.79 10.77, 37.57 10.49 C40.35 10.21, 43.01 9.69, 45.64 9.1 C48.27 8.51, 51.23 7.9, 53.35 6.97 C55.46 6.04, 57.04 4.84, 58.34 3.52 C59.63 2.2, 60.66 -0.21, 61.12 -0.95 M0 0 C0.54 0.64, 1.85 2.69, 3.23 3.82 C4.61 4.94, 6.49 5.92, 8.29 6.75 C10.09 7.58, 11.77 8.21, 14.02 8.81 C16.27 9.4, 19.3 10.02, 21.79 10.35 C24.29 10.68, 26.36 10.76, 28.98 10.79 C31.61 10.81, 34.79 10.77, 37.57 10.49 C40.35 10.21, 43.01 9.69, 45.64 9.1 C48.27 8.51, 51.23 7.9, 53.35 6.97 C55.46 6.04, 57.04 4.84, 58.34 3.52 C59.63 2.2, 60.66 -0.21, 61.12 -0.95" stroke="white" stroke-width="2" fill="none"></path></g></g><mask></mask><g stroke-linecap="round"><g transform="translate(67.09361832862214 216.9497383020364) rotate(0 30.562428615881345 4.919551741262353)"><path d="M0 0 C0.54 0.64, 1.85 2.69, 3.23 3.82 C4.61 4.94, 6.49 5.92, 8.29 6.75 C10.09 7.58, 11.77 8.21, 14.02 8.81 C16.27 9.4, 19.3 10.02, 21.79 10.35 C24.29 10.68, 26.36 10.76, 28.98 10.79 C31.61 10.81, 34.79 10.77, 37.57 10.49 C40.35 10.21, 43.01 9.69, 45.64 9.1 C48.27 8.51, 51.23 7.9, 53.35 6.97 C55.46 6.04, 57.04 4.84, 58.34 3.52 C59.63 2.2, 60.66 -0.21, 61.12 -0.95 M0 0 C0.54 0.64, 1.85 2.69, 3.23 3.82 C4.61 4.94, 6.49 5.92, 8.29 6.75 C10.09 7.58, 11.77 8.21, 14.02 8.81 C16.27 9.4, 19.3 10.02, 21.79 10.35 C24.29 10.68, 26.36 10.76, 28.98 10.79 C31.61 10.81, 34.79 10.77, 37.57 10.49 C40.35 10.21, 43.01 9.69, 45.64 9.1 C48.27 8.51, 51.23 7.9, 53.35 6.97 C55.46 6.04, 57.04 4.84, 58.34 3.52 C59.63 2.2, 60.66 -0.21, 61.12 -0.95" stroke="white" stroke-width="2" fill="none"></path></g></g><mask></mask><g stroke-linecap="round" transform="translate(185.4833635218929 287.02477977785475) rotate(0 52.135077445001116 63.06272464659685)"><path d="M26.07 0 L84.31 0.41 L89.61 1.63 L94.09 3.67 L97.75 6.52 L100.6 10.18 L102.64 14.66 L104.27 26.07 L104.27 100.06 L102.64 111.46 L100.6 115.94 L97.75 119.61 L94.09 122.46 L89.61 124.5 L78.2 126.13 L19.96 125.72 L14.66 124.5 L10.18 122.46 L6.52 119.61 L3.67 115.94 L1.63 111.46 L0 100.06 L0.41 19.96 L1.63 14.66 L3.67 10.18 L6.52 6.52 L10.18 3.67 L14.66 1.63 L26.07 0" stroke="none" stroke-width="0" fill="#be4bdb"></path><path d="M26.07 0 M26.07 0 C44.54 0, 63.01 0, 78.2 0 M26.07 0 C39.06 0, 52.05 0, 78.2 0 M78.2 0 C95.58 0, 104.27 8.69, 104.27 26.07 M78.2 0 C95.58 0, 104.27 8.69, 104.27 26.07 M104.27 26.07 C104.27 51.36, 104.27 76.65, 104.27 100.06 M104.27 26.07 C104.27 53.77, 104.27 81.48, 104.27 100.06 M104.27 100.06 C104.27 117.44, 95.58 126.13, 78.2 126.13 M104.27 100.06 C104.27 117.44, 95.58 126.13, 78.2 126.13 M78.2 126.13 C59.88 126.13, 41.56 126.13, 26.07 126.13 M78.2 126.13 C63.17 126.13, 48.13 126.13, 26.07 126.13 M26.07 126.13 C8.69 126.13, 0 117.44, 0 100.06 M26.07 126.13 C8.69 126.13, 0 117.44, 0 100.06 M0 100.06 C0 80.09, 0 60.13, 0 26.07 M0 100.06 C0 83.01, 0 65.96, 0 26.07 M0 26.07 C0 8.69, 8.69 0, 26.07 0 M0 26.07 C0 8.69, 8.69 0, 26.07 0" stroke="#263238" stroke-width="4" fill="none"></path></g><g stroke-linecap="round" transform="translate(208.0350232656656 305.7798632627282) rotate(0 30.507609013875026 12.029814279919037)"><path d="M61.02 12.03 C61.02 12.73, 60.86 13.43, 60.55 14.12 C60.25 14.8, 59.78 15.49, 59.18 16.14 C58.57 16.8, 57.81 17.44, 56.93 18.04 C56.05 18.65, 55.01 19.23, 53.88 19.76 C52.74 20.3, 51.47 20.8, 50.12 21.25 C48.76 21.69, 47.29 22.1, 45.76 22.45 C44.23 22.8, 42.6 23.1, 40.94 23.33 C39.28 23.57, 37.54 23.76, 35.81 23.88 C34.07 24, 32.27 24.06, 30.51 24.06 C28.74 24.06, 26.95 24, 25.21 23.88 C23.47 23.76, 21.73 23.57, 20.07 23.33 C18.41 23.1, 16.78 22.8, 15.25 22.45 C13.72 22.1, 12.25 21.69, 10.9 21.25 C9.54 20.8, 8.27 20.3, 7.14 19.76 C6 19.23, 4.97 18.65, 4.09 18.04 C3.2 17.44, 2.44 16.8, 1.84 16.14 C1.24 15.49, 0.77 14.8, 0.46 14.12 C0.16 13.43, 0 12.73, 0 12.03 C0 11.33, 0.16 10.63, 0.46 9.94 C0.77 9.26, 1.24 8.57, 1.84 7.92 C2.44 7.26, 3.2 6.62, 4.09 6.01 C4.97 5.41, 6 4.83, 7.14 4.3 C8.27 3.76, 9.54 3.26, 10.9 2.81 C12.25 2.37, 13.72 1.96, 15.25 1.61 C16.78 1.26, 18.41 0.96, 20.07 0.73 C21.73 0.49, 23.47 0.3, 25.21 0.18 C26.95 0.06, 28.74 0, 30.51 0 C32.27 0, 34.07 0.06, 35.81 0.18 C37.54 0.3, 39.28 0.49, 40.94 0.73 C42.6 0.96, 44.23 1.26, 45.76 1.61 C47.29 1.96, 48.76 2.37, 50.12 2.81 C51.47 3.26, 52.74 3.76, 53.88 4.3 C55.01 4.83, 56.05 5.41, 56.93 6.01 C57.81 6.62, 58.57 7.26, 59.18 7.92 C59.78 8.57, 60.25 9.26, 60.55 9.94 C60.86 10.63, 60.94 11.68, 61.02 12.03 C61.09 12.38, 61.09 11.68, 61.02 12.03" stroke="white" stroke-width="2" fill="none"></path></g><g stroke-linecap="round"><g transform="translate(208.1410354805248 316.9299627844639) rotate(0 30.450933332021123 39.95678577231752)"><path d="M0 0 C0 5.49, 0 23.75, 0 32.91 C0 42.08, 0.02 49.94, 0 54.99 C-0.02 60.04, -0.11 60.93, -0.09 63.23 C-0.08 65.54, -0.28 67.36, 0.09 68.83 C0.47 70.29, 0.46 70.7, 2.18 72.05 C3.9 73.39, 7.62 75.69, 10.41 76.88 C13.2 78.06, 15.66 78.65, 18.93 79.15 C22.19 79.66, 25.82 79.94, 30 79.91 C34.18 79.88, 39.79 79.83, 44.01 78.96 C48.22 78.1, 52.56 76.14, 55.27 74.7 C57.98 73.26, 59.35 72.41, 60.28 70.34 C61.21 68.27, 60.73 66.04, 60.85 62.29 C60.98 58.53, 61.03 52.17, 61.04 47.81 C61.05 43.45, 60.92 41.24, 60.91 36.14 C60.89 31.03, 60.96 23.12, 60.95 17.18 C60.94 11.25, 60.87 3.29, 60.85 0.51 M0 0 C0 5.49, 0 23.75, 0 32.91 C0 42.08, 0.02 49.94, 0 54.99 C-0.02 60.04, -0.11 60.93, -0.09 63.23 C-0.08 65.54, -0.28 67.36, 0.09 68.83 C0.47 70.29, 0.46 70.7, 2.18 72.05 C3.9 73.39, 7.62 75.69, 10.41 76.88 C13.2 78.06, 15.66 78.65, 18.93 79.15 C22.19 79.66, 25.82 79.94, 30 79.91 C34.18 79.88, 39.79 79.83, 44.01 78.96 C48.22 78.1, 52.56 76.14, 55.27 74.7 C57.98 73.26, 59.35 72.41, 60.28 70.34 C61.21 68.27, 60.73 66.04, 60.85 62.29 C60.98 58.53, 61.03 52.17, 61.04 47.81 C61.05 43.45, 60.92 41.24, 60.91 36.14 C60.89 31.03, 60.96 23.12, 60.95 17.18 C60.94 11.25, 60.87 3.29, 60.85 0.51" stroke="white" stroke-width="2" fill="none"></path></g></g><mask></mask><g stroke-linecap="round"><g transform="translate(208.36282424950696 342.0534421431121) rotate(0 30.562428615881345 4.919551741262353)"><path d="M0 0 C0.54 0.64, 1.85 2.69, 3.23 3.82 C4.61 4.94, 6.49 5.92, 8.29 6.75 C10.09 7.58, 11.77 8.21, 14.02 8.81 C16.27 9.4, 19.3 10.02, 21.79 10.35 C24.29 10.68, 26.36 10.76, 28.98 10.79 C31.61 10.81, 34.79 10.77, 37.57 10.49 C40.35 10.21, 43.01 9.69, 45.64 9.1 C48.27 8.51, 51.23 7.9, 53.35 6.97 C55.46 6.04, 57.04 4.84, 58.34 3.52 C59.63 2.2, 60.66 -0.21, 61.12 -0.95 M0 0 C0.54 0.64, 1.85 2.69, 3.23 3.82 C4.61 4.94, 6.49 5.92, 8.29 6.75 C10.09 7.58, 11.77 8.21, 14.02 8.81 C16.27 9.4, 19.3 10.02, 21.79 10.35 C24.29 10.68, 26.36 10.76, 28.98 10.79 C31.61 10.81, 34.79 10.77, 37.57 10.49 C40.35 10.21, 43.01 9.69, 45.64 9.1 C48.27 8.51, 51.23 7.9, 53.35 6.97 C55.46 6.04, 57.04 4.84, 58.34 3.52 C59.63 2.2, 60.66 -0.21, 61.12 -0.95" stroke="white" stroke-width="2" fill="none"></path></g></g><mask></mask><g stroke-linecap="round"><g transform="translate(208.47188136384466 365.2668117929761) rotate(0 30.562428615881345 4.919551741262353)"><path d="M0 0 C0.54 0.64, 1.85 2.69, 3.23 3.82 C4.61 4.94, 6.49 5.92, 8.29 6.75 C10.09 7.58, 11.77 8.21, 14.02 8.81 C16.27 9.4, 19.3 10.02, 21.79 10.35 C24.29 10.68, 26.36 10.76, 28.98 10.79 C31.61 10.81, 34.79 10.77, 37.57 10.49 C40.35 10.21, 43.01 9.69, 45.64 9.1 C48.27 8.51, 51.23 7.9, 53.35 6.97 C55.46 6.04, 57.04 4.84, 58.34 3.52 C59.63 2.2, 60.66 -0.21, 61.12 -0.95 M0 0 C0.54 0.64, 1.85 2.69, 3.23 3.82 C4.61 4.94, 6.49 5.92, 8.29 6.75 C10.09 7.58, 11.77 8.21, 14.02 8.81 C16.27 9.4, 19.3 10.02, 21.79 10.35 C24.29 10.68, 26.36 10.76, 28.98 10.79 C31.61 10.81, 34.79 10.77, 37.57 10.49 C40.35 10.21, 43.01 9.69, 45.64 9.1 C48.27 8.51, 51.23 7.9, 53.35 6.97 C55.46 6.04, 57.04 4.84, 58.34 3.52 C59.63 2.2, 60.66 -0.21, 61.12 -0.95" stroke="white" stroke-width="2" fill="none"></path></g></g><mask></mask><g stroke-linecap="round" transform="translate(848.4072444288258 183.54429547191398) rotate(0 59.5 18.5)"><path d="M9.25 0 L109.75 0 L113.8 0.58 L116.69 2.31 L118.42 5.2 L119 9.25 L118.42 31.8 L116.69 34.69 L113.8 36.42 L109.75 37 L9.25 37 L5.2 36.42 L2.31 34.69 L0.58 31.8 L0 9.25 L0.58 5.2 L2.31 2.31 L5.2 0.58 L9.25 0" stroke="none" stroke-width="0" fill="#28343c"></path><path d="M9.25 0 M9.25 0 C45.13 0, 81 0, 109.75 0 M109.75 0 C115.92 0, 119 3.08, 119 9.25 M119 9.25 C119 15.38, 119 21.52, 119 27.75 M119 27.75 C119 33.92, 115.92 37, 109.75 37 M109.75 37 C81.09 37, 52.43 37, 9.25 37 M9.25 37 C3.08 37, 0 33.92, 0 27.75 M0 27.75 C0 22.78, 0 17.82, 0 9.25 M0 9.25 C0 3.08, 3.08 0, 9.25 0" stroke="transparent" stroke-width="2.5" fill="none" stroke-dasharray="1.5 8"></path></g><g transform="translate(885.4072444288258 188.54429547191398) rotate(0 22.5 13.5)"><text x="22.5" y="19" font-family="Virgil, Segoe UI Emoji" font-size="21.023136032084114px" fill="white" text-anchor="middle" style="white-space: pre;" direction="ltr">load</text></g><g stroke-linecap="round" transform="translate(622.3972996279726 285.3379193741746) rotate(0 59.5 18.5)"><path d="M9.25 0 L109.75 0 L113.8 0.58 L116.69 2.31 L118.42 5.2 L119 9.25 L118.42 31.8 L116.69 34.69 L113.8 36.42 L109.75 37 L9.25 37 L5.2 36.42 L2.31 34.69 L0.58 31.8 L0 9.25 L0.58 5.2 L2.31 2.31 L5.2 0.58 L9.25 0" stroke="none" stroke-width="0" fill="#28343c"></path><path d="M9.25 0 M9.25 0 C48.07 0, 86.89 0, 109.75 0 M109.75 0 C115.92 0, 119 3.08, 119 9.25 M119 9.25 C119 14.4, 119 19.54, 119 27.75 M119 27.75 C119 33.92, 115.92 37, 109.75 37 M109.75 37 C88.11 37, 66.47 37, 9.25 37 M9.25 37 C3.08 37, 0 33.92, 0 27.75 M0 27.75 C0 23.79, 0 19.83, 0 9.25 M0 9.25 C0 3.08, 3.08 0, 9.25 0" stroke="transparent" stroke-width="2.5" fill="none" stroke-dasharray="1.5 8"></path></g><g transform="translate(630.8972996279726 290.3379193741746) rotate(0 51 13.5)"><text x="51" y="19" font-family="Virgil, Segoe UI Emoji" font-size="21.023136032084114px" fill="white" text-anchor="middle" style="white-space: pre;" direction="ltr">transform</text></g><g stroke-linecap="round" transform="translate(1052.566289543207 107.68287989241458) rotate(0 75.17805646099805 90.93557171882196)"><path d="M37.59 0 L112.77 0 L121.58 0.59 L129.21 2.35 L135.67 5.29 L140.96 9.4 L145.07 14.68 L148.01 21.14 L149.77 28.78 L150.36 37.59 L150.36 144.28 L149.77 153.09 L148.01 160.73 L145.07 167.19 L140.96 172.47 L135.67 176.59 L129.21 179.52 L121.58 181.28 L112.77 181.87 L37.59 181.87 L28.78 181.28 L21.14 179.52 L14.68 176.59 L9.4 172.47 L5.29 167.19 L2.35 160.73 L0.59 153.09 L0 144.28 L0 37.59 L0.59 28.78 L2.35 21.14 L5.29 14.68 L9.4 9.4 L14.68 5.29 L21.14 2.35 L28.78 0.59 L37.59 0" stroke="none" stroke-width="0" fill="#4c6ef5"></path><path d="M37.59 0 M37.59 0 C61.23 0, 84.88 0, 112.77 0 M37.59 0 C54.32 0, 71.05 0, 112.77 0 M112.77 0 C137.83 0, 150.36 12.53, 150.36 37.59 M112.77 0 C137.83 0, 150.36 12.53, 150.36 37.59 M150.36 37.59 C150.36 75.73, 150.36 113.87, 150.36 144.28 M150.36 37.59 C150.36 71.93, 150.36 106.27, 150.36 144.28 M150.36 144.28 C150.36 169.34, 137.83 181.87, 112.77 181.87 M150.36 144.28 C150.36 169.34, 137.83 181.87, 112.77 181.87 M112.77 181.87 C86.66 181.87, 60.56 181.87, 37.59 181.87 M112.77 181.87 C84.32 181.87, 55.87 181.87, 37.59 181.87 M37.59 181.87 C12.53 181.87, 0 169.34, 0 144.28 M37.59 181.87 C12.53 181.87, 0 169.34, 0 144.28 M0 144.28 C0 121.34, 0 98.41, 0 37.59 M0 144.28 C0 112.85, 0 81.43, 0 37.59 M0 37.59 C0 12.53, 12.53 0, 37.59 0 M0 37.59 C0 12.53, 12.53 0, 37.59 0" stroke="#263238" stroke-width="4" fill="none"></path></g><g stroke-linecap="round" transform="translate(1085.0854691933173 134.72744938871892) rotate(0 43.99154782794085 17.34682485328858)"><path d="M87.98 17.35 C87.98 18.25, 87.8 19.17, 87.44 20.06 C87.08 20.95, 86.54 21.85, 85.83 22.71 C85.12 23.57, 84.23 24.42, 83.19 25.22 C82.15 26.03, 80.93 26.81, 79.58 27.54 C78.23 28.27, 76.72 28.97, 75.1 29.61 C73.48 30.25, 71.7 30.85, 69.85 31.38 C67.99 31.91, 66.01 32.39, 63.96 32.8 C61.92 33.21, 59.77 33.57, 57.59 33.84 C55.4 34.12, 53.14 34.34, 50.87 34.48 C48.61 34.62, 46.29 34.69, 43.99 34.69 C41.7 34.69, 39.38 34.62, 37.11 34.48 C34.84 34.34, 32.58 34.12, 30.4 33.84 C28.22 33.57, 26.06 33.21, 24.02 32.8 C21.98 32.39, 19.99 31.91, 18.13 31.38 C16.28 30.85, 14.51 30.25, 12.88 29.61 C11.26 28.97, 9.75 28.27, 8.4 27.54 C7.05 26.81, 5.84 26.03, 4.79 25.22 C3.75 24.42, 2.86 23.57, 2.15 22.71 C1.44 21.85, 0.9 20.95, 0.54 20.06 C0.18 19.17, 0 18.25, 0 17.35 C0 16.44, 0.18 15.53, 0.54 14.63 C0.9 13.74, 1.44 12.85, 2.15 11.99 C2.86 11.13, 3.75 10.28, 4.79 9.47 C5.84 8.67, 7.05 7.88, 8.4 7.15 C9.75 6.42, 11.26 5.72, 12.88 5.08 C14.51 4.44, 16.28 3.84, 18.13 3.31 C19.99 2.78, 21.98 2.3, 24.02 1.89 C26.06 1.48, 28.22 1.13, 30.4 0.85 C32.58 0.57, 34.84 0.36, 37.11 0.21 C39.38 0.07, 41.7 0, 43.99 0 C46.29 0, 48.61 0.07, 50.87 0.21 C53.14 0.36, 55.4 0.57, 57.59 0.85 C59.77 1.13, 61.92 1.48, 63.96 1.89 C66.01 2.3, 67.99 2.78, 69.85 3.31 C71.7 3.84, 73.48 4.44, 75.1 5.08 C76.72 5.72, 78.23 6.42, 79.58 7.15 C80.93 7.88, 82.15 8.67, 83.19 9.47 C84.23 10.28, 85.12 11.13, 85.83 11.99 C86.54 12.85, 87.08 13.74, 87.44 14.63 C87.8 15.53, 87.89 16.89, 87.98 17.35 C88.07 17.8, 88.07 16.89, 87.98 17.35" stroke="white" stroke-width="2" fill="none"></path></g><g stroke-linecap="round"><g transform="translate(1085.2383373324828 150.80573779780548) rotate(0 43.90982228308303 57.617129272708326)"><path d="M0 0 C0 7.91, 0 34.24, 0 47.46 C0 60.68, 0.02 72.01, 0 79.3 C-0.02 86.58, -0.16 87.86, -0.14 91.18 C-0.11 94.51, -0.41 97.13, 0.14 99.24 C0.68 101.36, 0.66 101.95, 3.14 103.89 C5.62 105.83, 10.99 109.15, 15.01 110.86 C19.04 112.57, 22.59 113.41, 27.29 114.14 C32 114.87, 37.23 115.28, 43.26 115.23 C49.29 115.19, 57.38 115.12, 63.46 113.86 C69.53 112.61, 75.78 109.79, 79.7 107.72 C83.61 105.64, 85.59 104.41, 86.93 101.43 C88.27 98.45, 87.57 95.23, 87.75 89.82 C87.93 84.4, 88 75.23, 88.02 68.94 C88.03 62.66, 87.85 59.47, 87.83 52.11 C87.8 44.75, 87.9 33.34, 87.88 24.78 C87.87 16.22, 87.77 4.74, 87.75 0.73 M0 0 C0 7.91, 0 34.24, 0 47.46 C0 60.68, 0.02 72.01, 0 79.3 C-0.02 86.58, -0.16 87.86, -0.14 91.18 C-0.11 94.51, -0.41 97.13, 0.14 99.24 C0.68 101.36, 0.66 101.95, 3.14 103.89 C5.62 105.83, 10.99 109.15, 15.01 110.86 C19.04 112.57, 22.59 113.41, 27.29 114.14 C32 114.87, 37.23 115.28, 43.26 115.23 C49.29 115.19, 57.38 115.12, 63.46 113.86 C69.53 112.61, 75.78 109.79, 79.7 107.72 C83.61 105.64, 85.59 104.41, 86.93 101.43 C88.27 98.45, 87.57 95.23, 87.75 89.82 C87.93 84.4, 88 75.23, 88.02 68.94 C88.03 62.66, 87.85 59.47, 87.83 52.11 C87.8 44.75, 87.9 33.34, 87.88 24.78 C87.87 16.22, 87.77 4.74, 87.75 0.73" stroke="white" stroke-width="2" fill="none"></path></g></g><mask></mask><g stroke-linecap="round"><g transform="translate(1085.5581536522086 187.03344555778085) rotate(0 44.07059693147676 7.093925178447989)"><path d="M0 0 C0.78 0.92, 2.66 3.88, 4.66 5.5 C6.65 7.12, 9.36 8.54, 11.96 9.73 C14.55 10.93, 16.97 11.83, 20.21 12.7 C23.45 13.56, 27.83 14.44, 31.43 14.92 C35.02 15.4, 38 15.52, 41.8 15.55 C45.59 15.59, 50.17 15.54, 54.18 15.13 C58.18 14.73, 62.02 13.97, 65.81 13.12 C69.61 12.27, 73.87 11.39, 76.93 10.05 C79.98 8.71, 82.25 6.98, 84.12 5.08 C85.99 3.17, 87.47 -0.3, 88.14 -1.38 M0 0 C0.78 0.92, 2.66 3.88, 4.66 5.5 C6.65 7.12, 9.36 8.54, 11.96 9.73 C14.55 10.93, 16.97 11.83, 20.21 12.7 C23.45 13.56, 27.83 14.44, 31.43 14.92 C35.02 15.4, 38 15.52, 41.8 15.55 C45.59 15.59, 50.17 15.54, 54.18 15.13 C58.18 14.73, 62.02 13.97, 65.81 13.12 C69.61 12.27, 73.87 11.39, 76.93 10.05 C79.98 8.71, 82.25 6.98, 84.12 5.08 C85.99 3.17, 87.47 -0.3, 88.14 -1.38" stroke="white" stroke-width="2" fill="none"></path></g></g><mask></mask><g stroke-linecap="round"><g transform="translate(1085.7154124940635 220.5068016878929) rotate(0 44.07059693147676 7.093925178447989)"><path d="M0 0 C0.78 0.92, 2.66 3.88, 4.66 5.5 C6.65 7.12, 9.36 8.54, 11.96 9.73 C14.55 10.93, 16.97 11.83, 20.21 12.7 C23.45 13.56, 27.83 14.44, 31.43 14.92 C35.02 15.4, 38 15.52, 41.8 15.55 C45.59 15.59, 50.17 15.54, 54.18 15.13 C58.18 14.73, 62.02 13.97, 65.81 13.12 C69.61 12.27, 73.87 11.39, 76.93 10.05 C79.98 8.71, 82.25 6.98, 84.12 5.08 C85.99 3.17, 87.47 -0.3, 88.14 -1.38 M0 0 C0.78 0.92, 2.66 3.88, 4.66 5.5 C6.65 7.12, 9.36 8.54, 11.96 9.73 C14.55 10.93, 16.97 11.83, 20.21 12.7 C23.45 13.56, 27.83 14.44, 31.43 14.92 C35.02 15.4, 38 15.52, 41.8 15.55 C45.59 15.59, 50.17 15.54, 54.18 15.13 C58.18 14.73, 62.02 13.97, 65.81 13.12 C69.61 12.27, 73.87 11.39, 76.93 10.05 C79.98 8.71, 82.25 6.98, 84.12 5.08 C85.99 3.17, 87.47 -0.3, 88.14 -1.38" stroke="white" stroke-width="2" fill="none"></path></g></g><mask></mask><g transform="translate(154.4847159866831 418.4342452141052) rotate(0 82 12.5)"><text x="82" y="18" font-family="Virgil, Segoe UI Emoji" font-size="20px" fill="#263238" text-anchor="middle" style="white-space: pre;" direction="ltr">data source #3</text></g><g transform="translate(1040.6757461820625 297.0122097481435) rotate(0 80.5 12.5)"><text x="80.5" y="18" font-family="Virgil, Segoe UI Emoji" font-size="20px" fill="#263238" text-anchor="middle" style="white-space: pre;" direction="ltr">data warehouse</text></g><g transform="translate(10 270.0066336884495) rotate(0 82 12.5)"><text x="82" y="18" font-family="Virgil, Segoe UI Emoji" font-size="20px" fill="#263238" text-anchor="middle" style="white-space: pre;" direction="ltr">data source #2</text></g><g transform="translate(165.15324133991544 140.63612662381934) rotate(0 78 12.5)"><text x="78" y="18" font-family="Virgil, Segoe UI Emoji" font-size="20px" fill="#263238" text-anchor="middle" style="white-space: pre;" direction="ltr">data source #1</text></g><g stroke-linecap="round"><g transform="translate(151.05577912537228 207.69443241759336) rotate(0 116.13424785387451 0.4144739891833069)"><path d="M0 0 C38.71 0.14, 193.56 0.69, 232.27 0.83" stroke="#862e9c" stroke-width="2.5" fill="none" stroke-dasharray="1.5 8"></path></g></g><mask></mask><g stroke-linecap="round"><g transform="translate(293.4600079662241 353.6415137963047) rotate(0 75.36285402709564 -62.65922073429476)"><path d="M0 0 C10.99 -0.98, 46.71 0.35, 65.95 -5.86 C85.19 -12.06, 102.43 -24.91, 115.44 -37.22 C128.45 -49.53, 138.13 -65.05, 144.01 -79.73 C149.89 -94.42, 149.61 -117.72, 150.73 -125.32" stroke="#862e9c" stroke-width="2.5" fill="none" stroke-dasharray="1.5 8"></path></g></g><mask></mask><g stroke-linecap="round"><g transform="translate(295.89932212680014 74.51427913605107) rotate(0 75.36285402709564 59.65496074604118)"><path d="M0 0 C10.99 0.93, 46.71 -0.33, 65.95 5.58 C85.19 11.48, 102.43 23.71, 115.44 35.44 C128.45 47.16, 138.13 61.93, 144.01 75.91 C149.89 89.89, 149.61 112.08, 150.73 119.31" stroke="#862e9c" stroke-width="2.5" fill="none" stroke-dasharray="1.5 8"></path></g></g><mask></mask><g stroke-linecap="round"><g transform="translate(626.0687642515641 186.67442871575645) rotate(0 16.679074048720395 29.84960501275816)" fill-rule="evenodd"><path d="M0 0 L2.59 -1.62 L7.23 -3.35 L10.15 -13.49 L23.53 -13.39 L26.02 -3.24 L29.58 -2.16 L32.93 -0.32 L42.43 -5.18 L52.25 3.89 L46.85 13.49 L48.47 16.63 L49.55 20.62 L60.02 23.32 L59.92 36.49 L49.98 39.3 L48.47 42.64 L46.42 46.42 L52.14 56.24 L42.64 65.2 L33.57 60.02 L30.55 61.64 L26.02 62.83 L23.53 73.19 L9.82 73.09 L7.56 62.94 L3.78 61.53 L0 59.81 L-8.96 65.2 L-18.24 56.14 L-13.17 46.31 L-15.01 43.18 L-16.09 39.08 L-26.23 36.7 L-26.66 23.32 L-16.41 20.62 L-15.55 17.38 L-13.6 13.49 L-18.89 3.99 L-9.28 -5.4 L0 0" stroke="none" stroke-width="0" fill="#fab005" fill-rule="evenodd"></path><path d="M0 0 C0.73 -0.46, 1.47 -0.92, 2.59 -1.62 M0 0 C0.53 -0.33, 1.07 -0.67, 2.59 -1.62 M2.59 -1.62 C3.94 -2.12, 5.3 -2.63, 7.23 -3.35 M2.59 -1.62 C4.34 -2.27, 6.08 -2.92, 7.23 -3.35 M7.23 -3.35 C8.31 -7.1, 9.39 -10.85, 10.15 -13.49 M7.23 -3.35 C7.94 -5.8, 8.64 -8.25, 10.15 -13.49 M10.15 -13.49 C14.07 -13.46, 18 -13.43, 23.53 -13.39 M10.15 -13.49 C14.73 -13.46, 19.32 -13.42, 23.53 -13.39 M23.53 -13.39 C24.21 -10.62, 24.89 -7.85, 26.02 -3.24 M23.53 -13.39 C24.31 -10.23, 25.08 -7.07, 26.02 -3.24 M26.02 -3.24 C27.36 -2.83, 28.7 -2.43, 29.58 -2.16 M26.02 -3.24 C27.08 -2.92, 28.15 -2.59, 29.58 -2.16 M29.58 -2.16 C30.42 -1.7, 31.26 -1.24, 32.93 -0.32 M29.58 -2.16 C30.6 -1.6, 31.62 -1.04, 32.93 -0.32 M32.93 -0.32 C36.22 -2.01, 39.5 -3.69, 42.43 -5.18 M32.93 -0.32 C34.84 -1.3, 36.75 -2.28, 42.43 -5.18 M42.43 -5.18 C44.71 -3.07, 46.99 -0.97, 52.25 3.89 M42.43 -5.18 C45.05 -2.76, 47.67 -0.34, 52.25 3.89 M52.25 3.89 C51.03 6.06, 49.81 8.23, 46.85 13.49 M52.25 3.89 C51.11 5.92, 49.96 7.96, 46.85 13.49 M46.85 13.49 C47.36 14.47, 47.86 15.44, 48.47 16.63 M46.85 13.49 C47.35 14.45, 47.84 15.4, 48.47 16.63 M48.47 16.63 C48.86 18.05, 49.24 19.47, 49.55 20.62 M48.47 16.63 C48.69 17.44, 48.91 18.25, 49.55 20.62 M49.55 20.62 C52.13 21.28, 54.71 21.95, 60.02 23.32 M49.55 20.62 C52.48 21.37, 55.41 22.13, 60.02 23.32 M60.02 23.32 C59.99 27.19, 59.96 31.07, 59.92 36.49 M60.02 23.32 C60 26.65, 59.97 29.97, 59.92 36.49 M59.92 36.49 C56.25 37.52, 52.59 38.56, 49.98 39.3 M59.92 36.49 C56.82 37.36, 53.72 38.24, 49.98 39.3 M49.98 39.3 C49.51 40.35, 49.03 41.4, 48.47 42.64 M49.98 39.3 C49.46 40.46, 48.93 41.63, 48.47 42.64 M48.47 42.64 C47.91 43.67, 47.35 44.71, 46.42 46.42 M48.47 42.64 C47.9 43.7, 47.32 44.76, 46.42 46.42 M46.42 46.42 C48.18 49.45, 49.95 52.48, 52.14 56.24 M46.42 46.42 C48.05 49.21, 49.67 52, 52.14 56.24 M52.14 56.24 C49.07 59.14, 46.01 62.03, 42.64 65.2 M52.14 56.24 C49.1 59.11, 46.06 61.98, 42.64 65.2 M42.64 65.2 C40.06 63.73, 37.47 62.25, 33.57 60.02 M42.64 65.2 C39.36 63.33, 36.07 61.45, 33.57 60.02 M33.57 60.02 C32.52 60.59, 31.47 61.15, 30.55 61.64 M33.57 60.02 C32.59 60.55, 31.61 61.08, 30.55 61.64 M30.55 61.64 C29.32 61.96, 28.09 62.29, 26.02 62.83 M30.55 61.64 C29.22 61.99, 27.89 62.34, 26.02 62.83 M26.02 62.83 C25.16 66.4, 24.3 69.98, 23.53 73.19 M26.02 62.83 C25.4 65.4, 24.79 67.97, 23.53 73.19 M23.53 73.19 C20.66 73.17, 17.79 73.15, 9.82 73.09 M23.53 73.19 C19.48 73.16, 15.43 73.13, 9.82 73.09 M9.82 73.09 C8.97 69.24, 8.11 65.4, 7.56 62.94 M9.82 73.09 C8.92 69.06, 8.03 65.03, 7.56 62.94 M7.56 62.94 C6.57 62.57, 5.59 62.21, 3.78 61.53 M7.56 62.94 C6.07 62.38, 4.58 61.83, 3.78 61.53 M3.78 61.53 C2.72 61.05, 1.65 60.56, 0 59.81 M3.78 61.53 C2.5 60.95, 1.21 60.36, 0 59.81 M0 59.81 C-2.71 61.44, -5.43 63.08, -8.96 65.2 M0 59.81 C-2.89 61.55, -5.78 63.29, -8.96 65.2 M-8.96 65.2 C-12.21 62.03, -15.47 58.85, -18.24 56.14 M-8.96 65.2 C-10.82 63.39, -12.68 61.57, -18.24 56.14 M-18.24 56.14 C-17.08 53.87, -15.91 51.61, -13.17 46.31 M-18.24 56.14 C-17.11 53.95, -15.98 51.75, -13.17 46.31 M-13.17 46.31 C-13.64 45.52, -14.1 44.73, -15.01 43.18 M-13.17 46.31 C-13.84 45.18, -14.5 44.04, -15.01 43.18 M-15.01 43.18 C-15.28 42.13, -15.56 41.08, -16.09 39.08 M-15.01 43.18 C-15.38 41.77, -15.75 40.36, -16.09 39.08 M-16.09 39.08 C-19.36 38.31, -22.63 37.55, -26.23 36.7 M-16.09 39.08 C-19.82 38.21, -23.56 37.33, -26.23 36.7 M-26.23 36.7 C-26.32 33.92, -26.41 31.14, -26.66 23.32 M-26.23 36.7 C-26.38 32.11, -26.53 27.51, -26.66 23.32 M-26.66 23.32 C-24.02 22.62, -21.37 21.93, -16.41 20.62 M-26.66 23.32 C-24.47 22.74, -22.28 22.16, -16.41 20.62 M-16.41 20.62 C-16.21 19.86, -16.01 19.11, -15.55 17.38 M-16.41 20.62 C-16.08 19.37, -15.74 18.12, -15.55 17.38 M-15.55 17.38 C-15.1 16.49, -14.66 15.61, -13.6 13.49 M-15.55 17.38 C-15.05 16.38, -14.55 15.39, -13.6 13.49 M-13.6 13.49 C-15.17 10.69, -16.73 7.88, -18.89 3.99 M-13.6 13.49 C-14.89 11.19, -16.17 8.88, -18.89 3.99 M-18.89 3.99 C-15.36 0.54, -11.83 -2.91, -9.28 -5.4 M-18.89 3.99 C-15.92 1.08, -12.94 -1.82, -9.28 -5.4 M-9.28 -5.4 C-6.72 -3.91, -4.16 -2.42, 0 0 M-9.28 -5.4 C-5.6 -3.26, -1.92 -1.12, 0 0 M0 0 C0 0, 0 0, 0 0 M0 0 C0 0, 0 0, 0 0" stroke="white" stroke-width="2" fill="none"></path></g></g><mask></mask><g stroke-linecap="round" transform="translate(621.744928236094 195.00835125549952) rotate(0 21.468539024625443 21.52052095930958)"><path d="M42.94 21.52 C42.94 22.77, 42.83 24.03, 42.61 25.26 C42.4 26.48, 42.07 27.71, 41.64 28.88 C41.22 30.05, 40.68 31.2, 40.06 32.28 C39.44 33.36, 38.71 34.4, 37.91 35.35 C37.12 36.31, 36.22 37.21, 35.27 38.01 C34.32 38.81, 33.28 39.54, 32.2 40.16 C31.13 40.78, 29.98 41.32, 28.81 41.74 C27.64 42.17, 26.42 42.5, 25.2 42.71 C23.97 42.93, 22.71 43.04, 21.47 43.04 C20.23 43.04, 18.96 42.93, 17.74 42.71 C16.52 42.5, 15.29 42.17, 14.13 41.74 C12.96 41.32, 11.81 40.78, 10.73 40.16 C9.66 39.54, 8.62 38.81, 7.67 38.01 C6.72 37.21, 5.82 36.31, 5.02 35.35 C4.22 34.4, 3.5 33.36, 2.88 32.28 C2.25 31.2, 1.72 30.05, 1.29 28.88 C0.87 27.71, 0.54 26.48, 0.33 25.26 C0.11 24.03, 0 22.77, 0 21.52 C0 20.27, 0.11 19.01, 0.33 17.78 C0.54 16.56, 0.87 15.33, 1.29 14.16 C1.72 12.99, 2.25 11.84, 2.88 10.76 C3.5 9.68, 4.22 8.64, 5.02 7.69 C5.82 6.73, 6.72 5.84, 7.67 5.03 C8.62 4.23, 9.66 3.51, 10.73 2.88 C11.81 2.26, 12.96 1.72, 14.13 1.3 C15.29 0.87, 16.52 0.54, 17.74 0.33 C18.96 0.11, 20.23 0, 21.47 0 C22.71 0, 23.97 0.11, 25.2 0.33 C26.42 0.54, 27.64 0.87, 28.81 1.3 C29.98 1.72, 31.13 2.26, 32.2 2.88 C33.28 3.51, 34.32 4.23, 35.27 5.03 C36.22 5.84, 37.12 6.73, 37.91 7.69 C38.71 8.64, 39.44 9.68, 40.06 10.76 C40.68 11.84, 41.22 12.99, 41.64 14.16 C42.07 15.33, 42.4 16.56, 42.61 17.78 C42.83 19.01, 42.88 20.9, 42.94 21.52 C42.99 22.14, 42.99 20.9, 42.94 21.52" stroke="none" stroke-width="0" fill="#fab005"></path><path d="M42.94 21.52 C42.94 22.77, 42.83 24.03, 42.61 25.26 C42.4 26.48, 42.07 27.71, 41.64 28.88 C41.22 30.05, 40.68 31.2, 40.06 32.28 C39.44 33.36, 38.71 34.4, 37.91 35.35 C37.12 36.31, 36.22 37.21, 35.27 38.01 C34.32 38.81, 33.28 39.54, 32.2 40.16 C31.13 40.78, 29.98 41.32, 28.81 41.74 C27.64 42.17, 26.42 42.5, 25.2 42.71 C23.97 42.93, 22.71 43.04, 21.47 43.04 C20.23 43.04, 18.96 42.93, 17.74 42.71 C16.52 42.5, 15.29 42.17, 14.13 41.74 C12.96 41.32, 11.81 40.78, 10.73 40.16 C9.66 39.54, 8.62 38.81, 7.67 38.01 C6.72 37.21, 5.82 36.31, 5.02 35.35 C4.22 34.4, 3.5 33.36, 2.88 32.28 C2.25 31.2, 1.72 30.05, 1.29 28.88 C0.87 27.71, 0.54 26.48, 0.33 25.26 C0.11 24.03, 0 22.77, 0 21.52 C0 20.27, 0.11 19.01, 0.33 17.78 C0.54 16.56, 0.87 15.33, 1.29 14.16 C1.72 12.99, 2.25 11.84, 2.88 10.76 C3.5 9.68, 4.22 8.64, 5.02 7.69 C5.82 6.73, 6.72 5.84, 7.67 5.03 C8.62 4.23, 9.66 3.51, 10.73 2.88 C11.81 2.26, 12.96 1.72, 14.13 1.3 C15.29 0.87, 16.52 0.54, 17.74 0.33 C18.96 0.11, 20.23 0, 21.47 0 C22.71 0, 23.97 0.11, 25.2 0.33 C26.42 0.54, 27.64 0.87, 28.81 1.3 C29.98 1.72, 31.13 2.26, 32.2 2.88 C33.28 3.51, 34.32 4.23, 35.27 5.03 C36.22 5.84, 37.12 6.73, 37.91 7.69 C38.71 8.64, 39.44 9.68, 40.06 10.76 C40.68 11.84, 41.22 12.99, 41.64 14.16 C42.07 15.33, 42.4 16.56, 42.61 17.78 C42.83 19.01, 42.88 20.9, 42.94 21.52 C42.99 22.14, 42.99 20.9, 42.94 21.52" stroke="white" stroke-width="2" fill="none"></path></g><g stroke-linecap="round"><g transform="translate(702.6425537775349 193.30464288609096) rotate(339.3255752391262 13.202988003820337 23.62864843402167)" fill-rule="evenodd"><path d="M0 0 L2.05 -1.28 L5.73 -2.65 L8.03 -10.68 L18.63 -10.6 L20.59 -2.56 L23.42 -1.71 L26.06 -0.26 L33.58 -4.1 L41.36 3.08 L37.09 10.68 L38.37 13.16 L39.22 16.32 L47.51 18.46 L47.43 28.88 L39.57 31.11 L38.37 33.76 L36.75 36.75 L41.28 44.52 L33.76 51.62 L26.58 47.51 L24.18 48.8 L20.59 49.74 L18.63 57.94 L7.78 57.85 L5.98 49.82 L2.99 48.71 L0 47.34 L-7.09 51.62 L-14.44 44.44 L-10.43 36.66 L-11.88 34.18 L-12.73 30.94 L-20.77 29.06 L-21.11 18.46 L-12.99 16.32 L-12.31 13.76 L-10.77 10.68 L-14.95 3.16 L-7.35 -4.27 L0 0" stroke="none" stroke-width="0" fill="#fab005" fill-rule="evenodd"></path><path d="M0 0 C0.44 -0.27, 0.88 -0.55, 2.05 -1.28 M0 0 C0.81 -0.51, 1.62 -1.01, 2.05 -1.28 M2.05 -1.28 C2.91 -1.6, 3.76 -1.92, 5.73 -2.65 M2.05 -1.28 C3.48 -1.81, 4.91 -2.35, 5.73 -2.65 M5.73 -2.65 C6.32 -4.71, 6.91 -6.77, 8.03 -10.68 M5.73 -2.65 C6.41 -5.04, 7.1 -7.43, 8.03 -10.68 M8.03 -10.68 C10.23 -10.66, 12.44 -10.65, 18.63 -10.6 M8.03 -10.68 C10.66 -10.66, 13.29 -10.64, 18.63 -10.6 M18.63 -10.6 C19.18 -8.34, 19.73 -6.09, 20.59 -2.56 M18.63 -10.6 C19.06 -8.84, 19.49 -7.08, 20.59 -2.56 M20.59 -2.56 C21.62 -2.25, 22.65 -1.94, 23.42 -1.71 M20.59 -2.56 C21.36 -2.33, 22.13 -2.1, 23.42 -1.71 M23.42 -1.71 C24.39 -1.18, 25.36 -0.64, 26.06 -0.26 M23.42 -1.71 C24.15 -1.31, 24.88 -0.9, 26.06 -0.26 M26.06 -0.26 C27.81 -1.15, 29.56 -2.04, 33.58 -4.1 M26.06 -0.26 C28.65 -1.58, 31.23 -2.9, 33.58 -4.1 M33.58 -4.1 C35.65 -2.19, 37.72 -0.29, 41.36 3.08 M33.58 -4.1 C36.28 -1.62, 38.97 0.87, 41.36 3.08 M41.36 3.08 C39.84 5.78, 38.33 8.48, 37.09 10.68 M41.36 3.08 C39.84 5.78, 38.33 8.47, 37.09 10.68 M37.09 10.68 C37.46 11.41, 37.84 12.13, 38.37 13.16 M37.09 10.68 C37.55 11.58, 38.01 12.47, 38.37 13.16 M38.37 13.16 C38.71 14.41, 39.04 15.66, 39.22 16.32 M38.37 13.16 C38.63 14.13, 38.89 15.09, 39.22 16.32 M39.22 16.32 C41.12 16.81, 43.02 17.3, 47.51 18.46 M39.22 16.32 C40.96 16.77, 42.7 17.22, 47.51 18.46 M47.51 18.46 C47.49 20.87, 47.47 23.27, 47.43 28.88 M47.51 18.46 C47.5 20.56, 47.48 22.66, 47.43 28.88 M47.43 28.88 C45.64 29.39, 43.85 29.9, 39.57 31.11 M47.43 28.88 C45.52 29.42, 43.62 29.96, 39.57 31.11 M39.57 31.11 C39.26 31.79, 38.94 32.48, 38.37 33.76 M39.57 31.11 C39.14 32.06, 38.71 33, 38.37 33.76 M38.37 33.76 C37.88 34.67, 37.38 35.58, 36.75 36.75 M38.37 33.76 C37.78 34.85, 37.18 35.94, 36.75 36.75 M36.75 36.75 C38.08 39.04, 39.42 41.34, 41.28 44.52 M36.75 36.75 C38.1 39.07, 39.45 41.39, 41.28 44.52 M41.28 44.52 C39.43 46.26, 37.58 48, 33.76 51.62 M41.28 44.52 C38.7 46.95, 36.13 49.37, 33.76 51.62 M33.76 51.62 C31.83 50.51, 29.9 49.41, 26.58 47.51 M33.76 51.62 C31.94 50.58, 30.12 49.54, 26.58 47.51 M26.58 47.51 C25.86 47.9, 25.13 48.29, 24.18 48.8 M26.58 47.51 C25.87 47.89, 25.17 48.27, 24.18 48.8 M24.18 48.8 C23.01 49.1, 21.84 49.41, 20.59 49.74 M24.18 48.8 C23.25 49.04, 22.32 49.28, 20.59 49.74 M20.59 49.74 C20.02 52.14, 19.45 54.54, 18.63 57.94 M20.59 49.74 C20.2 51.4, 19.8 53.06, 18.63 57.94 M18.63 57.94 C14.98 57.91, 11.34 57.88, 7.78 57.85 M18.63 57.94 C15.76 57.92, 12.88 57.89, 7.78 57.85 M7.78 57.85 C7.23 55.41, 6.68 52.97, 5.98 49.82 M7.78 57.85 C7.41 56.22, 7.04 54.58, 5.98 49.82 M5.98 49.82 C4.85 49.4, 3.72 48.98, 2.99 48.71 M5.98 49.82 C5.32 49.57, 4.65 49.33, 2.99 48.71 M2.99 48.71 C1.82 48.18, 0.66 47.64, 0 47.34 M2.99 48.71 C2.11 48.31, 1.24 47.91, 0 47.34 M0 47.34 C-1.79 48.42, -3.58 49.5, -7.09 51.62 M0 47.34 C-2.79 49.02, -5.58 50.7, -7.09 51.62 M-7.09 51.62 C-9.09 49.67, -11.09 47.71, -14.44 44.44 M-7.09 51.62 C-8.75 50, -10.4 48.39, -14.44 44.44 M-14.44 44.44 C-12.93 41.51, -11.42 38.58, -10.43 36.66 M-14.44 44.44 C-13.45 42.51, -12.45 40.58, -10.43 36.66 M-10.43 36.66 C-10.77 36.08, -11.11 35.49, -11.88 34.18 M-10.43 36.66 C-10.73 36.14, -11.03 35.63, -11.88 34.18 M-11.88 34.18 C-12.12 33.26, -12.36 32.34, -12.73 30.94 M-11.88 34.18 C-12.19 33, -12.5 31.82, -12.73 30.94 M-12.73 30.94 C-14.65 30.49, -16.56 30.04, -20.77 29.06 M-12.73 30.94 C-14.45 30.53, -16.17 30.13, -20.77 29.06 M-20.77 29.06 C-20.88 25.61, -20.99 22.16, -21.11 18.46 M-20.77 29.06 C-20.88 25.6, -20.99 22.14, -21.11 18.46 M-21.11 18.46 C-19.48 18.03, -17.85 17.6, -12.99 16.32 M-21.11 18.46 C-18.94 17.89, -16.77 17.32, -12.99 16.32 M-12.99 16.32 C-12.74 15.37, -12.48 14.43, -12.31 13.76 M-12.99 16.32 C-12.83 15.74, -12.68 15.16, -12.31 13.76 M-12.31 13.76 C-11.82 12.8, -11.34 11.83, -10.77 10.68 M-12.31 13.76 C-11.76 12.67, -11.22 11.59, -10.77 10.68 M-10.77 10.68 C-12.04 8.4, -13.3 6.13, -14.95 3.16 M-10.77 10.68 C-12.31 7.91, -13.85 5.14, -14.95 3.16 M-14.95 3.16 C-12.44 0.7, -9.92 -1.76, -7.35 -4.27 M-14.95 3.16 C-12.58 0.84, -10.2 -1.48, -7.35 -4.27 M-7.35 -4.27 C-4.95 -2.88, -2.55 -1.48, 0 0 M-7.35 -4.27 C-4.72 -2.74, -2.08 -1.21, 0 0 M0 0 C0 0, 0 0, 0 0 M0 0 C0 0, 0 0, 0 0" stroke="white" stroke-width="2" fill="none"></path></g></g><mask></mask><g stroke-linecap="round" transform="translate(699.1974643437825 199.77131347442855) rotate(339.3255752391262 16.994280520232223 17.035428899215958)"><path d="M33.99 17.04 C33.99 18.02, 33.9 19.02, 33.73 19.99 C33.56 20.96, 33.3 21.94, 32.96 22.86 C32.63 23.79, 32.2 24.7, 31.71 25.55 C31.22 26.41, 30.64 27.23, 30.01 27.99 C29.38 28.74, 28.67 29.45, 27.92 30.09 C27.16 30.72, 26.34 31.3, 25.49 31.79 C24.64 32.28, 23.73 32.71, 22.81 33.04 C21.88 33.38, 20.91 33.64, 19.95 33.81 C18.98 33.98, 17.98 34.07, 16.99 34.07 C16.01 34.07, 15.01 33.98, 14.04 33.81 C13.07 33.64, 12.11 33.38, 11.18 33.04 C10.26 32.71, 9.35 32.28, 8.5 31.79 C7.65 31.3, 6.82 30.72, 6.07 30.09 C5.32 29.45, 4.61 28.74, 3.98 27.99 C3.34 27.23, 2.77 26.41, 2.28 25.55 C1.78 24.7, 1.36 23.79, 1.02 22.86 C0.69 21.94, 0.43 20.96, 0.26 19.99 C0.09 19.02, 0 18.02, 0 17.04 C0 16.05, 0.09 15.05, 0.26 14.08 C0.43 13.11, 0.69 12.14, 1.02 11.21 C1.36 10.28, 1.78 9.37, 2.28 8.52 C2.77 7.66, 3.34 6.84, 3.98 6.09 C4.61 5.33, 5.32 4.62, 6.07 3.99 C6.82 3.35, 7.65 2.78, 8.5 2.28 C9.35 1.79, 10.26 1.36, 11.18 1.03 C12.11 0.69, 13.07 0.43, 14.04 0.26 C15.01 0.09, 16.01 0, 16.99 0 C17.98 0, 18.98 0.09, 19.95 0.26 C20.91 0.43, 21.88 0.69, 22.81 1.03 C23.73 1.36, 24.64 1.79, 25.49 2.28 C26.34 2.78, 27.16 3.35, 27.92 3.99 C28.67 4.62, 29.38 5.33, 30.01 6.09 C30.64 6.84, 31.22 7.66, 31.71 8.52 C32.2 9.37, 32.63 10.28, 32.96 11.21 C33.3 12.14, 33.56 13.11, 33.73 14.08 C33.9 15.05, 33.95 16.54, 33.99 17.04 C34.03 17.53, 34.03 16.54, 33.99 17.04" stroke="none" stroke-width="0" fill="#fab005"></path><path d="M33.99 17.04 C33.99 18.02, 33.9 19.02, 33.73 19.99 C33.56 20.96, 33.3 21.94, 32.96 22.86 C32.63 23.79, 32.2 24.7, 31.71 25.55 C31.22 26.41, 30.64 27.23, 30.01 27.99 C29.38 28.74, 28.67 29.45, 27.92 30.09 C27.16 30.72, 26.34 31.3, 25.49 31.79 C24.64 32.28, 23.73 32.71, 22.81 33.04 C21.88 33.38, 20.91 33.64, 19.95 33.81 C18.98 33.98, 17.98 34.07, 16.99 34.07 C16.01 34.07, 15.01 33.98, 14.04 33.81 C13.07 33.64, 12.11 33.38, 11.18 33.04 C10.26 32.71, 9.35 32.28, 8.5 31.79 C7.65 31.3, 6.82 30.72, 6.07 30.09 C5.32 29.45, 4.61 28.74, 3.98 27.99 C3.34 27.23, 2.77 26.41, 2.28 25.55 C1.78 24.7, 1.36 23.79, 1.02 22.86 C0.69 21.94, 0.43 20.96, 0.26 19.99 C0.09 19.02, 0 18.02, 0 17.04 C0 16.05, 0.09 15.05, 0.26 14.08 C0.43 13.11, 0.69 12.14, 1.02 11.21 C1.36 10.28, 1.78 9.37, 2.28 8.52 C2.77 7.66, 3.34 6.84, 3.98 6.09 C4.61 5.33, 5.32 4.62, 6.07 3.99 C6.82 3.35, 7.65 2.78, 8.5 2.28 C9.35 1.79, 10.26 1.36, 11.18 1.03 C12.11 0.69, 13.07 0.43, 14.04 0.26 C15.01 0.09, 16.01 0, 16.99 0 C17.98 0, 18.98 0.09, 19.95 0.26 C20.91 0.43, 21.88 0.69, 22.81 1.03 C23.73 1.36, 24.64 1.79, 25.49 2.28 C26.34 2.78, 27.16 3.35, 27.92 3.99 C28.67 4.62, 29.38 5.33, 30.01 6.09 C30.64 6.84, 31.22 7.66, 31.71 8.52 C32.2 9.37, 32.63 10.28, 32.96 11.21 C33.3 12.14, 33.56 13.11, 33.73 14.08 C33.9 15.05, 33.95 16.54, 33.99 17.04 C34.03 17.53, 34.03 16.54, 33.99 17.04" stroke="white" stroke-width="2" fill="none"></path></g><g stroke-linecap="round"><g transform="translate(678.2343028348687 163.4993811029026) rotate(339.3255752391262 6.620933475184302 11.849113953971255)" fill-rule="evenodd"><path d="M0 0 L1.03 -0.64 L2.87 -1.33 L4.03 -5.36 L9.34 -5.31 L10.33 -1.29 L11.74 -0.86 L13.07 -0.13 L16.84 -2.06 L20.74 1.54 L18.6 5.36 L19.24 6.6 L19.67 8.19 L23.83 9.26 L23.78 14.48 L19.84 15.6 L19.24 16.93 L18.43 18.43 L20.7 22.33 L16.93 25.88 L13.33 23.83 L12.13 24.47 L10.33 24.94 L9.34 29.05 L3.9 29.01 L3 24.98 L1.5 24.43 L0 23.74 L-3.56 25.88 L-7.24 22.28 L-5.23 18.38 L-5.96 17.14 L-6.39 15.51 L-10.41 14.57 L-10.58 9.26 L-6.51 8.19 L-6.17 6.9 L-5.4 5.36 L-7.5 1.59 L-3.69 -2.14 L0 0" stroke="none" stroke-width="0" fill="#fab005" fill-rule="evenodd"></path><path d="M0 0 C0.33 -0.21, 0.66 -0.41, 1.03 -0.64 M0 0 C0.4 -0.25, 0.81 -0.5, 1.03 -0.64 M1.03 -0.64 C1.53 -0.83, 2.04 -1.02, 2.87 -1.33 M1.03 -0.64 C1.66 -0.88, 2.29 -1.11, 2.87 -1.33 M2.87 -1.33 C3.15 -2.3, 3.43 -3.28, 4.03 -5.36 M2.87 -1.33 C3.32 -2.9, 3.77 -4.47, 4.03 -5.36 M4.03 -5.36 C5.2 -5.35, 6.38 -5.34, 9.34 -5.31 M4.03 -5.36 C5.97 -5.34, 7.91 -5.33, 9.34 -5.31 M9.34 -5.31 C9.54 -4.5, 9.74 -3.69, 10.33 -1.29 M9.34 -5.31 C9.69 -3.9, 10.03 -2.5, 10.33 -1.29 M10.33 -1.29 C10.89 -1.11, 11.45 -0.94, 11.74 -0.86 M10.33 -1.29 C10.89 -1.12, 11.45 -0.94, 11.74 -0.86 M11.74 -0.86 C12.25 -0.58, 12.76 -0.3, 13.07 -0.13 M11.74 -0.86 C12.22 -0.6, 12.69 -0.34, 13.07 -0.13 M13.07 -0.13 C14.23 -0.72, 15.38 -1.31, 16.84 -2.06 M13.07 -0.13 C14.56 -0.89, 16.05 -1.65, 16.84 -2.06 M16.84 -2.06 C17.74 -1.23, 18.64 -0.4, 20.74 1.54 M16.84 -2.06 C17.68 -1.28, 18.52 -0.51, 20.74 1.54 M20.74 1.54 C19.98 2.89, 19.23 4.24, 18.6 5.36 M20.74 1.54 C19.92 3, 19.1 4.46, 18.6 5.36 M18.6 5.36 C18.82 5.78, 19.04 6.21, 19.24 6.6 M18.6 5.36 C18.82 5.78, 19.04 6.21, 19.24 6.6 M19.24 6.6 C19.39 7.16, 19.55 7.73, 19.67 8.19 M19.24 6.6 C19.39 7.15, 19.54 7.71, 19.67 8.19 M19.67 8.19 C21.24 8.59, 22.81 8.99, 23.83 9.26 M19.67 8.19 C20.83 8.48, 21.99 8.78, 23.83 9.26 M23.83 9.26 C23.82 10.51, 23.81 11.76, 23.78 14.48 M23.83 9.26 C23.81 11.12, 23.8 12.98, 23.78 14.48 M23.78 14.48 C22.4 14.88, 21.01 15.27, 19.84 15.6 M23.78 14.48 C22.3 14.9, 20.82 15.32, 19.84 15.6 M19.84 15.6 C19.64 16.04, 19.44 16.48, 19.24 16.93 M19.84 15.6 C19.71 15.9, 19.57 16.2, 19.24 16.93 M19.24 16.93 C18.97 17.43, 18.69 17.94, 18.43 18.43 M19.24 16.93 C18.99 17.39, 18.74 17.85, 18.43 18.43 M18.43 18.43 C19.06 19.52, 19.7 20.61, 20.7 22.33 M18.43 18.43 C19 19.41, 19.58 20.4, 20.7 22.33 M20.7 22.33 C19.31 23.63, 17.93 24.94, 16.93 25.88 M20.7 22.33 C19.35 23.6, 17.99 24.88, 16.93 25.88 M16.93 25.88 C15.75 25.21, 14.58 24.54, 13.33 23.83 M16.93 25.88 C15.86 25.27, 14.8 24.67, 13.33 23.83 M13.33 23.83 C12.93 24.04, 12.54 24.25, 12.13 24.47 M13.33 23.83 C12.92 24.04, 12.52 24.26, 12.13 24.47 M12.13 24.47 C11.72 24.58, 11.31 24.68, 10.33 24.94 M12.13 24.47 C11.62 24.6, 11.11 24.74, 10.33 24.94 M10.33 24.94 C10.06 26.05, 9.79 27.17, 9.34 29.05 M10.33 24.94 C10.06 26.05, 9.8 27.15, 9.34 29.05 M9.34 29.05 C7.46 29.04, 5.58 29.03, 3.9 29.01 M9.34 29.05 C7.68 29.04, 6.01 29.03, 3.9 29.01 M3.9 29.01 C3.63 27.82, 3.37 26.63, 3 24.98 M3.9 29.01 C3.64 27.84, 3.38 26.67, 3 24.98 M3 24.98 C2.47 24.79, 1.94 24.59, 1.5 24.43 M3 24.98 C2.51 24.8, 2.02 24.62, 1.5 24.43 M1.5 24.43 C1.1 24.24, 0.7 24.06, 0 23.74 M1.5 24.43 C0.96 24.18, 0.42 23.93, 0 23.74 M0 23.74 C-1.18 24.45, -2.35 25.16, -3.56 25.88 M0 23.74 C-0.99 24.34, -1.98 24.93, -3.56 25.88 M-3.56 25.88 C-4.69 24.78, -5.82 23.67, -7.24 22.28 M-3.56 25.88 C-4.85 24.62, -6.15 23.35, -7.24 22.28 M-7.24 22.28 C-6.71 21.26, -6.18 20.24, -5.23 18.38 M-7.24 22.28 C-6.54 20.92, -5.83 19.55, -5.23 18.38 M-5.23 18.38 C-5.44 18.02, -5.65 17.66, -5.96 17.14 M-5.23 18.38 C-5.49 17.94, -5.75 17.49, -5.96 17.14 M-5.96 17.14 C-6.1 16.58, -6.25 16.02, -6.39 15.51 M-5.96 17.14 C-6.09 16.64, -6.22 16.14, -6.39 15.51 M-6.39 15.51 C-7.82 15.18, -9.26 14.84, -10.41 14.57 M-6.39 15.51 C-7.95 15.15, -9.52 14.78, -10.41 14.57 M-10.41 14.57 C-10.46 13.1, -10.51 11.62, -10.58 9.26 M-10.41 14.57 C-10.48 12.54, -10.54 10.52, -10.58 9.26 M-10.58 9.26 C-8.97 8.83, -7.36 8.41, -6.51 8.19 M-10.58 9.26 C-9.49 8.97, -8.39 8.68, -6.51 8.19 M-6.51 8.19 C-6.39 7.71, -6.26 7.23, -6.17 6.9 M-6.51 8.19 C-6.39 7.71, -6.26 7.24, -6.17 6.9 M-6.17 6.9 C-5.89 6.34, -5.61 5.78, -5.4 5.36 M-6.17 6.9 C-5.91 6.37, -5.64 5.84, -5.4 5.36 M-5.4 5.36 C-5.92 4.42, -6.44 3.48, -7.5 1.59 M-5.4 5.36 C-6.1 4.1, -6.79 2.85, -7.5 1.59 M-7.5 1.59 C-6.11 0.22, -4.71 -1.14, -3.69 -2.14 M-7.5 1.59 C-6.09 0.21, -4.68 -1.17, -3.69 -2.14 M-3.69 -2.14 C-2.47 -1.43, -1.25 -0.73, 0 0 M-3.69 -2.14 C-2.56 -1.49, -1.44 -0.83, 0 0 M0 0 C0 0, 0 0, 0 0 M0 0 C0 0, 0 0, 0 0" stroke="white" stroke-width="2" fill="none"></path></g></g><mask></mask><g stroke-linecap="round" transform="translate(676.5066857265047 166.74223762590555) rotate(339.3255752391262 8.522161858400978 8.542796632876502)"><path d="M17.04 8.54 C17.04 9.04, 17 9.54, 16.91 10.03 C16.83 10.51, 16.7 11, 16.53 11.46 C16.36 11.93, 16.15 12.39, 15.9 12.81 C15.66 13.24, 15.37 13.66, 15.05 14.03 C14.73 14.41, 14.38 14.77, 14 15.09 C13.62 15.4, 13.21 15.69, 12.78 15.94 C12.36 16.19, 11.9 16.4, 11.44 16.57 C10.97 16.74, 10.49 16.87, 10 16.96 C9.52 17.04, 9.02 17.09, 8.52 17.09 C8.03 17.09, 7.53 17.04, 7.04 16.96 C6.56 16.87, 6.07 16.74, 5.61 16.57 C5.14 16.4, 4.69 16.19, 4.26 15.94 C3.83 15.69, 3.42 15.4, 3.04 15.09 C2.67 14.77, 2.31 14.41, 1.99 14.03 C1.68 13.66, 1.39 13.24, 1.14 12.81 C0.9 12.39, 0.68 11.93, 0.51 11.46 C0.35 11, 0.22 10.51, 0.13 10.03 C0.04 9.54, 0 9.04, 0 8.54 C0 8.05, 0.04 7.55, 0.13 7.06 C0.22 6.57, 0.35 6.09, 0.51 5.62 C0.68 5.16, 0.9 4.7, 1.14 4.27 C1.39 3.84, 1.68 3.43, 1.99 3.05 C2.31 2.67, 2.67 2.32, 3.04 2 C3.42 1.68, 3.83 1.39, 4.26 1.14 C4.69 0.9, 5.14 0.68, 5.61 0.52 C6.07 0.35, 6.56 0.22, 7.04 0.13 C7.53 0.04, 8.03 0, 8.52 0 C9.02 0, 9.52 0.04, 10 0.13 C10.49 0.22, 10.97 0.35, 11.44 0.52 C11.9 0.68, 12.36 0.9, 12.78 1.14 C13.21 1.39, 13.62 1.68, 14 2 C14.38 2.32, 14.73 2.67, 15.05 3.05 C15.37 3.43, 15.66 3.84, 15.9 4.27 C16.15 4.7, 16.36 5.16, 16.53 5.62 C16.7 6.09, 16.83 6.57, 16.91 7.06 C17 7.55, 17.02 8.3, 17.04 8.54 C17.07 8.79, 17.07 8.3, 17.04 8.54" stroke="none" stroke-width="0" fill="#fab005"></path><path d="M17.04 8.54 C17.04 9.04, 17 9.54, 16.91 10.03 C16.83 10.51, 16.7 11, 16.53 11.46 C16.36 11.93, 16.15 12.39, 15.9 12.81 C15.66 13.24, 15.37 13.66, 15.05 14.03 C14.73 14.41, 14.38 14.77, 14 15.09 C13.62 15.4, 13.21 15.69, 12.78 15.94 C12.36 16.19, 11.9 16.4, 11.44 16.57 C10.97 16.74, 10.49 16.87, 10 16.96 C9.52 17.04, 9.02 17.09, 8.52 17.09 C8.03 17.09, 7.53 17.04, 7.04 16.96 C6.56 16.87, 6.07 16.74, 5.61 16.57 C5.14 16.4, 4.69 16.19, 4.26 15.94 C3.83 15.69, 3.42 15.4, 3.04 15.09 C2.67 14.77, 2.31 14.41, 1.99 14.03 C1.68 13.66, 1.39 13.24, 1.14 12.81 C0.9 12.39, 0.68 11.93, 0.51 11.46 C0.35 11, 0.22 10.51, 0.13 10.03 C0.04 9.54, 0 9.04, 0 8.54 C0 8.05, 0.04 7.55, 0.13 7.06 C0.22 6.57, 0.35 6.09, 0.51 5.62 C0.68 5.16, 0.9 4.7, 1.14 4.27 C1.39 3.84, 1.68 3.43, 1.99 3.05 C2.31 2.67, 2.67 2.32, 3.04 2 C3.42 1.68, 3.83 1.39, 4.26 1.14 C4.69 0.9, 5.14 0.68, 5.61 0.52 C6.07 0.35, 6.56 0.22, 7.04 0.13 C7.53 0.04, 8.03 0, 8.52 0 C9.02 0, 9.52 0.04, 10 0.13 C10.49 0.22, 10.97 0.35, 11.44 0.52 C11.9 0.68, 12.36 0.9, 12.78 1.14 C13.21 1.39, 13.62 1.68, 14 2 C14.38 2.32, 14.73 2.67, 15.05 3.05 C15.37 3.43, 15.66 3.84, 15.9 4.27 C16.15 4.7, 16.36 5.16, 16.53 5.62 C16.7 6.09, 16.83 6.57, 16.91 7.06 C17 7.55, 17.02 8.3, 17.04 8.54 C17.07 8.79, 17.07 8.3, 17.04 8.54" stroke="white" stroke-width="2" fill="none"></path></g><g stroke-linecap="round" transform="translate(590.2832508675156 143.99709065924026) rotate(0 84.88753738340438 64.3027466189626)"><path d="M32 0 M32 0 C67.55 0, 103.11 0, 137.78 0 M137.78 0 C159.11 0, 169.78 10.67, 169.78 32 M169.78 32 C169.78 55.92, 169.78 79.83, 169.78 96.61 M169.78 96.61 C169.78 117.94, 159.11 128.61, 137.78 128.61 M137.78 128.61 C97.71 128.61, 57.64 128.61, 32 128.61 M32 128.61 C10.67 128.61, 0 117.94, 0 96.61 M0 96.61 C0 74.41, 0 52.22, 0 32 M0 32 C0 10.67, 10.67 0, 32 0" stroke="#fab005" stroke-width="1.5" fill="none" stroke-dasharray="1.5 7"></path></g><g stroke-linecap="round" transform="translate(386.9559998676077 190.10686698413429) rotate(0 59.5 18.5)"><path d="M9.25 0 L109.75 0 L113.8 0.58 L116.69 2.31 L118.42 5.2 L119 9.25 L118.42 31.8 L116.69 34.69 L113.8 36.42 L109.75 37 L9.25 37 L5.2 36.42 L2.31 34.69 L0.58 31.8 L0 9.25 L0.58 5.2 L2.31 2.31 L5.2 0.58 L9.25 0" stroke="none" stroke-width="0" fill="#28343c"></path><path d="M9.25 0 M9.25 0 C37.49 0, 65.72 0, 109.75 0 M109.75 0 C115.92 0, 119 3.08, 119 9.25 M119 9.25 C119 16.49, 119 23.72, 119 27.75 M119 27.75 C119 33.92, 115.92 37, 109.75 37 M109.75 37 C70.59 37, 31.44 37, 9.25 37 M9.25 37 C3.08 37, 0 33.92, 0 27.75 M0 27.75 C0 22.81, 0 17.88, 0 9.25 M0 9.25 C0 3.08, 3.08 0, 9.25 0" stroke="transparent" stroke-width="2.5" fill="none" stroke-dasharray="1.5 8"></path></g><g transform="translate(404.9559998676077 195.10686698413429) rotate(0 41.5 13.5)"><text x="41.5" y="19" font-family="Virgil, Segoe UI Emoji" font-size="21.023136032084114px" fill="white" text-anchor="middle" style="white-space: pre;" direction="ltr">extract</text></g><g stroke-linecap="round"><g transform="translate(506.92461946998446 207.35037924272183) rotate(0 40.864586031698764 -1.1368683772161603e-13)"><path d="M0 0 C13.62 0, 68.11 0, 81.73 0" stroke="#fab005" stroke-width="2.5" fill="none" stroke-dasharray="1.5 8"></path></g></g><mask></mask><g stroke-linecap="round"><g transform="translate(762.7724624510493 203.35275669614293) rotate(0 41.73638795603574 -0.22209014147676953)"><path d="M0 0 C13.91 -0.07, 69.56 -0.37, 83.47 -0.44" stroke="#fab005" stroke-width="2.5" fill="none" stroke-dasharray="1.5 8"></path></g></g><mask></mask><g stroke-linecap="round"><g transform="translate(968.2939690195517 203.13961706350278) rotate(0 41.73638795603574 -0.22209014147676953)"><path d="M0 0 C13.91 -0.07, 69.56 -0.37, 83.47 -0.44" stroke="#4c6ef5" stroke-width="2.5" fill="none" stroke-dasharray="1.5 8"></path></g></g><mask></mask></svg>