<svg version="1.1" xmlns="http://www.w3.org/2000/svg" viewBox="0 0 1213.9602791597827 453.43424521410543" width="2427.9205583195653" height="906.8684904282109">
  <!-- svg-source:excalidraw -->
  
  <defs>
    <style class="style-fonts">
      @font-face {
        font-family: "Virgil";
        src: url("https://excalidraw.com/Virgil.woff2");
      }
      @font-face {
        font-family: "Cascadia";
        src: url("https://excalidraw.com/Cascadia.woff2");
      }
    </style>
  </defs>
  <g stroke-linecap="round" transform="translate(191.75830577499073 10) rotate(0 52.135077445001116 63.06272464659685)"><path d="M26.07 0 L84.31 0.41 L89.61 1.63 L94.09 3.67 L97.75 6.52 L100.6 10.18 L102.64 14.66 L104.27 26.07 L104.27 100.06 L102.64 111.46 L100.6 115.94 L97.75 119.61 L94.09 122.46 L89.61 124.5 L78.2 126.13 L19.96 125.72 L14.66 124.5 L10.18 122.46 L6.52 119.61 L3.67 115.94 L1.63 111.46 L0 100.06 L0.41 19.96 L1.63 14.66 L3.67 10.18 L6.52 6.52 L10.18 3.67 L14.66 1.63 L26.07 0" stroke="none" stroke-width="0" fill="#be4bdb"></path><path d="M26.07 0 M26.07 0 C41.02 0, 55.96 0, 78.2 0 M26.07 0 C43.58 0, 61.09 0, 78.2 0 M78.2 0 C95.58 0, 104.27 8.69, 104.27 26.07 M78.2 0 C95.58 0, 104.27 8.69, 104.27 26.07 M104.27 26.07 C104.27 49.85, 104.27 73.62, 104.27 100.06 M104.27 26.07 C104.27 45.79, 104.27 65.51, 104.27 100.06 M104.27 100.06 C104.27 117.44, 95.58 126.13, 78.2 126.13 M104.27 100.06 C104.27 117.44, 95.58 126.13, 78.2 126.13 M78.2 126.13 C61.52 126.13, 44.84 126.13, 26.07 126.13 M78.2 126.13 C59.58 126.13, 40.96 126.13, 26.07 126.13 M26.07 126.13 C8.69 126.13, 0 117.44, 0 100.06 M26.07 126.13 C8.69 126.13, 0 117.44, 0 100.06 M0 100.06 C0 82.28, 0 64.51, 0 26.07 M0 100.06 C0 82.43, 0 64.79, 0 26.07 M0 26.07 C0 8.69, 8.69 0, 26.07 0 M0 26.07 C0 8.69, 8.69 0, 26.07 0" stroke="#263238" stroke-width="4" fill="none"></path></g><g stroke-linecap="round" transform="translate(214.30996551876524 28.755083484873467) rotate(0 30.507609013875026 12.029814279919037)"><path d="M61.02 12.03 C61.02 12.73, 60.86 13.43, 60.55 14.12 C60.25 14.8, 59.78 15.49, 59.18 16.14 C58.57 16.8, 57.81 17.44, 56.93 18.04 C56.05 18.65, 55.01 19.23, 53.88 19.76 C52.74 20.3, 51.47 20.8, 50.12 21.25 C48.76 21.69, 47.29 22.1, 45.76 22.45 C44.23 22.8, 42.6 23.1, 40.94 23.33 C39.28 23.57, 37.54 23.76, 35.81 23.88 C34.07 24, 32.27 24.06, 30.51 24.06 C28.74 24.06, 26.95 24, 25.21 23.88 C23.47 23.76, 21.73 23.57, 20.07 23.33 C18.41 23.1, 16.78 22.8, 15.25 22.45 C13.72 22.1, 12.25 21.69, 10.9 21.25 C9.54 20.8, 8.27 20.3, 7.14 19.76 C6 19.23, 4.97 18.65, 4.09 18.04 C3.2 17.44, 2.44 16.8, 1.84 16.14 C1.24 15.49, 0.77 14.8, 0.46 14.12 C0.16 13.43, 0 12.73, 0 12.03 C0 11.33, 0.16 10.63, 0.46 9.94 C0.77 9.26, 1.24 8.57, 1.84 7.92 C2.44 7.26, 3.2 6.62, 4.09 6.01 C4.97 5.41, 6 4.83, 7.14 4.3 C8.27 3.76, 9.54 3.26, 10.9 2.81 C12.25 2.37, 13.72 1.96, 15.25 1.61 C16.78 1.26, 18.41 0.96, 20.07 0.73 C21.73 0.49, 23.47 0.3, 25.21 0.18 C26.95 0.06, 28.74 0, 30.51 0 C32.27 0, 34.07 0.06, 35.81 0.18 C37.54 0.3, 39.28 0.49, 40.94 0.73 C42.6 0.96, 44.23 1.26, 45.76 1.61 C47.29 1.96, 48.76 2.37, 50.12 2.81 C51.47 3.26, 52.74 3.76, 53.88 4.3 C55.01 4.83, 56.05 5.41, 56.93 6.01 C57.81 6.62, 58.57 7.26, 59.18 7.92 C59.78 8.57, 60.25 9.26, 60.55 9.94 C60.86 10.63, 60.94 11.68, 61.02 12.03 C61.09 12.38, 61.09 11.68, 61.02 12.03" stroke="white" stroke-width="2" fill="none"></path></g><g stroke-linecap="round"><g transform="translate(214.41597773362446 39.90518300660915) rotate(0 30.450933332021123 39.95678577231752)"><path d="M0 0 C0 5.49, 0 23.75, 0 32.91 C0 42.08, 0.02 49.94, 0 54.99 C-0.02 60.04, -0.11 60.93, -0.09 63.23 C-0.08 65.54, -0.28 67.36, 0.09 68.83 C0.47 70.29, 0.46 70.7, 2.18 72.05 C3.9 73.39, 7.62 75.69, 10.41 76.88 C13.2 78.06, 15.66 78.65, 18.93 79.15 C22.19 79.66, 25.82 79.94, 30 79.91 C34.18 79.88, 39.79 79.83, 44.01 78.96 C48.22 78.1, 52.56 76.14, 55.27 74.7 C57.98 73.26, 59.35 72.41, 60.28 70.34 C61.21 68.27, 60.73 66.04, 60.85 62.29 C60.98 58.53, 61.03 52.17, 61.04 47.81 C61.05 43.45, 60.92 41.24, 60.91 36.14 C60.89 31.03, 60.96 23.12, 60.95 17.18 C60.94 11.25, 60.87 3.29, 60.85 0.51 M0 0 C0 5.49, 0 23.75, 0 32.91 C0 42.08, 0.02 49.94, 0 54.99 C-0.02 60.04, -0.11 60.93, -0.09 63.23 C-0.08 65.54, -0.28 67.36, 0.09 68.83 C0.47 70.29, 0.46 70.7, 2.18 72.05 C3.9 73.39, 7.62 75.69, 10.41 76.88 C13.2 78.06, 15.66 78.65, 18.93 79.15 C22.19 79.66, 25.82 79.94, 30 79.91 C34.18 79.88, 39.79 79.83, 44.01 78.96 C48.22 78.1, 52.56 76.14, 55.27 74.7 C57.98 73.26, 59.35 72.41, 60.28 70.34 C61.21 68.27, 60.73 66.04, 60.85 62.29 C60.98 58.53, 61.03 52.17, 61.04 47.81 C61.05 43.45, 60.92 41.24, 60.91 36.14 C60.89 31.03, 60.96 23.12, 60.95 17.18 C60.94 11.25, 60.87 3.29, 60.85 0.51" stroke="white" stroke-width="2" fill="none"></path></g></g><mask></mask><g stroke-linecap="round"><g transform="translate(214.6377665026048 65.02866236525733) rotate(0 30.562428615881345 4.919551741262353)"><path d="M0 0 C0.54 0.64, 1.85 2.69, 3.23 3.82 C4.61 4.94, 6.49 5.92, 8.29 6.75 C10.09 7.58, 11.77 8.21, 14.02 8.81 C16.27 9.4, 19.3 10.02, 21.79 10.35 C24.29 10.68, 26.36 10.76, 28.98 10.79 C31.61 10.81, 34.79 10.77, 37.57 10.49 C40.35 10.21, 43.01 9.69, 45.64 9.1 C48.27 8.51, 51.23 7.9, 53.35 6.97 C55.46 6.04, 57.04 4.84, 58.34 3.52 C59.63 2.2, 60.66 -0.21, 61.12 -0.95 M0 0 C0.54 0.64, 1.85 2.69, 3.23 3.82 C4.61 4.94, 6.49 5.92, 8.29 6.75 C10.09 7.58, 11.77 8.21, 14.02 8.81 C16.27 9.4, 19.3 10.02, 21.79 10.35 C24.29 10.68, 26.36 10.76, 28.98 10.79 C31.61 10.81, 34.79 10.77, 37.57 10.49 C40.35 10.21, 43.01 9.69, 45.64 9.1 C48.27 8.51, 51.23 7.9, 53.35 6.97 C55.46 6.04, 57.04 4.84, 58.34 3.52 C59.63 2.2, 60.66 -0.21, 61.12 -0.95" stroke="white" stroke-width="2" fill="none"></path></g></g><mask></mask><g stroke-linecap="round"><g transform="translate(214.7468236169443 88.24203201512137) rotate(0 30.562428615881345 4.919551741262353)"><path d="M0 0 C0.54 0.64, 1.85 2.69, 3.23 3.82 C4.61 4.94, 6.49 5.92, 8.29 6.75 C10.09 7.58, 11.77 8.21, 14.02 8.81 C16.27 9.4, 19.3 10.02, 21.79 10.35 C24.29 10.68, 26.36 10.76, 28.98 10.79 C31.61 10.81, 34.79 10.77, 37.57 10.49 C40.35 10.21, 43.01 9.69, 45.64 9.1 C48.27 8.51, 51.23 7.9, 53.35 6.97 C55.46 6.04, 57.04 4.84, 58.34 3.52 C59.63 2.2, 60.66 -0.21, 61.12 -0.95 M0 0 C0.54 0.64, 1.85 2.69, 3.23 3.82 C4.61 4.94, 6.49 5.92, 8.29 6.75 C10.09 7.58, 11.77 8.21, 14.02 8.81 C16.27 9.4, 19.3 10.02, 21.79 10.35 C24.29 10.68, 26.36 10.76, 28.98 10.79 C31.61 10.81, 34.79 10.77, 37.57 10.49 C40.35 10.21, 43.01 9.69, 45.64 9.1 C48.27 8.51, 51.23 7.9, 53.35 6.97 C55.46 6.04, 57.04 4.84, 58.34 3.52 C59.63 2.2, 60.66 -0.21, 61.12 -0.95" stroke="white" stroke-width="2" fill="none"></path></g></g><mask></mask><g stroke-linecap="round" transform="translate(44.10510048666947 138.7077062869148) rotate(0 52.135077445001116 63.06272464659685)"><path d="M26.07 0 L84.31 0.41 L89.61 1.63 L94.09 3.67 L97.75 6.52 L100.6 10.18 L102.64 14.66 L104.27 26.07 L104.27 100.06 L102.64 111.46 L100.6 115.94 L97.75 119.61 L94.09 122.46 L89.61 124.5 L78.2 126.13 L19.96 125.72 L14.66 124.5 L10.18 122.46 L6.52 119.61 L3.67 115.94 L1.63 111.46 L0 100.06 L0.41 19.96 L1.63 14.66 L3.67 10.18 L6.52 6.52 L10.18 3.67 L14.66 1.63 L26.07 0" stroke="none" stroke-width="0" fill="#be4bdb"></path><path d="M26.07 0 M26.07 0 C45.92 0, 65.77 0, 78.2 0 M26.07 0 C40.25 0, 54.43 0, 78.2 0 M78.2 0 C95.58 0, 104.27 8.69, 104.27 26.07 M78.2 0 C95.58 0, 104.27 8.69, 104.27 26.07 M104.27 26.07 C104.27 51.4, 104.27 76.72, 104.27 100.06 M104.27 26.07 C104.27 52, 104.27 77.93, 104.27 100.06 M104.27 100.06 C104.27 117.44, 95.58 126.13, 78.2 126.13 M104.27 100.06 C104.27 117.44, 95.58 126.13, 78.2 126.13 M78.2 126.13 C61.92 126.13, 45.64 126.13, 26.07 126.13 M78.2 126.13 C65.7 126.13, 53.19 126.13, 26.07 126.13 M26.07 126.13 C8.69 126.13, 0 117.44, 0 100.06 M26.07 126.13 C8.69 126.13, 0 117.44, 0 100.06 M0 100.06 C0 78.7, 0 57.33, 0 26.07 M0 100.06 C0 72.2, 0 44.35, 0 26.07 M0 26.07 C0 8.69, 8.69 0, 26.07 0 M0 26.07 C0 8.69, 8.69 0, 26.07 0" stroke="#263238" stroke-width="4" fill="none"></path></g><g stroke-linecap="round" transform="translate(66.65676023044216 157.46278977178827) rotate(0 30.507609013875026 12.029814279919037)"><path d="M61.02 12.03 C61.02 12.73, 60.86 13.43, 60.55 14.12 C60.25 14.8, 59.78 15.49, 59.18 16.14 C58.57 16.8, 57.81 17.44, 56.93 18.04 C56.05 18.65, 55.01 19.23, 53.88 19.76 C52.74 20.3, 51.47 20.8, 50.12 21.25 C48.76 21.69, 47.29 22.1, 45.76 22.45 C44.23 22.8, 42.6 23.1, 40.94 23.33 C39.28 23.57, 37.54 23.76, 35.81 23.88 C34.07 24, 32.27 24.06, 30.51 24.06 C28.74 24.06, 26.95 24, 25.21 23.88 C23.47 23.76, 21.73 23.57, 20.07 23.33 C18.41 23.1, 16.78 22.8, 15.25 22.45 C13.72 22.1, 12.25 21.69, 10.9 21.25 C9.54 20.8, 8.27 20.3, 7.14 19.76 C6 19.23, 4.97 18.65, 4.09 18.04 C3.2 17.44, 2.44 16.8, 1.84 16.14 C1.24 15.49, 0.77 14.8, 0.46 14.12 C0.16 13.43, 0 12.73, 0 12.03 C0 11.33, 0.16 10.63, 0.46 9.94 C0.77 9.26, 1.24 8.57, 1.84 7.92 C2.44 7.26, 3.2 6.62, 4.09 6.01 C4.97 5.41, 6 4.83, 7.14 4.3 C8.27 3.76, 9.54 3.26, 10.9 2.81 C12.25 2.37, 13.72 1.96, 15.25 1.61 C16.78 1.26, 18.41 0.96, 20.07 0.73 C21.73 0.49, 23.47 0.3, 25.21 0.18 C26.95 0.06, 28.74 0, 30.51 0 C32.27 0, 34.07 0.06, 35.81 0.18 C37.54 0.3, 39.28 0.49, 40.94 0.73 C42.6 0.96, 44.23 1.26, 45.76 1.61 C47.29 1.96, 48.76 2.37, 50.12 2.81 C51.47 3.26, 52.74 3.76, 53.88 4.3 C55.01 4.83, 56.05 5.41, 56.93 6.01 C57.81 6.62, 58.57 7.26, 59.18 7.92 C59.78 8.57, 60.25 9.26, 60.55 9.94 C60.86 10.63, 60.94 11.68, 61.02 12.03 C61.09 12.38, 61.09 11.68, 61.02 12.03" stroke="white" stroke-width="2" fill="none"></path></g><g stroke-linecap="round"><g transform="translate(66.76277244530138 168.61288929352395) rotate(0 30.450933332021123 39.95678577231752)"><path d="M0 0 C0 5.49, 0 23.75, 0 32.91 C0 42.08, 0.02 49.94, 0 54.99 C-0.02 60.04, -0.11 60.93, -0.09 63.23 C-0.08 65.54, -0.28 67.36, 0.09 68.83 C0.47 70.29, 0.46 70.7, 2.18 72.05 C3.9 73.39, 7.62 75.69, 10.41 76.88 C13.2 78.06, 15.66 78.65, 18.93 79.15 C22.19 79.66, 25.82 79.94, 30 79.91 C34.18 79.88, 39.79 79.83, 44.01 78.96 C48.22 78.1, 52.56 76.14, 55.27 74.7 C57.98 73.26, 59.35 72.41, 60.28 70.34 C61.21 68.27, 60.73 66.04, 60.85 62.29 C60.98 58.53, 61.03 52.17, 61.04 47.81 C61.05 43.45, 60.92 41.24, 60.91 36.14 C60.89 31.03, 60.96 23.12, 60.95 17.18 C60.94 11.25, 60.87 3.29, 60.85 0.51 M0 0 C0 5.49, 0 23.75, 0 32.91 C0 42.08, 0.02 49.94, 0 54.99 C-0.02 60.04, -0.11 60.93, -0.09 63.23 C-0.08 65.54, -0.28 67.36, 0.09 68.83 C0.47 70.29, 0.46 70.7, 2.18 72.05 C3.9 73.39, 7.62 75.69, 10.41 76.88 C13.2 78.06, 15.66 78.65, 18.93 79.15 C22.19 79.66, 25.82 79.94, 30 79.91 C34.18 79.88, 39.79 79.83, 44.01 78.96 C48.22 78.1, 52.56 76.14, 55.27 74.7 C57.98 73.26, 59.35 72.41, 60.28 70.34 C61.21 68.27, 60.73 66.04, 60.85 62.29 C60.98 58.53, 61.03 52.17, 61.04 47.81 C61.05 43.45, 60.92 41.24, 60.91 36.14 C60.89 31.03, 60.96 23.12, 60.95 17.18 C60.94 11.25, 60.87 3.29, 60.85 0.51" stroke="white" stroke-width="2" fill="none"></path></g></g><mask></mask><g stroke-linecap="round"><g transform="translate(66.98456121428353 193.73636865217213) rotate(0 30.562428615881345 4.919551741262353)"><path d="M0 0 C0.54 0.64, 1.85 2.69, 3.23 3.82 C4.61 4.94, 6.49 5.92, 8.29 6.75 C10.09 7.58, 11.77 8.21, 14.02 8.81 C16.27 9.4, 19.3 10.02, 21.79 10.35 C24.29 10.68, 26.36 10.76, 28.98 10.79 C31.61 10.81, 34.79 10.77, 37.57 10.49 C40.35 10.21, 43.01 9.69, 45.64 9.1 C48.27 8.51, 51.23 7.9, 53.35 6.97 C55.46 6.04, 57.04 4.84, 58.34 3.52 C59.63 2.2, 60.66 -0.21, 61.12 -0.95 M0 0 C0.54 0.64, 1.85 2.69, 3.23 3.82 C4.61 4.94, 6.49 5.92, 8.29 6.75 C10.09 7.58, 11.77 8.21, 14.02 8.81 C16.27 9.4, 19.3 10.02, 21.79 10.35 C24.29 10.68, 26.36 10.76, 28.98 10.79 C31.61 10.81, 34.79 10.77, 37.57 10.49 C40.35 10.21, 43.01 9.69, 45.64 9.1 C48.27 8.51, 51.23 7.9, 53.35 6.97 C55.46 6.04, 57.04 4.84, 58.34 3.52 C59.63 2.2, 60.66 -0.21, 61.12 -0.95" stroke="white" stroke-width="2" fill="none"></path></g></g><mask></mask><g stroke-linecap="round"><g transform="translate(67.09361832862123 216.94973830203617) rotate(0 30.562428615881345 4.919551741262353)"><path d="M0 0 C0.54 0.64, 1.85 2.69, 3.23 3.82 C4.61 4.94, 6.49 5.92, 8.29 6.75 C10.09 7.58, 11.77 8.21, 14.02 8.81 C16.27 9.4, 19.3 10.02, 21.79 10.35 C24.29 10.68, 26.36 10.76, 28.98 10.79 C31.61 10.81, 34.79 10.77, 37.57 10.49 C40.35 10.21, 43.01 9.69, 45.64 9.1 C48.27 8.51, 51.23 7.9, 53.35 6.97 C55.46 6.04, 57.04 4.84, 58.34 3.52 C59.63 2.2, 60.66 -0.21, 61.12 -0.95 M0 0 C0.54 0.64, 1.85 2.69, 3.23 3.82 C4.61 4.94, 6.49 5.92, 8.29 6.75 C10.09 7.58, 11.77 8.21, 14.02 8.81 C16.27 9.4, 19.3 10.02, 21.79 10.35 C24.29 10.68, 26.36 10.76, 28.98 10.79 C31.61 10.81, 34.79 10.77, 37.57 10.49 C40.35 10.21, 43.01 9.69, 45.64 9.1 C48.27 8.51, 51.23 7.9, 53.35 6.97 C55.46 6.04, 57.04 4.84, 58.34 3.52 C59.63 2.2, 60.66 -0.21, 61.12 -0.95" stroke="white" stroke-width="2" fill="none"></path></g></g><mask></mask><g stroke-linecap="round" transform="translate(185.4833635218929 287.02477977785475) rotate(0 52.135077445001116 63.06272464659685)"><path d="M26.07 0 L84.31 0.41 L89.61 1.63 L94.09 3.67 L97.75 6.52 L100.6 10.18 L102.64 14.66 L104.27 26.07 L104.27 100.06 L102.64 111.46 L100.6 115.94 L97.75 119.61 L94.09 122.46 L89.61 124.5 L78.2 126.13 L19.96 125.72 L14.66 124.5 L10.18 122.46 L6.52 119.61 L3.67 115.94 L1.63 111.46 L0 100.06 L0.41 19.96 L1.63 14.66 L3.67 10.18 L6.52 6.52 L10.18 3.67 L14.66 1.63 L26.07 0" stroke="none" stroke-width="0" fill="#be4bdb"></path><path d="M26.07 0 M26.07 0 C37.27 0, 48.47 0, 78.2 0 M26.07 0 C40.95 0, 55.83 0, 78.2 0 M78.2 0 C95.58 0, 104.27 8.69, 104.27 26.07 M78.2 0 C95.58 0, 104.27 8.69, 104.27 26.07 M104.27 26.07 C104.27 51.03, 104.27 76, 104.27 100.06 M104.27 26.07 C104.27 53.49, 104.27 80.91, 104.27 100.06 M104.27 100.06 C104.27 117.44, 95.58 126.13, 78.2 126.13 M104.27 100.06 C104.27 117.44, 95.58 126.13, 78.2 126.13 M78.2 126.13 C57.8 126.13, 37.39 126.13, 26.07 126.13 M78.2 126.13 C58.91 126.13, 39.62 126.13, 26.07 126.13 M26.07 126.13 C8.69 126.13, 0 117.44, 0 100.06 M26.07 126.13 C8.69 126.13, 0 117.44, 0 100.06 M0 100.06 C0 74.8, 0 49.55, 0 26.07 M0 100.06 C0 72.33, 0 44.6, 0 26.07 M0 26.07 C0 8.69, 8.69 0, 26.07 0 M0 26.07 C0 8.69, 8.69 0, 26.07 0" stroke="#263238" stroke-width="4" fill="none"></path></g><g stroke-linecap="round" transform="translate(208.03502326566377 305.7798632627282) rotate(0 30.507609013875026 12.029814279919037)"><path d="M61.02 12.03 C61.02 12.73, 60.86 13.43, 60.55 14.12 C60.25 14.8, 59.78 15.49, 59.18 16.14 C58.57 16.8, 57.81 17.44, 56.93 18.04 C56.05 18.65, 55.01 19.23, 53.88 19.76 C52.74 20.3, 51.47 20.8, 50.12 21.25 C48.76 21.69, 47.29 22.1, 45.76 22.45 C44.23 22.8, 42.6 23.1, 40.94 23.33 C39.28 23.57, 37.54 23.76, 35.81 23.88 C34.07 24, 32.27 24.06, 30.51 24.06 C28.74 24.06, 26.95 24, 25.21 23.88 C23.47 23.76, 21.73 23.57, 20.07 23.33 C18.41 23.1, 16.78 22.8, 15.25 22.45 C13.72 22.1, 12.25 21.69, 10.9 21.25 C9.54 20.8, 8.27 20.3, 7.14 19.76 C6 19.23, 4.97 18.65, 4.09 18.04 C3.2 17.44, 2.44 16.8, 1.84 16.14 C1.24 15.49, 0.77 14.8, 0.46 14.12 C0.16 13.43, 0 12.73, 0 12.03 C0 11.33, 0.16 10.63, 0.46 9.94 C0.77 9.26, 1.24 8.57, 1.84 7.92 C2.44 7.26, 3.2 6.62, 4.09 6.01 C4.97 5.41, 6 4.83, 7.14 4.3 C8.27 3.76, 9.54 3.26, 10.9 2.81 C12.25 2.37, 13.72 1.96, 15.25 1.61 C16.78 1.26, 18.41 0.96, 20.07 0.73 C21.73 0.49, 23.47 0.3, 25.21 0.18 C26.95 0.06, 28.74 0, 30.51 0 C32.27 0, 34.07 0.06, 35.81 0.18 C37.54 0.3, 39.28 0.49, 40.94 0.73 C42.6 0.96, 44.23 1.26, 45.76 1.61 C47.29 1.96, 48.76 2.37, 50.12 2.81 C51.47 3.26, 52.74 3.76, 53.88 4.3 C55.01 4.83, 56.05 5.41, 56.93 6.01 C57.81 6.62, 58.57 7.26, 59.18 7.92 C59.78 8.57, 60.25 9.26, 60.55 9.94 C60.86 10.63, 60.94 11.68, 61.02 12.03 C61.09 12.38, 61.09 11.68, 61.02 12.03" stroke="white" stroke-width="2" fill="none"></path></g><g stroke-linecap="round"><g transform="translate(208.141035480523 316.9299627844639) rotate(0 30.450933332021123 39.95678577231752)"><path d="M0 0 C0 5.49, 0 23.75, 0 32.91 C0 42.08, 0.02 49.94, 0 54.99 C-0.02 60.04, -0.11 60.93, -0.09 63.23 C-0.08 65.54, -0.28 67.36, 0.09 68.83 C0.47 70.29, 0.46 70.7, 2.18 72.05 C3.9 73.39, 7.62 75.69, 10.41 76.88 C13.2 78.06, 15.66 78.65, 18.93 79.15 C22.19 79.66, 25.82 79.94, 30 79.91 C34.18 79.88, 39.79 79.83, 44.01 78.96 C48.22 78.1, 52.56 76.14, 55.27 74.7 C57.98 73.26, 59.35 72.41, 60.28 70.34 C61.21 68.27, 60.73 66.04, 60.85 62.29 C60.98 58.53, 61.03 52.17, 61.04 47.81 C61.05 43.45, 60.92 41.24, 60.91 36.14 C60.89 31.03, 60.96 23.12, 60.95 17.18 C60.94 11.25, 60.87 3.29, 60.85 0.51 M0 0 C0 5.49, 0 23.75, 0 32.91 C0 42.08, 0.02 49.94, 0 54.99 C-0.02 60.04, -0.11 60.93, -0.09 63.23 C-0.08 65.54, -0.28 67.36, 0.09 68.83 C0.47 70.29, 0.46 70.7, 2.18 72.05 C3.9 73.39, 7.62 75.69, 10.41 76.88 C13.2 78.06, 15.66 78.65, 18.93 79.15 C22.19 79.66, 25.82 79.94, 30 79.91 C34.18 79.88, 39.79 79.83, 44.01 78.96 C48.22 78.1, 52.56 76.14, 55.27 74.7 C57.98 73.26, 59.35 72.41, 60.28 70.34 C61.21 68.27, 60.73 66.04, 60.85 62.29 C60.98 58.53, 61.03 52.17, 61.04 47.81 C61.05 43.45, 60.92 41.24, 60.91 36.14 C60.89 31.03, 60.96 23.12, 60.95 17.18 C60.94 11.25, 60.87 3.29, 60.85 0.51" stroke="white" stroke-width="2" fill="none"></path></g></g><mask></mask><g stroke-linecap="round"><g transform="translate(208.36282424950696 342.0534421431121) rotate(0 30.562428615881345 4.919551741262353)"><path d="M0 0 C0.54 0.64, 1.85 2.69, 3.23 3.82 C4.61 4.94, 6.49 5.92, 8.29 6.75 C10.09 7.58, 11.77 8.21, 14.02 8.81 C16.27 9.4, 19.3 10.02, 21.79 10.35 C24.29 10.68, 26.36 10.76, 28.98 10.79 C31.61 10.81, 34.79 10.77, 37.57 10.49 C40.35 10.21, 43.01 9.69, 45.64 9.1 C48.27 8.51, 51.23 7.9, 53.35 6.97 C55.46 6.04, 57.04 4.84, 58.34 3.52 C59.63 2.2, 60.66 -0.21, 61.12 -0.95 M0 0 C0.54 0.64, 1.85 2.69, 3.23 3.82 C4.61 4.94, 6.49 5.92, 8.29 6.75 C10.09 7.58, 11.77 8.21, 14.02 8.81 C16.27 9.4, 19.3 10.02, 21.79 10.35 C24.29 10.68, 26.36 10.76, 28.98 10.79 C31.61 10.81, 34.79 10.77, 37.57 10.49 C40.35 10.21, 43.01 9.69, 45.64 9.1 C48.27 8.51, 51.23 7.9, 53.35 6.97 C55.46 6.04, 57.04 4.84, 58.34 3.52 C59.63 2.2, 60.66 -0.21, 61.12 -0.95" stroke="white" stroke-width="2" fill="none"></path></g></g><mask></mask><g stroke-linecap="round"><g transform="translate(208.47188136384284 365.2668117929761) rotate(0 30.562428615881345 4.919551741262353)"><path d="M0 0 C0.54 0.64, 1.85 2.69, 3.23 3.82 C4.61 4.94, 6.49 5.92, 8.29 6.75 C10.09 7.58, 11.77 8.21, 14.02 8.81 C16.27 9.4, 19.3 10.02, 21.79 10.35 C24.29 10.68, 26.36 10.76, 28.98 10.79 C31.61 10.81, 34.79 10.77, 37.57 10.49 C40.35 10.21, 43.01 9.69, 45.64 9.1 C48.27 8.51, 51.23 7.9, 53.35 6.97 C55.46 6.04, 57.04 4.84, 58.34 3.52 C59.63 2.2, 60.66 -0.21, 61.12 -0.95 M0 0 C0.54 0.64, 1.85 2.69, 3.23 3.82 C4.61 4.94, 6.49 5.92, 8.29 6.75 C10.09 7.58, 11.77 8.21, 14.02 8.81 C16.27 9.4, 19.3 10.02, 21.79 10.35 C24.29 10.68, 26.36 10.76, 28.98 10.79 C31.61 10.81, 34.79 10.77, 37.57 10.49 C40.35 10.21, 43.01 9.69, 45.64 9.1 C48.27 8.51, 51.23 7.9, 53.35 6.97 C55.46 6.04, 57.04 4.84, 58.34 3.52 C59.63 2.2, 60.66 -0.21, 61.12 -0.95" stroke="white" stroke-width="2" fill="none"></path></g></g><mask></mask><g stroke-linecap="round" transform="translate(591.3236435206909 190.4651683647703) rotate(0 59.5 18.5)"><path d="M9.25 0 L109.75 0 L113.8 0.58 L116.69 2.31 L118.42 5.2 L119 9.25 L118.42 31.8 L116.69 34.69 L113.8 36.42 L109.75 37 L9.25 37 L5.2 36.42 L2.31 34.69 L0.58 31.8 L0 9.25 L0.58 5.2 L2.31 2.31 L5.2 0.58 L9.25 0" stroke="none" stroke-width="0" fill="#28343c"></path><path d="M9.25 0 M9.25 0 C37.69 0, 66.14 0, 109.75 0 M109.75 0 C115.92 0, 119 3.08, 119 9.25 M119 9.25 C119 15.64, 119 22.03, 119 27.75 M119 27.75 C119 33.92, 115.92 37, 109.75 37 M109.75 37 C81.07 37, 52.39 37, 9.25 37 M9.25 37 C3.08 37, 0 33.92, 0 27.75 M0 27.75 C0 22.83, 0 17.92, 0 9.25 M0 9.25 C0 3.08, 3.08 0, 9.25 0" stroke="transparent" stroke-width="2.5" fill="none" stroke-dasharray="1.5 8"></path></g><g transform="translate(628.3236435206909 195.4651683647703) rotate(0 22.5 13.5)"><text x="22.5" y="19" font-family="Virgil, Segoe UI Emoji" font-size="21.023136032084114px" fill="white" text-anchor="middle" style="white-space: pre;" direction="ltr">load</text></g><g stroke-linecap="round" transform="translate(1066.299253153431 280.3944387364204) rotate(0 59.5 18.5)"><path d="M9.25 0 L109.75 0 L113.8 0.58 L116.69 2.31 L118.42 5.2 L119 9.25 L118.42 31.8 L116.69 34.69 L113.8 36.42 L109.75 37 L9.25 37 L5.2 36.42 L2.31 34.69 L0.58 31.8 L0 9.25 L0.58 5.2 L2.31 2.31 L5.2 0.58 L9.25 0" stroke="none" stroke-width="0" fill="#28343c"></path><path d="M9.25 0 M9.25 0 C39.75 0, 70.25 0, 109.75 0 M109.75 0 C115.92 0, 119 3.08, 119 9.25 M119 9.25 C119 13.39, 119 17.53, 119 27.75 M119 27.75 C119 33.92, 115.92 37, 109.75 37 M109.75 37 C69.61 37, 29.47 37, 9.25 37 M9.25 37 C3.08 37, 0 33.92, 0 27.75 M0 27.75 C0 23.37, 0 18.99, 0 9.25 M0 9.25 C0 3.08, 3.08 0, 9.25 0" stroke="transparent" stroke-width="2.5" fill="none" stroke-dasharray="1.5 8"></path></g><g transform="translate(1074.799253153431 285.3944387364204) rotate(0 51 13.5)"><text x="51" y="19" font-family="Virgil, Segoe UI Emoji" font-size="21.023136032084114px" fill="white" text-anchor="middle" style="white-space: pre;" direction="ltr">transform</text></g><g stroke-linecap="round" transform="translate(795.4826886350729 114.6037527852709) rotate(0 75.17805646099805 90.93557171882196)"><path d="M37.59 0 L112.77 0 L121.58 0.59 L129.21 2.35 L135.67 5.29 L140.96 9.4 L145.07 14.68 L148.01 21.14 L149.77 28.78 L150.36 37.59 L150.36 144.28 L149.77 153.09 L148.01 160.73 L145.07 167.19 L140.96 172.47 L135.67 176.59 L129.21 179.52 L121.58 181.28 L112.77 181.87 L37.59 181.87 L28.78 181.28 L21.14 179.52 L14.68 176.59 L9.4 172.47 L5.29 167.19 L2.35 160.73 L0.59 153.09 L0 144.28 L0 37.59 L0.59 28.78 L2.35 21.14 L5.29 14.68 L9.4 9.4 L14.68 5.29 L21.14 2.35 L28.78 0.59 L37.59 0" stroke="none" stroke-width="0" fill="#4c6ef5"></path><path d="M37.59 0 M37.59 0 C55.77 0, 73.96 0, 112.77 0 M37.59 0 C58.9 0, 80.2 0, 112.77 0 M112.77 0 C137.83 0, 150.36 12.53, 150.36 37.59 M112.77 0 C137.83 0, 150.36 12.53, 150.36 37.59 M150.36 37.59 C150.36 70.74, 150.36 103.89, 150.36 144.28 M150.36 37.59 C150.36 70.98, 150.36 104.37, 150.36 144.28 M150.36 144.28 C150.36 169.34, 137.83 181.87, 112.77 181.87 M150.36 144.28 C150.36 169.34, 137.83 181.87, 112.77 181.87 M112.77 181.87 C87 181.87, 61.24 181.87, 37.59 181.87 M112.77 181.87 C89.89 181.87, 67.01 181.87, 37.59 181.87 M37.59 181.87 C12.53 181.87, 0 169.34, 0 144.28 M37.59 181.87 C12.53 181.87, 0 169.34, 0 144.28 M0 144.28 C0 122.45, 0 100.62, 0 37.59 M0 144.28 C0 101.77, 0 59.26, 0 37.59 M0 37.59 C0 12.53, 12.53 0, 37.59 0 M0 37.59 C0 12.53, 12.53 0, 37.59 0" stroke="#263238" stroke-width="4" fill="none"></path></g><g stroke-linecap="round" transform="translate(828.0018682851824 141.64832228157547) rotate(0 43.99154782794085 17.34682485328858)"><path d="M87.98 17.35 C87.98 18.25, 87.8 19.17, 87.44 20.06 C87.08 20.95, 86.54 21.85, 85.83 22.71 C85.12 23.57, 84.23 24.42, 83.19 25.22 C82.15 26.03, 80.93 26.81, 79.58 27.54 C78.23 28.27, 76.72 28.97, 75.1 29.61 C73.48 30.25, 71.7 30.85, 69.85 31.38 C67.99 31.91, 66.01 32.39, 63.96 32.8 C61.92 33.21, 59.77 33.57, 57.59 33.84 C55.4 34.12, 53.14 34.34, 50.87 34.48 C48.61 34.62, 46.29 34.69, 43.99 34.69 C41.7 34.69, 39.38 34.62, 37.11 34.48 C34.84 34.34, 32.58 34.12, 30.4 33.84 C28.22 33.57, 26.06 33.21, 24.02 32.8 C21.98 32.39, 19.99 31.91, 18.13 31.38 C16.28 30.85, 14.51 30.25, 12.88 29.61 C11.26 28.97, 9.75 28.27, 8.4 27.54 C7.05 26.81, 5.84 26.03, 4.79 25.22 C3.75 24.42, 2.86 23.57, 2.15 22.71 C1.44 21.85, 0.9 20.95, 0.54 20.06 C0.18 19.17, 0 18.25, 0 17.35 C0 16.44, 0.18 15.53, 0.54 14.63 C0.9 13.74, 1.44 12.85, 2.15 11.99 C2.86 11.13, 3.75 10.28, 4.79 9.47 C5.84 8.67, 7.05 7.88, 8.4 7.15 C9.75 6.42, 11.26 5.72, 12.88 5.08 C14.51 4.44, 16.28 3.84, 18.13 3.31 C19.99 2.78, 21.98 2.3, 24.02 1.89 C26.06 1.48, 28.22 1.13, 30.4 0.85 C32.58 0.57, 34.84 0.36, 37.11 0.21 C39.38 0.07, 41.7 0, 43.99 0 C46.29 0, 48.61 0.07, 50.87 0.21 C53.14 0.36, 55.4 0.57, 57.59 0.85 C59.77 1.13, 61.92 1.48, 63.96 1.89 C66.01 2.3, 67.99 2.78, 69.85 3.31 C71.7 3.84, 73.48 4.44, 75.1 5.08 C76.72 5.72, 78.23 6.42, 79.58 7.15 C80.93 7.88, 82.15 8.67, 83.19 9.47 C84.23 10.28, 85.12 11.13, 85.83 11.99 C86.54 12.85, 87.08 13.74, 87.44 14.63 C87.8 15.53, 87.89 16.89, 87.98 17.35 C88.07 17.8, 88.07 16.89, 87.98 17.35" stroke="white" stroke-width="2" fill="none"></path></g><g stroke-linecap="round"><g transform="translate(828.154736424347 157.72661069066226) rotate(0 43.90982228308303 57.617129272708326)"><path d="M0 0 C0 7.91, 0 34.24, 0 47.46 C0 60.68, 0.02 72.01, 0 79.3 C-0.02 86.58, -0.16 87.86, -0.14 91.18 C-0.11 94.51, -0.41 97.13, 0.14 99.24 C0.68 101.36, 0.66 101.95, 3.14 103.89 C5.62 105.83, 10.99 109.15, 15.01 110.86 C19.04 112.57, 22.59 113.41, 27.29 114.14 C32 114.87, 37.23 115.28, 43.26 115.23 C49.29 115.19, 57.38 115.12, 63.46 113.86 C69.53 112.61, 75.78 109.79, 79.7 107.72 C83.61 105.64, 85.59 104.41, 86.93 101.43 C88.27 98.45, 87.57 95.23, 87.75 89.82 C87.93 84.4, 88 75.23, 88.02 68.94 C88.03 62.66, 87.85 59.47, 87.83 52.11 C87.8 44.75, 87.9 33.34, 87.88 24.78 C87.87 16.22, 87.77 4.74, 87.75 0.73 M0 0 C0 7.91, 0 34.24, 0 47.46 C0 60.68, 0.02 72.01, 0 79.3 C-0.02 86.58, -0.16 87.86, -0.14 91.18 C-0.11 94.51, -0.41 97.13, 0.14 99.24 C0.68 101.36, 0.66 101.95, 3.14 103.89 C5.62 105.83, 10.99 109.15, 15.01 110.86 C19.04 112.57, 22.59 113.41, 27.29 114.14 C32 114.87, 37.23 115.28, 43.26 115.23 C49.29 115.19, 57.38 115.12, 63.46 113.86 C69.53 112.61, 75.78 109.79, 79.7 107.72 C83.61 105.64, 85.59 104.41, 86.93 101.43 C88.27 98.45, 87.57 95.23, 87.75 89.82 C87.93 84.4, 88 75.23, 88.02 68.94 C88.03 62.66, 87.85 59.47, 87.83 52.11 C87.8 44.75, 87.9 33.34, 87.88 24.78 C87.87 16.22, 87.77 4.74, 87.75 0.73" stroke="white" stroke-width="2" fill="none"></path></g></g><mask></mask><g stroke-linecap="round"><g transform="translate(828.4745527440737 193.9543184506374) rotate(0 44.07059693147676 7.093925178447989)"><path d="M0 0 C0.78 0.92, 2.66 3.88, 4.66 5.5 C6.65 7.12, 9.36 8.54, 11.96 9.73 C14.55 10.93, 16.97 11.83, 20.21 12.7 C23.45 13.56, 27.83 14.44, 31.43 14.92 C35.02 15.4, 38 15.52, 41.8 15.55 C45.59 15.59, 50.17 15.54, 54.18 15.13 C58.18 14.73, 62.02 13.97, 65.81 13.12 C69.61 12.27, 73.87 11.39, 76.93 10.05 C79.98 8.71, 82.25 6.98, 84.12 5.08 C85.99 3.17, 87.47 -0.3, 88.14 -1.38 M0 0 C0.78 0.92, 2.66 3.88, 4.66 5.5 C6.65 7.12, 9.36 8.54, 11.96 9.73 C14.55 10.93, 16.97 11.83, 20.21 12.7 C23.45 13.56, 27.83 14.44, 31.43 14.92 C35.02 15.4, 38 15.52, 41.8 15.55 C45.59 15.59, 50.17 15.54, 54.18 15.13 C58.18 14.73, 62.02 13.97, 65.81 13.12 C69.61 12.27, 73.87 11.39, 76.93 10.05 C79.98 8.71, 82.25 6.98, 84.12 5.08 C85.99 3.17, 87.47 -0.3, 88.14 -1.38" stroke="white" stroke-width="2" fill="none"></path></g></g><mask></mask><g stroke-linecap="round"><g transform="translate(828.6318115859285 227.42767458074968) rotate(0 44.07059693147676 7.093925178447989)"><path d="M0 0 C0.78 0.92, 2.66 3.88, 4.66 5.5 C6.65 7.12, 9.36 8.54, 11.96 9.73 C14.55 10.93, 16.97 11.83, 20.21 12.7 C23.45 13.56, 27.83 14.44, 31.43 14.92 C35.02 15.4, 38 15.52, 41.8 15.55 C45.59 15.59, 50.17 15.54, 54.18 15.13 C58.18 14.73, 62.02 13.97, 65.81 13.12 C69.61 12.27, 73.87 11.39, 76.93 10.05 C79.98 8.71, 82.25 6.98, 84.12 5.08 C85.99 3.17, 87.47 -0.3, 88.14 -1.38 M0 0 C0.78 0.92, 2.66 3.88, 4.66 5.5 C6.65 7.12, 9.36 8.54, 11.96 9.73 C14.55 10.93, 16.97 11.83, 20.21 12.7 C23.45 13.56, 27.83 14.44, 31.43 14.92 C35.02 15.4, 38 15.52, 41.8 15.55 C45.59 15.59, 50.17 15.54, 54.18 15.13 C58.18 14.73, 62.02 13.97, 65.81 13.12 C69.61 12.27, 73.87 11.39, 76.93 10.05 C79.98 8.71, 82.25 6.98, 84.12 5.08 C85.99 3.17, 87.47 -0.3, 88.14 -1.38" stroke="white" stroke-width="2" fill="none"></path></g></g><mask></mask><g transform="translate(154.4847159866822 418.43424521410543) rotate(0 82 12.5)"><text x="82" y="18" font-family="Virgil, Segoe UI Emoji" font-size="20px" fill="#263238" text-anchor="middle" style="white-space: pre;" direction="ltr">data source #3</text></g><g transform="translate(783.5921452739276 303.93308264100006) rotate(0 80.5 12.5)"><text x="80.5" y="18" font-family="Virgil, Segoe UI Emoji" font-size="20px" fill="#263238" text-anchor="middle" style="white-space: pre;" direction="ltr">data warehouse</text></g><g transform="translate(10 270.00663368844926) rotate(0 82 12.5)"><text x="82" y="18" font-family="Virgil, Segoe UI Emoji" font-size="20px" fill="#263238" text-anchor="middle" style="white-space: pre;" direction="ltr">data source #2</text></g><g transform="translate(165.15324133991453 140.6361266238191) rotate(0 78 12.5)"><text x="78" y="18" font-family="Virgil, Segoe UI Emoji" font-size="20px" fill="#263238" text-anchor="middle" style="white-space: pre;" direction="ltr">data source #1</text></g><g stroke-linecap="round"><g transform="translate(151.05577912537046 207.69443241759336) rotate(0 116.13424785387451 0.4144739891833069)"><path d="M0 0 C38.71 0.14, 193.56 0.69, 232.27 0.83" stroke="#862e9c" stroke-width="2.5" fill="none" stroke-dasharray="1.5 8"></path></g></g><mask></mask><g stroke-linecap="round"><g transform="translate(293.4600079662232 353.64151379630493) rotate(0 75.36285402709564 -62.65922073429476)"><path d="M0 0 C10.99 -0.98, 46.71 0.35, 65.95 -5.86 C85.19 -12.06, 102.43 -24.91, 115.44 -37.22 C128.45 -49.53, 138.13 -65.05, 144.01 -79.73 C149.89 -94.42, 149.61 -117.72, 150.73 -125.32" stroke="#862e9c" stroke-width="2.5" fill="none" stroke-dasharray="1.5 8"></path></g></g><mask></mask><g stroke-linecap="round"><g transform="translate(295.89932212679923 74.5142791360513) rotate(0 75.36285402709564 59.65496074604118)"><path d="M0 0 C10.99 0.93, 46.71 -0.33, 65.95 5.58 C85.19 11.48, 102.43 23.71, 115.44 35.44 C128.45 47.16, 138.13 61.93, 144.01 75.91 C149.89 89.89, 149.61 112.08, 150.73 119.31" stroke="#862e9c" stroke-width="2.5" fill="none" stroke-dasharray="1.5 8"></path></g></g><mask></mask><g stroke-linecap="round"><g transform="translate(1069.9707177770215 181.7309480780018) rotate(0 16.679074048720395 29.84960501275816)" fill-rule="evenodd"><path d="M0 0 L2.59 -1.62 L7.23 -3.35 L10.15 -13.49 L23.53 -13.39 L26.02 -3.24 L29.58 -2.16 L32.93 -0.32 L42.43 -5.18 L52.25 3.89 L46.85 13.49 L48.47 16.63 L49.55 20.62 L60.02 23.32 L59.92 36.49 L49.98 39.3 L48.47 42.64 L46.42 46.42 L52.14 56.24 L42.64 65.2 L33.57 60.02 L30.55 61.64 L26.02 62.83 L23.53 73.19 L9.82 73.09 L7.56 62.94 L3.78 61.53 L0 59.81 L-8.96 65.2 L-18.24 56.14 L-13.17 46.31 L-15.01 43.18 L-16.09 39.08 L-26.23 36.7 L-26.66 23.32 L-16.41 20.62 L-15.55 17.38 L-13.6 13.49 L-18.89 3.99 L-9.28 -5.4 L0 0" stroke="none" stroke-width="0" fill="#fab005" fill-rule="evenodd"></path><path d="M0 0 C0.68 -0.43, 1.37 -0.85, 2.59 -1.62 M0 0 C0.91 -0.57, 1.82 -1.14, 2.59 -1.62 M2.59 -1.62 C3.9 -2.11, 5.22 -2.6, 7.23 -3.35 M2.59 -1.62 C4.19 -2.22, 5.8 -2.81, 7.23 -3.35 M7.23 -3.35 C8.06 -6.24, 8.9 -9.14, 10.15 -13.49 M7.23 -3.35 C8.01 -6.04, 8.78 -8.74, 10.15 -13.49 M10.15 -13.49 C15.11 -13.45, 20.07 -13.41, 23.53 -13.39 M10.15 -13.49 C13.58 -13.47, 17.02 -13.44, 23.53 -13.39 M23.53 -13.39 C24.45 -9.63, 25.37 -5.88, 26.02 -3.24 M23.53 -13.39 C24.1 -11.06, 24.67 -8.74, 26.02 -3.24 M26.02 -3.24 C27.35 -2.83, 28.69 -2.43, 29.58 -2.16 M26.02 -3.24 C27.02 -2.93, 28.03 -2.63, 29.58 -2.16 M29.58 -2.16 C30.8 -1.49, 32.02 -0.82, 32.93 -0.32 M29.58 -2.16 C30.34 -1.74, 31.1 -1.33, 32.93 -0.32 M32.93 -0.32 C36.09 -1.94, 39.25 -3.56, 42.43 -5.18 M32.93 -0.32 C34.88 -1.32, 36.83 -2.32, 42.43 -5.18 M42.43 -5.18 C45.58 -2.27, 48.74 0.64, 52.25 3.89 M42.43 -5.18 C44.53 -3.24, 46.63 -1.3, 52.25 3.89 M52.25 3.89 C50.41 7.16, 48.58 10.43, 46.85 13.49 M52.25 3.89 C50.5 7.01, 48.74 10.13, 46.85 13.49 M46.85 13.49 C47.18 14.13, 47.51 14.77, 48.47 16.63 M46.85 13.49 C47.19 14.15, 47.53 14.81, 48.47 16.63 M48.47 16.63 C48.74 17.63, 49.01 18.63, 49.55 20.62 M48.47 16.63 C48.86 18.06, 49.25 19.49, 49.55 20.62 M49.55 20.62 C53.53 21.64, 57.51 22.67, 60.02 23.32 M49.55 20.62 C51.67 21.17, 53.79 21.71, 60.02 23.32 M60.02 23.32 C59.98 28.25, 59.94 33.17, 59.92 36.49 M60.02 23.32 C59.99 27.78, 59.95 32.24, 59.92 36.49 M59.92 36.49 C56.65 37.41, 53.39 38.33, 49.98 39.3 M59.92 36.49 C57.46 37.18, 55 37.88, 49.98 39.3 M49.98 39.3 C49.41 40.57, 48.83 41.84, 48.47 42.64 M49.98 39.3 C49.5 40.36, 49.02 41.42, 48.47 42.64 M48.47 42.64 C47.79 43.9, 47.1 45.17, 46.42 46.42 M48.47 42.64 C47.72 44.03, 46.97 45.41, 46.42 46.42 M46.42 46.42 C48.68 50.3, 50.94 54.17, 52.14 56.24 M46.42 46.42 C47.93 49.01, 49.44 51.6, 52.14 56.24 M52.14 56.24 C48.44 59.74, 44.73 63.23, 42.64 65.2 M52.14 56.24 C49.77 58.48, 47.4 60.72, 42.64 65.2 M42.64 65.2 C39.9 63.64, 37.16 62.07, 33.57 60.02 M42.64 65.2 C39.36 63.33, 36.08 61.46, 33.57 60.02 M33.57 60.02 C32.68 60.5, 31.78 60.98, 30.55 61.64 M33.57 60.02 C32.51 60.59, 31.44 61.17, 30.55 61.64 M30.55 61.64 C29.44 61.93, 28.32 62.23, 26.02 62.83 M30.55 61.64 C29.12 62.02, 27.69 62.39, 26.02 62.83 M26.02 62.83 C25.12 66.59, 24.22 70.35, 23.53 73.19 M26.02 62.83 C25.52 64.91, 25.02 66.98, 23.53 73.19 M23.53 73.19 C19.08 73.16, 14.63 73.12, 9.82 73.09 M23.53 73.19 C20.2 73.17, 16.86 73.14, 9.82 73.09 M9.82 73.09 C9.13 69.99, 8.44 66.9, 7.56 62.94 M9.82 73.09 C9.18 70.21, 8.54 67.34, 7.56 62.94 M7.56 62.94 C6.43 62.52, 5.31 62.1, 3.78 61.53 M7.56 62.94 C6.11 62.4, 4.66 61.86, 3.78 61.53 M3.78 61.53 C2.47 60.94, 1.16 60.34, 0 59.81 M3.78 61.53 C2.42 60.91, 1.07 60.29, 0 59.81 M0 59.81 C-2.49 61.31, -4.99 62.81, -8.96 65.2 M0 59.81 C-3.5 61.92, -7 64.02, -8.96 65.2 M-8.96 65.2 C-11.94 62.29, -14.93 59.37, -18.24 56.14 M-8.96 65.2 C-12.24 62, -15.52 58.8, -18.24 56.14 M-18.24 56.14 C-17.02 53.76, -15.79 51.38, -13.17 46.31 M-18.24 56.14 C-17.05 53.83, -15.86 51.52, -13.17 46.31 M-13.17 46.31 C-13.85 45.16, -14.52 44.01, -15.01 43.18 M-13.17 46.31 C-13.65 45.5, -14.12 44.69, -15.01 43.18 M-15.01 43.18 C-15.35 41.87, -15.7 40.56, -16.09 39.08 M-15.01 43.18 C-15.34 41.93, -15.67 40.67, -16.09 39.08 M-16.09 39.08 C-18.46 38.52, -20.84 37.97, -26.23 36.7 M-16.09 39.08 C-18.48 38.52, -20.88 37.96, -26.23 36.7 M-26.23 36.7 C-26.36 32.7, -26.49 28.69, -26.66 23.32 M-26.23 36.7 C-26.37 32.56, -26.5 28.41, -26.66 23.32 M-26.66 23.32 C-22.81 22.3, -18.95 21.29, -16.41 20.62 M-26.66 23.32 C-23.48 22.48, -20.29 21.64, -16.41 20.62 M-16.41 20.62 C-16.12 19.55, -15.84 18.49, -15.55 17.38 M-16.41 20.62 C-16.09 19.43, -15.77 18.23, -15.55 17.38 M-15.55 17.38 C-15.05 16.38, -14.55 15.39, -13.6 13.49 M-15.55 17.38 C-15.01 16.3, -14.47 15.22, -13.6 13.49 M-13.6 13.49 C-14.73 11.47, -15.86 9.44, -18.89 3.99 M-13.6 13.49 C-15.31 10.43, -17.02 7.37, -18.89 3.99 M-18.89 3.99 C-16.53 1.68, -14.16 -0.63, -9.28 -5.4 M-18.89 3.99 C-15.07 0.26, -11.25 -3.48, -9.28 -5.4 M-9.28 -5.4 C-6.36 -3.7, -3.44 -2, 0 0 M-9.28 -5.4 C-7.15 -4.16, -5.02 -2.92, 0 0 M0 0 C0 0, 0 0, 0 0 M0 0 C0 0, 0 0, 0 0" stroke="white" stroke-width="2" fill="none"></path></g></g><mask></mask><g stroke-linecap="round" transform="translate(1065.6468817615532 190.06487061774487) rotate(0 21.468539024625443 21.52052095930958)"><path d="M42.94 21.52 C42.94 22.77, 42.83 24.03, 42.61 25.26 C42.4 26.48, 42.07 27.71, 41.64 28.88 C41.22 30.05, 40.68 31.2, 40.06 32.28 C39.44 33.36, 38.71 34.4, 37.91 35.35 C37.12 36.31, 36.22 37.21, 35.27 38.01 C34.32 38.81, 33.28 39.54, 32.2 40.16 C31.13 40.78, 29.98 41.32, 28.81 41.74 C27.64 42.17, 26.42 42.5, 25.2 42.71 C23.97 42.93, 22.71 43.04, 21.47 43.04 C20.23 43.04, 18.96 42.93, 17.74 42.71 C16.52 42.5, 15.29 42.17, 14.13 41.74 C12.96 41.32, 11.81 40.78, 10.73 40.16 C9.66 39.54, 8.62 38.81, 7.67 38.01 C6.72 37.21, 5.82 36.31, 5.02 35.35 C4.22 34.4, 3.5 33.36, 2.88 32.28 C2.25 31.2, 1.72 30.05, 1.29 28.88 C0.87 27.71, 0.54 26.48, 0.33 25.26 C0.11 24.03, 0 22.77, 0 21.52 C0 20.27, 0.11 19.01, 0.33 17.78 C0.54 16.56, 0.87 15.33, 1.29 14.16 C1.72 12.99, 2.25 11.84, 2.88 10.76 C3.5 9.68, 4.22 8.64, 5.02 7.69 C5.82 6.73, 6.72 5.84, 7.67 5.03 C8.62 4.23, 9.66 3.51, 10.73 2.88 C11.81 2.26, 12.96 1.72, 14.13 1.3 C15.29 0.87, 16.52 0.54, 17.74 0.33 C18.96 0.11, 20.23 0, 21.47 0 C22.71 0, 23.97 0.11, 25.2 0.33 C26.42 0.54, 27.64 0.87, 28.81 1.3 C29.98 1.72, 31.13 2.26, 32.2 2.88 C33.28 3.51, 34.32 4.23, 35.27 5.03 C36.22 5.84, 37.12 6.73, 37.91 7.69 C38.71 8.64, 39.44 9.68, 40.06 10.76 C40.68 11.84, 41.22 12.99, 41.64 14.16 C42.07 15.33, 42.4 16.56, 42.61 17.78 C42.83 19.01, 42.88 20.9, 42.94 21.52 C42.99 22.14, 42.99 20.9, 42.94 21.52" stroke="none" stroke-width="0" fill="#fab005"></path><path d="M42.94 21.52 C42.94 22.77, 42.83 24.03, 42.61 25.26 C42.4 26.48, 42.07 27.71, 41.64 28.88 C41.22 30.05, 40.68 31.2, 40.06 32.28 C39.44 33.36, 38.71 34.4, 37.91 35.35 C37.12 36.31, 36.22 37.21, 35.27 38.01 C34.32 38.81, 33.28 39.54, 32.2 40.16 C31.13 40.78, 29.98 41.32, 28.81 41.74 C27.64 42.17, 26.42 42.5, 25.2 42.71 C23.97 42.93, 22.71 43.04, 21.47 43.04 C20.23 43.04, 18.96 42.93, 17.74 42.71 C16.52 42.5, 15.29 42.17, 14.13 41.74 C12.96 41.32, 11.81 40.78, 10.73 40.16 C9.66 39.54, 8.62 38.81, 7.67 38.01 C6.72 37.21, 5.82 36.31, 5.02 35.35 C4.22 34.4, 3.5 33.36, 2.88 32.28 C2.25 31.2, 1.72 30.05, 1.29 28.88 C0.87 27.71, 0.54 26.48, 0.33 25.26 C0.11 24.03, 0 22.77, 0 21.52 C0 20.27, 0.11 19.01, 0.33 17.78 C0.54 16.56, 0.87 15.33, 1.29 14.16 C1.72 12.99, 2.25 11.84, 2.88 10.76 C3.5 9.68, 4.22 8.64, 5.02 7.69 C5.82 6.73, 6.72 5.84, 7.67 5.03 C8.62 4.23, 9.66 3.51, 10.73 2.88 C11.81 2.26, 12.96 1.72, 14.13 1.3 C15.29 0.87, 16.52 0.54, 17.74 0.33 C18.96 0.11, 20.23 0, 21.47 0 C22.71 0, 23.97 0.11, 25.2 0.33 C26.42 0.54, 27.64 0.87, 28.81 1.3 C29.98 1.72, 31.13 2.26, 32.2 2.88 C33.28 3.51, 34.32 4.23, 35.27 5.03 C36.22 5.84, 37.12 6.73, 37.91 7.69 C38.71 8.64, 39.44 9.68, 40.06 10.76 C40.68 11.84, 41.22 12.99, 41.64 14.16 C42.07 15.33, 42.4 16.56, 42.61 17.78 C42.83 19.01, 42.88 20.9, 42.94 21.52 C42.99 22.14, 42.99 20.9, 42.94 21.52" stroke="white" stroke-width="2" fill="none"></path></g><g stroke-linecap="round"><g transform="translate(1146.5445073029932 188.3611622483363) rotate(339.3255752391262 13.202988003820337 23.62864843402167)" fill-rule="evenodd"><path d="M0 0 L2.05 -1.28 L5.73 -2.65 L8.03 -10.68 L18.63 -10.6 L20.59 -2.56 L23.42 -1.71 L26.06 -0.26 L33.58 -4.1 L41.36 3.08 L37.09 10.68 L38.37 13.16 L39.22 16.32 L47.51 18.46 L47.43 28.88 L39.57 31.11 L38.37 33.76 L36.75 36.75 L41.28 44.52 L33.76 51.62 L26.58 47.51 L24.18 48.8 L20.59 49.74 L18.63 57.94 L7.78 57.85 L5.98 49.82 L2.99 48.71 L0 47.34 L-7.09 51.62 L-14.44 44.44 L-10.43 36.66 L-11.88 34.18 L-12.73 30.94 L-20.77 29.06 L-21.11 18.46 L-12.99 16.32 L-12.31 13.76 L-10.77 10.68 L-14.95 3.16 L-7.35 -4.27 L0 0" stroke="none" stroke-width="0" fill="#fab005" fill-rule="evenodd"></path><path d="M0 0 C0.51 -0.32, 1.01 -0.63, 2.05 -1.28 M0 0 C0.55 -0.34, 1.1 -0.69, 2.05 -1.28 M2.05 -1.28 C3.17 -1.7, 4.28 -2.11, 5.73 -2.65 M2.05 -1.28 C2.87 -1.59, 3.7 -1.89, 5.73 -2.65 M5.73 -2.65 C6.65 -5.86, 7.57 -9.07, 8.03 -10.68 M5.73 -2.65 C6.27 -4.55, 6.82 -6.45, 8.03 -10.68 M8.03 -10.68 C10.33 -10.66, 12.63 -10.64, 18.63 -10.6 M8.03 -10.68 C11.89 -10.65, 15.76 -10.62, 18.63 -10.6 M18.63 -10.6 C19.33 -7.75, 20.02 -4.9, 20.59 -2.56 M18.63 -10.6 C19.21 -8.22, 19.79 -5.84, 20.59 -2.56 M20.59 -2.56 C21.6 -2.26, 22.6 -1.96, 23.42 -1.71 M20.59 -2.56 C21.37 -2.33, 22.15 -2.09, 23.42 -1.71 M23.42 -1.71 C24.03 -1.37, 24.65 -1.03, 26.06 -0.26 M23.42 -1.71 C24.27 -1.24, 25.12 -0.77, 26.06 -0.26 M26.06 -0.26 C28.36 -1.43, 30.65 -2.6, 33.58 -4.1 M26.06 -0.26 C28.73 -1.62, 31.39 -2.98, 33.58 -4.1 M33.58 -4.1 C36.02 -1.85, 38.46 0.4, 41.36 3.08 M33.58 -4.1 C35.2 -2.62, 36.81 -1.13, 41.36 3.08 M41.36 3.08 C40.25 5.05, 39.14 7.03, 37.09 10.68 M41.36 3.08 C39.82 5.82, 38.27 8.57, 37.09 10.68 M37.09 10.68 C37.51 11.5, 37.94 12.32, 38.37 13.16 M37.09 10.68 C37.55 11.57, 38.01 12.46, 38.37 13.16 M38.37 13.16 C38.65 14.18, 38.92 15.21, 39.22 16.32 M38.37 13.16 C38.65 14.2, 38.93 15.24, 39.22 16.32 M39.22 16.32 C42.37 17.13, 45.51 17.94, 47.51 18.46 M39.22 16.32 C40.92 16.76, 42.61 17.2, 47.51 18.46 M47.51 18.46 C47.5 20.6, 47.48 22.75, 47.43 28.88 M47.51 18.46 C47.49 21.08, 47.47 23.71, 47.43 28.88 M47.43 28.88 C45.78 29.35, 44.13 29.82, 39.57 31.11 M47.43 28.88 C45.18 29.52, 42.92 30.16, 39.57 31.11 M39.57 31.11 C39.18 31.96, 38.79 32.82, 38.37 33.76 M39.57 31.11 C39.09 32.16, 38.62 33.21, 38.37 33.76 M38.37 33.76 C37.83 34.75, 37.29 35.75, 36.75 36.75 M38.37 33.76 C37.78 34.85, 37.18 35.94, 36.75 36.75 M36.75 36.75 C38.13 39.12, 39.51 41.48, 41.28 44.52 M36.75 36.75 C38.53 39.81, 40.32 42.88, 41.28 44.52 M41.28 44.52 C38.9 46.76, 36.53 49, 33.76 51.62 M41.28 44.52 C38.87 46.79, 36.46 49.07, 33.76 51.62 M33.76 51.62 C31.74 50.46, 29.72 49.31, 26.58 47.51 M33.76 51.62 C31.29 50.21, 28.83 48.8, 26.58 47.51 M26.58 47.51 C25.9 47.88, 25.23 48.24, 24.18 48.8 M26.58 47.51 C25.99 47.83, 25.41 48.14, 24.18 48.8 M24.18 48.8 C22.77 49.17, 21.35 49.54, 20.59 49.74 M24.18 48.8 C23.07 49.09, 21.96 49.38, 20.59 49.74 M20.59 49.74 C20.17 51.51, 19.74 53.28, 18.63 57.94 M20.59 49.74 C19.9 52.62, 19.21 55.5, 18.63 57.94 M18.63 57.94 C15.43 57.91, 12.23 57.89, 7.78 57.85 M18.63 57.94 C16.16 57.92, 13.69 57.9, 7.78 57.85 M7.78 57.85 C7.31 55.78, 6.85 53.71, 5.98 49.82 M7.78 57.85 C7.29 55.69, 6.81 53.54, 5.98 49.82 M5.98 49.82 C5.27 49.56, 4.55 49.29, 2.99 48.71 M5.98 49.82 C4.8 49.38, 3.61 48.94, 2.99 48.71 M2.99 48.71 C2.38 48.43, 1.76 48.15, 0 47.34 M2.99 48.71 C1.96 48.24, 0.93 47.77, 0 47.34 M0 47.34 C-2.77 49.01, -5.55 50.68, -7.09 51.62 M0 47.34 C-2.72 48.98, -5.44 50.62, -7.09 51.62 M-7.09 51.62 C-8.68 50.06, -10.27 48.51, -14.44 44.44 M-7.09 51.62 C-9.6 49.17, -12.11 46.72, -14.44 44.44 M-14.44 44.44 C-13.14 41.92, -11.84 39.39, -10.43 36.66 M-14.44 44.44 C-13.14 41.92, -11.84 39.4, -10.43 36.66 M-10.43 36.66 C-10.87 35.91, -11.31 35.16, -11.88 34.18 M-10.43 36.66 C-10.92 35.82, -11.41 34.98, -11.88 34.18 M-11.88 34.18 C-12.15 33.15, -12.42 32.11, -12.73 30.94 M-11.88 34.18 C-12.07 33.47, -12.25 32.75, -12.73 30.94 M-12.73 30.94 C-14.66 30.49, -16.58 30.04, -20.77 29.06 M-12.73 30.94 C-14.66 30.49, -16.58 30.04, -20.77 29.06 M-20.77 29.06 C-20.86 26.26, -20.95 23.46, -21.11 18.46 M-20.77 29.06 C-20.85 26.51, -20.93 23.96, -21.11 18.46 M-21.11 18.46 C-19.05 17.92, -17 17.38, -12.99 16.32 M-21.11 18.46 C-19.05 17.92, -16.98 17.37, -12.99 16.32 M-12.99 16.32 C-12.75 15.41, -12.5 14.5, -12.31 13.76 M-12.99 16.32 C-12.84 15.75, -12.69 15.19, -12.31 13.76 M-12.31 13.76 C-11.79 12.73, -11.28 11.71, -10.77 10.68 M-12.31 13.76 C-11.97 13.09, -11.64 12.43, -10.77 10.68 M-10.77 10.68 C-12.42 7.71, -14.08 4.73, -14.95 3.16 M-10.77 10.68 C-12.3 7.92, -13.84 5.16, -14.95 3.16 M-14.95 3.16 C-12.49 0.76, -10.03 -1.65, -7.35 -4.27 M-14.95 3.16 C-12.85 1.11, -10.75 -0.95, -7.35 -4.27 M-7.35 -4.27 C-5.16 -3, -2.97 -1.73, 0 0 M-7.35 -4.27 C-4.8 -2.79, -2.24 -1.3, 0 0 M0 0 C0 0, 0 0, 0 0 M0 0 C0 0, 0 0, 0 0" stroke="white" stroke-width="2" fill="none"></path></g></g><mask></mask><g stroke-linecap="round" transform="translate(1143.0994178692417 194.82783283667413) rotate(339.3255752391262 16.994280520232223 17.035428899215958)"><path d="M33.99 17.04 C33.99 18.02, 33.9 19.02, 33.73 19.99 C33.56 20.96, 33.3 21.94, 32.96 22.86 C32.63 23.79, 32.2 24.7, 31.71 25.55 C31.22 26.41, 30.64 27.23, 30.01 27.99 C29.38 28.74, 28.67 29.45, 27.92 30.09 C27.16 30.72, 26.34 31.3, 25.49 31.79 C24.64 32.28, 23.73 32.71, 22.81 33.04 C21.88 33.38, 20.91 33.64, 19.95 33.81 C18.98 33.98, 17.98 34.07, 16.99 34.07 C16.01 34.07, 15.01 33.98, 14.04 33.81 C13.07 33.64, 12.11 33.38, 11.18 33.04 C10.26 32.71, 9.35 32.28, 8.5 31.79 C7.65 31.3, 6.82 30.72, 6.07 30.09 C5.32 29.45, 4.61 28.74, 3.98 27.99 C3.34 27.23, 2.77 26.41, 2.28 25.55 C1.78 24.7, 1.36 23.79, 1.02 22.86 C0.69 21.94, 0.43 20.96, 0.26 19.99 C0.09 19.02, 0 18.02, 0 17.04 C0 16.05, 0.09 15.05, 0.26 14.08 C0.43 13.11, 0.69 12.14, 1.02 11.21 C1.36 10.28, 1.78 9.37, 2.28 8.52 C2.77 7.66, 3.34 6.84, 3.98 6.09 C4.61 5.33, 5.32 4.62, 6.07 3.99 C6.82 3.35, 7.65 2.78, 8.5 2.28 C9.35 1.79, 10.26 1.36, 11.18 1.03 C12.11 0.69, 13.07 0.43, 14.04 0.26 C15.01 0.09, 16.01 0, 16.99 0 C17.98 0, 18.98 0.09, 19.95 0.26 C20.91 0.43, 21.88 0.69, 22.81 1.03 C23.73 1.36, 24.64 1.79, 25.49 2.28 C26.34 2.78, 27.16 3.35, 27.92 3.99 C28.67 4.62, 29.38 5.33, 30.01 6.09 C30.64 6.84, 31.22 7.66, 31.71 8.52 C32.2 9.37, 32.63 10.28, 32.96 11.21 C33.3 12.14, 33.56 13.11, 33.73 14.08 C33.9 15.05, 33.95 16.54, 33.99 17.04 C34.03 17.53, 34.03 16.54, 33.99 17.04" stroke="none" stroke-width="0" fill="#fab005"></path><path d="M33.99 17.04 C33.99 18.02, 33.9 19.02, 33.73 19.99 C33.56 20.96, 33.3 21.94, 32.96 22.86 C32.63 23.79, 32.2 24.7, 31.71 25.55 C31.22 26.41, 30.64 27.23, 30.01 27.99 C29.38 28.74, 28.67 29.45, 27.92 30.09 C27.16 30.72, 26.34 31.3, 25.49 31.79 C24.64 32.28, 23.73 32.71, 22.81 33.04 C21.88 33.38, 20.91 33.64, 19.95 33.81 C18.98 33.98, 17.98 34.07, 16.99 34.07 C16.01 34.07, 15.01 33.98, 14.04 33.81 C13.07 33.64, 12.11 33.38, 11.18 33.04 C10.26 32.71, 9.35 32.28, 8.5 31.79 C7.65 31.3, 6.82 30.72, 6.07 30.09 C5.32 29.45, 4.61 28.74, 3.98 27.99 C3.34 27.23, 2.77 26.41, 2.28 25.55 C1.78 24.7, 1.36 23.79, 1.02 22.86 C0.69 21.94, 0.43 20.96, 0.26 19.99 C0.09 19.02, 0 18.02, 0 17.04 C0 16.05, 0.09 15.05, 0.26 14.08 C0.43 13.11, 0.69 12.14, 1.02 11.21 C1.36 10.28, 1.78 9.37, 2.28 8.52 C2.77 7.66, 3.34 6.84, 3.98 6.09 C4.61 5.33, 5.32 4.62, 6.07 3.99 C6.82 3.35, 7.65 2.78, 8.5 2.28 C9.35 1.79, 10.26 1.36, 11.18 1.03 C12.11 0.69, 13.07 0.43, 14.04 0.26 C15.01 0.09, 16.01 0, 16.99 0 C17.98 0, 18.98 0.09, 19.95 0.26 C20.91 0.43, 21.88 0.69, 22.81 1.03 C23.73 1.36, 24.64 1.79, 25.49 2.28 C26.34 2.78, 27.16 3.35, 27.92 3.99 C28.67 4.62, 29.38 5.33, 30.01 6.09 C30.64 6.84, 31.22 7.66, 31.71 8.52 C32.2 9.37, 32.63 10.28, 32.96 11.21 C33.3 12.14, 33.56 13.11, 33.73 14.08 C33.9 15.05, 33.95 16.54, 33.99 17.04 C34.03 17.53, 34.03 16.54, 33.99 17.04" stroke="white" stroke-width="2" fill="none"></path></g><g stroke-linecap="round"><g transform="translate(1122.136256360327 158.55590046514817) rotate(339.3255752391262 6.620933475184302 11.849113953971255)" fill-rule="evenodd"><path d="M0 0 L1.03 -0.64 L2.87 -1.33 L4.03 -5.36 L9.34 -5.31 L10.33 -1.29 L11.74 -0.86 L13.07 -0.13 L16.84 -2.06 L20.74 1.54 L18.6 5.36 L19.24 6.6 L19.67 8.19 L23.83 9.26 L23.78 14.48 L19.84 15.6 L19.24 16.93 L18.43 18.43 L20.7 22.33 L16.93 25.88 L13.33 23.83 L12.13 24.47 L10.33 24.94 L9.34 29.05 L3.9 29.01 L3 24.98 L1.5 24.43 L0 23.74 L-3.56 25.88 L-7.24 22.28 L-5.23 18.38 L-5.96 17.14 L-6.39 15.51 L-10.41 14.57 L-10.58 9.26 L-6.51 8.19 L-6.17 6.9 L-5.4 5.36 L-7.5 1.59 L-3.69 -2.14 L0 0" stroke="none" stroke-width="0" fill="#fab005" fill-rule="evenodd"></path><path d="M0 0 C0.35 -0.22, 0.69 -0.43, 1.03 -0.64 M0 0 C0.26 -0.17, 0.53 -0.33, 1.03 -0.64 M1.03 -0.64 C1.62 -0.86, 2.22 -1.09, 2.87 -1.33 M1.03 -0.64 C1.42 -0.79, 1.82 -0.94, 2.87 -1.33 M2.87 -1.33 C3.23 -2.59, 3.6 -3.85, 4.03 -5.36 M2.87 -1.33 C3.26 -2.69, 3.65 -4.05, 4.03 -5.36 M4.03 -5.36 C5.77 -5.34, 7.52 -5.33, 9.34 -5.31 M4.03 -5.36 C6.11 -5.34, 8.19 -5.32, 9.34 -5.31 M9.34 -5.31 C9.72 -3.76, 10.1 -2.2, 10.33 -1.29 M9.34 -5.31 C9.68 -3.94, 10.01 -2.56, 10.33 -1.29 M10.33 -1.29 C10.66 -1.19, 10.99 -1.08, 11.74 -0.86 M10.33 -1.29 C10.85 -1.13, 11.38 -0.97, 11.74 -0.86 M11.74 -0.86 C12.24 -0.58, 12.74 -0.31, 13.07 -0.13 M11.74 -0.86 C12.02 -0.71, 12.29 -0.56, 13.07 -0.13 M13.07 -0.13 C13.83 -0.52, 14.59 -0.91, 16.84 -2.06 M13.07 -0.13 C14.35 -0.78, 15.62 -1.43, 16.84 -2.06 M16.84 -2.06 C17.67 -1.3, 18.49 -0.53, 20.74 1.54 M16.84 -2.06 C18.17 -0.83, 19.49 0.39, 20.74 1.54 M20.74 1.54 C19.99 2.87, 19.25 4.2, 18.6 5.36 M20.74 1.54 C20.11 2.66, 19.48 3.78, 18.6 5.36 M18.6 5.36 C18.74 5.64, 18.89 5.92, 19.24 6.6 M18.6 5.36 C18.8 5.74, 19 6.13, 19.24 6.6 M19.24 6.6 C19.35 7, 19.46 7.4, 19.67 8.19 M19.24 6.6 C19.39 7.16, 19.55 7.73, 19.67 8.19 M19.67 8.19 C20.76 8.47, 21.86 8.75, 23.83 9.26 M19.67 8.19 C21.17 8.57, 22.68 8.96, 23.83 9.26 M23.83 9.26 C23.82 10.55, 23.81 11.84, 23.78 14.48 M23.83 9.26 C23.82 10.62, 23.8 11.98, 23.78 14.48 M23.78 14.48 C22.31 14.9, 20.83 15.32, 19.84 15.6 M23.78 14.48 C22.61 14.82, 21.44 15.15, 19.84 15.6 M19.84 15.6 C19.65 16.03, 19.45 16.46, 19.24 16.93 M19.84 15.6 C19.69 15.94, 19.53 16.29, 19.24 16.93 M19.24 16.93 C18.98 17.4, 18.72 17.88, 18.43 18.43 M19.24 16.93 C18.92 17.52, 18.6 18.1, 18.43 18.43 M18.43 18.43 C18.96 19.35, 19.5 20.27, 20.7 22.33 M18.43 18.43 C18.94 19.3, 19.44 20.17, 20.7 22.33 M20.7 22.33 C19.72 23.25, 18.75 24.17, 16.93 25.88 M20.7 22.33 C19.62 23.35, 18.54 24.37, 16.93 25.88 M16.93 25.88 C15.53 25.09, 14.14 24.29, 13.33 23.83 M16.93 25.88 C15.7 25.18, 14.48 24.49, 13.33 23.83 M13.33 23.83 C13 24, 12.67 24.18, 12.13 24.47 M13.33 23.83 C12.98 24.01, 12.63 24.2, 12.13 24.47 M12.13 24.47 C11.51 24.63, 10.88 24.8, 10.33 24.94 M12.13 24.47 C11.75 24.57, 11.36 24.67, 10.33 24.94 M10.33 24.94 C10.09 25.94, 9.85 26.94, 9.34 29.05 M10.33 24.94 C10.06 26.08, 9.78 27.21, 9.34 29.05 M9.34 29.05 C7.52 29.04, 5.7 29.03, 3.9 29.01 M9.34 29.05 C7.37 29.04, 5.4 29.02, 3.9 29.01 M3.9 29.01 C3.58 27.58, 3.26 26.14, 3 24.98 M3.9 29.01 C3.55 27.45, 3.2 25.88, 3 24.98 M3 24.98 C2.5 24.8, 2 24.61, 1.5 24.43 M3 24.98 C2.51 24.8, 2.01 24.62, 1.5 24.43 M1.5 24.43 C1.18 24.28, 0.86 24.13, 0 23.74 M1.5 24.43 C1 24.2, 0.49 23.97, 0 23.74 M0 23.74 C-1.37 24.57, -2.74 25.39, -3.56 25.88 M0 23.74 C-1.3 24.53, -2.61 25.31, -3.56 25.88 M-3.56 25.88 C-4.73 24.74, -5.9 23.6, -7.24 22.28 M-3.56 25.88 C-4.65 24.81, -5.75 23.74, -7.24 22.28 M-7.24 22.28 C-6.67 21.18, -6.1 20.08, -5.23 18.38 M-7.24 22.28 C-6.54 20.92, -5.83 19.55, -5.23 18.38 M-5.23 18.38 C-5.51 17.91, -5.79 17.43, -5.96 17.14 M-5.23 18.38 C-5.38 18.12, -5.54 17.85, -5.96 17.14 M-5.96 17.14 C-6.08 16.68, -6.2 16.22, -6.39 15.51 M-5.96 17.14 C-6.07 16.7, -6.19 16.26, -6.39 15.51 M-6.39 15.51 C-7.32 15.3, -8.25 15.08, -10.41 14.57 M-6.39 15.51 C-7.6 15.23, -8.81 14.95, -10.41 14.57 M-10.41 14.57 C-10.48 12.46, -10.55 10.35, -10.58 9.26 M-10.41 14.57 C-10.47 12.81, -10.53 11.05, -10.58 9.26 M-10.58 9.26 C-9.4 8.95, -8.22 8.63, -6.51 8.19 M-10.58 9.26 C-9.23 8.9, -7.87 8.54, -6.51 8.19 M-6.51 8.19 C-6.41 7.8, -6.31 7.42, -6.17 6.9 M-6.51 8.19 C-6.42 7.85, -6.34 7.52, -6.17 6.9 M-6.17 6.9 C-5.94 6.44, -5.71 5.98, -5.4 5.36 M-6.17 6.9 C-5.89 6.35, -5.62 5.79, -5.4 5.36 M-5.4 5.36 C-5.84 4.57, -6.28 3.78, -7.5 1.59 M-5.4 5.36 C-6.24 3.85, -7.07 2.35, -7.5 1.59 M-7.5 1.59 C-5.98 0.1, -4.47 -1.38, -3.69 -2.14 M-7.5 1.59 C-6.02 0.13, -4.53 -1.32, -3.69 -2.14 M-3.69 -2.14 C-2.87 -1.67, -2.06 -1.2, 0 0 M-3.69 -2.14 C-2.93 -1.7, -2.18 -1.26, 0 0 M0 0 C0 0, 0 0, 0 0 M0 0 C0 0, 0 0, 0 0" stroke="white" stroke-width="2" fill="none"></path></g></g><mask></mask><g stroke-linecap="round" transform="translate(1120.408639251964 161.79875698815113) rotate(339.3255752391262 8.522161858400978 8.542796632876502)"><path d="M17.04 8.54 C17.04 9.04, 17 9.54, 16.91 10.03 C16.83 10.51, 16.7 11, 16.53 11.46 C16.36 11.93, 16.15 12.39, 15.9 12.81 C15.66 13.24, 15.37 13.66, 15.05 14.03 C14.73 14.41, 14.38 14.77, 14 15.09 C13.62 15.4, 13.21 15.69, 12.78 15.94 C12.36 16.19, 11.9 16.4, 11.44 16.57 C10.97 16.74, 10.49 16.87, 10 16.96 C9.52 17.04, 9.02 17.09, 8.52 17.09 C8.03 17.09, 7.53 17.04, 7.04 16.96 C6.56 16.87, 6.07 16.74, 5.61 16.57 C5.14 16.4, 4.69 16.19, 4.26 15.94 C3.83 15.69, 3.42 15.4, 3.04 15.09 C2.67 14.77, 2.31 14.41, 1.99 14.03 C1.68 13.66, 1.39 13.24, 1.14 12.81 C0.9 12.39, 0.68 11.93, 0.51 11.46 C0.35 11, 0.22 10.51, 0.13 10.03 C0.04 9.54, 0 9.04, 0 8.54 C0 8.05, 0.04 7.55, 0.13 7.06 C0.22 6.57, 0.35 6.09, 0.51 5.62 C0.68 5.16, 0.9 4.7, 1.14 4.27 C1.39 3.84, 1.68 3.43, 1.99 3.05 C2.31 2.67, 2.67 2.32, 3.04 2 C3.42 1.68, 3.83 1.39, 4.26 1.14 C4.69 0.9, 5.14 0.68, 5.61 0.52 C6.07 0.35, 6.56 0.22, 7.04 0.13 C7.53 0.04, 8.03 0, 8.52 0 C9.02 0, 9.52 0.04, 10 0.13 C10.49 0.22, 10.97 0.35, 11.44 0.52 C11.9 0.68, 12.36 0.9, 12.78 1.14 C13.21 1.39, 13.62 1.68, 14 2 C14.38 2.32, 14.73 2.67, 15.05 3.05 C15.37 3.43, 15.66 3.84, 15.9 4.27 C16.15 4.7, 16.36 5.16, 16.53 5.62 C16.7 6.09, 16.83 6.57, 16.91 7.06 C17 7.55, 17.02 8.3, 17.04 8.54 C17.07 8.79, 17.07 8.3, 17.04 8.54" stroke="none" stroke-width="0" fill="#fab005"></path><path d="M17.04 8.54 C17.04 9.04, 17 9.54, 16.91 10.03 C16.83 10.51, 16.7 11, 16.53 11.46 C16.36 11.93, 16.15 12.39, 15.9 12.81 C15.66 13.24, 15.37 13.66, 15.05 14.03 C14.73 14.41, 14.38 14.77, 14 15.09 C13.62 15.4, 13.21 15.69, 12.78 15.94 C12.36 16.19, 11.9 16.4, 11.44 16.57 C10.97 16.74, 10.49 16.87, 10 16.96 C9.52 17.04, 9.02 17.09, 8.52 17.09 C8.03 17.09, 7.53 17.04, 7.04 16.96 C6.56 16.87, 6.07 16.74, 5.61 16.57 C5.14 16.4, 4.69 16.19, 4.26 15.94 C3.83 15.69, 3.42 15.4, 3.04 15.09 C2.67 14.77, 2.31 14.41, 1.99 14.03 C1.68 13.66, 1.39 13.24, 1.14 12.81 C0.9 12.39, 0.68 11.93, 0.51 11.46 C0.35 11, 0.22 10.51, 0.13 10.03 C0.04 9.54, 0 9.04, 0 8.54 C0 8.05, 0.04 7.55, 0.13 7.06 C0.22 6.57, 0.35 6.09, 0.51 5.62 C0.68 5.16, 0.9 4.7, 1.14 4.27 C1.39 3.84, 1.68 3.43, 1.99 3.05 C2.31 2.67, 2.67 2.32, 3.04 2 C3.42 1.68, 3.83 1.39, 4.26 1.14 C4.69 0.9, 5.14 0.68, 5.61 0.52 C6.07 0.35, 6.56 0.22, 7.04 0.13 C7.53 0.04, 8.03 0, 8.52 0 C9.02 0, 9.52 0.04, 10 0.13 C10.49 0.22, 10.97 0.35, 11.44 0.52 C11.9 0.68, 12.36 0.9, 12.78 1.14 C13.21 1.39, 13.62 1.68, 14 2 C14.38 2.32, 14.73 2.67, 15.05 3.05 C15.37 3.43, 15.66 3.84, 15.9 4.27 C16.15 4.7, 16.36 5.16, 16.53 5.62 C16.7 6.09, 16.83 6.57, 16.91 7.06 C17 7.55, 17.02 8.3, 17.04 8.54 C17.07 8.79, 17.07 8.3, 17.04 8.54" stroke="white" stroke-width="2" fill="none"></path></g><g stroke-linecap="round" transform="translate(1034.185204392974 139.05361002148584) rotate(0 84.88753738340438 64.3027466189626)"><path d="M32 0 M32 0 C66.43 0, 100.85 0, 137.78 0 M137.78 0 C159.11 0, 169.78 10.67, 169.78 32 M169.78 32 C169.78 46.97, 169.78 61.93, 169.78 96.61 M169.78 96.61 C169.78 117.94, 159.11 128.61, 137.78 128.61 M137.78 128.61 C100.94 128.61, 64.11 128.61, 32 128.61 M32 128.61 C10.67 128.61, 0 117.94, 0 96.61 M0 96.61 C0 79.03, 0 61.46, 0 32 M0 32 C0 10.67, 10.67 0, 32 0" stroke="#fab005" stroke-width="1.5" fill="none" stroke-dasharray="1.5 7"></path></g><g stroke-linecap="round" transform="translate(386.9559998676068 190.10686698413429) rotate(0 59.5 18.5)"><path d="M9.25 0 L109.75 0 L113.8 0.58 L116.69 2.31 L118.42 5.2 L119 9.25 L118.42 31.8 L116.69 34.69 L113.8 36.42 L109.75 37 L9.25 37 L5.2 36.42 L2.31 34.69 L0.58 31.8 L0 9.25 L0.58 5.2 L2.31 2.31 L5.2 0.58 L9.25 0" stroke="none" stroke-width="0" fill="#28343c"></path><path d="M9.25 0 M9.25 0 C43.33 0, 77.41 0, 109.75 0 M109.75 0 C115.92 0, 119 3.08, 119 9.25 M119 9.25 C119 14.18, 119 19.11, 119 27.75 M119 27.75 C119 33.92, 115.92 37, 109.75 37 M109.75 37 C76.46 37, 43.18 37, 9.25 37 M9.25 37 C3.08 37, 0 33.92, 0 27.75 M0 27.75 C0 21.14, 0 14.54, 0 9.25 M0 9.25 C0 3.08, 3.08 0, 9.25 0" stroke="transparent" stroke-width="2.5" fill="none" stroke-dasharray="1.5 8"></path></g><g transform="translate(404.9559998676068 195.10686698413429) rotate(0 41.5 13.5)"><text x="41.5" y="19" font-family="Virgil, Segoe UI Emoji" font-size="21.023136032084114px" fill="white" text-anchor="middle" style="white-space: pre;" direction="ltr">extract</text></g><g stroke-linecap="round"><g transform="translate(950.8265729954437 202.4068986049674) rotate(0 40.864586031698764 -1.1368683772161603e-13)"><path d="M0 0 C13.62 0, 68.11 0, 81.73 0" stroke="#fab005" stroke-width="2.5" fill="none" stroke-dasharray="1.5 8"></path></g></g><mask></mask><g stroke-linecap="round"><g transform="translate(711.2103681114168 210.0604899563591) rotate(0 41.73638795603574 -0.22209014147676953)"><path d="M0 0 C13.91 -0.07, 69.56 -0.37, 83.47 -0.44" stroke="#4c6ef5" stroke-width="2.5" fill="none" stroke-dasharray="1.5 8"></path></g></g><mask></mask><g stroke-linecap="round"><g transform="translate(509.0358043951537 208.6418516594631) rotate(0 41.73638795603574 -0.22209014147676953)"><path d="M0 0 C13.91 -0.07, 69.56 -0.37, 83.47 -0.44" stroke="#263238" stroke-width="2.5" fill="none" stroke-dasharray="1.5 8"></path></g></g><mask></mask></svg>