<svg version="1.1" xmlns="http://www.w3.org/2000/svg" viewBox="0 0 1810.6678836959186 367.39612397029805" width="1810.6678836959186" height="367.39612397029805">
  <!-- svg-source:excalidraw -->
  
  <defs>
    <style class="style-fonts">
      @font-face {
        font-family: "Virgil";
        src: url("https://excalidraw.com/Virgil.woff2");
      }
      @font-face {
        font-family: "Cascadia";
        src: url("https://excalidraw.com/Cascadia.woff2");
      }
    </style>
  </defs>
  <g stroke-linecap="round"><g transform="translate(83.09869564962628 301.549137782024) rotate(0 326.3715249045597 0.4099195805126783)"><path d="M0.82 -0.48 C45.05 -0.12, 156.38 2.34, 264.65 2.58 C372.92 2.82, 586.02 0.97, 650.43 0.97 M-0.21 -1.78 C43.94 -1.81, 154.95 0.17, 263.81 0.74 C372.67 1.32, 588.36 1.14, 652.96 1.66" stroke="#000000" stroke-width="4" fill="none"></path></g><g transform="translate(83.09869564962628 301.549137782024) rotate(0 326.3715249045597 0.4099195805126783)"><path d="M0.43 -15.22 C1.71 -12.78, -0.51 -8.34, 1.32 -0.47 M0.81 -15.15 C1.01 -13.02, 0.67 -8.9, 0.52 -1.08" stroke="#000000" stroke-width="4" fill="none"></path></g><g transform="translate(83.09869564962628 301.549137782024) rotate(0 326.3715249045597 0.4099195805126783)"><path d="M0 14.78 C1.29 10.06, -0.83 7.37, 1.32 -0.47 M0.39 14.85 C0.53 10.73, 0.28 8.6, 0.52 -1.08" stroke="#000000" stroke-width="4" fill="none"></path></g><g transform="translate(83.09869564962628 301.549137782024) rotate(0 326.3715249045597 0.4099195805126783)"><path d="M651.6 -0.01 L640.52 7.26 L640.7 -5.7 L651.16 2.07" stroke="none" stroke-width="0" fill="#000000" fill-rule="evenodd"></path><path d="M652.35 1.92 C650.42 2.37, 645 4.75, 639.85 7.97 M652.74 2 C650.1 2.31, 646.97 4.61, 639.04 7.36 M638.58 8.74 C638.55 3.86, 640.24 0.59, 639.87 -5.82 M639.89 8.03 C639.04 4.33, 639.69 2.4, 638.92 -5.2 M638.71 -3.66 C644 -3.23, 644.48 -2.21, 651.47 0.39 M639.88 -4.89 C643.1 -3.24, 645.97 -0.86, 653.23 1.29 M652.96 1.66 C652.96 1.66, 652.96 1.66, 652.96 1.66 M652.96 1.66 C652.96 1.66, 652.96 1.66, 652.96 1.66" stroke="#000000" stroke-width="4" fill="none"></path></g></g><mask></mask><g transform="translate(357.41226359107577 320.39612397029805) rotate(0 61.5 18.5)"><text x="61.5" y="26" font-family="Virgil, Segoe UI Emoji" font-size="29.906347470254133px" fill="#000000" text-anchor="middle" style="white-space: pre;" direction="ltr">duration</text></g><g stroke-linecap="round"><g transform="translate(42.566668490651864 68.38304786230083) rotate(0 8.511044811225474 24.826161899110275)"><path d="M0.21 0.55 C-0.66 1.32, -4.34 -0.39, -4.4 4.13 C-4.45 8.66, -4.38 20.16, -0.12 27.69 C4.14 35.23, 17.54 45.55, 21.17 49.34 M-1.14 -0.21 C-1.69 0.7, -2.09 0.75, -2.05 5.04 C-2.01 9.34, -4.8 18.09, -0.88 25.56 C3.03 33.03, 17.86 45.66, 21.43 49.86" stroke="#4c6ef5" stroke-width="4" fill="none"></path></g><g transform="translate(42.566668490651864 68.38304786230083) rotate(0 8.511044811225474 24.826161899110275)"><path d="M16.93 40.42 C18.66 39.43, 22.52 39.86, 24.56 40.65 C26.61 41.44, 28.15 43.55, 29.19 45.17 C30.23 46.8, 30.98 48.58, 30.81 50.4 C30.65 52.22, 29.7 54.63, 28.19 56.08 C26.68 57.54, 23.87 58.93, 21.77 59.12 C19.68 59.31, 17.15 58.42, 15.61 57.22 C14.08 56.02, 12.93 53.69, 12.58 51.94 C12.22 50.19, 12.59 48.42, 13.51 46.72 C14.43 45.02, 17.09 42.69, 18.09 41.75 C19.1 40.8, 19.45 41.12, 19.54 41.03 M18.43 40.63 C19.84 39.89, 20.74 40.33, 22.8 41.23 C24.86 42.13, 29.29 44.66, 30.78 46.04 C32.26 47.43, 32.01 47.99, 31.72 49.55 C31.44 51.1, 30.47 53.54, 29.06 55.36 C27.64 57.18, 25.62 60.14, 23.25 60.45 C20.88 60.76, 16.59 58.47, 14.83 57.22 C13.08 55.97, 13.12 54.78, 12.73 52.94 C12.33 51.1, 11.75 48.08, 12.46 46.17 C13.18 44.26, 16.43 42.43, 17.03 41.48 C17.63 40.53, 15.91 40.36, 16.05 40.49" stroke="none" stroke-width="0" fill="#4c6ef5"></path></g></g><mask></mask><g transform="translate(39.310583362794205 36.317822698150394) rotate(0 40 17.5)"><text x="40" y="25" font-family="Virgil, Segoe UI Emoji" font-size="28px" fill="#4c6ef5" text-anchor="middle" style="white-space: pre;" direction="ltr">start</text></g><g stroke-linecap="round"><g transform="translate(567.0627341904988 98.16607726789834) rotate(0 -44.81973769904994 16.97232428315897)"><path d="M-0.7 -1.19 C-4.66 2.36, -14.65 16.36, -23.55 21.86 C-32.44 27.37, -42.89 29.81, -54.09 31.84 C-65.3 33.87, -84.51 33.58, -90.77 34.04 M1.13 0.8 C-3.01 3.93, -15.16 14.66, -24.49 19.95 C-33.83 25.25, -43.9 30.05, -54.85 32.58 C-65.81 35.11, -84.43 34.69, -90.24 35.14" stroke="#4c6ef5" stroke-width="4" fill="none"></path></g><g transform="translate(567.0627341904988 98.16607726789834) rotate(0 -44.81973769904994 16.97232428315897)"><path d="M-88.07 25.31 C-86.11 25.79, -84.4 27.88, -83.23 29.46 C-82.06 31.04, -81.08 32.85, -81.04 34.77 C-81 36.68, -81.68 39.31, -83 40.96 C-84.32 42.61, -86.96 44.29, -88.98 44.69 C-91 45.08, -93.53 44.42, -95.13 43.34 C-96.73 42.27, -98.05 40, -98.58 38.22 C-99.11 36.45, -98.83 34.47, -98.31 32.68 C-97.79 30.89, -97.26 28.58, -95.45 27.48 C-93.64 26.38, -88.98 26.33, -87.46 26.07 C-85.94 25.81, -86.16 25.7, -86.31 25.93 M-93.23 25.87 C-91.29 25.76, -86.32 27.33, -84.23 28.11 C-82.14 28.88, -81.33 29, -80.7 30.53 C-80.06 32.05, -79.82 34.88, -80.42 37.27 C-81.02 39.65, -82.26 43.65, -84.31 44.86 C-86.36 46.07, -90.65 44.98, -92.72 44.54 C-94.8 44.1, -95.54 43.71, -96.75 42.21 C-97.96 40.71, -99.75 37.72, -99.96 35.52 C-100.16 33.32, -99.08 30.84, -97.98 29.01 C-96.88 27.17, -94.39 25.06, -93.35 24.53 C-92.32 23.99, -92.24 25.55, -91.78 25.81" stroke="none" stroke-width="0" fill="#4c6ef5"></path></g></g><mask></mask><g transform="translate(563.8908012757097 61.69246087348438) rotate(0 23 17.5)"><text x="23" y="25" font-family="Virgil, Segoe UI Emoji" font-size="28px" fill="#4c6ef5" text-anchor="middle" style="white-space: pre;" direction="ltr">end</text></g><g stroke-linecap="round" transform="translate(74.78667532970121 95.79712460934888) rotate(0 197.5 22)"><path d="M11 0 L384 0 L388.81 0.69 L392.25 2.75 L394.31 6.19 L395 11 L395 33 L394.31 37.81 L392.25 41.25 L388.81 43.31 L384 44 L11 44 L6.19 43.31 L2.75 41.25 L0.69 37.81 L0 33 L0 11 L0.69 6.19 L2.75 2.75 L6.19 0.69 L11 0" stroke="none" stroke-width="0" fill="#4c6ef5"></path><path d="M11 0 M11 0 C149.31 0, 287.61 0, 384 0 M11 0 C109.76 0, 208.53 0, 384 0 M384 0 C391.33 0, 395 3.67, 395 11 M384 0 C391.33 0, 395 3.67, 395 11 M395 11 C395 18.75, 395 26.49, 395 33 M395 11 C395 17.5, 395 23.99, 395 33 M395 33 C395 40.33, 391.33 44, 384 44 M395 33 C395 40.33, 391.33 44, 384 44 M384 44 C247.57 44, 111.15 44, 11 44 M384 44 C304.48 44, 224.95 44, 11 44 M11 44 C3.67 44, 0 40.33, 0 33 M11 44 C3.67 44, 0 40.33, 0 33 M0 33 C0 26.3, 0 19.6, 0 11 M0 33 C0 26.64, 0 20.28, 0 11 M0 11 C0 3.67, 3.67 0, 11 0 M0 11 C0 3.67, 3.67 0, 11 0" stroke="transparent" stroke-width="4" fill="none"></path></g><g transform="translate(227.7866753297012 105.29712460934888) rotate(0 44.5 12.5)"><text x="44.5" y="18" font-family="Virgil, Segoe UI Emoji" font-size="20px" fill="white" text-anchor="middle" style="white-space: pre;" direction="ltr">200 VUs</text></g><g transform="translate(155.69220967022102 159.50583081947798) rotate(0 40 17.5)"><text x="40" y="25" font-family="Virgil, Segoe UI Emoji" font-size="28px" fill="#fa5252" text-anchor="middle" style="white-space: pre;" direction="ltr">start</text></g><g stroke-linecap="round"><g transform="translate(240.5742001901317 176.2421773987303) rotate(0 35.05620635597529 8.212335291592808)"><path d="M-1.1 0.55 C3.41 0.75, 15.41 -1.23, 27.46 1.23 C39.51 3.7, 64.19 13.08, 71.21 15.36 M0.52 -0.21 C4.84 0.17, 14.8 -0.22, 26.5 2.59 C38.2 5.4, 63.59 14.45, 70.73 16.63" stroke="#fa5252" stroke-width="4" fill="none"></path></g><g transform="translate(240.5742001901317 176.2421773987303) rotate(0 35.05620635597529 8.212335291592808)"><path d="M68.5 7.23 C70.24 6.76, 73.1 7, 74.98 7.99 C76.85 8.99, 78.95 11.14, 79.73 13.22 C80.51 15.29, 80.38 18.36, 79.67 20.44 C78.97 22.53, 77.08 24.86, 75.49 25.71 C73.9 26.56, 71.99 26.06, 70.11 25.54 C68.22 25.02, 65.68 24.1, 64.2 22.6 C62.72 21.1, 61.49 18.66, 61.22 16.52 C60.95 14.39, 60.98 11.41, 62.57 9.79 C64.16 8.17, 69.17 7.29, 70.75 6.8 C72.33 6.31, 72.29 6.61, 72.05 6.86 M73.19 8.69 C74.62 9.44, 76.74 11.91, 78.12 13.45 C79.5 14.99, 81.73 16.01, 81.44 17.95 C81.16 19.88, 78.12 23.71, 76.39 25.05 C74.66 26.39, 73.05 26.3, 71.08 25.99 C69.11 25.68, 66.19 24.79, 64.56 23.18 C62.92 21.58, 61.77 18.28, 61.27 16.34 C60.77 14.4, 60.47 12.82, 61.58 11.54 C62.69 10.25, 65.86 9.47, 67.94 8.63 C70.02 7.78, 73.05 6.66, 74.05 6.49 C75.06 6.32, 74 7.18, 73.98 7.6" stroke="none" stroke-width="0" fill="#fa5252"></path></g></g><mask></mask><g transform="translate(752.5395964067634 145.89265371327247) rotate(0 23 17.5)"><text x="23" y="25" font-family="Virgil, Segoe UI Emoji" font-size="28px" fill="#fa5252" text-anchor="middle" style="white-space: pre;" direction="ltr">end</text></g><g stroke-linecap="round"><g transform="translate(764.4646477266338 185.46770387565448) rotate(0 -34.74196156309017 6.053827346350772)"><path d="M-0.02 -0.35 C-5.3 1.36, -21.18 8.71, -32.75 10.81 C-44.32 12.91, -63.61 11.99, -69.46 12.25 M-1.49 -1.58 C-6.78 0.28, -22.48 9.83, -33.42 12.31 C-44.36 14.79, -61.47 13.13, -67.12 13.28" stroke="#fa5252" stroke-width="4" fill="none"></path></g><g transform="translate(764.4646477266338 185.46770387565448) rotate(0 -34.74196156309017 6.053827346350772)"><path d="M-69.33 3.39 C-67.47 2.9, -64.51 3.55, -62.76 4.73 C-61.02 5.91, -59.51 8.36, -58.84 10.47 C-58.17 12.57, -58.28 15.57, -58.73 17.34 C-59.18 19.12, -60.02 20.25, -61.52 21.13 C-63.02 22.01, -65.7 22.92, -67.75 22.63 C-69.79 22.35, -72.29 21.09, -73.81 19.42 C-75.32 17.75, -76.9 14.72, -76.86 12.62 C-76.82 10.52, -75.27 8.41, -73.58 6.82 C-71.89 5.23, -67.85 3.54, -66.72 3.08 C-65.59 2.62, -66.84 3.65, -66.81 4.05 M-66.75 4.86 C-64.47 4.81, -60.29 4.68, -58.87 6.23 C-57.45 7.77, -58.14 11.93, -58.22 14.12 C-58.3 16.32, -58.19 18.01, -59.35 19.39 C-60.5 20.78, -63.13 22.3, -65.16 22.43 C-67.19 22.57, -69.62 21.18, -71.54 20.22 C-73.46 19.25, -76.01 18.19, -76.68 16.65 C-77.36 15.12, -76.35 13.21, -75.59 11.02 C-74.82 8.82, -73.68 4.76, -72.08 3.47 C-70.48 2.17, -67.03 3.14, -65.97 3.25 C-64.91 3.36, -65.56 4.04, -65.73 4.13" stroke="none" stroke-width="0" fill="#fa5252"></path></g></g><mask></mask><g transform="translate(10 222.5449309715791) rotate(0 40 17.5)"><text x="40" y="25" font-family="Virgil, Segoe UI Emoji" font-size="28px" fill="#82c91e" text-anchor="middle" style="white-space: pre;" direction="ltr">start</text></g><g stroke-linecap="round"><g transform="translate(90.43563306899523 253.86207790582785) rotate(0 27.99274611435203 2.157804912519623)"><path d="M0.54 -0.08 C3.17 0.68, 6.46 4.25, 15.8 4.21 C25.15 4.17, 50.07 0.28, 56.63 -0.34 M-0.64 -1.16 C2.36 -0.21, 8.5 5.14, 17.96 5.46 C27.42 5.78, 49.98 1.34, 56.14 0.73" stroke="#82c91e" stroke-width="4" fill="none"></path></g><g transform="translate(90.43563306899523 253.86207790582785) rotate(0 27.99274611435203 2.157804912519623)"><path d="M55.8 -8.67 C57.77 -8.68, 60.24 -7.35, 61.82 -5.95 C63.39 -4.56, 64.64 -2.05, 65.25 -0.28 C65.85 1.49, 66.23 3.1, 65.44 4.67 C64.64 6.25, 62.48 8.39, 60.46 9.18 C58.45 9.97, 55.52 10.11, 53.34 9.39 C51.16 8.67, 48.4 6.56, 47.4 4.84 C46.4 3.12, 46.82 0.99, 47.33 -0.94 C47.84 -2.86, 49.06 -5.48, 50.46 -6.72 C51.86 -7.97, 54.43 -8.29, 55.72 -8.41 C57.01 -8.53, 57.97 -7.42, 58.17 -7.44 M59.98 -9.1 C62.05 -8.75, 62.73 -5.49, 63.8 -3.73 C64.87 -1.96, 66.53 -0.29, 66.42 1.5 C66.32 3.29, 64.76 5.82, 63.19 7 C61.62 8.19, 59.27 8.36, 57 8.6 C54.74 8.83, 51.25 9.16, 49.58 8.42 C47.91 7.68, 47.4 6.33, 47 4.15 C46.59 1.96, 46.34 -2.63, 47.14 -4.69 C47.94 -6.76, 49.88 -7.68, 51.78 -8.24 C53.67 -8.8, 57.59 -7.94, 58.52 -8.06 C59.45 -8.17, 57.37 -9.16, 57.36 -8.95" stroke="none" stroke-width="0" fill="#82c91e"></path></g></g><mask></mask><g transform="translate(635.8627400256723 226.93178415920056) rotate(0 23 17.5)"><text x="23" y="25" font-family="Virgil, Segoe UI Emoji" font-size="28px" fill="#82c91e" text-anchor="middle" style="white-space: pre;" direction="ltr">end</text></g><g stroke-linecap="round"><g transform="translate(635.5004972258953 246.10214435391708) rotate(0 -45.68760228430756 3.886056672828772)"><path d="M-1.05 -0.55 C-7.93 0.63, -25.57 5.82, -40.72 7 C-55.88 8.18, -83.41 6.78, -91.97 6.52 M0.59 1.78 C-6.44 3.13, -26.36 7.86, -41.39 8.29 C-56.42 8.72, -81.08 4.73, -89.58 4.37" stroke="#82c91e" stroke-width="4" fill="none"></path></g><g transform="translate(635.5004972258953 246.10214435391708) rotate(0 -45.68760228430756 3.886056672828772)"><path d="M-91.42 -4.28 C-89.52 -4.57, -86.87 -3.73, -84.88 -2.91 C-82.9 -2.08, -80.38 -1.04, -79.51 0.68 C-78.65 2.39, -78.82 5.44, -79.67 7.39 C-80.51 9.33, -82.53 11.43, -84.58 12.34 C-86.63 13.26, -89.98 13.24, -91.95 12.86 C-93.93 12.49, -95.33 11.6, -96.44 10.1 C-97.55 8.6, -98.39 5.81, -98.63 3.87 C-98.87 1.94, -99.41 -0.18, -97.9 -1.52 C-96.39 -2.86, -91.05 -3.44, -89.59 -4.15 C-88.14 -4.85, -89.15 -5.64, -89.18 -5.77 M-86.12 -3.58 C-84.31 -2.86, -81.24 -1.81, -80.17 -0.22 C-79.09 1.36, -79.12 4.15, -79.67 5.91 C-80.22 7.68, -81.58 9.03, -83.46 10.36 C-85.33 11.69, -88.84 13.55, -90.94 13.91 C-93.03 14.26, -94.57 14.1, -96.01 12.5 C-97.46 10.9, -99.25 6.58, -99.63 4.32 C-100 2.05, -99.4 0.37, -98.25 -1.09 C-97.11 -2.54, -94.59 -3.7, -92.75 -4.4 C-90.92 -5.09, -88.35 -5.38, -87.23 -5.26 C-86.11 -5.13, -85.96 -3.97, -86.04 -3.63" stroke="none" stroke-width="0" fill="#82c91e"></path></g></g><mask></mask><g stroke-linecap="round" transform="translate(321.5644213969763 170.3155952820348) rotate(0 184 21)"><path d="M10.5 0 L357.5 0 L362.09 0.66 L365.38 2.63 L367.34 5.91 L368 10.5 L368 31.5 L367.34 36.09 L365.38 39.38 L362.09 41.34 L357.5 42 L10.5 42 L5.91 41.34 L2.63 39.38 L0.66 36.09 L0 31.5 L0 10.5 L0.66 5.91 L2.63 2.63 L5.91 0.66 L10.5 0" stroke="none" stroke-width="0" fill="#fa5252"></path><path d="M10.5 0 M10.5 0 C137.51 0, 264.53 0, 357.5 0 M10.5 0 C97.62 0, 184.74 0, 357.5 0 M357.5 0 C364.5 0, 368 3.5, 368 10.5 M357.5 0 C364.5 0, 368 3.5, 368 10.5 M368 10.5 C368 16.42, 368 22.34, 368 31.5 M368 10.5 C368 16.3, 368 22.09, 368 31.5 M368 31.5 C368 38.5, 364.5 42, 357.5 42 M368 31.5 C368 38.5, 364.5 42, 357.5 42 M357.5 42 C226.87 42, 96.24 42, 10.5 42 M357.5 42 C244.1 42, 130.71 42, 10.5 42 M10.5 42 C3.5 42, 0 38.5, 0 31.5 M10.5 42 C3.5 42, 0 38.5, 0 31.5 M0 31.5 C0 26.38, 0 21.26, 0 10.5 M0 31.5 C0 27.28, 0 23.06, 0 10.5 M0 10.5 C0 3.5, 3.5 0, 10.5 0 M0 10.5 C0 3.5, 3.5 0, 10.5 0" stroke="transparent" stroke-width="4" fill="none"></path></g><g transform="translate(461.0644213969763 178.8155952820348) rotate(0 44.5 12.5)"><text x="44.5" y="18" font-family="Virgil, Segoe UI Emoji" font-size="20px" fill="white" text-anchor="middle" style="white-space: pre;" direction="ltr">200 VUs</text></g><g stroke-linecap="round" transform="translate(153.32818355306517 229.47532907263349) rotate(0 194.5 22)"><path d="M11 0 L378 0 L382.81 0.69 L386.25 2.75 L388.31 6.19 L389 11 L389 33 L388.31 37.81 L386.25 41.25 L382.81 43.31 L378 44 L11 44 L6.19 43.31 L2.75 41.25 L0.69 37.81 L0 33 L0 11 L0.69 6.19 L2.75 2.75 L6.19 0.69 L11 0" stroke="none" stroke-width="0" fill="#82c91e"></path><path d="M11 0 M11 0 C125.64 0, 240.27 0, 378 0 M11 0 C137.16 0, 263.31 0, 378 0 M378 0 C385.33 0, 389 3.67, 389 11 M378 0 C385.33 0, 389 3.67, 389 11 M389 11 C389 19.64, 389 28.28, 389 33 M389 11 C389 15.76, 389 20.53, 389 33 M389 33 C389 40.33, 385.33 44, 378 44 M389 33 C389 40.33, 385.33 44, 378 44 M378 44 C287.71 44, 197.43 44, 11 44 M378 44 C264.8 44, 151.6 44, 11 44 M11 44 C3.67 44, 0 40.33, 0 33 M11 44 C3.67 44, 0 40.33, 0 33 M0 33 C0 25.51, 0 18.03, 0 11 M0 33 C0 28.41, 0 23.82, 0 11 M0 11 C0 3.67, 3.67 0, 11 0 M0 11 C0 3.67, 3.67 0, 11 0" stroke="transparent" stroke-width="4" fill="none"></path></g><g transform="translate(303.3281835530652 238.97532907263349) rotate(0 44.5 12.5)"><text x="44.5" y="18" font-family="Virgil, Segoe UI Emoji" font-size="20px" fill="white" text-anchor="middle" style="white-space: pre;" direction="ltr">200 VUs</text></g><g transform="translate(251.21034841787105 10) rotate(0 199 17.5)"><text x="199" y="25" font-family="Virgil, Segoe UI Emoji" font-size="28px" fill="#000000" text-anchor="middle" style="white-space: pre;" direction="ltr">Distributed Load Generation</text></g><g stroke-linecap="round"><g transform="translate(863.7627692327437 192.44180055301877) rotate(0 88.47313164202978 0.4066361178695388)"><path d="M0 0 C29.49 0.14, 147.46 0.68, 176.95 0.81 M0 0 C29.49 0.14, 147.46 0.68, 176.95 0.81" stroke="#000000" stroke-width="4" fill="none"></path></g><g transform="translate(863.7627692327437 192.44180055301877) rotate(0 88.47313164202978 0.4066361178695388)"><path d="M176.95 0.81 L163.32 7.09 L163.38 -5.59 L176.95 0.81" stroke="none" stroke-width="0" fill="#000000" fill-rule="evenodd"></path><path d="M176.95 0.81 C172.26 2.97, 167.57 5.13, 163.32 7.09 M176.95 0.81 C173.02 2.62, 169.1 4.43, 163.32 7.09 M163.32 7.09 C163.34 2.29, 163.37 -2.52, 163.38 -5.59 M163.32 7.09 C163.34 4.15, 163.35 1.21, 163.38 -5.59 M163.38 -5.59 C166.86 -3.95, 170.34 -2.31, 176.95 0.81 M163.38 -5.59 C166.72 -4.01, 170.06 -2.44, 176.95 0.81 M176.95 0.81 C176.95 0.81, 176.95 0.81, 176.95 0.81 M176.95 0.81 C176.95 0.81, 176.95 0.81, 176.95 0.81" stroke="#000000" stroke-width="4" fill="none"></path></g></g><mask></mask><g transform="translate(910.029503495251 66.35168592504942) rotate(0 41.5 62)"><text x="0" y="92" font-family="Virgil, Segoe UI Emoji" font-size="85.23797196934127px" fill="#000000" text-anchor="start" style="white-space: pre;" direction="ltr">❔</text></g><g stroke-linecap="round" transform="translate(1275.468133051681 110.77248581074036) rotate(0 197.5 22)"><path d="M11 0 L384 0 L388.81 0.69 L392.25 2.75 L394.31 6.19 L395 11 L395 33 L394.31 37.81 L392.25 41.25 L388.81 43.31 L384 44 L11 44 L6.19 43.31 L2.75 41.25 L0.69 37.81 L0 33 L0 11 L0.69 6.19 L2.75 2.75 L6.19 0.69 L11 0" stroke="none" stroke-width="0" fill="#4c6ef5"></path><path d="M11 0 M11 0 C145.92 0, 280.84 0, 384 0 M11 0 C97.61 0, 184.22 0, 384 0 M384 0 C391.33 0, 395 3.67, 395 11 M384 0 C391.33 0, 395 3.67, 395 11 M395 11 C395 15.63, 395 20.26, 395 33 M395 11 C395 17.53, 395 24.05, 395 33 M395 33 C395 40.33, 391.33 44, 384 44 M395 33 C395 40.33, 391.33 44, 384 44 M384 44 C261.61 44, 139.22 44, 11 44 M384 44 C302.78 44, 221.55 44, 11 44 M11 44 C3.67 44, 0 40.33, 0 33 M11 44 C3.67 44, 0 40.33, 0 33 M0 33 C0 26.56, 0 20.12, 0 11 M0 33 C0 28.54, 0 24.07, 0 11 M0 11 C0 3.67, 3.67 0, 11 0 M0 11 C0 3.67, 3.67 0, 11 0" stroke="transparent" stroke-width="4" fill="none"></path></g><g transform="translate(1428.468133051681 120.27248581074036) rotate(0 44.5 12.5)"><text x="44.5" y="18" font-family="Virgil, Segoe UI Emoji" font-size="20px" fill="white" text-anchor="middle" style="white-space: pre;" direction="ltr">200 VUs</text></g><g stroke-linecap="round" transform="translate(1283.090015267871 171.05063182624826) rotate(0 191.5 20.5)"><path d="M10.25 0 L372.75 0 L377.23 0.64 L380.44 2.56 L382.36 5.77 L383 10.25 L383 30.75 L382.36 35.23 L380.44 38.44 L377.23 40.36 L372.75 41 L10.25 41 L5.77 40.36 L2.56 38.44 L0.64 35.23 L0 30.75 L0 10.25 L0.64 5.77 L2.56 2.56 L5.77 0.64 L10.25 0" stroke="none" stroke-width="0" fill="#fa5252"></path><path d="M10.25 0 M10.25 0 C151.38 0, 292.51 0, 372.75 0 M10.25 0 C104.12 0, 197.99 0, 372.75 0 M372.75 0 C379.58 0, 383 3.42, 383 10.25 M372.75 0 C379.58 0, 383 3.42, 383 10.25 M383 10.25 C383 17.55, 383 24.86, 383 30.75 M383 10.25 C383 16.37, 383 22.49, 383 30.75 M383 30.75 C383 37.58, 379.58 41, 372.75 41 M383 30.75 C383 37.58, 379.58 41, 372.75 41 M372.75 41 C265.44 41, 158.13 41, 10.25 41 M372.75 41 C252.04 41, 131.32 41, 10.25 41 M10.25 41 C3.42 41, 0 37.58, 0 30.75 M10.25 41 C3.42 41, 0 37.58, 0 30.75 M0 30.75 C0 26.26, 0 21.77, 0 10.25 M0 30.75 C0 23.4, 0 16.05, 0 10.25 M0 10.25 C0 3.42, 3.42 0, 10.25 0 M0 10.25 C0 3.42, 3.42 0, 10.25 0" stroke="transparent" stroke-width="4" fill="none"></path></g><g transform="translate(1430.090015267871 179.05063182624826) rotate(0 44.5 12.5)"><text x="44.5" y="18" font-family="Virgil, Segoe UI Emoji" font-size="20px" fill="white" text-anchor="middle" style="white-space: pre;" direction="ltr">200 VUs</text></g><g stroke-linecap="round" transform="translate(1281.3250159869726 221.00403695528985) rotate(0 194.5 22)"><path d="M11 0 L378 0 L382.81 0.69 L386.25 2.75 L388.31 6.19 L389 11 L389 33 L388.31 37.81 L386.25 41.25 L382.81 43.31 L378 44 L11 44 L6.19 43.31 L2.75 41.25 L0.69 37.81 L0 33 L0 11 L0.69 6.19 L2.75 2.75 L6.19 0.69 L11 0" stroke="none" stroke-width="0" fill="#82c91e"></path><path d="M11 0 M11 0 C95.04 0, 179.07 0, 378 0 M11 0 C113.7 0, 216.41 0, 378 0 M378 0 C385.33 0, 389 3.67, 389 11 M378 0 C385.33 0, 389 3.67, 389 11 M389 11 C389 15.69, 389 20.38, 389 33 M389 11 C389 16.77, 389 22.54, 389 33 M389 33 C389 40.33, 385.33 44, 378 44 M389 33 C389 40.33, 385.33 44, 378 44 M378 44 C294.45 44, 210.91 44, 11 44 M378 44 C234.98 44, 91.96 44, 11 44 M11 44 C3.67 44, 0 40.33, 0 33 M11 44 C3.67 44, 0 40.33, 0 33 M0 33 C0 27.37, 0 21.74, 0 11 M0 33 C0 27.07, 0 21.13, 0 11 M0 11 C0 3.67, 3.67 0, 11 0 M0 11 C0 3.67, 3.67 0, 11 0" stroke="transparent" stroke-width="4" fill="none"></path></g><g transform="translate(1431.3250159869726 230.50403695528985) rotate(0 44.5 12.5)"><text x="44.5" y="18" font-family="Virgil, Segoe UI Emoji" font-size="20px" fill="white" text-anchor="middle" style="white-space: pre;" direction="ltr">200 VUs</text></g><g transform="translate(1200.4908921190768 20.796058622934197) rotate(0 272.5 16.5)"><text x="272.5" y="23" font-family="Virgil, Segoe UI Emoji" font-size="26.417085427135675px" fill="#000000" text-anchor="middle" style="white-space: pre;" direction="ltr">Synchronized Distributed Load Generation</text></g><g stroke-linecap="round"><g transform="translate(1149.1085382869173 295.96578372523663) rotate(0 325.02414381713015 1.3559070092294405)"><path d="M-0.03 0.6 C43.97 0.8, 155.28 2.07, 263.88 2.26 C372.48 2.45, 586.84 1.88, 651.56 1.74 M-1.51 -0.13 C42.3 0.2, 153.88 -0.24, 262.63 0.25 C371.39 0.75, 585.96 2.53, 651.02 2.84" stroke="#000000" stroke-width="4" fill="none"></path></g><g transform="translate(1149.1085382869173 295.96578372523663) rotate(0 325.02414381713015 1.3559070092294405)"><path d="M0.83 -15.1 C0.46 -9.54, -0.37 -4.45, -0.96 0.61 M-0.58 -14.04 C0.7 -11.12, -0.36 -7.89, 0.12 0.99" stroke="#000000" stroke-width="4" fill="none"></path></g><g transform="translate(1149.1085382869173 295.96578372523663) rotate(0 325.02414381713015 1.3559070092294405)"><path d="M0.6 14.9 C0.03 11.81, -0.74 8.24, -0.96 0.61 M-0.8 15.95 C0.47 12.08, -0.54 8.51, 0.12 0.99" stroke="#000000" stroke-width="4" fill="none"></path></g><g transform="translate(1149.1085382869173 295.96578372523663) rotate(0 325.02414381713015 1.3559070092294405)"><path d="M649.72 3.25 L637.63 10.95 L638.6 -3.48 L649.85 2.63" stroke="none" stroke-width="0" fill="#000000" fill-rule="evenodd"></path><path d="M651.77 2.14 C647.42 5.17, 642.68 7.74, 636.46 9.1 M650.36 3.2 C648.56 4.16, 644.44 5.4, 637.53 9.48 M637.32 9.66 C636.29 7.39, 638.29 2.49, 636.24 -3.17 M637.69 9.72 C637.81 4.63, 637.47 -0.09, 637.14 -3.93 M638.38 -4.97 C640.9 -2.41, 644.18 0.05, 649.74 2.18 M636.94 -3.93 C642.72 -0.93, 647.62 0.77, 650.86 2.94 M651.02 2.84 C651.02 2.84, 651.02 2.84, 651.02 2.84 M651.02 2.84 C651.02 2.84, 651.02 2.84, 651.02 2.84" stroke="#000000" stroke-width="4" fill="none"></path></g></g><mask></mask><g transform="translate(1423.4221062283655 314.8127699135116) rotate(0 61.5 18.5)"><text x="61.5" y="26" font-family="Virgil, Segoe UI Emoji" font-size="29.906347470254133px" fill="#000000" text-anchor="middle" style="white-space: pre;" direction="ltr">duration</text></g><g stroke-linecap="round"><g transform="translate(1220.889564192786 121.94460322509485) rotate(0 21.26469169626398 8.365540364554136)"><path d="M0.12 0.37 C0.9 0.75, 0.67 1.65, 4.27 3.19 C7.87 4.73, 15.23 7.28, 21.74 9.62 C28.25 11.95, 39.88 16.13, 43.31 17.21 M-1.27 -0.48 C-0.61 -0.01, -0.38 2.71, 3.35 4.53 C7.07 6.35, 14.33 8.68, 21.07 10.46 C27.81 12.23, 39.94 14.21, 43.8 15.2" stroke="#4c6ef5" stroke-width="4" fill="none"></path></g><g transform="translate(1220.889564192786 121.94460322509485) rotate(0 21.26469169626398 8.365540364554136)"><path d="M47.62 5.89 C49.38 6.65, 50.69 9.27, 51.6 11.11 C52.51 12.95, 53.35 14.83, 53.08 16.95 C52.81 19.07, 51.51 22.5, 49.99 23.84 C48.46 25.19, 45.88 25.45, 43.93 25.03 C41.97 24.62, 39.8 22.82, 38.26 21.35 C36.72 19.89, 34.91 18.35, 34.66 16.26 C34.42 14.16, 35.64 10.68, 36.78 8.78 C37.92 6.87, 39.34 5.25, 41.5 4.83 C43.66 4.4, 48.33 5.8, 49.75 6.24 C51.16 6.69, 50.14 7.36, 49.99 7.51 M45.25 6.8 C46.87 7.33, 49.15 8.63, 50.48 9.89 C51.81 11.15, 53.08 12.64, 53.23 14.36 C53.38 16.08, 52.53 18.71, 51.39 20.22 C50.24 21.72, 48.17 22.67, 46.36 23.41 C44.55 24.15, 42.34 25.55, 40.51 24.65 C38.68 23.74, 36.43 19.93, 35.36 17.98 C34.29 16.03, 33.31 14.89, 34.08 12.96 C34.85 11.02, 38.1 7.5, 39.97 6.36 C41.85 5.22, 44.64 6.19, 45.33 6.11 C46.01 6.03, 44.1 5.57, 44.06 5.87" stroke="none" stroke-width="0" fill="#4c6ef5"></path></g></g><mask></mask><g transform="translate(1138.0543978436167 81.86733274950484) rotate(0 40 17.5)"><text x="40" y="25" font-family="Virgil, Segoe UI Emoji" font-size="28px" fill="#4c6ef5" text-anchor="middle" style="white-space: pre;" direction="ltr">start</text></g><g stroke-linecap="round"><g transform="translate(1733.064758125252 124.4164320004088) rotate(0 -26.412292163537586 4.932734484866614)"><path d="M1.03 -0.52 C0.72 -0.12, 2.67 0.19, -1.58 1.7 C-5.84 3.22, -15.82 7.66, -24.53 8.56 C-33.23 9.45, -48.96 7.24, -53.82 7.08 M0.11 1.82 C-0.39 1.98, 1.5 -1.18, -2.63 0.19 C-6.76 1.56, -16.1 8.67, -24.67 10.02 C-33.24 11.37, -49.51 8.56, -54.04 8.28" stroke="#4c6ef5" stroke-width="4" fill="none"></path></g><g transform="translate(1733.064758125252 124.4164320004088) rotate(0 -26.412292163537586 4.932734484866614)"><path d="M-51.85 -0.3 C-50.2 0.21, -47.98 2.12, -46.74 3.65 C-45.51 5.18, -44.3 6.78, -44.44 8.87 C-44.59 10.96, -46.09 14.85, -47.6 16.19 C-49.12 17.53, -51.3 17.17, -53.53 16.9 C-55.77 16.63, -59.48 15.86, -61.01 14.56 C-62.53 13.27, -62.42 11.05, -62.68 9.14 C-62.94 7.23, -63.36 4.64, -62.54 3.09 C-61.72 1.54, -59.93 0.46, -57.77 -0.16 C-55.61 -0.78, -50.95 -0.67, -49.59 -0.64 C-48.23 -0.61, -49.56 -0.19, -49.6 0.02 M-57.26 0.3 C-55.55 -0.65, -53.94 -1.89, -52.17 -1.47 C-50.41 -1.05, -47.74 0.95, -46.67 2.81 C-45.61 4.66, -45.75 7.46, -45.77 9.67 C-45.79 11.88, -45.29 14.76, -46.8 16.08 C-48.3 17.4, -52.37 17.95, -54.81 17.62 C-57.25 17.28, -59.76 15.38, -61.41 14.06 C-63.07 12.74, -64.82 11.67, -64.72 9.7 C-64.62 7.72, -62.1 3.93, -60.82 2.19 C-59.55 0.45, -57.81 -0.51, -57.09 -0.75 C-56.37 -0.99, -56.54 0.66, -56.53 0.76" stroke="none" stroke-width="0" fill="#4c6ef5"></path></g></g><mask></mask><g transform="translate(1734.5291330209197 92.02639237713993) rotate(0 23 17.5)"><text x="23" y="25" font-family="Virgil, Segoe UI Emoji" font-size="28px" fill="#4c6ef5" text-anchor="middle" style="white-space: pre;" direction="ltr">end</text></g><g transform="translate(1153.182424961466 160.33163434126936) rotate(0 40 17.5)"><text x="40" y="25" font-family="Virgil, Segoe UI Emoji" font-size="28px" fill="#fa5252" text-anchor="middle" style="white-space: pre;" direction="ltr">start</text></g><g stroke-linecap="round"><g transform="translate(1235.5644154813767 182.9313136304886) rotate(0 22.014352906612203 2.4335935543724645)"><path d="M-0.55 0.09 C1.43 0.58, 5.69 2.75, 12.82 3.48 C19.94 4.21, 36.94 4.49, 42.2 4.48 M1.36 -0.9 C3.63 -0.34, 7.84 3.39, 15.05 4.5 C22.25 5.61, 40.16 5.84, 44.58 5.75" stroke="#fa5252" stroke-width="4" fill="none"></path></g><g transform="translate(1235.5644154813767 182.9313136304886) rotate(0 22.014352906612203 2.4335935543724645)"><path d="M43.81 -4.32 C45.79 -4.42, 48.55 -3.67, 50.47 -2.24 C52.39 -0.8, 54.74 2.12, 55.31 4.3 C55.89 6.47, 55.02 8.9, 53.91 10.81 C52.79 12.72, 50.73 14.96, 48.61 15.75 C46.49 16.53, 43.36 16.48, 41.2 15.51 C39.03 14.55, 36.58 11.89, 35.63 9.97 C34.67 8.05, 34.95 5.81, 35.46 4.01 C35.96 2.22, 36.94 0.53, 38.65 -0.79 C40.37 -2.11, 44.26 -3.57, 45.75 -3.91 C47.24 -4.26, 47.65 -2.96, 47.6 -2.88 M42.71 -3.41 C44.66 -4.06, 47.19 -3.07, 48.78 -2.04 C50.36 -1.02, 51.15 1.23, 52.22 2.74 C53.29 4.25, 55.61 5.39, 55.21 6.99 C54.81 8.6, 51.84 10.71, 49.83 12.35 C47.81 13.98, 45.15 16.72, 43.12 16.8 C41.08 16.88, 39.16 14.44, 37.64 12.82 C36.12 11.2, 33.97 8.93, 33.99 7.09 C34.01 5.25, 36.46 3.36, 37.79 1.79 C39.11 0.21, 41.45 -1.25, 41.94 -2.36 C42.42 -3.46, 40.72 -4.93, 40.69 -4.84" stroke="none" stroke-width="0" fill="#fa5252"></path></g></g><mask></mask><g transform="translate(1133.9495958271868 208.18473685607978) rotate(0 40 17.5)"><text x="40" y="25" font-family="Virgil, Segoe UI Emoji" font-size="28px" fill="#82c91e" text-anchor="middle" style="white-space: pre;" direction="ltr">start</text></g><g stroke-linecap="round"><g transform="translate(1214.385228896182 239.50188379032852) rotate(0 27.970609913075805 2.316695716511049)"><path d="M0.12 -0.98 C2.92 0.01, 8.1 5.41, 17.24 5.61 C26.38 5.8, 48.55 1.22, 54.94 0.19 M-1.28 1.12 C1.35 1.8, 6.74 3.86, 16.49 3.93 C26.24 4, 50.71 2.16, 57.22 1.53" stroke="#82c91e" stroke-width="4" fill="none"></path></g><g transform="translate(1214.385228896182 239.50188379032852) rotate(0 27.970609913075805 2.316695716511049)"><path d="M54.89 -7.32 C56.99 -7.77, 60.87 -7.54, 62.64 -6.55 C64.41 -5.55, 64.92 -3.27, 65.51 -1.36 C66.09 0.56, 66.77 3.28, 66.15 4.92 C65.53 6.57, 63.61 7.64, 61.77 8.52 C59.93 9.4, 57.16 10.46, 55.1 10.2 C53.03 9.95, 50.58 8.35, 49.39 6.99 C48.21 5.63, 48.07 3.78, 47.96 2.05 C47.85 0.32, 47.25 -1.72, 48.74 -3.38 C50.23 -5.04, 55.04 -7.08, 56.9 -7.9 C58.77 -8.71, 59.74 -8.5, 59.93 -8.25 M51.85 -5.58 C53.68 -6.31, 56.76 -7.75, 59.1 -7.54 C61.44 -7.33, 64.78 -5.86, 65.89 -4.3 C67.01 -2.74, 66.01 -0.17, 65.8 1.83 C65.6 3.83, 65.98 6, 64.65 7.72 C63.32 9.45, 59.75 12.12, 57.84 12.17 C55.92 12.21, 54.56 9.17, 53.15 7.99 C51.74 6.81, 50.03 6.92, 49.38 5.07 C48.73 3.21, 48.57 -1.24, 49.27 -3.15 C49.97 -5.06, 52.78 -6.05, 53.56 -6.39 C54.34 -6.73, 54.09 -5.4, 53.96 -5.18" stroke="none" stroke-width="0" fill="#82c91e"></path></g></g><mask></mask><g transform="translate(1731.998954999071 134.95207378963505) rotate(0 23 17.5)"><text x="23" y="25" font-family="Virgil, Segoe UI Emoji" font-size="28px" fill="#fa5252" text-anchor="middle" style="white-space: pre;" direction="ltr">end</text></g><g stroke-linecap="round"><g transform="translate(1743.9240063189422 174.52712395201752) rotate(0 -34.00571436020573 6.853426012339014)"><path d="M0.88 0.72 C-4.48 2.22, -20.71 7.99, -32.23 9.96 C-43.75 11.92, -62.03 11.88, -68.23 12.5 M-0.11 0.05 C-5.54 1.59, -21.16 8.74, -32.63 11 C-44.09 13.27, -62.72 13.56, -68.9 13.66" stroke="#fa5252" stroke-width="4" fill="none"></path></g><g transform="translate(1743.9240063189422 174.52712395201752) rotate(0 -34.00571436020573 6.853426012339014)"><path d="M-66.93 4.89 C-64.8 5.41, -61.32 6.39, -60.16 8.11 C-59.01 9.83, -59.68 13.1, -59.98 15.21 C-60.28 17.32, -60.45 19.4, -61.96 20.79 C-63.47 22.18, -66.99 23.3, -69.05 23.54 C-71.11 23.78, -72.93 23.51, -74.31 22.2 C-75.69 20.9, -76.77 17.86, -77.32 15.72 C-77.87 13.58, -78.4 11.14, -77.62 9.39 C-76.83 7.64, -74.75 5.9, -72.58 5.24 C-70.42 4.57, -65.93 5.59, -64.62 5.39 C-63.3 5.19, -64.65 4, -64.67 4.05 M-67.82 4.96 C-66.16 5.18, -64.87 6.84, -63.23 8.17 C-61.59 9.51, -58.16 10.96, -57.97 12.96 C-57.78 14.95, -60.71 18.66, -62.07 20.14 C-63.43 21.61, -64.42 21.23, -66.12 21.81 C-67.82 22.38, -70.53 24.42, -72.29 23.59 C-74.04 22.76, -75.84 18.88, -76.65 16.82 C-77.46 14.76, -77.64 13.17, -77.16 11.22 C-76.68 9.28, -75.12 6.2, -73.78 5.18 C-72.45 4.16, -70.34 5.17, -69.14 5.11 C-67.94 5.05, -66.97 4.67, -66.58 4.81" stroke="none" stroke-width="0" fill="#fa5252"></path></g></g><mask></mask><g transform="translate(1746.8954964682912 216.58163434126936) rotate(0 23 17.5)"><text x="23" y="25" font-family="Virgil, Segoe UI Emoji" font-size="28px" fill="#82c91e" text-anchor="middle" style="white-space: pre;" direction="ltr">end</text></g><g stroke-linecap="round"><g transform="translate(1745.8954964682912 236.4672672382885) rotate(0 -31.891062757788404 1.9584466001028886)"><path d="M0.89 0.45 C-1.14 0.74, -2.39 2.66, -13.2 2.79 C-24.02 2.91, -55.48 1.47, -63.99 1.22 M-0.1 -0.35 C-2.1 0.63, -2.78 3.76, -13.54 4.21 C-24.31 4.65, -56.27 2.64, -64.68 2.31" stroke="#82c91e" stroke-width="4" fill="none"></path></g><g transform="translate(1745.8954964682912 236.4672672382885) rotate(0 -31.891062757788404 1.9584466001028886)"><path d="M-68.03 -7.76 C-66.35 -8.88, -62.96 -8.58, -61.14 -7.86 C-59.31 -7.14, -58.15 -5.16, -57.08 -3.44 C-56.01 -1.71, -54.67 0.22, -54.72 2.48 C-54.78 4.75, -55.86 8.66, -57.41 10.15 C-58.97 11.63, -61.94 11.27, -64.06 11.41 C-66.19 11.56, -68.44 12.25, -70.17 11.02 C-71.91 9.79, -74.06 6.31, -74.48 4.05 C-74.9 1.78, -74.18 -0.71, -72.68 -2.57 C-71.18 -4.42, -67.03 -6.3, -65.46 -7.07 C-63.9 -7.85, -63.03 -7.46, -63.29 -7.23 M-67.25 -7.87 C-65.43 -8.81, -62.22 -8.06, -60.73 -7.4 C-59.24 -6.74, -58.97 -5.61, -58.3 -3.91 C-57.63 -2.2, -56.49 0.4, -56.7 2.84 C-56.91 5.27, -58.13 9.25, -59.57 10.71 C-61.01 12.16, -63.67 11.7, -65.33 11.58 C-66.99 11.47, -68.38 11.34, -69.53 10.02 C-70.68 8.71, -71.82 5.82, -72.22 3.69 C-72.62 1.56, -72.88 -0.97, -71.91 -2.77 C-70.94 -4.57, -67.33 -6.18, -66.4 -7.09 C-65.48 -8, -66.04 -8.58, -66.35 -8.24" stroke="none" stroke-width="0" fill="#82c91e"></path></g></g><mask></mask></svg>