<svg version="1.1" xmlns="http://www.w3.org/2000/svg" viewBox="0 0 1006.4320625695027 423.6020224693966" width="1006.4320625695027" height="423.6020224693966">
  <!-- svg-source:excalidraw -->
  
  <defs>
    <style class="style-fonts">
      @font-face {
        font-family: "Virgil";
        src: url("https://excalidraw.com/Virgil.woff2");
      }
      @font-face {
        font-family: "Cascadia";
        src: url("https://excalidraw.com/Cascadia.woff2");
      }
    </style>
  </defs>
  <g stroke-linecap="round"><g transform="translate(321.2739689743694 322.76473909362676) rotate(0 119.46367808045943 0.40911589974029994)"><path d="M0 0 C39.82 0.14, 199.11 0.68, 238.93 0.82" stroke="#fab005" stroke-width="2.5" fill="none" stroke-dasharray="1.5 8"></path></g><g transform="translate(321.2739689743694 322.76473909362676) rotate(0 119.46367808045943 0.40911589974029994)"><path d="M238.93 0.82 L225.31 7.11 L225.35 -5.57 L238.93 0.82" stroke="none" stroke-width="0" fill="#fab005" fill-rule="evenodd"></path><path d="M238.93 0.82 C235.93 2.2, 232.94 3.59, 225.31 7.11 M225.31 7.11 C225.33 2.94, 225.34 -1.22, 225.35 -5.57 M225.35 -5.57 C230.53 -3.13, 235.7 -0.7, 238.93 0.82 M238.93 0.82 C238.93 0.82, 238.93 0.82, 238.93 0.82" stroke="#fab005" stroke-width="2.5" fill="none"></path></g></g><mask></mask><g stroke-linecap="round" transform="translate(584.625536265037 117.70074013511066) rotate(0 205.90326315223285 143.6076899055381)"><path d="M0 0 L411.81 0 L411.81 287.22 L0 287.22" stroke="none" stroke-width="0" fill="#ffffff"></path><path d="M0 0 C111.29 0, 222.58 0, 411.81 0 M411.81 0 C411.81 60.18, 411.81 120.36, 411.81 287.22 M411.81 287.22 C325.36 287.22, 238.92 287.22, 0 287.22 M0 287.22 C0 181.05, 0 74.89, 0 0" stroke="#495057" stroke-width="2.5" fill="none" stroke-dasharray="1.5 8"></path></g><g transform="translate(631.5287994172697 122.70074013511066) rotate(0 159 23.5)"><text x="159" y="33" font-family="Virgil, Segoe UI Emoji" font-size="37.00849584383237px" fill="#495057" text-anchor="middle" style="white-space: pre;" direction="ltr">Data Aggregator</text></g><g stroke-linecap="round" transform="translate(779.8806653757001 206.40258264680642) rotate(0 6.229358876138122 15.974212740725534)"><path d="M0 0 L12.46 0 L12.46 31.95 L0 31.95" stroke="none" stroke-width="0" fill="#868e96"></path><path d="M0 0 C4.51 0, 9.02 0, 12.46 0 M0 0 C4.48 0, 8.95 0, 12.46 0 M12.46 0 C12.46 7.28, 12.46 14.56, 12.46 31.95 M12.46 0 C12.46 9.07, 12.46 18.14, 12.46 31.95 M12.46 31.95 C8.53 31.95, 4.6 31.95, 0 31.95 M12.46 31.95 C8.25 31.95, 4.03 31.95, 0 31.95 M0 31.95 C0 21.54, 0 11.13, 0 0 M0 31.95 C0 21.65, 0 11.34, 0 0" stroke="#343a40" stroke-width="4" fill="none"></path></g><g stroke-linecap="round" transform="translate(741.152295306094 198.05815450793716) rotate(0 44.87623067560526 7.347574586269957)"><path d="M3.67 0 L86.08 0 L87.69 0.23 L89.52 2.07 L89.75 11.02 L88.83 13.78 L86.08 14.7 L3.67 14.7 L0.92 13.78 L0 11.02 L0.23 2.07 L2.07 0.23 L3.67 0" stroke="none" stroke-width="0" fill="#868e96"></path><path d="M3.67 0 M3.67 0 C28.43 0, 53.2 0, 86.08 0 M3.67 0 C28.55 0, 53.42 0, 86.08 0 M86.08 0 C88.53 0, 89.75 1.22, 89.75 3.67 M86.08 0 C88.53 0, 89.75 1.22, 89.75 3.67 M89.75 3.67 C89.75 5.22, 89.75 6.77, 89.75 11.02 M89.75 3.67 C89.75 5.49, 89.75 7.31, 89.75 11.02 M89.75 11.02 C89.75 13.47, 88.53 14.7, 86.08 14.7 M89.75 11.02 C89.75 13.47, 88.53 14.7, 86.08 14.7 M86.08 14.7 C61.58 14.7, 37.07 14.7, 3.67 14.7 M86.08 14.7 C64.75 14.7, 43.43 14.7, 3.67 14.7 M3.67 14.7 C1.22 14.7, 0 13.47, 0 11.02 M3.67 14.7 C1.22 14.7, 0 13.47, 0 11.02 M0 11.02 C0 8.86, 0 6.7, 0 3.67 M0 11.02 C0 8.27, 0 5.52, 0 3.67 M0 3.67 C0 1.22, 1.22 0, 3.67 0 M0 3.67 C0 1.22, 1.22 0, 3.67 0" stroke="#343a40" stroke-width="4" fill="none"></path></g><g stroke-linecap="round"><g transform="translate(628.1786130018559 315.3723646687222) rotate(0 158.7390207660228 2.959539436844352)" fill-rule="evenodd"><path d="M0 0 L1.01 -28.17 L1.42 -29.65 L3.66 -31.06 L8.13 -32.03 L46.56 -32.5 L159.22 -31.54 L301.25 -32.27 L309.3 -31.74 L314.53 -30.1 L316.88 -26.4 L317.58 -21.53 L317.53 29.59 L316.06 36.49 L312.53 38.41 L81.56 37.73 L45.6 38.45 L10.84 37.39 L4.74 35.61 L0.65 32.37 L-0.41 27.12 L0 0" stroke="none" stroke-width="0" fill="#868e96" fill-rule="evenodd"></path><path d="M0 0 C0.11 -4.21, 0.04 -20.07, 0.65 -25.25 C1.26 -30.42, 1.09 -29.89, 3.66 -31.06 C6.22 -32.24, 8.89 -32.06, 16.04 -32.29 C23.19 -32.53, 35.32 -32.58, 46.56 -32.5 C57.8 -32.41, 64.7 -31.94, 83.47 -31.78 C102.25 -31.62, 133.53 -31.5, 159.22 -31.54 C184.9 -31.58, 218.18 -31.94, 237.59 -32.02 C257.01 -32.1, 265.1 -31.98, 275.7 -32.02 C286.31 -32.06, 294.77 -32.59, 301.25 -32.27 C307.72 -31.95, 311.81 -31.89, 314.53 -30.1 C317.26 -28.31, 317.06 -24.89, 317.58 -21.53 C318.1 -18.17, 317.6 -14.05, 317.65 -9.97 C317.7 -5.88, 317.89 -2.14, 317.89 2.98 C317.89 8.09, 317.95 15.13, 317.65 20.71 C317.35 26.3, 318.17 33.55, 316.06 36.49 C313.96 39.43, 312.43 38.06, 305.02 38.35 C297.62 38.63, 283.43 38.27, 271.63 38.21 C259.83 38.15, 253.01 38.01, 234.24 37.97 C215.46 37.93, 184.42 38.01, 158.98 37.97 C133.53 37.93, 100.45 37.65, 81.56 37.73 C62.66 37.81, 54.59 38.41, 45.6 38.45 C36.61 38.49, 33.42 38.15, 27.63 37.97 C21.83 37.79, 15.33 38.32, 10.84 37.39 C6.34 36.45, 2.48 35.27, 0.65 32.37 C-1.19 29.47, -0.07 25.39, -0.18 19.99 C-0.29 14.6, -0.03 3.33, 0 0 M0 0 C0.11 -4.21, 0.04 -20.07, 0.65 -25.25 C1.26 -30.42, 1.09 -29.89, 3.66 -31.06 C6.22 -32.24, 8.89 -32.06, 16.04 -32.29 C23.19 -32.53, 35.32 -32.58, 46.56 -32.5 C57.8 -32.41, 64.7 -31.94, 83.47 -31.78 C102.25 -31.62, 133.53 -31.5, 159.22 -31.54 C184.9 -31.58, 218.18 -31.94, 237.59 -32.02 C257.01 -32.1, 265.1 -31.98, 275.7 -32.02 C286.31 -32.06, 294.77 -32.59, 301.25 -32.27 C307.72 -31.95, 311.81 -31.89, 314.53 -30.1 C317.26 -28.31, 317.06 -24.89, 317.58 -21.53 C318.1 -18.17, 317.6 -14.05, 317.65 -9.97 C317.7 -5.88, 317.89 -2.14, 317.89 2.98 C317.89 8.09, 317.95 15.13, 317.65 20.71 C317.35 26.3, 318.17 33.55, 316.06 36.49 C313.96 39.43, 312.43 38.06, 305.02 38.35 C297.62 38.63, 283.43 38.27, 271.63 38.21 C259.83 38.15, 253.01 38.01, 234.24 37.97 C215.46 37.93, 184.42 38.01, 158.98 37.97 C133.53 37.93, 100.45 37.65, 81.56 37.73 C62.66 37.81, 54.59 38.41, 45.6 38.45 C36.61 38.49, 33.42 38.15, 27.63 37.97 C21.83 37.79, 15.33 38.32, 10.84 37.39 C6.34 36.45, 2.48 35.27, 0.65 32.37 C-1.19 29.47, -0.07 25.39, -0.18 19.99 C-0.29 14.6, -0.03 3.33, 0 0" stroke="#343a40" stroke-width="4" fill="none"></path></g></g><mask></mask><g stroke-linecap="round"><g transform="translate(752.5371806270064 249.7629089727452) rotate(0 34.44085103877967 -6.81489516419083)" fill-rule="evenodd"><path d="M0 0 L0 -9.22 L6.8 -13.47 L61.8 -13.63 L68.88 -10.77 L68.74 -0.16 L0 0" stroke="none" stroke-width="0" fill="#868e96" fill-rule="evenodd"></path><path d="M0 0 C0 -3.02, 0 -6.04, 0 -9.22 M0 0 C0 -3.05, 0 -6.09, 0 -9.22 M0 -9.22 C2.26 -10.63, 4.52 -12.04, 6.8 -13.47 M0 -9.22 C2.6 -10.85, 5.21 -12.47, 6.8 -13.47 M6.8 -13.47 C26.8 -13.53, 46.8 -13.59, 61.8 -13.63 M6.8 -13.47 C22.78 -13.51, 38.76 -13.56, 61.8 -13.63 M61.8 -13.63 C63.96 -12.76, 66.13 -11.88, 68.88 -10.77 M61.8 -13.63 C63.76 -12.84, 65.72 -12.05, 68.88 -10.77 M68.88 -10.77 C68.85 -8.56, 68.82 -6.34, 68.74 -0.16 M68.88 -10.77 C68.85 -7.99, 68.81 -5.2, 68.74 -0.16 M68.74 -0.16 C47.4 -0.11, 26.06 -0.06, 0 0 M68.74 -0.16 C44.81 -0.11, 20.87 -0.05, 0 0 M0 0 C0 0, 0 0, 0 0 M0 0 C0 0, 0 0, 0 0" stroke="#343a40" stroke-width="4" fill="none"></path></g></g><mask></mask><g stroke-linecap="round" transform="translate(731.1862306717253 250.13592173588222) rotate(0 56.15506367856733 62.790100020991304)"><path d="M28.08 0 L90.81 0.44 L96.52 1.75 L101.34 3.95 L105.29 7.02 L108.36 10.97 L110.56 15.79 L111.87 21.5 L112.31 28.08 L112.31 97.5 L110.56 109.79 L108.36 114.61 L105.29 118.56 L101.34 121.63 L96.52 123.83 L90.81 125.14 L84.23 125.58 L21.5 125.14 L15.79 123.83 L10.97 121.63 L7.02 118.56 L3.95 114.61 L1.75 109.79 L0.44 104.08 L0 97.5 L0.44 21.5 L1.75 15.79 L3.95 10.97 L7.02 7.02 L10.97 3.95 L15.79 1.75 L28.08 0" stroke="none" stroke-width="0" fill="#868e96"></path><path d="M28.08 0 M28.08 0 C46.85 0, 65.63 0, 84.23 0 M28.08 0 C50.2 0, 72.33 0, 84.23 0 M84.23 0 C102.95 0, 112.31 9.36, 112.31 28.08 M84.23 0 C102.95 0, 112.31 9.36, 112.31 28.08 M112.31 28.08 C112.31 44.54, 112.31 61.01, 112.31 97.5 M112.31 28.08 C112.31 51.01, 112.31 73.94, 112.31 97.5 M112.31 97.5 C112.31 116.22, 102.95 125.58, 84.23 125.58 M112.31 97.5 C112.31 116.22, 102.95 125.58, 84.23 125.58 M84.23 125.58 C62.42 125.58, 40.61 125.58, 28.08 125.58 M84.23 125.58 C66.88 125.58, 49.53 125.58, 28.08 125.58 M28.08 125.58 C9.36 125.58, 0 116.22, 0 97.5 M28.08 125.58 C9.36 125.58, 0 116.22, 0 97.5 M0 97.5 C0 77.12, 0 56.73, 0 28.08 M0 97.5 C0 79.34, 0 61.17, 0 28.08 M0 28.08 C0 9.36, 9.36 0, 28.08 0 M0 28.08 C0 9.36, 9.36 0, 28.08 0" stroke="#343a40" stroke-width="4" fill="none"></path></g><g stroke-linecap="round" transform="translate(662.0847546176972 261.78769287379964) rotate(0 12.784582220768698 57.12604460672583)"><path d="M6.39 0 L21.97 0.4 L23.97 1.6 L25.17 3.6 L25.57 6.39 L25.57 107.86 L25.17 110.66 L23.97 112.65 L21.97 113.85 L19.18 114.25 L3.6 113.85 L1.6 112.65 L0.4 110.66 L0 107.86 L0 6.39 L0.4 3.6 L1.6 1.6 L3.6 0.4 L6.39 0" stroke="none" stroke-width="0" fill="#868e96"></path><path d="M6.39 0 M6.39 0 C9.82 0, 13.24 0, 19.18 0 M6.39 0 C9.18 0, 11.97 0, 19.18 0 M19.18 0 C23.44 0, 25.57 2.13, 25.57 6.39 M19.18 0 C23.44 0, 25.57 2.13, 25.57 6.39 M25.57 6.39 C25.57 37.69, 25.57 69, 25.57 107.86 M25.57 6.39 C25.57 40.49, 25.57 74.58, 25.57 107.86 M25.57 107.86 C25.57 112.12, 23.44 114.25, 19.18 114.25 M25.57 107.86 C25.57 112.12, 23.44 114.25, 19.18 114.25 M19.18 114.25 C14.57 114.25, 9.97 114.25, 6.39 114.25 M19.18 114.25 C14.42 114.25, 9.66 114.25, 6.39 114.25 M6.39 114.25 C2.13 114.25, 0 112.12, 0 107.86 M6.39 114.25 C2.13 114.25, 0 112.12, 0 107.86 M0 107.86 C0 78.56, 0 49.26, 0 6.39 M0 107.86 C0 76.74, 0 45.62, 0 6.39 M0 6.39 C0 2.13, 2.13 0, 6.39 0 M0 6.39 C0 2.13, 2.13 0, 6.39 0" stroke="#343a40" stroke-width="4" fill="none"></path></g><g stroke-linecap="round" transform="translate(887.3523299507403 261.30220240972176) rotate(0 12.784582220768698 57.12604460672583)"><path d="M6.39 0 L21.97 0.4 L23.97 1.6 L25.17 3.6 L25.57 6.39 L25.57 107.86 L25.17 110.66 L23.97 112.65 L21.97 113.85 L19.18 114.25 L3.6 113.85 L1.6 112.65 L0.4 110.66 L0 107.86 L0 6.39 L0.4 3.6 L1.6 1.6 L3.6 0.4 L6.39 0" stroke="none" stroke-width="0" fill="#868e96"></path><path d="M6.39 0 M6.39 0 C10.43 0, 14.46 0, 19.18 0 M6.39 0 C10.17 0, 13.94 0, 19.18 0 M19.18 0 C23.44 0, 25.57 2.13, 25.57 6.39 M19.18 0 C23.44 0, 25.57 2.13, 25.57 6.39 M25.57 6.39 C25.57 39.46, 25.57 72.52, 25.57 107.86 M25.57 6.39 C25.57 45.63, 25.57 84.86, 25.57 107.86 M25.57 107.86 C25.57 112.12, 23.44 114.25, 19.18 114.25 M25.57 107.86 C25.57 112.12, 23.44 114.25, 19.18 114.25 M19.18 114.25 C14.67 114.25, 10.17 114.25, 6.39 114.25 M19.18 114.25 C15 114.25, 10.82 114.25, 6.39 114.25 M6.39 114.25 C2.13 114.25, 0 112.12, 0 107.86 M6.39 114.25 C2.13 114.25, 0 112.12, 0 107.86 M0 107.86 C0 71.14, 0 34.41, 0 6.39 M0 107.86 C0 67.52, 0 27.18, 0 6.39 M0 6.39 C0 2.13, 2.13 0, 6.39 0 M0 6.39 C0 2.13, 2.13 0, 6.39 0" stroke="#343a40" stroke-width="4" fill="none"></path></g><g stroke-linecap="round" transform="translate(10 120.60202246939662) rotate(0 151 146.5)"><path d="M0 0 L302 0 L302 293 L0 293" stroke="none" stroke-width="0" fill="#ffffff"></path><path d="M0 0 C88.94 0, 177.87 0, 302 0 M302 0 C302 113.46, 302 226.93, 302 293 M302 293 C189.32 293, 76.64 293, 0 293 M0 293 C0 194.58, 0 96.15, 0 0" stroke="#fab005" stroke-width="2.5" fill="none" stroke-dasharray="1.5 8"></path></g><g transform="translate(42 125.60202246939662) rotate(0 119 17.5)"><text x="119" y="25" font-family="Virgil, Segoe UI Emoji" font-size="28px" fill="#fab005" text-anchor="middle" style="white-space: pre;" direction="ltr">Load Generators</text></g><g stroke-linecap="round"><g transform="translate(52.958168412583746 354.1206492019942) rotate(0 67.05743033000101 -35.17495690405758)" fill-rule="evenodd"><path d="M0 0 L134.11 0 L134.05 -8 L132.93 -16 L131.07 -23.63 L128.95 -29.27 L126.86 -32.88 L124.76 -36.88 L122.14 -40.82 L119.52 -44.22 L116.35 -48.31 L113.18 -51.07 L107.77 -55.52 L102.55 -59.39 L97.86 -62.2 L93.31 -64.35 L88.75 -66.23 L85.4 -67.29 L82.31 -68.35 L78.96 -69.15 L75.6 -69.69 L71.47 -70.08 L68.13 -70.22 L64.39 -70.35 L60.92 -69.69 L57.08 -69.51 L53.25 -69.06 L49.94 -67.95 L46.9 -66.84 L42.52 -65.4 L38.15 -63.69 L34.04 -61.32 L30.46 -58.95 L26.74 -56.35 L23.82 -53.76 L20.76 -51.03 L17.97 -47.77 L15.48 -45.11 L12.99 -42.19 L10.64 -39 L8.55 -35.28 L6.43 -30.71 L4.57 -26.14 L3.25 -21.97 L2.19 -17.53 L1.05 -13.75 L0.43 -9.43 L0.08 -4.71 L0 0" stroke="none" stroke-width="0" fill="#fab005" fill-rule="evenodd"></path><path d="M0 0 C34.02 0, 68.05 0, 134.11 0 M0 0 C36.31 0, 72.63 0, 134.11 0 M134.11 0 C134.1 -2.14, 134.08 -4.28, 134.05 -8 M134.11 0 C134.1 -2.4, 134.08 -4.79, 134.05 -8 M134.05 -8 C133.63 -10.99, 133.21 -13.98, 132.93 -16 M134.05 -8 C133.64 -10.93, 133.23 -13.85, 132.93 -16 M132.93 -16 C132.25 -18.8, 131.56 -21.6, 131.07 -23.63 M132.93 -16 C132.43 -18.06, 131.92 -20.12, 131.07 -23.63 M131.07 -23.63 C130.58 -24.95, 130.08 -26.26, 128.95 -29.27 M131.07 -23.63 C130.47 -25.24, 129.86 -26.84, 128.95 -29.27 M128.95 -29.27 C128.18 -30.6, 127.4 -31.93, 126.86 -32.88 M128.95 -29.27 C128.45 -30.13, 127.95 -30.99, 126.86 -32.88 M126.86 -32.88 C126.43 -33.68, 126.01 -34.49, 124.76 -36.88 M126.86 -32.88 C126.03 -34.46, 125.2 -36.04, 124.76 -36.88 M124.76 -36.88 C124.23 -37.68, 123.69 -38.49, 122.14 -40.82 M124.76 -36.88 C123.88 -38.21, 122.99 -39.54, 122.14 -40.82 M122.14 -40.82 C121.3 -41.9, 120.46 -42.99, 119.52 -44.22 M122.14 -40.82 C121.5 -41.65, 120.85 -42.49, 119.52 -44.22 M119.52 -44.22 C118.33 -45.75, 117.14 -47.28, 116.35 -48.31 M119.52 -44.22 C118.32 -45.77, 117.11 -47.32, 116.35 -48.31 M116.35 -48.31 C115.4 -49.14, 114.44 -49.97, 113.18 -51.07 M116.35 -48.31 C115.21 -49.3, 114.06 -50.3, 113.18 -51.07 M113.18 -51.07 C111.27 -52.64, 109.35 -54.22, 107.77 -55.52 M113.18 -51.07 C111.81 -52.19, 110.44 -53.32, 107.77 -55.52 M107.77 -55.52 C106.05 -56.8, 104.32 -58.08, 102.55 -59.39 M107.77 -55.52 C106.5 -56.47, 105.23 -57.41, 102.55 -59.39 M102.55 -59.39 C100.73 -60.48, 98.91 -61.57, 97.86 -62.2 M102.55 -59.39 C101.03 -60.31, 99.5 -61.22, 97.86 -62.2 M97.86 -62.2 C96.66 -62.77, 95.46 -63.34, 93.31 -64.35 M97.86 -62.2 C96.15 -63.01, 94.43 -63.82, 93.31 -64.35 M93.31 -64.35 C91.97 -64.9, 90.62 -65.45, 88.75 -66.23 M93.31 -64.35 C92.2 -64.8, 91.1 -65.26, 88.75 -66.23 M88.75 -66.23 C87.98 -66.47, 87.2 -66.72, 85.4 -67.29 M88.75 -66.23 C88.02 -66.46, 87.29 -66.69, 85.4 -67.29 M85.4 -67.29 C84.59 -67.57, 83.77 -67.85, 82.31 -68.35 M85.4 -67.29 C84.39 -67.64, 83.37 -67.99, 82.31 -68.35 M82.31 -68.35 C81.53 -68.54, 80.75 -68.73, 78.96 -69.15 M82.31 -68.35 C81.62 -68.52, 80.92 -68.69, 78.96 -69.15 M78.96 -69.15 C78.1 -69.29, 77.24 -69.43, 75.6 -69.69 M78.96 -69.15 C77.67 -69.36, 76.39 -69.56, 75.6 -69.69 M75.6 -69.69 C74.2 -69.82, 72.79 -69.96, 71.47 -70.08 M75.6 -69.69 C74.12 -69.83, 72.64 -69.97, 71.47 -70.08 M71.47 -70.08 C70.78 -70.11, 70.1 -70.14, 68.13 -70.22 M71.47 -70.08 C70.51 -70.12, 69.54 -70.16, 68.13 -70.22 M68.13 -70.22 C67.01 -70.26, 65.9 -70.3, 64.39 -70.35 M68.13 -70.22 C67.13 -70.25, 66.14 -70.29, 64.39 -70.35 M64.39 -70.35 C63.64 -70.21, 62.89 -70.06, 60.92 -69.69 M64.39 -70.35 C63.69 -70.22, 62.99 -70.08, 60.92 -69.69 M60.92 -69.69 C59.68 -69.63, 58.44 -69.57, 57.08 -69.51 M60.92 -69.69 C59.76 -69.63, 58.59 -69.58, 57.08 -69.51 M57.08 -69.51 C55.67 -69.34, 54.26 -69.18, 53.25 -69.06 M57.08 -69.51 C55.7 -69.34, 54.32 -69.18, 53.25 -69.06 M53.25 -69.06 C52.24 -68.72, 51.24 -68.38, 49.94 -67.95 M53.25 -69.06 C52.52 -68.81, 51.79 -68.57, 49.94 -67.95 M49.94 -67.95 C49 -67.61, 48.07 -67.27, 46.9 -66.84 M49.94 -67.95 C49.1 -67.64, 48.26 -67.34, 46.9 -66.84 M46.9 -66.84 C45.15 -66.26, 43.41 -65.69, 42.52 -65.4 M46.9 -66.84 C45.39 -66.34, 43.89 -65.85, 42.52 -65.4 M42.52 -65.4 C41.4 -64.96, 40.28 -64.52, 38.15 -63.69 M42.52 -65.4 C41.02 -64.81, 39.52 -64.22, 38.15 -63.69 M38.15 -63.69 C37.16 -63.12, 36.18 -62.55, 34.04 -61.32 M38.15 -63.69 C36.58 -62.79, 35.02 -61.88, 34.04 -61.32 M34.04 -61.32 C33.3 -60.83, 32.56 -60.34, 30.46 -58.95 M34.04 -61.32 C33.21 -60.77, 32.38 -60.22, 30.46 -58.95 M30.46 -58.95 C29.23 -58.09, 28 -57.23, 26.74 -56.35 M30.46 -58.95 C29.65 -58.38, 28.84 -57.82, 26.74 -56.35 M26.74 -56.35 C25.8 -55.52, 24.85 -54.68, 23.82 -53.76 M26.74 -56.35 C25.89 -55.6, 25.04 -54.84, 23.82 -53.76 M23.82 -53.76 C23.06 -53.08, 22.3 -52.41, 20.76 -51.03 M23.82 -53.76 C22.85 -52.9, 21.89 -52.04, 20.76 -51.03 M20.76 -51.03 C19.8 -49.91, 18.85 -48.8, 17.97 -47.77 M20.76 -51.03 C19.79 -49.9, 18.83 -48.77, 17.97 -47.77 M17.97 -47.77 C17.38 -47.14, 16.79 -46.51, 15.48 -45.11 M17.97 -47.77 C17.19 -46.94, 16.4 -46.1, 15.48 -45.11 M15.48 -45.11 C14.55 -44.02, 13.62 -42.93, 12.99 -42.19 M15.48 -45.11 C14.72 -44.22, 13.97 -43.33, 12.99 -42.19 M12.99 -42.19 C12.47 -41.49, 11.95 -40.78, 10.64 -39 M12.99 -42.19 C12.44 -41.44, 11.88 -40.68, 10.64 -39 M10.64 -39 C10.02 -37.9, 9.4 -36.8, 8.55 -35.28 M10.64 -39 C9.91 -37.71, 9.18 -36.42, 8.55 -35.28 M8.55 -35.28 C7.73 -33.51, 6.91 -31.75, 6.43 -30.71 M8.55 -35.28 C7.96 -34.02, 7.38 -32.76, 6.43 -30.71 M6.43 -30.71 C5.76 -29.06, 5.08 -27.4, 4.57 -26.14 M6.43 -30.71 C5.8 -29.17, 5.18 -27.63, 4.57 -26.14 M4.57 -26.14 C4.04 -24.48, 3.52 -22.81, 3.25 -21.97 M4.57 -26.14 C4.3 -25.27, 4.02 -24.4, 3.25 -21.97 M3.25 -21.97 C2.83 -20.21, 2.41 -18.45, 2.19 -17.53 M3.25 -21.97 C3.03 -21.03, 2.8 -20.09, 2.19 -17.53 M2.19 -17.53 C1.74 -16.04, 1.29 -14.55, 1.05 -13.75 M2.19 -17.53 C1.75 -16.06, 1.3 -14.59, 1.05 -13.75 M1.05 -13.75 C0.81 -12.05, 0.56 -10.35, 0.43 -9.43 M1.05 -13.75 C0.81 -12.07, 0.57 -10.39, 0.43 -9.43 M0.43 -9.43 C0.3 -7.65, 0.17 -5.88, 0.08 -4.71 M0.43 -9.43 C0.31 -7.79, 0.19 -6.16, 0.08 -4.71 M0.08 -4.71 C0.06 -3.2, 0.03 -1.68, 0 0 M0.08 -4.71 C0.05 -2.99, 0.02 -1.28, 0 0 M0 0 C0 0, 0 0, 0 0 M0 0 C0 0, 0 0, 0 0" stroke="#343a40" stroke-width="4" fill="none"></path></g></g><mask></mask><g stroke-linecap="round" transform="translate(81.88490306474228 205.10413735755128) rotate(0 38.130695677843846 38.13069567784396)"><path d="M76.26 38.13 C76.26 40.12, 76.1 42.13, 75.79 44.1 C75.48 46.06, 75.01 48.02, 74.4 49.91 C73.78 51.8, 73.01 53.67, 72.11 55.44 C71.2 57.21, 70.15 58.93, 68.98 60.54 C67.81 62.15, 66.5 63.69, 65.09 65.09 C63.69 66.5, 62.15 67.81, 60.54 68.98 C58.93 70.15, 57.21 71.2, 55.44 72.11 C53.67 73.01, 51.8 73.78, 49.91 74.4 C48.02 75.01, 46.06 75.48, 44.1 75.79 C42.13 76.1, 40.12 76.26, 38.13 76.26 C36.14 76.26, 34.13 76.1, 32.17 75.79 C30.2 75.48, 28.24 75.01, 26.35 74.4 C24.46 73.78, 22.59 73.01, 20.82 72.11 C19.05 71.2, 17.33 70.15, 15.72 68.98 C14.11 67.81, 12.57 66.5, 11.17 65.09 C9.76 63.69, 8.45 62.15, 7.28 60.54 C6.11 58.93, 5.06 57.21, 4.16 55.44 C3.25 53.67, 2.48 51.8, 1.87 49.91 C1.25 48.02, 0.78 46.06, 0.47 44.1 C0.16 42.13, 0 40.12, 0 38.13 C0 36.14, 0.16 34.13, 0.47 32.17 C0.78 30.2, 1.25 28.24, 1.87 26.35 C2.48 24.46, 3.25 22.59, 4.16 20.82 C5.06 19.05, 6.11 17.33, 7.28 15.72 C8.45 14.11, 9.76 12.57, 11.17 11.17 C12.57 9.76, 14.11 8.45, 15.72 7.28 C17.33 6.11, 19.05 5.06, 20.82 4.16 C22.59 3.25, 24.46 2.48, 26.35 1.87 C28.24 1.25, 30.2 0.78, 32.17 0.47 C34.13 0.16, 36.14 0, 38.13 0 C40.12 0, 42.13 0.16, 44.1 0.47 C46.06 0.78, 48.02 1.25, 49.91 1.87 C51.8 2.48, 53.67 3.25, 55.44 4.16 C57.21 5.06, 58.93 6.11, 60.54 7.28 C62.15 8.45, 63.69 9.76, 65.09 11.17 C66.5 12.57, 67.81 14.11, 68.98 15.72 C70.15 17.33, 71.2 19.05, 72.11 20.82 C73.01 22.59, 73.78 24.46, 74.4 26.35 C75.01 28.24, 75.48 30.2, 75.79 32.17 C76.1 34.13, 76.18 37.14, 76.26 38.13 C76.34 39.12, 76.34 37.14, 76.26 38.13" stroke="none" stroke-width="0" fill="#fab005"></path><path d="M76.26 38.13 C76.26 40.12, 76.1 42.13, 75.79 44.1 C75.48 46.06, 75.01 48.02, 74.4 49.91 C73.78 51.8, 73.01 53.67, 72.11 55.44 C71.2 57.21, 70.15 58.93, 68.98 60.54 C67.81 62.15, 66.5 63.69, 65.09 65.09 C63.69 66.5, 62.15 67.81, 60.54 68.98 C58.93 70.15, 57.21 71.2, 55.44 72.11 C53.67 73.01, 51.8 73.78, 49.91 74.4 C48.02 75.01, 46.06 75.48, 44.1 75.79 C42.13 76.1, 40.12 76.26, 38.13 76.26 C36.14 76.26, 34.13 76.1, 32.17 75.79 C30.2 75.48, 28.24 75.01, 26.35 74.4 C24.46 73.78, 22.59 73.01, 20.82 72.11 C19.05 71.2, 17.33 70.15, 15.72 68.98 C14.11 67.81, 12.57 66.5, 11.17 65.09 C9.76 63.69, 8.45 62.15, 7.28 60.54 C6.11 58.93, 5.06 57.21, 4.16 55.44 C3.25 53.67, 2.48 51.8, 1.87 49.91 C1.25 48.02, 0.78 46.06, 0.47 44.1 C0.16 42.13, 0 40.12, 0 38.13 C0 36.14, 0.16 34.13, 0.47 32.17 C0.78 30.2, 1.25 28.24, 1.87 26.35 C2.48 24.46, 3.25 22.59, 4.16 20.82 C5.06 19.05, 6.11 17.33, 7.28 15.72 C8.45 14.11, 9.76 12.57, 11.17 11.17 C12.57 9.76, 14.11 8.45, 15.72 7.28 C17.33 6.11, 19.05 5.06, 20.82 4.16 C22.59 3.25, 24.46 2.48, 26.35 1.87 C28.24 1.25, 30.2 0.78, 32.17 0.47 C34.13 0.16, 36.14 0, 38.13 0 C40.12 0, 42.13 0.16, 44.1 0.47 C46.06 0.78, 48.02 1.25, 49.91 1.87 C51.8 2.48, 53.67 3.25, 55.44 4.16 C57.21 5.06, 58.93 6.11, 60.54 7.28 C62.15 8.45, 63.69 9.76, 65.09 11.17 C66.5 12.57, 67.81 14.11, 68.98 15.72 C70.15 17.33, 71.2 19.05, 72.11 20.82 C73.01 22.59, 73.78 24.46, 74.4 26.35 C75.01 28.24, 75.48 30.2, 75.79 32.17 C76.1 34.13, 76.18 37.14, 76.26 38.13 C76.34 39.12, 76.34 37.14, 76.26 38.13" stroke="#343a40" stroke-width="4" fill="none"></path></g><g stroke-linecap="round"><g transform="translate(132.49195239131723 357.38023051260916) rotate(0 67.05743033000101 -35.17495690405758)" fill-rule="evenodd"><path d="M0 0 L134.11 0 L134.05 -8 L132.93 -16 L131.07 -23.63 L128.95 -29.27 L126.86 -32.88 L124.76 -36.88 L122.14 -40.82 L119.52 -44.22 L116.35 -48.31 L113.18 -51.07 L107.77 -55.52 L102.55 -59.39 L97.86 -62.2 L93.31 -64.35 L88.75 -66.23 L85.4 -67.29 L82.31 -68.35 L78.96 -69.15 L75.6 -69.69 L71.47 -70.08 L68.13 -70.22 L64.39 -70.35 L60.92 -69.69 L57.08 -69.51 L53.25 -69.06 L49.94 -67.95 L46.9 -66.84 L42.52 -65.4 L38.15 -63.69 L34.04 -61.32 L30.46 -58.95 L26.74 -56.35 L23.82 -53.76 L20.76 -51.03 L17.97 -47.77 L15.48 -45.11 L12.99 -42.19 L10.64 -39 L8.55 -35.28 L6.43 -30.71 L4.57 -26.14 L3.25 -21.97 L2.19 -17.53 L1.05 -13.75 L0.43 -9.43 L0.08 -4.71 L0 0" stroke="none" stroke-width="0" fill="#fab005" fill-rule="evenodd"></path><path d="M0 0 C26.83 0, 53.65 0, 134.11 0 M0 0 C38.82 0, 77.64 0, 134.11 0 M134.11 0 C134.1 -2.28, 134.08 -4.56, 134.05 -8 M134.11 0 C134.09 -2.88, 134.07 -5.75, 134.05 -8 M134.05 -8 C133.68 -10.67, 133.3 -13.34, 132.93 -16 M134.05 -8 C133.81 -9.72, 133.57 -11.45, 132.93 -16 M132.93 -16 C132.48 -17.84, 132.03 -19.67, 131.07 -23.63 M132.93 -16 C132.27 -18.7, 131.61 -21.39, 131.07 -23.63 M131.07 -23.63 C130.33 -25.6, 129.59 -27.58, 128.95 -29.27 M131.07 -23.63 C130.25 -25.81, 129.43 -27.99, 128.95 -29.27 M128.95 -29.27 C128.38 -30.25, 127.81 -31.22, 126.86 -32.88 M128.95 -29.27 C128.27 -30.45, 127.59 -31.62, 126.86 -32.88 M126.86 -32.88 C126.23 -34.08, 125.6 -35.28, 124.76 -36.88 M126.86 -32.88 C126.31 -33.93, 125.76 -34.98, 124.76 -36.88 M124.76 -36.88 C124.14 -37.82, 123.52 -38.75, 122.14 -40.82 M124.76 -36.88 C124.11 -37.86, 123.45 -38.85, 122.14 -40.82 M122.14 -40.82 C121.59 -41.52, 121.05 -42.23, 119.52 -44.22 M122.14 -40.82 C121.14 -42.12, 120.13 -43.43, 119.52 -44.22 M119.52 -44.22 C118.64 -45.35, 117.76 -46.48, 116.35 -48.31 M119.52 -44.22 C118.63 -45.37, 117.74 -46.52, 116.35 -48.31 M116.35 -48.31 C115.49 -49.05, 114.63 -49.8, 113.18 -51.07 M116.35 -48.31 C115.19 -49.32, 114.03 -50.33, 113.18 -51.07 M113.18 -51.07 C111.04 -52.83, 108.9 -54.59, 107.77 -55.52 M113.18 -51.07 C111.29 -52.63, 109.39 -54.19, 107.77 -55.52 M107.77 -55.52 C106.44 -56.51, 105.11 -57.5, 102.55 -59.39 M107.77 -55.52 C106.16 -56.72, 104.56 -57.91, 102.55 -59.39 M102.55 -59.39 C101.28 -60.15, 100.01 -60.92, 97.86 -62.2 M102.55 -59.39 C100.84 -60.42, 99.12 -61.45, 97.86 -62.2 M97.86 -62.2 C96.49 -62.85, 95.13 -63.49, 93.31 -64.35 M97.86 -62.2 C96.13 -63.02, 94.4 -63.83, 93.31 -64.35 M93.31 -64.35 C92.15 -64.83, 90.98 -65.31, 88.75 -66.23 M93.31 -64.35 C92.32 -64.76, 91.32 -65.17, 88.75 -66.23 M88.75 -66.23 C87.68 -66.57, 86.61 -66.91, 85.4 -67.29 M88.75 -66.23 C87.96 -66.48, 87.16 -66.73, 85.4 -67.29 M85.4 -67.29 C84.26 -67.68, 83.12 -68.08, 82.31 -68.35 M85.4 -67.29 C84.26 -67.68, 83.11 -68.08, 82.31 -68.35 M82.31 -68.35 C80.99 -68.67, 79.67 -68.98, 78.96 -69.15 M82.31 -68.35 C81.62 -68.52, 80.93 -68.68, 78.96 -69.15 M78.96 -69.15 C77.92 -69.32, 76.89 -69.48, 75.6 -69.69 M78.96 -69.15 C78.06 -69.3, 77.16 -69.44, 75.6 -69.69 M75.6 -69.69 C74.03 -69.84, 72.46 -69.99, 71.47 -70.08 M75.6 -69.69 C74.38 -69.81, 73.15 -69.92, 71.47 -70.08 M71.47 -70.08 C70.67 -70.12, 69.87 -70.15, 68.13 -70.22 M71.47 -70.08 C70.36 -70.13, 69.25 -70.17, 68.13 -70.22 M68.13 -70.22 C66.99 -70.26, 65.85 -70.3, 64.39 -70.35 M68.13 -70.22 C66.65 -70.27, 65.18 -70.32, 64.39 -70.35 M64.39 -70.35 C63.01 -70.09, 61.63 -69.82, 60.92 -69.69 M64.39 -70.35 C63.13 -70.11, 61.86 -69.87, 60.92 -69.69 M60.92 -69.69 C59.51 -69.62, 58.11 -69.55, 57.08 -69.51 M60.92 -69.69 C59.9 -69.64, 58.89 -69.59, 57.08 -69.51 M57.08 -69.51 C55.94 -69.37, 54.8 -69.24, 53.25 -69.06 M57.08 -69.51 C55.77 -69.35, 54.45 -69.2, 53.25 -69.06 M53.25 -69.06 C52.13 -68.68, 51.01 -68.31, 49.94 -67.95 M53.25 -69.06 C52.09 -68.67, 50.93 -68.28, 49.94 -67.95 M49.94 -67.95 C48.98 -67.6, 48.02 -67.25, 46.9 -66.84 M49.94 -67.95 C49.26 -67.7, 48.58 -67.45, 46.9 -66.84 M46.9 -66.84 C45.33 -66.32, 43.76 -65.8, 42.52 -65.4 M46.9 -66.84 C45.28 -66.31, 43.67 -65.77, 42.52 -65.4 M42.52 -65.4 C41.17 -64.87, 39.81 -64.34, 38.15 -63.69 M42.52 -65.4 C41.03 -64.82, 39.55 -64.23, 38.15 -63.69 M38.15 -63.69 C36.73 -62.87, 35.3 -62.05, 34.04 -61.32 M38.15 -63.69 C36.83 -62.93, 35.51 -62.17, 34.04 -61.32 M34.04 -61.32 C33.31 -60.84, 32.59 -60.36, 30.46 -58.95 M34.04 -61.32 C33.3 -60.83, 32.56 -60.34, 30.46 -58.95 M30.46 -58.95 C29.03 -57.95, 27.59 -56.95, 26.74 -56.35 M30.46 -58.95 C29.4 -58.21, 28.35 -57.47, 26.74 -56.35 M26.74 -56.35 C25.59 -55.33, 24.44 -54.31, 23.82 -53.76 M26.74 -56.35 C25.82 -55.54, 24.9 -54.72, 23.82 -53.76 M23.82 -53.76 C22.79 -52.84, 21.76 -51.93, 20.76 -51.03 M23.82 -53.76 C23.17 -53.18, 22.52 -52.6, 20.76 -51.03 M20.76 -51.03 C19.78 -49.89, 18.8 -48.74, 17.97 -47.77 M20.76 -51.03 C19.84 -49.95, 18.91 -48.87, 17.97 -47.77 M17.97 -47.77 C17.41 -47.17, 16.84 -46.57, 15.48 -45.11 M17.97 -47.77 C17.13 -46.87, 16.28 -45.97, 15.48 -45.11 M15.48 -45.11 C14.94 -44.48, 14.4 -43.85, 12.99 -42.19 M15.48 -45.11 C14.72 -44.22, 13.97 -43.33, 12.99 -42.19 M12.99 -42.19 C12.38 -41.36, 11.77 -40.53, 10.64 -39 M12.99 -42.19 C12.11 -40.99, 11.23 -39.8, 10.64 -39 M10.64 -39 C10.21 -38.25, 9.79 -37.5, 8.55 -35.28 M10.64 -39 C10.09 -38.04, 9.55 -37.07, 8.55 -35.28 M8.55 -35.28 C8.1 -34.32, 7.65 -33.36, 6.43 -30.71 M8.55 -35.28 C7.89 -33.87, 7.23 -32.45, 6.43 -30.71 M6.43 -30.71 C5.7 -28.91, 4.97 -27.11, 4.57 -26.14 M6.43 -30.71 C6.06 -29.8, 5.69 -28.88, 4.57 -26.14 M4.57 -26.14 C4.28 -25.21, 3.98 -24.28, 3.25 -21.97 M4.57 -26.14 C4.29 -25.26, 4.02 -24.38, 3.25 -21.97 M3.25 -21.97 C2.88 -20.42, 2.51 -18.88, 2.19 -17.53 M3.25 -21.97 C2.92 -20.61, 2.6 -19.24, 2.19 -17.53 M2.19 -17.53 C1.94 -16.71, 1.69 -15.89, 1.05 -13.75 M2.19 -17.53 C1.94 -16.69, 1.68 -15.84, 1.05 -13.75 M1.05 -13.75 C0.87 -12.48, 0.69 -11.21, 0.43 -9.43 M1.05 -13.75 C0.84 -12.27, 0.63 -10.8, 0.43 -9.43 M0.43 -9.43 C0.34 -8.11, 0.24 -6.79, 0.08 -4.71 M0.43 -9.43 C0.3 -7.68, 0.17 -5.93, 0.08 -4.71 M0.08 -4.71 C0.06 -3.15, 0.03 -1.59, 0 0 M0.08 -4.71 C0.06 -3.59, 0.04 -2.47, 0 0 M0 0 C0 0, 0 0, 0 0 M0 0 C0 0, 0 0, 0 0" stroke="#343a40" stroke-width="4" fill="none"></path></g></g><mask></mask><g stroke-linecap="round" transform="translate(161.41868704347348 208.3637186681599) rotate(0 38.130695677843846 38.13069567784396)"><path d="M76.26 38.13 C76.26 40.12, 76.1 42.13, 75.79 44.1 C75.48 46.06, 75.01 48.02, 74.4 49.91 C73.78 51.8, 73.01 53.67, 72.11 55.44 C71.2 57.21, 70.15 58.93, 68.98 60.54 C67.81 62.15, 66.5 63.69, 65.09 65.09 C63.69 66.5, 62.15 67.81, 60.54 68.98 C58.93 70.15, 57.21 71.2, 55.44 72.11 C53.67 73.01, 51.8 73.78, 49.91 74.4 C48.02 75.01, 46.06 75.48, 44.1 75.79 C42.13 76.1, 40.12 76.26, 38.13 76.26 C36.14 76.26, 34.13 76.1, 32.17 75.79 C30.2 75.48, 28.24 75.01, 26.35 74.4 C24.46 73.78, 22.59 73.01, 20.82 72.11 C19.05 71.2, 17.33 70.15, 15.72 68.98 C14.11 67.81, 12.57 66.5, 11.17 65.09 C9.76 63.69, 8.45 62.15, 7.28 60.54 C6.11 58.93, 5.06 57.21, 4.16 55.44 C3.25 53.67, 2.48 51.8, 1.87 49.91 C1.25 48.02, 0.78 46.06, 0.47 44.1 C0.16 42.13, 0 40.12, 0 38.13 C0 36.14, 0.16 34.13, 0.47 32.17 C0.78 30.2, 1.25 28.24, 1.87 26.35 C2.48 24.46, 3.25 22.59, 4.16 20.82 C5.06 19.05, 6.11 17.33, 7.28 15.72 C8.45 14.11, 9.76 12.57, 11.17 11.17 C12.57 9.76, 14.11 8.45, 15.72 7.28 C17.33 6.11, 19.05 5.06, 20.82 4.16 C22.59 3.25, 24.46 2.48, 26.35 1.87 C28.24 1.25, 30.2 0.78, 32.17 0.47 C34.13 0.16, 36.14 0, 38.13 0 C40.12 0, 42.13 0.16, 44.1 0.47 C46.06 0.78, 48.02 1.25, 49.91 1.87 C51.8 2.48, 53.67 3.25, 55.44 4.16 C57.21 5.06, 58.93 6.11, 60.54 7.28 C62.15 8.45, 63.69 9.76, 65.09 11.17 C66.5 12.57, 67.81 14.11, 68.98 15.72 C70.15 17.33, 71.2 19.05, 72.11 20.82 C73.01 22.59, 73.78 24.46, 74.4 26.35 C75.01 28.24, 75.48 30.2, 75.79 32.17 C76.1 34.13, 76.18 37.14, 76.26 38.13 C76.34 39.12, 76.34 37.14, 76.26 38.13" stroke="none" stroke-width="0" fill="#fab005"></path><path d="M76.26 38.13 C76.26 40.12, 76.1 42.13, 75.79 44.1 C75.48 46.06, 75.01 48.02, 74.4 49.91 C73.78 51.8, 73.01 53.67, 72.11 55.44 C71.2 57.21, 70.15 58.93, 68.98 60.54 C67.81 62.15, 66.5 63.69, 65.09 65.09 C63.69 66.5, 62.15 67.81, 60.54 68.98 C58.93 70.15, 57.21 71.2, 55.44 72.11 C53.67 73.01, 51.8 73.78, 49.91 74.4 C48.02 75.01, 46.06 75.48, 44.1 75.79 C42.13 76.1, 40.12 76.26, 38.13 76.26 C36.14 76.26, 34.13 76.1, 32.17 75.79 C30.2 75.48, 28.24 75.01, 26.35 74.4 C24.46 73.78, 22.59 73.01, 20.82 72.11 C19.05 71.2, 17.33 70.15, 15.72 68.98 C14.11 67.81, 12.57 66.5, 11.17 65.09 C9.76 63.69, 8.45 62.15, 7.28 60.54 C6.11 58.93, 5.06 57.21, 4.16 55.44 C3.25 53.67, 2.48 51.8, 1.87 49.91 C1.25 48.02, 0.78 46.06, 0.47 44.1 C0.16 42.13, 0 40.12, 0 38.13 C0 36.14, 0.16 34.13, 0.47 32.17 C0.78 30.2, 1.25 28.24, 1.87 26.35 C2.48 24.46, 3.25 22.59, 4.16 20.82 C5.06 19.05, 6.11 17.33, 7.28 15.72 C8.45 14.11, 9.76 12.57, 11.17 11.17 C12.57 9.76, 14.11 8.45, 15.72 7.28 C17.33 6.11, 19.05 5.06, 20.82 4.16 C22.59 3.25, 24.46 2.48, 26.35 1.87 C28.24 1.25, 30.2 0.78, 32.17 0.47 C34.13 0.16, 36.14 0, 38.13 0 C40.12 0, 42.13 0.16, 44.1 0.47 C46.06 0.78, 48.02 1.25, 49.91 1.87 C51.8 2.48, 53.67 3.25, 55.44 4.16 C57.21 5.06, 58.93 6.11, 60.54 7.28 C62.15 8.45, 63.69 9.76, 65.09 11.17 C66.5 12.57, 67.81 14.11, 68.98 15.72 C70.15 17.33, 71.2 19.05, 72.11 20.82 C73.01 22.59, 73.78 24.46, 74.4 26.35 C75.01 28.24, 75.48 30.2, 75.79 32.17 C76.1 34.13, 76.18 37.14, 76.26 38.13 C76.34 39.12, 76.34 37.14, 76.26 38.13" stroke="#343a40" stroke-width="4" fill="none"></path></g><g stroke-linecap="round"><g transform="translate(89.66223512733472 381.3046654942864) rotate(0 67.05743033000101 -35.17495690405758)" fill-rule="evenodd"><path d="M0 0 L134.11 0 L134.05 -8 L132.93 -16 L131.07 -23.63 L128.95 -29.27 L126.86 -32.88 L124.76 -36.88 L122.14 -40.82 L119.52 -44.22 L116.35 -48.31 L113.18 -51.07 L107.77 -55.52 L102.55 -59.39 L97.86 -62.2 L93.31 -64.35 L88.75 -66.23 L85.4 -67.29 L82.31 -68.35 L78.96 -69.15 L75.6 -69.69 L71.47 -70.08 L68.13 -70.22 L64.39 -70.35 L60.92 -69.69 L57.08 -69.51 L53.25 -69.06 L49.94 -67.95 L46.9 -66.84 L42.52 -65.4 L38.15 -63.69 L34.04 -61.32 L30.46 -58.95 L26.74 -56.35 L23.82 -53.76 L20.76 -51.03 L17.97 -47.77 L15.48 -45.11 L12.99 -42.19 L10.64 -39 L8.55 -35.28 L6.43 -30.71 L4.57 -26.14 L3.25 -21.97 L2.19 -17.53 L1.05 -13.75 L0.43 -9.43 L0.08 -4.71 L0 0" stroke="none" stroke-width="0" fill="#fab005" fill-rule="evenodd"></path><path d="M0 0 C48.67 0, 97.35 0, 134.11 0 M0 0 C32.8 0, 65.6 0, 134.11 0 M134.11 0 C134.1 -2.37, 134.08 -4.74, 134.05 -8 M134.11 0 C134.09 -2.79, 134.07 -5.58, 134.05 -8 M134.05 -8 C133.67 -10.73, 133.28 -13.47, 132.93 -16 M134.05 -8 C133.71 -10.4, 133.38 -12.8, 132.93 -16 M132.93 -16 C132.44 -18.01, 131.95 -20.03, 131.07 -23.63 M132.93 -16 C132.52 -17.69, 132.1 -19.38, 131.07 -23.63 M131.07 -23.63 C130.36 -25.5, 129.66 -27.38, 128.95 -29.27 M131.07 -23.63 C130.23 -25.87, 129.38 -28.11, 128.95 -29.27 M128.95 -29.27 C128.24 -30.5, 127.53 -31.72, 126.86 -32.88 M128.95 -29.27 C128.21 -30.55, 127.47 -31.82, 126.86 -32.88 M126.86 -32.88 C126.4 -33.75, 125.94 -34.63, 124.76 -36.88 M126.86 -32.88 C126.15 -34.23, 125.44 -35.59, 124.76 -36.88 M124.76 -36.88 C124.06 -37.93, 123.36 -38.98, 122.14 -40.82 M124.76 -36.88 C124.21 -37.7, 123.66 -38.53, 122.14 -40.82 M122.14 -40.82 C121.2 -42.04, 120.26 -43.26, 119.52 -44.22 M122.14 -40.82 C121.34 -41.86, 120.53 -42.9, 119.52 -44.22 M119.52 -44.22 C118.36 -45.72, 117.2 -47.22, 116.35 -48.31 M119.52 -44.22 C118.45 -45.6, 117.38 -46.98, 116.35 -48.31 M116.35 -48.31 C115.14 -49.36, 113.94 -50.41, 113.18 -51.07 M116.35 -48.31 C115.53 -49.02, 114.7 -49.74, 113.18 -51.07 M113.18 -51.07 C111.41 -52.52, 109.65 -53.98, 107.77 -55.52 M113.18 -51.07 C111.23 -52.67, 109.28 -54.28, 107.77 -55.52 M107.77 -55.52 C105.76 -57.01, 103.76 -58.5, 102.55 -59.39 M107.77 -55.52 C106.01 -56.83, 104.26 -58.13, 102.55 -59.39 M102.55 -59.39 C101.57 -59.98, 100.6 -60.56, 97.86 -62.2 M102.55 -59.39 C100.77 -60.46, 98.99 -61.53, 97.86 -62.2 M97.86 -62.2 C96.3 -62.94, 94.73 -63.68, 93.31 -64.35 M97.86 -62.2 C96.71 -62.74, 95.56 -63.29, 93.31 -64.35 M93.31 -64.35 C92.19 -64.81, 91.07 -65.27, 88.75 -66.23 M93.31 -64.35 C91.6 -65.05, 89.89 -65.76, 88.75 -66.23 M88.75 -66.23 C87.74 -66.55, 86.73 -66.87, 85.4 -67.29 M88.75 -66.23 C87.74 -66.55, 86.72 -66.87, 85.4 -67.29 M85.4 -67.29 C84.65 -67.55, 83.89 -67.81, 82.31 -68.35 M85.4 -67.29 C84.76 -67.51, 84.13 -67.73, 82.31 -68.35 M82.31 -68.35 C81.05 -68.65, 79.8 -68.95, 78.96 -69.15 M82.31 -68.35 C81.11 -68.64, 79.91 -68.93, 78.96 -69.15 M78.96 -69.15 C77.68 -69.36, 76.41 -69.56, 75.6 -69.69 M78.96 -69.15 C78.26 -69.26, 77.57 -69.37, 75.6 -69.69 M75.6 -69.69 C74.15 -69.83, 72.7 -69.97, 71.47 -70.08 M75.6 -69.69 C74.5 -69.79, 73.39 -69.9, 71.47 -70.08 M71.47 -70.08 C70.79 -70.11, 70.12 -70.14, 68.13 -70.22 M71.47 -70.08 C70.15 -70.14, 68.84 -70.19, 68.13 -70.22 M68.13 -70.22 C67.04 -70.26, 65.96 -70.29, 64.39 -70.35 M68.13 -70.22 C67.15 -70.25, 66.17 -70.29, 64.39 -70.35 M64.39 -70.35 C63.59 -70.2, 62.78 -70.04, 60.92 -69.69 M64.39 -70.35 C63.5 -70.18, 62.6 -70.01, 60.92 -69.69 M60.92 -69.69 C59.67 -69.63, 58.42 -69.57, 57.08 -69.51 M60.92 -69.69 C59.59 -69.62, 58.25 -69.56, 57.08 -69.51 M57.08 -69.51 C55.69 -69.34, 54.3 -69.18, 53.25 -69.06 M57.08 -69.51 C55.66 -69.34, 54.24 -69.17, 53.25 -69.06 M53.25 -69.06 C52.39 -68.77, 51.54 -68.48, 49.94 -67.95 M53.25 -69.06 C52.23 -68.72, 51.21 -68.37, 49.94 -67.95 M49.94 -67.95 C49.15 -67.66, 48.37 -67.37, 46.9 -66.84 M49.94 -67.95 C48.79 -67.53, 47.63 -67.11, 46.9 -66.84 M46.9 -66.84 C45.3 -66.31, 43.7 -65.78, 42.52 -65.4 M46.9 -66.84 C45.55 -66.4, 44.21 -65.95, 42.52 -65.4 M42.52 -65.4 C40.97 -64.79, 39.41 -64.18, 38.15 -63.69 M42.52 -65.4 C41.6 -65.04, 40.67 -64.68, 38.15 -63.69 M38.15 -63.69 C36.53 -62.75, 34.91 -61.82, 34.04 -61.32 M38.15 -63.69 C36.98 -63.02, 35.81 -62.34, 34.04 -61.32 M34.04 -61.32 C33.1 -60.7, 32.17 -60.08, 30.46 -58.95 M34.04 -61.32 C33.07 -60.67, 32.09 -60.03, 30.46 -58.95 M30.46 -58.95 C29.11 -58, 27.75 -57.06, 26.74 -56.35 M30.46 -58.95 C29.13 -58.02, 27.79 -57.09, 26.74 -56.35 M26.74 -56.35 C25.69 -55.42, 24.65 -54.49, 23.82 -53.76 M26.74 -56.35 C26.03 -55.72, 25.31 -55.08, 23.82 -53.76 M23.82 -53.76 C22.7 -52.76, 21.58 -51.76, 20.76 -51.03 M23.82 -53.76 C23.12 -53.13, 22.42 -52.51, 20.76 -51.03 M20.76 -51.03 C19.65 -49.74, 18.55 -48.45, 17.97 -47.77 M20.76 -51.03 C19.95 -50.09, 19.14 -49.14, 17.97 -47.77 M17.97 -47.77 C17.07 -46.81, 16.16 -45.84, 15.48 -45.11 M17.97 -47.77 C17.05 -46.79, 16.13 -45.81, 15.48 -45.11 M15.48 -45.11 C14.73 -44.23, 13.98 -43.35, 12.99 -42.19 M15.48 -45.11 C14.87 -44.39, 14.25 -43.67, 12.99 -42.19 M12.99 -42.19 C12.07 -40.95, 11.16 -39.7, 10.64 -39 M12.99 -42.19 C12.45 -41.45, 11.9 -40.71, 10.64 -39 M10.64 -39 C9.87 -37.63, 9.1 -36.27, 8.55 -35.28 M10.64 -39 C10.15 -38.13, 9.66 -37.26, 8.55 -35.28 M8.55 -35.28 C7.8 -33.67, 7.05 -32.05, 6.43 -30.71 M8.55 -35.28 C8.02 -34.14, 7.48 -32.99, 6.43 -30.71 M6.43 -30.71 C5.94 -29.51, 5.45 -28.3, 4.57 -26.14 M6.43 -30.71 C5.97 -29.59, 5.52 -28.46, 4.57 -26.14 M4.57 -26.14 C4.27 -25.17, 3.96 -24.2, 3.25 -21.97 M4.57 -26.14 C4.26 -25.17, 3.95 -24.19, 3.25 -21.97 M3.25 -21.97 C3.01 -20.95, 2.77 -19.94, 2.19 -17.53 M3.25 -21.97 C2.87 -20.39, 2.49 -18.8, 2.19 -17.53 M2.19 -17.53 C1.87 -16.48, 1.56 -15.43, 1.05 -13.75 M2.19 -17.53 C1.77 -16.13, 1.35 -14.74, 1.05 -13.75 M1.05 -13.75 C0.88 -12.56, 0.71 -11.37, 0.43 -9.43 M1.05 -13.75 C0.85 -12.37, 0.66 -11, 0.43 -9.43 M0.43 -9.43 C0.36 -8.44, 0.29 -7.44, 0.08 -4.71 M0.43 -9.43 C0.36 -8.38, 0.28 -7.33, 0.08 -4.71 M0.08 -4.71 C0.05 -2.9, 0.02 -1.09, 0 0 M0.08 -4.71 C0.05 -3.02, 0.02 -1.33, 0 0 M0 0 C0 0, 0 0, 0 0 M0 0 C0 0, 0 0, 0 0" stroke="#343a40" stroke-width="4" fill="none"></path></g></g><mask></mask><g stroke-linecap="round" transform="translate(118.5889697794878 232.28815364983848) rotate(0 38.130695677843846 38.13069567784396)"><path d="M76.26 38.13 C76.26 40.12, 76.1 42.13, 75.79 44.1 C75.48 46.06, 75.01 48.02, 74.4 49.91 C73.78 51.8, 73.01 53.67, 72.11 55.44 C71.2 57.21, 70.15 58.93, 68.98 60.54 C67.81 62.15, 66.5 63.69, 65.09 65.09 C63.69 66.5, 62.15 67.81, 60.54 68.98 C58.93 70.15, 57.21 71.2, 55.44 72.11 C53.67 73.01, 51.8 73.78, 49.91 74.4 C48.02 75.01, 46.06 75.48, 44.1 75.79 C42.13 76.1, 40.12 76.26, 38.13 76.26 C36.14 76.26, 34.13 76.1, 32.17 75.79 C30.2 75.48, 28.24 75.01, 26.35 74.4 C24.46 73.78, 22.59 73.01, 20.82 72.11 C19.05 71.2, 17.33 70.15, 15.72 68.98 C14.11 67.81, 12.57 66.5, 11.17 65.09 C9.76 63.69, 8.45 62.15, 7.28 60.54 C6.11 58.93, 5.06 57.21, 4.16 55.44 C3.25 53.67, 2.48 51.8, 1.87 49.91 C1.25 48.02, 0.78 46.06, 0.47 44.1 C0.16 42.13, 0 40.12, 0 38.13 C0 36.14, 0.16 34.13, 0.47 32.17 C0.78 30.2, 1.25 28.24, 1.87 26.35 C2.48 24.46, 3.25 22.59, 4.16 20.82 C5.06 19.05, 6.11 17.33, 7.28 15.72 C8.45 14.11, 9.76 12.57, 11.17 11.17 C12.57 9.76, 14.11 8.45, 15.72 7.28 C17.33 6.11, 19.05 5.06, 20.82 4.16 C22.59 3.25, 24.46 2.48, 26.35 1.87 C28.24 1.25, 30.2 0.78, 32.17 0.47 C34.13 0.16, 36.14 0, 38.13 0 C40.12 0, 42.13 0.16, 44.1 0.47 C46.06 0.78, 48.02 1.25, 49.91 1.87 C51.8 2.48, 53.67 3.25, 55.44 4.16 C57.21 5.06, 58.93 6.11, 60.54 7.28 C62.15 8.45, 63.69 9.76, 65.09 11.17 C66.5 12.57, 67.81 14.11, 68.98 15.72 C70.15 17.33, 71.2 19.05, 72.11 20.82 C73.01 22.59, 73.78 24.46, 74.4 26.35 C75.01 28.24, 75.48 30.2, 75.79 32.17 C76.1 34.13, 76.18 37.14, 76.26 38.13 C76.34 39.12, 76.34 37.14, 76.26 38.13" stroke="none" stroke-width="0" fill="#fab005"></path><path d="M76.26 38.13 C76.26 40.12, 76.1 42.13, 75.79 44.1 C75.48 46.06, 75.01 48.02, 74.4 49.91 C73.78 51.8, 73.01 53.67, 72.11 55.44 C71.2 57.21, 70.15 58.93, 68.98 60.54 C67.81 62.15, 66.5 63.69, 65.09 65.09 C63.69 66.5, 62.15 67.81, 60.54 68.98 C58.93 70.15, 57.21 71.2, 55.44 72.11 C53.67 73.01, 51.8 73.78, 49.91 74.4 C48.02 75.01, 46.06 75.48, 44.1 75.79 C42.13 76.1, 40.12 76.26, 38.13 76.26 C36.14 76.26, 34.13 76.1, 32.17 75.79 C30.2 75.48, 28.24 75.01, 26.35 74.4 C24.46 73.78, 22.59 73.01, 20.82 72.11 C19.05 71.2, 17.33 70.15, 15.72 68.98 C14.11 67.81, 12.57 66.5, 11.17 65.09 C9.76 63.69, 8.45 62.15, 7.28 60.54 C6.11 58.93, 5.06 57.21, 4.16 55.44 C3.25 53.67, 2.48 51.8, 1.87 49.91 C1.25 48.02, 0.78 46.06, 0.47 44.1 C0.16 42.13, 0 40.12, 0 38.13 C0 36.14, 0.16 34.13, 0.47 32.17 C0.78 30.2, 1.25 28.24, 1.87 26.35 C2.48 24.46, 3.25 22.59, 4.16 20.82 C5.06 19.05, 6.11 17.33, 7.28 15.72 C8.45 14.11, 9.76 12.57, 11.17 11.17 C12.57 9.76, 14.11 8.45, 15.72 7.28 C17.33 6.11, 19.05 5.06, 20.82 4.16 C22.59 3.25, 24.46 2.48, 26.35 1.87 C28.24 1.25, 30.2 0.78, 32.17 0.47 C34.13 0.16, 36.14 0, 38.13 0 C40.12 0, 42.13 0.16, 44.1 0.47 C46.06 0.78, 48.02 1.25, 49.91 1.87 C51.8 2.48, 53.67 3.25, 55.44 4.16 C57.21 5.06, 58.93 6.11, 60.54 7.28 C62.15 8.45, 63.69 9.76, 65.09 11.17 C66.5 12.57, 67.81 14.11, 68.98 15.72 C70.15 17.33, 71.2 19.05, 72.11 20.82 C73.01 22.59, 73.78 24.46, 74.4 26.35 C75.01 28.24, 75.48 30.2, 75.79 32.17 C76.1 34.13, 76.18 37.14, 76.26 38.13 C76.34 39.12, 76.34 37.14, 76.26 38.13" stroke="#343a40" stroke-width="4" fill="none"></path></g><g transform="translate(636.2206375215076 34.56782004877323) rotate(0 111.5 17.5)"><text x="111.5" y="25" font-family="Virgil, Segoe UI Emoji" font-size="28px" fill="#343a40" text-anchor="middle" style="white-space: pre;" direction="ltr">Getting Ready...</text></g><g transform="translate(873.8126041088417 10) rotate(0 30 41)"><text x="30" y="61" font-family="Virgil, Segoe UI Emoji" font-size="56.91319835555073px" fill="#343a40" text-anchor="middle" style="white-space: pre;" direction="ltr">⏳</text></g><g stroke-linecap="round" transform="translate(290.63819901053967 293.84056856816096) rotate(0 26.117597528444776 30.150005697919596)"><path d="M13.06 0 L42.24 0.2 L47.13 1.84 L50.4 5.1 L52.24 13.06 L52.24 47.24 L50.4 55.2 L47.13 58.46 L39.18 60.3 L10 60.1 L5.1 58.46 L1.84 55.2 L0 47.24 L0.2 10 L0.82 7.35 L3.26 3.26 L7.35 0.82 L13.06 0" stroke="none" stroke-width="0" fill="#263238"></path><path d="M13.06 0 M13.06 0 C20.61 0, 28.15 0, 39.18 0 M13.06 0 C19.53 0, 25.99 0, 39.18 0 M39.18 0 C47.88 0, 52.24 4.35, 52.24 13.06 M39.18 0 C47.88 0, 52.24 4.35, 52.24 13.06 M52.24 13.06 C52.24 25.81, 52.24 38.57, 52.24 47.24 M52.24 13.06 C52.24 22.13, 52.24 31.19, 52.24 47.24 M52.24 47.24 C52.24 55.95, 47.88 60.3, 39.18 60.3 M52.24 47.24 C52.24 55.95, 47.88 60.3, 39.18 60.3 M39.18 60.3 C32.23 60.3, 25.28 60.3, 13.06 60.3 M39.18 60.3 C31.01 60.3, 22.84 60.3, 13.06 60.3 M13.06 60.3 C4.35 60.3, 0 55.95, 0 47.24 M13.06 60.3 C4.35 60.3, 0 55.95, 0 47.24 M0 47.24 C0 33.68, 0 20.12, 0 13.06 M0 47.24 C0 39.62, 0 32, 0 13.06 M0 13.06 C0 4.35, 4.35 0, 13.06 0 M0 13.06 C0 4.35, 4.35 0, 13.06 0" stroke="transparent" stroke-width="1" fill="none"></path></g><g stroke-linecap="round"><g transform="translate(332.0559389081827 309.26813353280886) rotate(0 -0.5155685511336969 15.131699486210437)" fill-rule="evenodd"><path d="M0 0 L-5.11 -0.12 L-5.11 -5.59 L4.08 -5.59 L4.17 35.8 L-5.2 35.86 L-5.16 30.44 L-0.13 30.38 L0 0" stroke="none" stroke-width="0" fill="#fab005" fill-rule="evenodd"></path><path d="M0 0 C-1.7 -0.04, -3.4 -0.08, -5.11 -0.12 M-5.11 -0.12 C-5.11 -1.52, -5.11 -2.92, -5.11 -5.59 M-5.11 -5.59 C-1.95 -5.59, 1.22 -5.59, 4.08 -5.59 M4.08 -5.59 C4.1 4.95, 4.13 15.49, 4.17 35.8 M4.17 35.8 C2.06 35.81, -0.06 35.82, -5.2 35.86 M-5.2 35.86 C-5.19 34.31, -5.17 32.76, -5.16 30.44 M-5.16 30.44 C-3.55 30.42, -1.95 30.4, -0.13 30.38 M-0.13 30.38 C-0.1 23.06, -0.07 15.73, 0 0 M0 0 C0 0, 0 0, 0 0" stroke="transparent" stroke-width="1.5" fill="none" stroke-dasharray="1.5 7"></path></g></g><mask></mask><g stroke-linecap="round"><g transform="translate(303.6577064946491 309.51394533534767) rotate(180.18482445412155 -0.5256975832028274 15.131699486210437)" fill-rule="evenodd"><path d="M0 0 L-5.21 -0.12 L-5.21 -5.59 L4.16 -5.59 L4.25 35.8 L-5.3 35.86 L-5.26 30.44 L-0.14 30.38 L0 0" stroke="none" stroke-width="0" fill="#fab005" fill-rule="evenodd"></path><path d="M0 0 C-1.52 -0.03, -3.04 -0.07, -5.21 -0.12 M-5.21 -0.12 C-5.21 -1.24, -5.21 -2.37, -5.21 -5.59 M-5.21 -5.59 C-2.31 -5.59, 0.6 -5.59, 4.16 -5.59 M4.16 -5.59 C4.18 5.44, 4.21 16.47, 4.25 35.8 M4.25 35.8 C2.25 35.81, 0.25 35.82, -5.3 35.86 M-5.3 35.86 C-5.29 34.55, -5.28 33.23, -5.26 30.44 M-5.26 30.44 C-3.71 30.42, -2.17 30.4, -0.14 30.38 M-0.14 30.38 C-0.1 22.77, -0.07 15.17, 0 0 M0 0 C0 0, 0 0, 0 0" stroke="transparent" stroke-width="1.5" fill="none" stroke-dasharray="1.5 7"></path></g></g><mask></mask><g stroke-linecap="round"><g transform="translate(314.3851597267585 325.12532336543154) rotate(0 0.40625554345353976 0.00922135739551777)" fill-rule="evenodd"><path d="M0 0 L1.43 -3.4 L0.29 -3.02 L-0.63 -0.19 L0.34 3.08 L1.41 3.42 L0 0" stroke="none" stroke-width="0" fill="#fab005" fill-rule="evenodd"></path><path d="M0 0 C0.02 -0.01, 0.09 -0.04, 0.14 -0.06 C0.18 -0.09, 0.22 -0.12, 0.26 -0.15 C0.31 -0.19, 0.36 -0.23, 0.4 -0.28 C0.44 -0.33, 0.49 -0.39, 0.52 -0.44 C0.55 -0.49, 0.57 -0.51, 0.59 -0.57 C0.61 -0.63, 0.65 -0.73, 0.67 -0.81 C0.69 -0.88, 0.69 -0.85, 0.7 -1 C0.71 -1.15, 0.72 -1.53, 0.73 -1.71 C0.73 -1.89, 0.72 -1.96, 0.72 -2.06 C0.72 -2.17, 0.72 -2.28, 0.73 -2.36 C0.74 -2.44, 0.75 -2.5, 0.76 -2.55 C0.77 -2.6, 0.78 -2.63, 0.8 -2.67 C0.82 -2.71, 0.86 -2.74, 0.89 -2.77 C0.93 -2.79, 0.96 -2.82, 1.01 -2.83 C1.06 -2.85, 1.14 -2.85, 1.19 -2.85 C1.25 -2.86, 1.29 -2.85, 1.33 -2.85 C1.37 -2.85, 1.41 -2.83, 1.43 -2.85 C1.44 -2.87, 1.43 -2.9, 1.43 -2.95 C1.43 -3, 1.43 -3.08, 1.43 -3.14 C1.43 -3.19, 1.43 -3.23, 1.43 -3.27 C1.43 -3.32, 1.45 -3.38, 1.43 -3.4 C1.41 -3.43, 1.36 -3.41, 1.31 -3.42 C1.27 -3.42, 1.22 -3.42, 1.16 -3.42 C1.1 -3.41, 1.01 -3.41, 0.93 -3.4 C0.85 -3.39, 0.76 -3.37, 0.69 -3.34 C0.61 -3.32, 0.54 -3.3, 0.47 -3.24 C0.41 -3.19, 0.34 -3.09, 0.29 -3.02 C0.24 -2.94, 0.21 -2.88, 0.18 -2.79 C0.16 -2.7, 0.15 -2.64, 0.14 -2.48 C0.12 -2.32, 0.11 -2.02, 0.11 -1.85 C0.1 -1.68, 0.11 -1.59, 0.11 -1.45 C0.11 -1.32, 0.11 -1.15, 0.1 -1.02 C0.08 -0.89, 0.06 -0.77, 0.02 -0.68 C-0.02 -0.59, -0.08 -0.53, -0.14 -0.47 C-0.21 -0.42, -0.3 -0.37, -0.36 -0.34 C-0.43 -0.31, -0.49 -0.31, -0.53 -0.3 C-0.57 -0.29, -0.6 -0.3, -0.61 -0.28 C-0.63 -0.26, -0.63 -0.24, -0.63 -0.19 C-0.63 -0.14, -0.63 -0.03, -0.63 0.04 C-0.63 0.1, -0.63 0.15, -0.63 0.2 C-0.63 0.24, -0.64 0.28, -0.62 0.3 C-0.6 0.32, -0.57 0.3, -0.52 0.31 C-0.47 0.31, -0.39 0.32, -0.33 0.34 C-0.27 0.36, -0.23 0.39, -0.18 0.43 C-0.14 0.47, -0.09 0.51, -0.06 0.56 C-0.03 0.6, -0.01 0.65, 0.01 0.7 C0.03 0.75, 0.04 0.79, 0.06 0.85 C0.07 0.9, 0.08 0.96, 0.09 1.02 C0.1 1.09, 0.09 1.01, 0.1 1.23 C0.1 1.45, 0.11 2.09, 0.12 2.35 C0.13 2.6, 0.14 2.63, 0.17 2.75 C0.21 2.88, 0.26 2.98, 0.34 3.08 C0.41 3.17, 0.52 3.26, 0.62 3.32 C0.72 3.37, 0.84 3.39, 0.95 3.41 C1.07 3.43, 1.23 3.43, 1.3 3.44 C1.38 3.44, 1.39 3.44, 1.41 3.42 C1.43 3.4, 1.42 3.37, 1.43 3.34 C1.43 3.31, 1.44 3.27, 1.44 3.23 C1.44 3.19, 1.45 3.14, 1.45 3.09 C1.45 3.05, 1.44 3.01, 1.44 2.97 C1.44 2.93, 1.46 2.88, 1.43 2.86 C1.39 2.84, 1.32 2.85, 1.26 2.85 C1.2 2.84, 1.12 2.85, 1.06 2.83 C1 2.82, 0.94 2.8, 0.89 2.77 C0.85 2.73, 0.81 2.7, 0.78 2.65 C0.76 2.6, 0.74 2.52, 0.73 2.47 C0.72 2.41, 0.72 2.41, 0.72 2.29 C0.72 2.18, 0.73 1.95, 0.73 1.79 C0.73 1.62, 0.72 1.42, 0.72 1.31 C0.72 1.19, 0.72 1.17, 0.71 1.1 C0.7 1.04, 0.69 0.98, 0.68 0.92 C0.67 0.86, 0.67 0.79, 0.65 0.73 C0.63 0.66, 0.61 0.6, 0.58 0.54 C0.55 0.48, 0.51 0.42, 0.48 0.37 C0.44 0.31, 0.42 0.27, 0.37 0.23 C0.32 0.18, 0.24 0.13, 0.18 0.1 C0.12 0.06, 0.03 0.02, 0 0 M0 0 C0.02 -0.01, 0.09 -0.04, 0.14 -0.06 C0.18 -0.09, 0.22 -0.12, 0.26 -0.15 C0.31 -0.19, 0.36 -0.23, 0.4 -0.28 C0.44 -0.33, 0.49 -0.39, 0.52 -0.44 C0.55 -0.49, 0.57 -0.51, 0.59 -0.57 C0.61 -0.63, 0.65 -0.73, 0.67 -0.81 C0.69 -0.88, 0.69 -0.85, 0.7 -1 C0.71 -1.15, 0.72 -1.53, 0.73 -1.71 C0.73 -1.89, 0.72 -1.96, 0.72 -2.06 C0.72 -2.17, 0.72 -2.28, 0.73 -2.36 C0.74 -2.44, 0.75 -2.5, 0.76 -2.55 C0.77 -2.6, 0.78 -2.63, 0.8 -2.67 C0.82 -2.71, 0.86 -2.74, 0.89 -2.77 C0.93 -2.79, 0.96 -2.82, 1.01 -2.83 C1.06 -2.85, 1.14 -2.85, 1.19 -2.85 C1.25 -2.86, 1.29 -2.85, 1.33 -2.85 C1.37 -2.85, 1.41 -2.83, 1.43 -2.85 C1.44 -2.87, 1.43 -2.9, 1.43 -2.95 C1.43 -3, 1.43 -3.08, 1.43 -3.14 C1.43 -3.19, 1.43 -3.23, 1.43 -3.27 C1.43 -3.32, 1.45 -3.38, 1.43 -3.4 C1.41 -3.43, 1.36 -3.41, 1.31 -3.42 C1.27 -3.42, 1.22 -3.42, 1.16 -3.42 C1.1 -3.41, 1.01 -3.41, 0.93 -3.4 C0.85 -3.39, 0.76 -3.37, 0.69 -3.34 C0.61 -3.32, 0.54 -3.3, 0.47 -3.24 C0.41 -3.19, 0.34 -3.09, 0.29 -3.02 C0.24 -2.94, 0.21 -2.88, 0.18 -2.79 C0.16 -2.7, 0.15 -2.64, 0.14 -2.48 C0.12 -2.32, 0.11 -2.02, 0.11 -1.85 C0.1 -1.68, 0.11 -1.59, 0.11 -1.45 C0.11 -1.32, 0.11 -1.15, 0.1 -1.02 C0.08 -0.89, 0.06 -0.77, 0.02 -0.68 C-0.02 -0.59, -0.08 -0.53, -0.14 -0.47 C-0.21 -0.42, -0.3 -0.37, -0.36 -0.34 C-0.43 -0.31, -0.49 -0.31, -0.53 -0.3 C-0.57 -0.29, -0.6 -0.3, -0.61 -0.28 C-0.63 -0.26, -0.63 -0.24, -0.63 -0.19 C-0.63 -0.14, -0.63 -0.03, -0.63 0.04 C-0.63 0.1, -0.63 0.15, -0.63 0.2 C-0.63 0.24, -0.64 0.28, -0.62 0.3 C-0.6 0.32, -0.57 0.3, -0.52 0.31 C-0.47 0.31, -0.39 0.32, -0.33 0.34 C-0.27 0.36, -0.23 0.39, -0.18 0.43 C-0.14 0.47, -0.09 0.51, -0.06 0.56 C-0.03 0.6, -0.01 0.65, 0.01 0.7 C0.03 0.75, 0.04 0.79, 0.06 0.85 C0.07 0.9, 0.08 0.96, 0.09 1.02 C0.1 1.09, 0.09 1.01, 0.1 1.23 C0.1 1.45, 0.11 2.09, 0.12 2.35 C0.13 2.6, 0.14 2.63, 0.17 2.75 C0.21 2.88, 0.26 2.98, 0.34 3.08 C0.41 3.17, 0.52 3.26, 0.62 3.32 C0.72 3.37, 0.84 3.39, 0.95 3.41 C1.07 3.43, 1.23 3.43, 1.3 3.44 C1.38 3.44, 1.39 3.44, 1.41 3.42 C1.43 3.4, 1.42 3.37, 1.43 3.34 C1.43 3.31, 1.44 3.27, 1.44 3.23 C1.44 3.19, 1.45 3.14, 1.45 3.09 C1.45 3.05, 1.44 3.01, 1.44 2.97 C1.44 2.93, 1.46 2.88, 1.43 2.86 C1.39 2.84, 1.32 2.85, 1.26 2.85 C1.2 2.84, 1.12 2.85, 1.06 2.83 C1 2.82, 0.94 2.8, 0.89 2.77 C0.85 2.73, 0.81 2.7, 0.78 2.65 C0.76 2.6, 0.74 2.52, 0.73 2.47 C0.72 2.41, 0.72 2.41, 0.72 2.29 C0.72 2.18, 0.73 1.95, 0.73 1.79 C0.73 1.62, 0.72 1.42, 0.72 1.31 C0.72 1.19, 0.72 1.17, 0.71 1.1 C0.7 1.04, 0.69 0.98, 0.68 0.92 C0.67 0.86, 0.67 0.79, 0.65 0.73 C0.63 0.66, 0.61 0.6, 0.58 0.54 C0.55 0.48, 0.51 0.42, 0.48 0.37 C0.44 0.31, 0.42 0.27, 0.37 0.23 C0.32 0.18, 0.24 0.13, 0.18 0.1 C0.12 0.06, 0.03 0.02, 0 0" stroke="#fab005" stroke-width="1" fill="none"></path></g></g><mask></mask><g stroke-linecap="round"><g transform="translate(319.4927944267906 325.1007416534121) rotate(0 -0.39490680412427537 0.00922135739551777)" fill-rule="evenodd"><path d="M0 0 L-1.39 -3.4 L-0.28 -3.02 L0.61 -0.19 L-0.33 3.08 L-1.37 3.42 L0 0" stroke="none" stroke-width="0" fill="#fab005" fill-rule="evenodd"></path><path d="M0 0 C-0.02 -0.01, -0.09 -0.04, -0.13 -0.06 C-0.18 -0.09, -0.21 -0.12, -0.26 -0.15 C-0.3 -0.19, -0.35 -0.23, -0.39 -0.28 C-0.43 -0.33, -0.48 -0.39, -0.51 -0.44 C-0.54 -0.49, -0.55 -0.51, -0.57 -0.57 C-0.6 -0.63, -0.63 -0.73, -0.65 -0.81 C-0.67 -0.88, -0.67 -0.85, -0.68 -1 C-0.69 -1.15, -0.7 -1.53, -0.71 -1.71 C-0.71 -1.89, -0.7 -1.96, -0.7 -2.06 C-0.7 -2.17, -0.7 -2.28, -0.71 -2.36 C-0.72 -2.44, -0.73 -2.5, -0.74 -2.55 C-0.75 -2.6, -0.76 -2.63, -0.78 -2.67 C-0.8 -2.71, -0.83 -2.74, -0.87 -2.77 C-0.9 -2.79, -0.93 -2.82, -0.98 -2.83 C-1.03 -2.85, -1.11 -2.85, -1.16 -2.85 C-1.21 -2.86, -1.26 -2.85, -1.3 -2.85 C-1.33 -2.85, -1.37 -2.83, -1.39 -2.85 C-1.4 -2.87, -1.39 -2.9, -1.39 -2.95 C-1.39 -3, -1.39 -3.08, -1.39 -3.14 C-1.39 -3.19, -1.39 -3.23, -1.39 -3.27 C-1.39 -3.32, -1.41 -3.38, -1.39 -3.4 C-1.37 -3.43, -1.32 -3.41, -1.28 -3.42 C-1.23 -3.42, -1.19 -3.42, -1.13 -3.42 C-1.07 -3.41, -0.98 -3.41, -0.9 -3.4 C-0.82 -3.39, -0.74 -3.37, -0.67 -3.34 C-0.59 -3.32, -0.52 -3.3, -0.46 -3.24 C-0.4 -3.19, -0.33 -3.09, -0.28 -3.02 C-0.23 -2.94, -0.2 -2.88, -0.18 -2.79 C-0.15 -2.7, -0.14 -2.64, -0.13 -2.48 C-0.12 -2.32, -0.11 -2.02, -0.11 -1.85 C-0.1 -1.68, -0.11 -1.59, -0.11 -1.45 C-0.11 -1.32, -0.11 -1.15, -0.09 -1.02 C-0.08 -0.89, -0.05 -0.77, -0.02 -0.68 C0.02 -0.59, 0.08 -0.53, 0.14 -0.47 C0.2 -0.42, 0.29 -0.37, 0.35 -0.34 C0.41 -0.31, 0.47 -0.31, 0.52 -0.3 C0.56 -0.29, 0.58 -0.3, 0.6 -0.28 C0.61 -0.26, 0.61 -0.24, 0.61 -0.19 C0.61 -0.14, 0.61 -0.03, 0.61 0.04 C0.61 0.1, 0.61 0.15, 0.61 0.2 C0.61 0.24, 0.62 0.28, 0.6 0.3 C0.59 0.32, 0.55 0.3, 0.51 0.31 C0.46 0.31, 0.38 0.32, 0.32 0.34 C0.26 0.36, 0.22 0.39, 0.18 0.43 C0.13 0.47, 0.09 0.51, 0.06 0.56 C0.03 0.6, 0.01 0.65, -0.01 0.7 C-0.03 0.75, -0.04 0.79, -0.05 0.85 C-0.07 0.9, -0.08 0.96, -0.09 1.02 C-0.09 1.09, -0.09 1.01, -0.09 1.23 C-0.1 1.45, -0.1 2.09, -0.12 2.35 C-0.13 2.6, -0.13 2.63, -0.17 2.75 C-0.2 2.88, -0.26 2.98, -0.33 3.08 C-0.4 3.17, -0.5 3.26, -0.6 3.32 C-0.7 3.37, -0.81 3.39, -0.92 3.41 C-1.04 3.43, -1.19 3.43, -1.27 3.44 C-1.34 3.44, -1.35 3.44, -1.37 3.42 C-1.39 3.4, -1.38 3.37, -1.39 3.34 C-1.39 3.31, -1.4 3.27, -1.4 3.23 C-1.4 3.19, -1.41 3.14, -1.41 3.09 C-1.41 3.05, -1.4 3.01, -1.4 2.97 C-1.4 2.93, -1.42 2.88, -1.39 2.86 C-1.36 2.84, -1.28 2.85, -1.22 2.85 C-1.16 2.84, -1.09 2.85, -1.03 2.83 C-0.97 2.82, -0.91 2.8, -0.87 2.77 C-0.82 2.73, -0.79 2.7, -0.76 2.65 C-0.73 2.6, -0.72 2.52, -0.71 2.47 C-0.7 2.41, -0.7 2.41, -0.7 2.29 C-0.7 2.18, -0.71 1.95, -0.71 1.79 C-0.71 1.62, -0.7 1.42, -0.7 1.31 C-0.7 1.19, -0.7 1.17, -0.69 1.1 C-0.68 1.04, -0.67 0.98, -0.66 0.92 C-0.65 0.86, -0.65 0.79, -0.63 0.73 C-0.62 0.66, -0.59 0.6, -0.56 0.54 C-0.53 0.48, -0.5 0.42, -0.46 0.37 C-0.43 0.31, -0.41 0.27, -0.36 0.23 C-0.31 0.18, -0.23 0.13, -0.17 0.1 C-0.11 0.06, -0.03 0.02, 0 0 M0 0 C-0.02 -0.01, -0.09 -0.04, -0.13 -0.06 C-0.18 -0.09, -0.21 -0.12, -0.26 -0.15 C-0.3 -0.19, -0.35 -0.23, -0.39 -0.28 C-0.43 -0.33, -0.48 -0.39, -0.51 -0.44 C-0.54 -0.49, -0.55 -0.51, -0.57 -0.57 C-0.6 -0.63, -0.63 -0.73, -0.65 -0.81 C-0.67 -0.88, -0.67 -0.85, -0.68 -1 C-0.69 -1.15, -0.7 -1.53, -0.71 -1.71 C-0.71 -1.89, -0.7 -1.96, -0.7 -2.06 C-0.7 -2.17, -0.7 -2.28, -0.71 -2.36 C-0.72 -2.44, -0.73 -2.5, -0.74 -2.55 C-0.75 -2.6, -0.76 -2.63, -0.78 -2.67 C-0.8 -2.71, -0.83 -2.74, -0.87 -2.77 C-0.9 -2.79, -0.93 -2.82, -0.98 -2.83 C-1.03 -2.85, -1.11 -2.85, -1.16 -2.85 C-1.21 -2.86, -1.26 -2.85, -1.3 -2.85 C-1.33 -2.85, -1.37 -2.83, -1.39 -2.85 C-1.4 -2.87, -1.39 -2.9, -1.39 -2.95 C-1.39 -3, -1.39 -3.08, -1.39 -3.14 C-1.39 -3.19, -1.39 -3.23, -1.39 -3.27 C-1.39 -3.32, -1.41 -3.38, -1.39 -3.4 C-1.37 -3.43, -1.32 -3.41, -1.28 -3.42 C-1.23 -3.42, -1.19 -3.42, -1.13 -3.42 C-1.07 -3.41, -0.98 -3.41, -0.9 -3.4 C-0.82 -3.39, -0.74 -3.37, -0.67 -3.34 C-0.59 -3.32, -0.52 -3.3, -0.46 -3.24 C-0.4 -3.19, -0.33 -3.09, -0.28 -3.02 C-0.23 -2.94, -0.2 -2.88, -0.18 -2.79 C-0.15 -2.7, -0.14 -2.64, -0.13 -2.48 C-0.12 -2.32, -0.11 -2.02, -0.11 -1.85 C-0.1 -1.68, -0.11 -1.59, -0.11 -1.45 C-0.11 -1.32, -0.11 -1.15, -0.09 -1.02 C-0.08 -0.89, -0.05 -0.77, -0.02 -0.68 C0.02 -0.59, 0.08 -0.53, 0.14 -0.47 C0.2 -0.42, 0.29 -0.37, 0.35 -0.34 C0.41 -0.31, 0.47 -0.31, 0.52 -0.3 C0.56 -0.29, 0.58 -0.3, 0.6 -0.28 C0.61 -0.26, 0.61 -0.24, 0.61 -0.19 C0.61 -0.14, 0.61 -0.03, 0.61 0.04 C0.61 0.1, 0.61 0.15, 0.61 0.2 C0.61 0.24, 0.62 0.28, 0.6 0.3 C0.59 0.32, 0.55 0.3, 0.51 0.31 C0.46 0.31, 0.38 0.32, 0.32 0.34 C0.26 0.36, 0.22 0.39, 0.18 0.43 C0.13 0.47, 0.09 0.51, 0.06 0.56 C0.03 0.6, 0.01 0.65, -0.01 0.7 C-0.03 0.75, -0.04 0.79, -0.05 0.85 C-0.07 0.9, -0.08 0.96, -0.09 1.02 C-0.09 1.09, -0.09 1.01, -0.09 1.23 C-0.1 1.45, -0.1 2.09, -0.12 2.35 C-0.13 2.6, -0.13 2.63, -0.17 2.75 C-0.2 2.88, -0.26 2.98, -0.33 3.08 C-0.4 3.17, -0.5 3.26, -0.6 3.32 C-0.7 3.37, -0.81 3.39, -0.92 3.41 C-1.04 3.43, -1.19 3.43, -1.27 3.44 C-1.34 3.44, -1.35 3.44, -1.37 3.42 C-1.39 3.4, -1.38 3.37, -1.39 3.34 C-1.39 3.31, -1.4 3.27, -1.4 3.23 C-1.4 3.19, -1.41 3.14, -1.41 3.09 C-1.41 3.05, -1.4 3.01, -1.4 2.97 C-1.4 2.93, -1.42 2.88, -1.39 2.86 C-1.36 2.84, -1.28 2.85, -1.22 2.85 C-1.16 2.84, -1.09 2.85, -1.03 2.83 C-0.97 2.82, -0.91 2.8, -0.87 2.77 C-0.82 2.73, -0.79 2.7, -0.76 2.65 C-0.73 2.6, -0.72 2.52, -0.71 2.47 C-0.7 2.41, -0.7 2.41, -0.7 2.29 C-0.7 2.18, -0.71 1.95, -0.71 1.79 C-0.71 1.62, -0.7 1.42, -0.7 1.31 C-0.7 1.19, -0.7 1.17, -0.69 1.1 C-0.68 1.04, -0.67 0.98, -0.66 0.92 C-0.65 0.86, -0.65 0.79, -0.63 0.73 C-0.62 0.66, -0.59 0.6, -0.56 0.54 C-0.53 0.48, -0.5 0.42, -0.46 0.37 C-0.43 0.31, -0.41 0.27, -0.36 0.23 C-0.31 0.18, -0.23 0.13, -0.17 0.1 C-0.11 0.06, -0.03 0.02, 0 0" stroke="#fab005" stroke-width="1" fill="none"></path></g></g><mask></mask><g stroke-linecap="round"><g transform="translate(323.3423316253029 325.0891266128383) rotate(0 0.40625554345353976 0.00922135739551777)" fill-rule="evenodd"><path d="M0 0 L1.43 -3.4 L0.29 -3.02 L-0.63 -0.19 L0.34 3.08 L1.41 3.42 L0 0" stroke="none" stroke-width="0" fill="#fab005" fill-rule="evenodd"></path><path d="M0 0 C0.02 -0.01, 0.09 -0.04, 0.14 -0.06 C0.18 -0.09, 0.22 -0.12, 0.26 -0.15 C0.31 -0.19, 0.36 -0.23, 0.4 -0.28 C0.44 -0.33, 0.49 -0.39, 0.52 -0.44 C0.55 -0.49, 0.57 -0.51, 0.59 -0.57 C0.61 -0.63, 0.65 -0.73, 0.67 -0.81 C0.69 -0.88, 0.69 -0.85, 0.7 -1 C0.71 -1.15, 0.72 -1.53, 0.73 -1.71 C0.73 -1.89, 0.72 -1.96, 0.72 -2.06 C0.72 -2.17, 0.72 -2.28, 0.73 -2.36 C0.74 -2.44, 0.75 -2.5, 0.76 -2.55 C0.77 -2.6, 0.78 -2.63, 0.8 -2.67 C0.82 -2.71, 0.86 -2.74, 0.89 -2.77 C0.93 -2.79, 0.96 -2.82, 1.01 -2.83 C1.06 -2.85, 1.14 -2.85, 1.19 -2.85 C1.25 -2.86, 1.29 -2.85, 1.33 -2.85 C1.37 -2.85, 1.41 -2.83, 1.43 -2.85 C1.44 -2.87, 1.43 -2.9, 1.43 -2.95 C1.43 -3, 1.43 -3.08, 1.43 -3.14 C1.43 -3.19, 1.43 -3.23, 1.43 -3.27 C1.43 -3.32, 1.45 -3.38, 1.43 -3.4 C1.41 -3.43, 1.36 -3.41, 1.31 -3.42 C1.27 -3.42, 1.22 -3.42, 1.16 -3.42 C1.1 -3.41, 1.01 -3.41, 0.93 -3.4 C0.85 -3.39, 0.76 -3.37, 0.69 -3.34 C0.61 -3.32, 0.54 -3.3, 0.47 -3.24 C0.41 -3.19, 0.34 -3.09, 0.29 -3.02 C0.24 -2.94, 0.21 -2.88, 0.18 -2.79 C0.16 -2.7, 0.15 -2.64, 0.14 -2.48 C0.12 -2.32, 0.11 -2.02, 0.11 -1.85 C0.1 -1.68, 0.11 -1.59, 0.11 -1.45 C0.11 -1.32, 0.11 -1.15, 0.1 -1.02 C0.08 -0.89, 0.06 -0.77, 0.02 -0.68 C-0.02 -0.59, -0.08 -0.53, -0.14 -0.47 C-0.21 -0.42, -0.3 -0.37, -0.36 -0.34 C-0.43 -0.31, -0.49 -0.31, -0.53 -0.3 C-0.57 -0.29, -0.6 -0.3, -0.61 -0.28 C-0.63 -0.26, -0.63 -0.24, -0.63 -0.19 C-0.63 -0.14, -0.63 -0.03, -0.63 0.04 C-0.63 0.1, -0.63 0.15, -0.63 0.2 C-0.63 0.24, -0.64 0.28, -0.62 0.3 C-0.6 0.32, -0.57 0.3, -0.52 0.31 C-0.47 0.31, -0.39 0.32, -0.33 0.34 C-0.27 0.36, -0.23 0.39, -0.18 0.43 C-0.14 0.47, -0.09 0.51, -0.06 0.56 C-0.03 0.6, -0.01 0.65, 0.01 0.7 C0.03 0.75, 0.04 0.79, 0.06 0.85 C0.07 0.9, 0.08 0.96, 0.09 1.02 C0.1 1.09, 0.09 1.01, 0.1 1.23 C0.1 1.45, 0.11 2.09, 0.12 2.35 C0.13 2.6, 0.14 2.63, 0.17 2.75 C0.21 2.88, 0.26 2.98, 0.34 3.08 C0.41 3.17, 0.52 3.26, 0.62 3.32 C0.72 3.37, 0.84 3.39, 0.95 3.41 C1.07 3.43, 1.23 3.43, 1.3 3.44 C1.38 3.44, 1.39 3.44, 1.41 3.42 C1.43 3.4, 1.42 3.37, 1.43 3.34 C1.43 3.31, 1.44 3.27, 1.44 3.23 C1.44 3.19, 1.45 3.14, 1.45 3.09 C1.45 3.05, 1.44 3.01, 1.44 2.97 C1.44 2.93, 1.46 2.88, 1.43 2.86 C1.39 2.84, 1.32 2.85, 1.26 2.85 C1.2 2.84, 1.12 2.85, 1.06 2.83 C1 2.82, 0.94 2.8, 0.89 2.77 C0.85 2.73, 0.81 2.7, 0.78 2.65 C0.76 2.6, 0.74 2.52, 0.73 2.47 C0.72 2.41, 0.72 2.41, 0.72 2.29 C0.72 2.18, 0.73 1.95, 0.73 1.79 C0.73 1.62, 0.72 1.42, 0.72 1.31 C0.72 1.19, 0.72 1.17, 0.71 1.1 C0.7 1.04, 0.69 0.98, 0.68 0.92 C0.67 0.86, 0.67 0.79, 0.65 0.73 C0.63 0.66, 0.61 0.6, 0.58 0.54 C0.55 0.48, 0.51 0.42, 0.48 0.37 C0.44 0.31, 0.42 0.27, 0.37 0.23 C0.32 0.18, 0.24 0.13, 0.18 0.1 C0.12 0.06, 0.03 0.02, 0 0 M0 0 C0.02 -0.01, 0.09 -0.04, 0.14 -0.06 C0.18 -0.09, 0.22 -0.12, 0.26 -0.15 C0.31 -0.19, 0.36 -0.23, 0.4 -0.28 C0.44 -0.33, 0.49 -0.39, 0.52 -0.44 C0.55 -0.49, 0.57 -0.51, 0.59 -0.57 C0.61 -0.63, 0.65 -0.73, 0.67 -0.81 C0.69 -0.88, 0.69 -0.85, 0.7 -1 C0.71 -1.15, 0.72 -1.53, 0.73 -1.71 C0.73 -1.89, 0.72 -1.96, 0.72 -2.06 C0.72 -2.17, 0.72 -2.28, 0.73 -2.36 C0.74 -2.44, 0.75 -2.5, 0.76 -2.55 C0.77 -2.6, 0.78 -2.63, 0.8 -2.67 C0.82 -2.71, 0.86 -2.74, 0.89 -2.77 C0.93 -2.79, 0.96 -2.82, 1.01 -2.83 C1.06 -2.85, 1.14 -2.85, 1.19 -2.85 C1.25 -2.86, 1.29 -2.85, 1.33 -2.85 C1.37 -2.85, 1.41 -2.83, 1.43 -2.85 C1.44 -2.87, 1.43 -2.9, 1.43 -2.95 C1.43 -3, 1.43 -3.08, 1.43 -3.14 C1.43 -3.19, 1.43 -3.23, 1.43 -3.27 C1.43 -3.32, 1.45 -3.38, 1.43 -3.4 C1.41 -3.43, 1.36 -3.41, 1.31 -3.42 C1.27 -3.42, 1.22 -3.42, 1.16 -3.42 C1.1 -3.41, 1.01 -3.41, 0.93 -3.4 C0.85 -3.39, 0.76 -3.37, 0.69 -3.34 C0.61 -3.32, 0.54 -3.3, 0.47 -3.24 C0.41 -3.19, 0.34 -3.09, 0.29 -3.02 C0.24 -2.94, 0.21 -2.88, 0.18 -2.79 C0.16 -2.7, 0.15 -2.64, 0.14 -2.48 C0.12 -2.32, 0.11 -2.02, 0.11 -1.85 C0.1 -1.68, 0.11 -1.59, 0.11 -1.45 C0.11 -1.32, 0.11 -1.15, 0.1 -1.02 C0.08 -0.89, 0.06 -0.77, 0.02 -0.68 C-0.02 -0.59, -0.08 -0.53, -0.14 -0.47 C-0.21 -0.42, -0.3 -0.37, -0.36 -0.34 C-0.43 -0.31, -0.49 -0.31, -0.53 -0.3 C-0.57 -0.29, -0.6 -0.3, -0.61 -0.28 C-0.63 -0.26, -0.63 -0.24, -0.63 -0.19 C-0.63 -0.14, -0.63 -0.03, -0.63 0.04 C-0.63 0.1, -0.63 0.15, -0.63 0.2 C-0.63 0.24, -0.64 0.28, -0.62 0.3 C-0.6 0.32, -0.57 0.3, -0.52 0.31 C-0.47 0.31, -0.39 0.32, -0.33 0.34 C-0.27 0.36, -0.23 0.39, -0.18 0.43 C-0.14 0.47, -0.09 0.51, -0.06 0.56 C-0.03 0.6, -0.01 0.65, 0.01 0.7 C0.03 0.75, 0.04 0.79, 0.06 0.85 C0.07 0.9, 0.08 0.96, 0.09 1.02 C0.1 1.09, 0.09 1.01, 0.1 1.23 C0.1 1.45, 0.11 2.09, 0.12 2.35 C0.13 2.6, 0.14 2.63, 0.17 2.75 C0.21 2.88, 0.26 2.98, 0.34 3.08 C0.41 3.17, 0.52 3.26, 0.62 3.32 C0.72 3.37, 0.84 3.39, 0.95 3.41 C1.07 3.43, 1.23 3.43, 1.3 3.44 C1.38 3.44, 1.39 3.44, 1.41 3.42 C1.43 3.4, 1.42 3.37, 1.43 3.34 C1.43 3.31, 1.44 3.27, 1.44 3.23 C1.44 3.19, 1.45 3.14, 1.45 3.09 C1.45 3.05, 1.44 3.01, 1.44 2.97 C1.44 2.93, 1.46 2.88, 1.43 2.86 C1.39 2.84, 1.32 2.85, 1.26 2.85 C1.2 2.84, 1.12 2.85, 1.06 2.83 C1 2.82, 0.94 2.8, 0.89 2.77 C0.85 2.73, 0.81 2.7, 0.78 2.65 C0.76 2.6, 0.74 2.52, 0.73 2.47 C0.72 2.41, 0.72 2.41, 0.72 2.29 C0.72 2.18, 0.73 1.95, 0.73 1.79 C0.73 1.62, 0.72 1.42, 0.72 1.31 C0.72 1.19, 0.72 1.17, 0.71 1.1 C0.7 1.04, 0.69 0.98, 0.68 0.92 C0.67 0.86, 0.67 0.79, 0.65 0.73 C0.63 0.66, 0.61 0.6, 0.58 0.54 C0.55 0.48, 0.51 0.42, 0.48 0.37 C0.44 0.31, 0.42 0.27, 0.37 0.23 C0.32 0.18, 0.24 0.13, 0.18 0.1 C0.12 0.06, 0.03 0.02, 0 0" stroke="#fab005" stroke-width="1" fill="none"></path></g></g><mask></mask><g stroke-linecap="round"><g transform="translate(328.44996632533594 325.0645449008189) rotate(0 -0.39490680412427537 0.00922135739551777)" fill-rule="evenodd"><path d="M0 0 L-1.39 -3.4 L-0.28 -3.02 L0.61 -0.19 L-0.33 3.08 L-1.37 3.42 L0 0" stroke="none" stroke-width="0" fill="#fab005" fill-rule="evenodd"></path><path d="M0 0 C-0.02 -0.01, -0.09 -0.04, -0.13 -0.06 C-0.18 -0.09, -0.21 -0.12, -0.26 -0.15 C-0.3 -0.19, -0.35 -0.23, -0.39 -0.28 C-0.43 -0.33, -0.48 -0.39, -0.51 -0.44 C-0.54 -0.49, -0.55 -0.51, -0.57 -0.57 C-0.6 -0.63, -0.63 -0.73, -0.65 -0.81 C-0.67 -0.88, -0.67 -0.85, -0.68 -1 C-0.69 -1.15, -0.7 -1.53, -0.71 -1.71 C-0.71 -1.89, -0.7 -1.96, -0.7 -2.06 C-0.7 -2.17, -0.7 -2.28, -0.71 -2.36 C-0.72 -2.44, -0.73 -2.5, -0.74 -2.55 C-0.75 -2.6, -0.76 -2.63, -0.78 -2.67 C-0.8 -2.71, -0.83 -2.74, -0.87 -2.77 C-0.9 -2.79, -0.93 -2.82, -0.98 -2.83 C-1.03 -2.85, -1.11 -2.85, -1.16 -2.85 C-1.21 -2.86, -1.26 -2.85, -1.3 -2.85 C-1.33 -2.85, -1.37 -2.83, -1.39 -2.85 C-1.4 -2.87, -1.39 -2.9, -1.39 -2.95 C-1.39 -3, -1.39 -3.08, -1.39 -3.14 C-1.39 -3.19, -1.39 -3.23, -1.39 -3.27 C-1.39 -3.32, -1.41 -3.38, -1.39 -3.4 C-1.37 -3.43, -1.32 -3.41, -1.28 -3.42 C-1.23 -3.42, -1.19 -3.42, -1.13 -3.42 C-1.07 -3.41, -0.98 -3.41, -0.9 -3.4 C-0.82 -3.39, -0.74 -3.37, -0.67 -3.34 C-0.59 -3.32, -0.52 -3.3, -0.46 -3.24 C-0.4 -3.19, -0.33 -3.09, -0.28 -3.02 C-0.23 -2.94, -0.2 -2.88, -0.18 -2.79 C-0.15 -2.7, -0.14 -2.64, -0.13 -2.48 C-0.12 -2.32, -0.11 -2.02, -0.11 -1.85 C-0.1 -1.68, -0.11 -1.59, -0.11 -1.45 C-0.11 -1.32, -0.11 -1.15, -0.09 -1.02 C-0.08 -0.89, -0.05 -0.77, -0.02 -0.68 C0.02 -0.59, 0.08 -0.53, 0.14 -0.47 C0.2 -0.42, 0.29 -0.37, 0.35 -0.34 C0.41 -0.31, 0.47 -0.31, 0.52 -0.3 C0.56 -0.29, 0.58 -0.3, 0.6 -0.28 C0.61 -0.26, 0.61 -0.24, 0.61 -0.19 C0.61 -0.14, 0.61 -0.03, 0.61 0.04 C0.61 0.1, 0.61 0.15, 0.61 0.2 C0.61 0.24, 0.62 0.28, 0.6 0.3 C0.59 0.32, 0.55 0.3, 0.51 0.31 C0.46 0.31, 0.38 0.32, 0.32 0.34 C0.26 0.36, 0.22 0.39, 0.18 0.43 C0.13 0.47, 0.09 0.51, 0.06 0.56 C0.03 0.6, 0.01 0.65, -0.01 0.7 C-0.03 0.75, -0.04 0.79, -0.05 0.85 C-0.07 0.9, -0.08 0.96, -0.09 1.02 C-0.09 1.09, -0.09 1.01, -0.09 1.23 C-0.1 1.45, -0.1 2.09, -0.12 2.35 C-0.13 2.6, -0.13 2.63, -0.17 2.75 C-0.2 2.88, -0.26 2.98, -0.33 3.08 C-0.4 3.17, -0.5 3.26, -0.6 3.32 C-0.7 3.37, -0.81 3.39, -0.92 3.41 C-1.04 3.43, -1.19 3.43, -1.27 3.44 C-1.34 3.44, -1.35 3.44, -1.37 3.42 C-1.39 3.4, -1.38 3.37, -1.39 3.34 C-1.39 3.31, -1.4 3.27, -1.4 3.23 C-1.4 3.19, -1.41 3.14, -1.41 3.09 C-1.41 3.05, -1.4 3.01, -1.4 2.97 C-1.4 2.93, -1.42 2.88, -1.39 2.86 C-1.36 2.84, -1.28 2.85, -1.22 2.85 C-1.16 2.84, -1.09 2.85, -1.03 2.83 C-0.97 2.82, -0.91 2.8, -0.87 2.77 C-0.82 2.73, -0.79 2.7, -0.76 2.65 C-0.73 2.6, -0.72 2.52, -0.71 2.47 C-0.7 2.41, -0.7 2.41, -0.7 2.29 C-0.7 2.18, -0.71 1.95, -0.71 1.79 C-0.71 1.62, -0.7 1.42, -0.7 1.31 C-0.7 1.19, -0.7 1.17, -0.69 1.1 C-0.68 1.04, -0.67 0.98, -0.66 0.92 C-0.65 0.86, -0.65 0.79, -0.63 0.73 C-0.62 0.66, -0.59 0.6, -0.56 0.54 C-0.53 0.48, -0.5 0.42, -0.46 0.37 C-0.43 0.31, -0.41 0.27, -0.36 0.23 C-0.31 0.18, -0.23 0.13, -0.17 0.1 C-0.11 0.06, -0.03 0.02, 0 0 M0 0 C-0.02 -0.01, -0.09 -0.04, -0.13 -0.06 C-0.18 -0.09, -0.21 -0.12, -0.26 -0.15 C-0.3 -0.19, -0.35 -0.23, -0.39 -0.28 C-0.43 -0.33, -0.48 -0.39, -0.51 -0.44 C-0.54 -0.49, -0.55 -0.51, -0.57 -0.57 C-0.6 -0.63, -0.63 -0.73, -0.65 -0.81 C-0.67 -0.88, -0.67 -0.85, -0.68 -1 C-0.69 -1.15, -0.7 -1.53, -0.71 -1.71 C-0.71 -1.89, -0.7 -1.96, -0.7 -2.06 C-0.7 -2.17, -0.7 -2.28, -0.71 -2.36 C-0.72 -2.44, -0.73 -2.5, -0.74 -2.55 C-0.75 -2.6, -0.76 -2.63, -0.78 -2.67 C-0.8 -2.71, -0.83 -2.74, -0.87 -2.77 C-0.9 -2.79, -0.93 -2.82, -0.98 -2.83 C-1.03 -2.85, -1.11 -2.85, -1.16 -2.85 C-1.21 -2.86, -1.26 -2.85, -1.3 -2.85 C-1.33 -2.85, -1.37 -2.83, -1.39 -2.85 C-1.4 -2.87, -1.39 -2.9, -1.39 -2.95 C-1.39 -3, -1.39 -3.08, -1.39 -3.14 C-1.39 -3.19, -1.39 -3.23, -1.39 -3.27 C-1.39 -3.32, -1.41 -3.38, -1.39 -3.4 C-1.37 -3.43, -1.32 -3.41, -1.28 -3.42 C-1.23 -3.42, -1.19 -3.42, -1.13 -3.42 C-1.07 -3.41, -0.98 -3.41, -0.9 -3.4 C-0.82 -3.39, -0.74 -3.37, -0.67 -3.34 C-0.59 -3.32, -0.52 -3.3, -0.46 -3.24 C-0.4 -3.19, -0.33 -3.09, -0.28 -3.02 C-0.23 -2.94, -0.2 -2.88, -0.18 -2.79 C-0.15 -2.7, -0.14 -2.64, -0.13 -2.48 C-0.12 -2.32, -0.11 -2.02, -0.11 -1.85 C-0.1 -1.68, -0.11 -1.59, -0.11 -1.45 C-0.11 -1.32, -0.11 -1.15, -0.09 -1.02 C-0.08 -0.89, -0.05 -0.77, -0.02 -0.68 C0.02 -0.59, 0.08 -0.53, 0.14 -0.47 C0.2 -0.42, 0.29 -0.37, 0.35 -0.34 C0.41 -0.31, 0.47 -0.31, 0.52 -0.3 C0.56 -0.29, 0.58 -0.3, 0.6 -0.28 C0.61 -0.26, 0.61 -0.24, 0.61 -0.19 C0.61 -0.14, 0.61 -0.03, 0.61 0.04 C0.61 0.1, 0.61 0.15, 0.61 0.2 C0.61 0.24, 0.62 0.28, 0.6 0.3 C0.59 0.32, 0.55 0.3, 0.51 0.31 C0.46 0.31, 0.38 0.32, 0.32 0.34 C0.26 0.36, 0.22 0.39, 0.18 0.43 C0.13 0.47, 0.09 0.51, 0.06 0.56 C0.03 0.6, 0.01 0.65, -0.01 0.7 C-0.03 0.75, -0.04 0.79, -0.05 0.85 C-0.07 0.9, -0.08 0.96, -0.09 1.02 C-0.09 1.09, -0.09 1.01, -0.09 1.23 C-0.1 1.45, -0.1 2.09, -0.12 2.35 C-0.13 2.6, -0.13 2.63, -0.17 2.75 C-0.2 2.88, -0.26 2.98, -0.33 3.08 C-0.4 3.17, -0.5 3.26, -0.6 3.32 C-0.7 3.37, -0.81 3.39, -0.92 3.41 C-1.04 3.43, -1.19 3.43, -1.27 3.44 C-1.34 3.44, -1.35 3.44, -1.37 3.42 C-1.39 3.4, -1.38 3.37, -1.39 3.34 C-1.39 3.31, -1.4 3.27, -1.4 3.23 C-1.4 3.19, -1.41 3.14, -1.41 3.09 C-1.41 3.05, -1.4 3.01, -1.4 2.97 C-1.4 2.93, -1.42 2.88, -1.39 2.86 C-1.36 2.84, -1.28 2.85, -1.22 2.85 C-1.16 2.84, -1.09 2.85, -1.03 2.83 C-0.97 2.82, -0.91 2.8, -0.87 2.77 C-0.82 2.73, -0.79 2.7, -0.76 2.65 C-0.73 2.6, -0.72 2.52, -0.71 2.47 C-0.7 2.41, -0.7 2.41, -0.7 2.29 C-0.7 2.18, -0.71 1.95, -0.71 1.79 C-0.71 1.62, -0.7 1.42, -0.7 1.31 C-0.7 1.19, -0.7 1.17, -0.69 1.1 C-0.68 1.04, -0.67 0.98, -0.66 0.92 C-0.65 0.86, -0.65 0.79, -0.63 0.73 C-0.62 0.66, -0.59 0.6, -0.56 0.54 C-0.53 0.48, -0.5 0.42, -0.46 0.37 C-0.43 0.31, -0.41 0.27, -0.36 0.23 C-0.31 0.18, -0.23 0.13, -0.17 0.1 C-0.11 0.06, -0.03 0.02, 0 0" stroke="#fab005" stroke-width="1" fill="none"></path></g></g><mask></mask><g stroke-linecap="round"><g transform="translate(305.53071452797485 325.20000097267985) rotate(0 0.40625554345353976 0.00922135739551777)" fill-rule="evenodd"><path d="M0 0 L1.43 -3.4 L0.29 -3.02 L-0.63 -0.19 L0.34 3.08 L1.41 3.42 L0 0" stroke="none" stroke-width="0" fill="#fab005" fill-rule="evenodd"></path><path d="M0 0 C0.02 -0.01, 0.09 -0.04, 0.14 -0.06 C0.18 -0.09, 0.22 -0.12, 0.26 -0.15 C0.31 -0.19, 0.36 -0.23, 0.4 -0.28 C0.44 -0.33, 0.49 -0.39, 0.52 -0.44 C0.55 -0.49, 0.57 -0.51, 0.59 -0.57 C0.61 -0.63, 0.65 -0.73, 0.67 -0.81 C0.69 -0.88, 0.69 -0.85, 0.7 -1 C0.71 -1.15, 0.72 -1.53, 0.73 -1.71 C0.73 -1.89, 0.72 -1.96, 0.72 -2.06 C0.72 -2.17, 0.72 -2.28, 0.73 -2.36 C0.74 -2.44, 0.75 -2.5, 0.76 -2.55 C0.77 -2.6, 0.78 -2.63, 0.8 -2.67 C0.82 -2.71, 0.86 -2.74, 0.89 -2.77 C0.93 -2.79, 0.96 -2.82, 1.01 -2.83 C1.06 -2.85, 1.14 -2.85, 1.19 -2.85 C1.25 -2.86, 1.29 -2.85, 1.33 -2.85 C1.37 -2.85, 1.41 -2.83, 1.43 -2.85 C1.44 -2.87, 1.43 -2.9, 1.43 -2.95 C1.43 -3, 1.43 -3.08, 1.43 -3.14 C1.43 -3.19, 1.43 -3.23, 1.43 -3.27 C1.43 -3.32, 1.45 -3.38, 1.43 -3.4 C1.41 -3.43, 1.36 -3.41, 1.31 -3.42 C1.27 -3.42, 1.22 -3.42, 1.16 -3.42 C1.1 -3.41, 1.01 -3.41, 0.93 -3.4 C0.85 -3.39, 0.76 -3.37, 0.69 -3.34 C0.61 -3.32, 0.54 -3.3, 0.47 -3.24 C0.41 -3.19, 0.34 -3.09, 0.29 -3.02 C0.24 -2.94, 0.21 -2.88, 0.18 -2.79 C0.16 -2.7, 0.15 -2.64, 0.14 -2.48 C0.12 -2.32, 0.11 -2.02, 0.11 -1.85 C0.1 -1.68, 0.11 -1.59, 0.11 -1.45 C0.11 -1.32, 0.11 -1.15, 0.1 -1.02 C0.08 -0.89, 0.06 -0.77, 0.02 -0.68 C-0.02 -0.59, -0.08 -0.53, -0.14 -0.47 C-0.21 -0.42, -0.3 -0.37, -0.36 -0.34 C-0.43 -0.31, -0.49 -0.31, -0.53 -0.3 C-0.57 -0.29, -0.6 -0.3, -0.61 -0.28 C-0.63 -0.26, -0.63 -0.24, -0.63 -0.19 C-0.63 -0.14, -0.63 -0.03, -0.63 0.04 C-0.63 0.1, -0.63 0.15, -0.63 0.2 C-0.63 0.24, -0.64 0.28, -0.62 0.3 C-0.6 0.32, -0.57 0.3, -0.52 0.31 C-0.47 0.31, -0.39 0.32, -0.33 0.34 C-0.27 0.36, -0.23 0.39, -0.18 0.43 C-0.14 0.47, -0.09 0.51, -0.06 0.56 C-0.03 0.6, -0.01 0.65, 0.01 0.7 C0.03 0.75, 0.04 0.79, 0.06 0.85 C0.07 0.9, 0.08 0.96, 0.09 1.02 C0.1 1.09, 0.09 1.01, 0.1 1.23 C0.1 1.45, 0.11 2.09, 0.12 2.35 C0.13 2.6, 0.14 2.63, 0.17 2.75 C0.21 2.88, 0.26 2.98, 0.34 3.08 C0.41 3.17, 0.52 3.26, 0.62 3.32 C0.72 3.37, 0.84 3.39, 0.95 3.41 C1.07 3.43, 1.23 3.43, 1.3 3.44 C1.38 3.44, 1.39 3.44, 1.41 3.42 C1.43 3.4, 1.42 3.37, 1.43 3.34 C1.43 3.31, 1.44 3.27, 1.44 3.23 C1.44 3.19, 1.45 3.14, 1.45 3.09 C1.45 3.05, 1.44 3.01, 1.44 2.97 C1.44 2.93, 1.46 2.88, 1.43 2.86 C1.39 2.84, 1.32 2.85, 1.26 2.85 C1.2 2.84, 1.12 2.85, 1.06 2.83 C1 2.82, 0.94 2.8, 0.89 2.77 C0.85 2.73, 0.81 2.7, 0.78 2.65 C0.76 2.6, 0.74 2.52, 0.73 2.47 C0.72 2.41, 0.72 2.41, 0.72 2.29 C0.72 2.18, 0.73 1.95, 0.73 1.79 C0.73 1.62, 0.72 1.42, 0.72 1.31 C0.72 1.19, 0.72 1.17, 0.71 1.1 C0.7 1.04, 0.69 0.98, 0.68 0.92 C0.67 0.86, 0.67 0.79, 0.65 0.73 C0.63 0.66, 0.61 0.6, 0.58 0.54 C0.55 0.48, 0.51 0.42, 0.48 0.37 C0.44 0.31, 0.42 0.27, 0.37 0.23 C0.32 0.18, 0.24 0.13, 0.18 0.1 C0.12 0.06, 0.03 0.02, 0 0 M0 0 C0.02 -0.01, 0.09 -0.04, 0.14 -0.06 C0.18 -0.09, 0.22 -0.12, 0.26 -0.15 C0.31 -0.19, 0.36 -0.23, 0.4 -0.28 C0.44 -0.33, 0.49 -0.39, 0.52 -0.44 C0.55 -0.49, 0.57 -0.51, 0.59 -0.57 C0.61 -0.63, 0.65 -0.73, 0.67 -0.81 C0.69 -0.88, 0.69 -0.85, 0.7 -1 C0.71 -1.15, 0.72 -1.53, 0.73 -1.71 C0.73 -1.89, 0.72 -1.96, 0.72 -2.06 C0.72 -2.17, 0.72 -2.28, 0.73 -2.36 C0.74 -2.44, 0.75 -2.5, 0.76 -2.55 C0.77 -2.6, 0.78 -2.63, 0.8 -2.67 C0.82 -2.71, 0.86 -2.74, 0.89 -2.77 C0.93 -2.79, 0.96 -2.82, 1.01 -2.83 C1.06 -2.85, 1.14 -2.85, 1.19 -2.85 C1.25 -2.86, 1.29 -2.85, 1.33 -2.85 C1.37 -2.85, 1.41 -2.83, 1.43 -2.85 C1.44 -2.87, 1.43 -2.9, 1.43 -2.95 C1.43 -3, 1.43 -3.08, 1.43 -3.14 C1.43 -3.19, 1.43 -3.23, 1.43 -3.27 C1.43 -3.32, 1.45 -3.38, 1.43 -3.4 C1.41 -3.43, 1.36 -3.41, 1.31 -3.42 C1.27 -3.42, 1.22 -3.42, 1.16 -3.42 C1.1 -3.41, 1.01 -3.41, 0.93 -3.4 C0.85 -3.39, 0.76 -3.37, 0.69 -3.34 C0.61 -3.32, 0.54 -3.3, 0.47 -3.24 C0.41 -3.19, 0.34 -3.09, 0.29 -3.02 C0.24 -2.94, 0.21 -2.88, 0.18 -2.79 C0.16 -2.7, 0.15 -2.64, 0.14 -2.48 C0.12 -2.32, 0.11 -2.02, 0.11 -1.85 C0.1 -1.68, 0.11 -1.59, 0.11 -1.45 C0.11 -1.32, 0.11 -1.15, 0.1 -1.02 C0.08 -0.89, 0.06 -0.77, 0.02 -0.68 C-0.02 -0.59, -0.08 -0.53, -0.14 -0.47 C-0.21 -0.42, -0.3 -0.37, -0.36 -0.34 C-0.43 -0.31, -0.49 -0.31, -0.53 -0.3 C-0.57 -0.29, -0.6 -0.3, -0.61 -0.28 C-0.63 -0.26, -0.63 -0.24, -0.63 -0.19 C-0.63 -0.14, -0.63 -0.03, -0.63 0.04 C-0.63 0.1, -0.63 0.15, -0.63 0.2 C-0.63 0.24, -0.64 0.28, -0.62 0.3 C-0.6 0.32, -0.57 0.3, -0.52 0.31 C-0.47 0.31, -0.39 0.32, -0.33 0.34 C-0.27 0.36, -0.23 0.39, -0.18 0.43 C-0.14 0.47, -0.09 0.51, -0.06 0.56 C-0.03 0.6, -0.01 0.65, 0.01 0.7 C0.03 0.75, 0.04 0.79, 0.06 0.85 C0.07 0.9, 0.08 0.96, 0.09 1.02 C0.1 1.09, 0.09 1.01, 0.1 1.23 C0.1 1.45, 0.11 2.09, 0.12 2.35 C0.13 2.6, 0.14 2.63, 0.17 2.75 C0.21 2.88, 0.26 2.98, 0.34 3.08 C0.41 3.17, 0.52 3.26, 0.62 3.32 C0.72 3.37, 0.84 3.39, 0.95 3.41 C1.07 3.43, 1.23 3.43, 1.3 3.44 C1.38 3.44, 1.39 3.44, 1.41 3.42 C1.43 3.4, 1.42 3.37, 1.43 3.34 C1.43 3.31, 1.44 3.27, 1.44 3.23 C1.44 3.19, 1.45 3.14, 1.45 3.09 C1.45 3.05, 1.44 3.01, 1.44 2.97 C1.44 2.93, 1.46 2.88, 1.43 2.86 C1.39 2.84, 1.32 2.85, 1.26 2.85 C1.2 2.84, 1.12 2.85, 1.06 2.83 C1 2.82, 0.94 2.8, 0.89 2.77 C0.85 2.73, 0.81 2.7, 0.78 2.65 C0.76 2.6, 0.74 2.52, 0.73 2.47 C0.72 2.41, 0.72 2.41, 0.72 2.29 C0.72 2.18, 0.73 1.95, 0.73 1.79 C0.73 1.62, 0.72 1.42, 0.72 1.31 C0.72 1.19, 0.72 1.17, 0.71 1.1 C0.7 1.04, 0.69 0.98, 0.68 0.92 C0.67 0.86, 0.67 0.79, 0.65 0.73 C0.63 0.66, 0.61 0.6, 0.58 0.54 C0.55 0.48, 0.51 0.42, 0.48 0.37 C0.44 0.31, 0.42 0.27, 0.37 0.23 C0.32 0.18, 0.24 0.13, 0.18 0.1 C0.12 0.06, 0.03 0.02, 0 0" stroke="#fab005" stroke-width="1" fill="none"></path></g></g><mask></mask><g stroke-linecap="round"><g transform="translate(310.6383492280079 325.1754192606586) rotate(0 -0.39490680412427537 0.00922135739551777)" fill-rule="evenodd"><path d="M0 0 L-1.39 -3.4 L-0.28 -3.02 L0.61 -0.19 L-0.33 3.08 L-1.37 3.42 L0 0" stroke="none" stroke-width="0" fill="#fab005" fill-rule="evenodd"></path><path d="M0 0 C-0.02 -0.01, -0.09 -0.04, -0.13 -0.06 C-0.18 -0.09, -0.21 -0.12, -0.26 -0.15 C-0.3 -0.19, -0.35 -0.23, -0.39 -0.28 C-0.43 -0.33, -0.48 -0.39, -0.51 -0.44 C-0.54 -0.49, -0.55 -0.51, -0.57 -0.57 C-0.6 -0.63, -0.63 -0.73, -0.65 -0.81 C-0.67 -0.88, -0.67 -0.85, -0.68 -1 C-0.69 -1.15, -0.7 -1.53, -0.71 -1.71 C-0.71 -1.89, -0.7 -1.96, -0.7 -2.06 C-0.7 -2.17, -0.7 -2.28, -0.71 -2.36 C-0.72 -2.44, -0.73 -2.5, -0.74 -2.55 C-0.75 -2.6, -0.76 -2.63, -0.78 -2.67 C-0.8 -2.71, -0.83 -2.74, -0.87 -2.77 C-0.9 -2.79, -0.93 -2.82, -0.98 -2.83 C-1.03 -2.85, -1.11 -2.85, -1.16 -2.85 C-1.21 -2.86, -1.26 -2.85, -1.3 -2.85 C-1.33 -2.85, -1.37 -2.83, -1.39 -2.85 C-1.4 -2.87, -1.39 -2.9, -1.39 -2.95 C-1.39 -3, -1.39 -3.08, -1.39 -3.14 C-1.39 -3.19, -1.39 -3.23, -1.39 -3.27 C-1.39 -3.32, -1.41 -3.38, -1.39 -3.4 C-1.37 -3.43, -1.32 -3.41, -1.28 -3.42 C-1.23 -3.42, -1.19 -3.42, -1.13 -3.42 C-1.07 -3.41, -0.98 -3.41, -0.9 -3.4 C-0.82 -3.39, -0.74 -3.37, -0.67 -3.34 C-0.59 -3.32, -0.52 -3.3, -0.46 -3.24 C-0.4 -3.19, -0.33 -3.09, -0.28 -3.02 C-0.23 -2.94, -0.2 -2.88, -0.18 -2.79 C-0.15 -2.7, -0.14 -2.64, -0.13 -2.48 C-0.12 -2.32, -0.11 -2.02, -0.11 -1.85 C-0.1 -1.68, -0.11 -1.59, -0.11 -1.45 C-0.11 -1.32, -0.11 -1.15, -0.09 -1.02 C-0.08 -0.89, -0.05 -0.77, -0.02 -0.68 C0.02 -0.59, 0.08 -0.53, 0.14 -0.47 C0.2 -0.42, 0.29 -0.37, 0.35 -0.34 C0.41 -0.31, 0.47 -0.31, 0.52 -0.3 C0.56 -0.29, 0.58 -0.3, 0.6 -0.28 C0.61 -0.26, 0.61 -0.24, 0.61 -0.19 C0.61 -0.14, 0.61 -0.03, 0.61 0.04 C0.61 0.1, 0.61 0.15, 0.61 0.2 C0.61 0.24, 0.62 0.28, 0.6 0.3 C0.59 0.32, 0.55 0.3, 0.51 0.31 C0.46 0.31, 0.38 0.32, 0.32 0.34 C0.26 0.36, 0.22 0.39, 0.18 0.43 C0.13 0.47, 0.09 0.51, 0.06 0.56 C0.03 0.6, 0.01 0.65, -0.01 0.7 C-0.03 0.75, -0.04 0.79, -0.05 0.85 C-0.07 0.9, -0.08 0.96, -0.09 1.02 C-0.09 1.09, -0.09 1.01, -0.09 1.23 C-0.1 1.45, -0.1 2.09, -0.12 2.35 C-0.13 2.6, -0.13 2.63, -0.17 2.75 C-0.2 2.88, -0.26 2.98, -0.33 3.08 C-0.4 3.17, -0.5 3.26, -0.6 3.32 C-0.7 3.37, -0.81 3.39, -0.92 3.41 C-1.04 3.43, -1.19 3.43, -1.27 3.44 C-1.34 3.44, -1.35 3.44, -1.37 3.42 C-1.39 3.4, -1.38 3.37, -1.39 3.34 C-1.39 3.31, -1.4 3.27, -1.4 3.23 C-1.4 3.19, -1.41 3.14, -1.41 3.09 C-1.41 3.05, -1.4 3.01, -1.4 2.97 C-1.4 2.93, -1.42 2.88, -1.39 2.86 C-1.36 2.84, -1.28 2.85, -1.22 2.85 C-1.16 2.84, -1.09 2.85, -1.03 2.83 C-0.97 2.82, -0.91 2.8, -0.87 2.77 C-0.82 2.73, -0.79 2.7, -0.76 2.65 C-0.73 2.6, -0.72 2.52, -0.71 2.47 C-0.7 2.41, -0.7 2.41, -0.7 2.29 C-0.7 2.18, -0.71 1.95, -0.71 1.79 C-0.71 1.62, -0.7 1.42, -0.7 1.31 C-0.7 1.19, -0.7 1.17, -0.69 1.1 C-0.68 1.04, -0.67 0.98, -0.66 0.92 C-0.65 0.86, -0.65 0.79, -0.63 0.73 C-0.62 0.66, -0.59 0.6, -0.56 0.54 C-0.53 0.48, -0.5 0.42, -0.46 0.37 C-0.43 0.31, -0.41 0.27, -0.36 0.23 C-0.31 0.18, -0.23 0.13, -0.17 0.1 C-0.11 0.06, -0.03 0.02, 0 0 M0 0 C-0.02 -0.01, -0.09 -0.04, -0.13 -0.06 C-0.18 -0.09, -0.21 -0.12, -0.26 -0.15 C-0.3 -0.19, -0.35 -0.23, -0.39 -0.28 C-0.43 -0.33, -0.48 -0.39, -0.51 -0.44 C-0.54 -0.49, -0.55 -0.51, -0.57 -0.57 C-0.6 -0.63, -0.63 -0.73, -0.65 -0.81 C-0.67 -0.88, -0.67 -0.85, -0.68 -1 C-0.69 -1.15, -0.7 -1.53, -0.71 -1.71 C-0.71 -1.89, -0.7 -1.96, -0.7 -2.06 C-0.7 -2.17, -0.7 -2.28, -0.71 -2.36 C-0.72 -2.44, -0.73 -2.5, -0.74 -2.55 C-0.75 -2.6, -0.76 -2.63, -0.78 -2.67 C-0.8 -2.71, -0.83 -2.74, -0.87 -2.77 C-0.9 -2.79, -0.93 -2.82, -0.98 -2.83 C-1.03 -2.85, -1.11 -2.85, -1.16 -2.85 C-1.21 -2.86, -1.26 -2.85, -1.3 -2.85 C-1.33 -2.85, -1.37 -2.83, -1.39 -2.85 C-1.4 -2.87, -1.39 -2.9, -1.39 -2.95 C-1.39 -3, -1.39 -3.08, -1.39 -3.14 C-1.39 -3.19, -1.39 -3.23, -1.39 -3.27 C-1.39 -3.32, -1.41 -3.38, -1.39 -3.4 C-1.37 -3.43, -1.32 -3.41, -1.28 -3.42 C-1.23 -3.42, -1.19 -3.42, -1.13 -3.42 C-1.07 -3.41, -0.98 -3.41, -0.9 -3.4 C-0.82 -3.39, -0.74 -3.37, -0.67 -3.34 C-0.59 -3.32, -0.52 -3.3, -0.46 -3.24 C-0.4 -3.19, -0.33 -3.09, -0.28 -3.02 C-0.23 -2.94, -0.2 -2.88, -0.18 -2.79 C-0.15 -2.7, -0.14 -2.64, -0.13 -2.48 C-0.12 -2.32, -0.11 -2.02, -0.11 -1.85 C-0.1 -1.68, -0.11 -1.59, -0.11 -1.45 C-0.11 -1.32, -0.11 -1.15, -0.09 -1.02 C-0.08 -0.89, -0.05 -0.77, -0.02 -0.68 C0.02 -0.59, 0.08 -0.53, 0.14 -0.47 C0.2 -0.42, 0.29 -0.37, 0.35 -0.34 C0.41 -0.31, 0.47 -0.31, 0.52 -0.3 C0.56 -0.29, 0.58 -0.3, 0.6 -0.28 C0.61 -0.26, 0.61 -0.24, 0.61 -0.19 C0.61 -0.14, 0.61 -0.03, 0.61 0.04 C0.61 0.1, 0.61 0.15, 0.61 0.2 C0.61 0.24, 0.62 0.28, 0.6 0.3 C0.59 0.32, 0.55 0.3, 0.51 0.31 C0.46 0.31, 0.38 0.32, 0.32 0.34 C0.26 0.36, 0.22 0.39, 0.18 0.43 C0.13 0.47, 0.09 0.51, 0.06 0.56 C0.03 0.6, 0.01 0.65, -0.01 0.7 C-0.03 0.75, -0.04 0.79, -0.05 0.85 C-0.07 0.9, -0.08 0.96, -0.09 1.02 C-0.09 1.09, -0.09 1.01, -0.09 1.23 C-0.1 1.45, -0.1 2.09, -0.12 2.35 C-0.13 2.6, -0.13 2.63, -0.17 2.75 C-0.2 2.88, -0.26 2.98, -0.33 3.08 C-0.4 3.17, -0.5 3.26, -0.6 3.32 C-0.7 3.37, -0.81 3.39, -0.92 3.41 C-1.04 3.43, -1.19 3.43, -1.27 3.44 C-1.34 3.44, -1.35 3.44, -1.37 3.42 C-1.39 3.4, -1.38 3.37, -1.39 3.34 C-1.39 3.31, -1.4 3.27, -1.4 3.23 C-1.4 3.19, -1.41 3.14, -1.41 3.09 C-1.41 3.05, -1.4 3.01, -1.4 2.97 C-1.4 2.93, -1.42 2.88, -1.39 2.86 C-1.36 2.84, -1.28 2.85, -1.22 2.85 C-1.16 2.84, -1.09 2.85, -1.03 2.83 C-0.97 2.82, -0.91 2.8, -0.87 2.77 C-0.82 2.73, -0.79 2.7, -0.76 2.65 C-0.73 2.6, -0.72 2.52, -0.71 2.47 C-0.7 2.41, -0.7 2.41, -0.7 2.29 C-0.7 2.18, -0.71 1.95, -0.71 1.79 C-0.71 1.62, -0.7 1.42, -0.7 1.31 C-0.7 1.19, -0.7 1.17, -0.69 1.1 C-0.68 1.04, -0.67 0.98, -0.66 0.92 C-0.65 0.86, -0.65 0.79, -0.63 0.73 C-0.62 0.66, -0.59 0.6, -0.56 0.54 C-0.53 0.48, -0.5 0.42, -0.46 0.37 C-0.43 0.31, -0.41 0.27, -0.36 0.23 C-0.31 0.18, -0.23 0.13, -0.17 0.1 C-0.11 0.06, -0.03 0.02, 0 0" stroke="#fab005" stroke-width="1" fill="none"></path></g></g><mask></mask><g transform="translate(555.7326149364428 293.49076246676805) rotate(0 29.5 30.5)"><text x="29.5" y="45" font-family="Virgil, Segoe UI Emoji" font-size="41.5648932430553px" fill="#fab005" text-anchor="middle" style="white-space: pre;" direction="ltr">❌</text></g></svg>