<svg version="1.1" xmlns="http://www.w3.org/2000/svg" viewBox="0 0 490.3934506098162 410.2192672931462" width="490.3934506098162" height="410.2192672931462">
  <!-- svg-source:excalidraw -->
  
  <defs>
    <style class="style-fonts">
      @font-face {
        font-family: "Virgil";
        src: url("https://excalidraw.com/Virgil.woff2");
      }
      @font-face {
        font-family: "Cascadia";
        src: url("https://excalidraw.com/Cascadia.woff2");
      }
    </style>
  </defs>
  <g stroke-linecap="round" transform="translate(279.30635022722845 63.23296261494556) rotate(0 36.77064306528246 21.94641625621142)"><path d="M1.39 0.64 L72.33 -0.64 L73.87 43.69 L0.49 45.3" stroke="none" stroke-width="0" fill="#be4bdb"></path><path d="M0.14 -1.07 C19.06 -0.36, 37.78 -1.44, 75.15 1.91 M0.6 -0.95 C20.1 0.37, 39.17 0.09, 73.34 0.05 M73.78 1.43 C72.84 17.29, 73.16 32.9, 74.94 44.32 M74.49 0.32 C74.32 11.18, 72.65 22.36, 73.77 43.2 M72.55 42.55 C50.49 42.47, 24.84 43.38, -1.14 45.78 M73.84 44.61 C54.48 42.81, 37.2 42.85, 0.68 43.8 M-0.85 43.09 C1.24 32.44, -1.46 17.67, 0.23 0.99 M-0.91 43.16 C0.13 32.48, -0.8 22.04, -0.26 0.91" stroke="#be4bdb" stroke-width="1" fill="none"></path></g><g stroke-linecap="round" transform="translate(270.90082253676906 55.075923718811964) rotate(0 47.23957432018324 55.981117075925624)"><path d="M0 0 C31.67 0, 63.34 0, 94.48 0 M0 0 C31.44 0, 62.88 0, 94.48 0 M94.48 0 C94.48 32.1, 94.48 64.21, 94.48 111.96 M94.48 0 C94.48 28.87, 94.48 57.73, 94.48 111.96 M94.48 111.96 C68.44 111.96, 42.39 111.96, 0 111.96 M94.48 111.96 C73.95 111.96, 53.42 111.96, 0 111.96 M0 111.96 C0 89.2, 0 66.45, 0 0 M0 111.96 C0 72.12, 0 32.27, 0 0" stroke="#000000" stroke-width="2" fill="none"></path></g><g stroke-linecap="round" transform="translate(320.5732397315287 139.4721261445128) rotate(0 10.317141675294351 8.659185886941543)"><path d="M-0.34 1.91 L22.38 1.64 L21.9 16.14 L0.34 18.2" stroke="none" stroke-width="0" fill="#fab005"></path><path d="M-0.72 1.63 C9.33 0.88, 15.09 1.19, 21.13 0.93 M-0.31 -0.74 C6.11 0.17, 11.58 -0.35, 20.51 0.39 M21.72 1.64 C21.53 4.92, 19.93 11.19, 20.53 18.98 M21.37 -0.22 C19.94 3.08, 20.16 8.18, 20.65 17.73 M22.25 16.86 C12.37 18.26, 4.2 18.3, -1.53 18.13 M21.12 16.99 C12.96 17.04, 7.06 17.39, -0.59 17.71 M-1.65 18.43 C-1.6 12.42, -1.01 6.35, 0.68 -0.71 M0.6 18.03 C0.57 11.57, -0.51 5.48, 0.61 -0.39" stroke="#fab005" stroke-width="2" fill="none"></path></g><g stroke-linecap="round" transform="translate(321.1555887115935 115.81676713448815) rotate(0 10.317141675294351 8.659185886941543)"><path d="M1.74 1.64 L21.9 -1.17 L20.98 18.2 L0.86 16.12" stroke="none" stroke-width="0" fill="#fab005"></path><path d="M1.97 0.98 C7.45 1.11, 14.68 0.76, 20.4 1.57 M0.16 0.14 C5.52 -0.23, 11.56 0.54, 20.77 -0.91 M21.69 -0.52 C20.2 4.18, 20.63 9.39, 19.31 17.51 M19.92 -0.79 C20.29 5, 20.8 9.55, 21.44 16.96 M20.49 18.37 C15.35 18.36, 8.94 18.08, 0.75 17.44 M19.93 17.03 C14.69 17.31, 7.46 17.64, -0.25 17.9 M-1.5 17.18 C-0.75 11.08, 0.85 7, 0.45 -0.61 M0.51 17.22 C-0.69 11.8, 0.49 6.98, -0.15 0.83" stroke="#fab005" stroke-width="2" fill="none"></path></g><g stroke-linecap="round" transform="translate(292.07483229120635 116.19940866633544) rotate(0 10.317141675294351 8.659185886941543)"><path d="M1.27 -1.17 L20.98 0.88 L21.49 16.12 L-0.27 17.28" stroke="none" stroke-width="0" fill="#fab005"></path><path d="M0.36 1.28 C8.37 0.83, 15.5 1.47, 20.29 -0.62 M-0.32 -0.39 C4.54 0.36, 9.45 -0.94, 19.87 0.62 M20.09 0.32 C20.63 8.49, 19.42 13.86, 20.01 18.8 M20.15 0.43 C20.51 5.17, 21.3 9.15, 20.17 18.02 M20.43 18.41 C13.39 18.24, 9.95 17.55, 0.1 18.29 M20.98 17.38 C14.52 17.65, 9.34 17.84, -0.23 16.37 M-0.91 15.88 C0.83 10.29, 0.6 4.08, -0.22 1.2 M-0.57 16.78 C0.51 10.31, -0.25 4.91, 0.76 0.71" stroke="#fab005" stroke-width="2" fill="none"></path></g><g stroke-linecap="round" transform="translate(292.5618682934012 139.44149767389922) rotate(0 10.317141675294351 8.659185886941543)"><path d="M0.34 0.88 L21.49 -1.19 L20.36 17.28 L0.14 18.12" stroke="none" stroke-width="0" fill="#fab005"></path><path d="M0.5 0.93 C6.96 1.44, 14.05 -0.75, 19.15 0.32 M-0.12 0.39 C6.61 -0.84, 12.18 0.7, 21.58 0.61 M20.53 1.66 C19.26 4.87, 19.95 10.84, 20.19 15.89 M20.65 0.41 C21.35 3.26, 20.07 7.93, 20.43 17.25 M19.11 18.13 C14.11 17.55, 6.18 18.4, -0.65 15.9 M20.04 17.71 C14.78 17.91, 9.2 16.38, 0.64 16.45 M0.68 16.6 C0.54 11.65, -0.13 8.4, 1.42 1.02 M0.61 16.93 C-0.04 13.16, 0.87 8.05, 0.55 -0.51" stroke="#fab005" stroke-width="2" fill="none"></path></g><g stroke-linecap="round" transform="translate(394.3198296599089 181.5022316756971) rotate(0 36.77064306528246 21.94641625621142)"><path d="M1.71 -0.04 L75.47 1.82 L74.33 42.68 L-0.91 44.69" stroke="none" stroke-width="0" fill="#be4bdb"></path><path d="M-1.59 -0.92 C21.86 1.4, 46.14 -1.34, 73.58 0.95 M0.49 0.46 C23 -0.07, 46.41 0.09, 73.81 0.63 M73.42 -0.84 C71.48 13.52, 72.21 28.74, 74.31 44.83 M73.25 -0.38 C74.33 14.66, 74.21 28.22, 73.11 43.61 M73.45 45.83 C51.47 43.34, 32.85 45.37, 1.4 45.77 M72.8 43.97 C45.1 43.09, 15.98 42.74, 0.09 43.13 M0.11 42.37 C-0.33 26.02, -2.16 9.97, 0.83 -0.81 M0.66 43.94 C-0.04 30.17, 0.59 15.06, 0.66 0.3" stroke="#be4bdb" stroke-width="1" fill="none"></path></g><g stroke-linecap="round" transform="translate(385.91430196944975 173.3451927795635) rotate(0 47.23957432018324 55.981117075925624)"><path d="M0 0 C21.66 0, 43.32 0, 94.48 0 M0 0 C25.92 0, 51.84 0, 94.48 0 M94.48 0 C94.48 24.94, 94.48 49.88, 94.48 111.96 M94.48 0 C94.48 29.83, 94.48 59.67, 94.48 111.96 M94.48 111.96 C70.73 111.96, 46.97 111.96, 0 111.96 M94.48 111.96 C70.62 111.96, 46.76 111.96, 0 111.96 M0 111.96 C0 67.3, 0 22.64, 0 0 M0 111.96 C0 83.86, 0 55.75, 0 0" stroke="#000000" stroke-width="2" fill="none"></path></g><g stroke-linecap="round" transform="translate(435.58671916420917 257.74139520526444) rotate(0 10.317141675294351 8.659185886941543)"><path d="M1.93 1.82 L21.42 -1.22 L19.73 18.12 L-1.06 17.24" stroke="none" stroke-width="0" fill="#fab005"></path><path d="M-0.91 1.22 C6.28 -1.43, 11.38 1.04, 20.95 -0.51 M-0.22 -0.44 C5.11 -0.38, 10.55 0.54, 21.07 -0.77 M19.14 -1.34 C19.76 4.54, 21.29 12.32, 20.95 16.74 M21.45 0.61 C21.29 6.7, 20.21 12.63, 20.48 16.9 M19.32 16.62 C14.86 18.85, 8.83 19.39, 1.83 16.37 M20.97 17.03 C15.86 16.69, 11.19 16.57, 0.74 18.31 M0.09 16.05 C-1.5 11.26, 0.71 6.4, 0.47 -0.85 M-0.22 17.86 C0.21 10.67, 0.46 4.51, 0.74 -0.02" stroke="#fab005" stroke-width="2" fill="none"></path></g><g stroke-linecap="round" transform="translate(436.16906814427375 234.0860361952399) rotate(0 10.317141675294351 8.659185886941543)"><path d="M1.82 0.79 L19.42 -0.91 L21.43 16.26 L-0.08 16.27" stroke="none" stroke-width="0" fill="#fab005"></path><path d="M1.22 0.61 C3.03 0.13, 10.06 0.41, 20.12 -1.02 M-0.44 -0.03 C6.9 0.32, 15.02 0.48, 19.86 0.32 M19.3 -0.86 C19.35 5.75, 21.37 10.49, 20.05 18.56 M21.24 0.71 C20.83 4.32, 20.32 9.24, 20.21 17.49 M19.94 18.15 C15.87 18.58, 10.32 19.01, -0.95 15.94 M20.34 17.32 C15.33 17.48, 10.56 18.13, 0.99 17.27 M-1.27 15.83 C-0.82 12.74, -0.57 7.2, -0.85 1.34 M0.55 17.64 C-0.12 11.56, 0.25 5.4, -0.02 0.84" stroke="#fab005" stroke-width="2" fill="none"></path></g><g stroke-linecap="round" transform="translate(407.0883117238868 234.46867772708708) rotate(0 10.317141675294351 8.659185886941543)"><path d="M0.79 -1.22 L19.73 0.8 L19.57 17.24 L-1.05 16.37" stroke="none" stroke-width="0" fill="#fab005"></path><path d="M0.61 -1.52 C5.27 0.82, 10.79 -0.64, 19.61 0.97 M-0.03 -0.29 C7.41 0.73, 14.71 -0.68, 20.96 -0.06 M19.78 -1.21 C21.15 5.28, 20.8 8.36, 21.88 16.82 M21.34 0.27 C20.43 4.3, 20.64 8.66, 20.81 17.28 M21.46 18.65 C13.85 19.12, 6.09 16.3, -1.38 15.83 M20.63 16.67 C14.37 16.49, 8.66 18.25, -0.05 17.37 M-1.49 16.37 C0.71 12.73, 0.46 8.71, 1.34 1.13 M0.32 17.21 C0.62 12.3, 0.79 6.75, 0.84 0.79" stroke="#fab005" stroke-width="2" fill="none"></path></g><g stroke-linecap="round" transform="translate(407.5753477260819 257.71076673465075) rotate(0 10.317141675294351 8.659185886941543)"><path d="M-1.22 -0.91 L21.43 -1.06 L20.55 16.27 L-0.95 18.82" stroke="none" stroke-width="0" fill="#fab005"></path><path d="M-1.52 0.04 C6.2 0.25, 10 -1.08, 21.61 0.92 M-0.29 0.27 C6.37 0.44, 10.71 0.33, 20.57 -0.42 M19.42 0.67 C21.31 4.02, 19.92 8.65, 20.13 16.67 M20.9 -0.37 C20.51 6.67, 20.34 13.81, 20.59 18.16 M21.97 18.72 C17.67 19.23, 10.02 16.03, -1.49 17.48 M19.99 17.41 C12.98 18.06, 7.84 17.27, 0.06 16.56 M-0.95 18.04 C-0.58 12.5, -0.72 8.09, 1.13 0.08 M-0.11 17.89 C0.15 13.31, -0.13 8.66, 0.79 0.34" stroke="#fab005" stroke-width="2" fill="none"></path></g><g stroke-linecap="round" transform="translate(282.0629270612433 296.4140720374285) rotate(0 36.77064306528246 21.94641625621142)"><path d="M0.35 0.05 L72.4 -0.63 L73.57 44.83 L1.41 44.71" stroke="none" stroke-width="0" fill="#be4bdb"></path><path d="M1.88 -1.9 C14.19 1.23, 30.26 1.59, 73.91 -0.5 M0.07 0.29 C21.01 -0.56, 40.99 -1.41, 73.25 -0.84 M74.03 -0.85 C71.73 17.3, 74.57 33.31, 75.38 41.91 M74.12 0.69 C73.02 11.51, 72.72 24.81, 72.59 44.19 M73.65 42.4 C60.06 43.89, 42.42 44.27, -0.14 45.15 M74.51 43.59 C55.71 43.58, 36.93 43.97, 0.14 43.93 M-1.88 42.75 C0.34 35.23, 0.98 24.62, -1.15 -1.49 M0.46 43.04 C0.28 32.74, 1 23.15, 0.6 -0.01" stroke="#be4bdb" stroke-width="1" fill="none"></path></g><g stroke-linecap="round" transform="translate(273.6573993707841 288.2570331412949) rotate(0 47.23957432018324 55.981117075925624)"><path d="M0 0 C28.88 0, 57.76 0, 94.48 0 M0 0 C34.52 0, 69.05 0, 94.48 0 M94.48 0 C94.48 35.57, 94.48 71.15, 94.48 111.96 M94.48 0 C94.48 35.62, 94.48 71.23, 94.48 111.96 M94.48 111.96 C60.6 111.96, 26.73 111.96, 0 111.96 M94.48 111.96 C67.89 111.96, 41.29 111.96, 0 111.96 M0 111.96 C0 74.11, 0 36.27, 0 0 M0 111.96 C0 89.12, 0 66.28, 0 0" stroke="#000000" stroke-width="2" fill="none"></path></g><g stroke-linecap="round" transform="translate(323.3298165655435 372.6532355669961) rotate(0 10.317141675294351 8.659185886941543)"><path d="M-1.14 -0.63 L20.66 0.93 L22.05 18.14 L-1.9 18.28" stroke="none" stroke-width="0" fill="#fab005"></path><path d="M-1.7 0.73 C3.26 1.29, 9.95 -0.31, 20.19 1.31 M0.58 0.16 C8.34 -0.75, 16.12 -0.9, 21.55 0.18 M19 0.11 C21.5 3.64, 22.27 7.34, 20.16 17.63 M20.11 -0.4 C19.96 5.16, 19.91 9.08, 19.85 17.83 M22.55 17.87 C15.69 18.1, 11.24 18.42, -1 16.95 M21.19 16.81 C14.08 17.15, 7.34 17.29, -0.77 17.7 M0.44 18.3 C1.16 12.06, -0.83 4.95, -1.05 -1.66 M-0.12 16.76 C0.42 11.3, 0.44 4.79, 0.15 0.02" stroke="#fab005" stroke-width="2" fill="none"></path></g><g stroke-linecap="round" transform="translate(323.9121655456081 348.99787655697133) rotate(0 10.317141675294351 8.659185886941543)"><path d="M-0.63 0.03 L21.57 1.41 L21.45 15.42 L0.96 19.26" stroke="none" stroke-width="0" fill="#fab005"></path><path d="M0.73 -1.53 C9.22 0.54, 15.76 -0.27, 21.94 1.95 M0.16 0.13 C5.65 -0.41, 11.84 0.79, 20.81 -0.38 M20.75 0.82 C19.67 7.21, 18.84 10.77, 20.95 16.53 M20.23 -0.78 C21.51 5.37, 21.01 11.6, 21.14 16.66 M21.19 17 C15.27 17.37, 9.28 16.52, -0.37 17.83 M20.13 17.48 C12.33 17.57, 4.28 16.66, 0.38 17.52 M0.98 18.31 C0.38 12.76, -1.19 9.13, -1.66 1.06 M-0.56 17.82 C0.38 11.84, 0.14 5.47, 0.02 -0.49" stroke="#fab005" stroke-width="2" fill="none"></path></g><g stroke-linecap="round" transform="translate(294.83140912522117 349.3805180888185) rotate(0 10.317141675294351 8.659185886941543)"><path d="M0.03 0.93 L22.05 0.82 L18.73 18.28 L1.94 19.21" stroke="none" stroke-width="0" fill="#fab005"></path><path d="M-1.53 1.09 C4.6 -0.58, 8.02 1.23, 22.59 0.15 M0.13 -0.69 C6.5 -0.87, 14.49 0.15, 20.25 0.25 M21.46 -0.89 C22.06 2.74, 20 9.24, 19.85 18.32 M19.86 0.76 C19.7 6.65, 19.75 13.29, 19.98 17.37 M20.31 18.26 C15.84 18.63, 10.33 17, 0.51 19.26 M20.79 17.21 C15.21 17.25, 8.75 17.59, 0.2 16.38 M1 17.6 C-1.04 11.83, -1.09 7.25, 1.06 0.8 M0.5 17.55 C0.54 13.59, 0.17 9.9, -0.49 -0.27" stroke="#fab005" stroke-width="2" fill="none"></path></g><g stroke-linecap="round" transform="translate(295.3184451274162 372.6226070963822) rotate(0 10.317141675294351 8.659185886941543)"><path d="M0.93 1.41 L21.45 -1.9 L21.59 19.26 L1.89 18.15" stroke="none" stroke-width="0" fill="#fab005"></path><path d="M1.09 0.37 C3.93 -0.29, 10.18 2.11, 20.78 0.58 M-0.69 -0.29 C6.55 0.88, 14.95 -0.41, 20.88 -0.42 M19.74 1.59 C18.92 3.09, 20.96 6.34, 21.63 18.52 M21.39 -0.83 C20.81 3.36, 21.06 7.64, 20.68 16.67 M21.57 17.18 C13.73 16.28, 3.93 17.79, 1.94 16.7 M20.53 17.45 C13.34 16.58, 6.35 17.55, -0.94 16.74 M0.28 16.32 C-1.39 10.63, -1.76 7.11, 0.8 -1.48 M0.24 17.84 C0.1 12.52, 0.13 6.92, -0.27 0.01" stroke="#fab005" stroke-width="2" fill="none"></path></g><g stroke-linecap="round" transform="translate(10 69.82551291563789) rotate(0 70 155)"><path d="M0 0 C42.8 0, 85.61 0, 140 0 M140 0 C140 74.99, 140 149.98, 140 310 M140 310 C107.61 310, 75.22 310, 0 310 M0 310 C0 215.56, 0 121.13, 0 0" stroke="#e67700" stroke-width="2.5" fill="none" stroke-dasharray="1.5 8"></path></g><g stroke-linecap="round" transform="translate(35.167664326610975 183.7986819135964) rotate(0 44.48236047551359 45.13940688680432)"><path d="M22.24 0 L71.94 0.35 L80.28 3.13 L85.84 8.69 L87.57 12.51 L88.96 22.24 L88.62 73.25 L85.84 81.59 L80.28 87.15 L76.45 88.89 L66.72 90.28 L17.03 89.93 L8.69 87.15 L3.13 81.59 L1.39 77.77 L0 68.04 L0 22.24 L1.39 12.51 L3.13 8.69 L8.69 3.13 L17.03 0.35 L22.24 0" stroke="none" stroke-width="0" fill="#e67700"></path><path d="M22.24 0 M22.24 0 C34.68 0, 47.13 0, 66.72 0 M22.24 0 C33.33 0, 44.41 0, 66.72 0 M66.72 0 C81.55 0, 88.96 7.41, 88.96 22.24 M66.72 0 C81.55 0, 88.96 7.41, 88.96 22.24 M88.96 22.24 C88.96 34.54, 88.96 46.83, 88.96 68.04 M88.96 22.24 C88.96 34.48, 88.96 46.72, 88.96 68.04 M88.96 68.04 C88.96 82.87, 81.55 90.28, 66.72 90.28 M88.96 68.04 C88.96 82.87, 81.55 90.28, 66.72 90.28 M66.72 90.28 C55.16 90.28, 43.59 90.28, 22.24 90.28 M66.72 90.28 C53.4 90.28, 40.07 90.28, 22.24 90.28 M22.24 90.28 C7.41 90.28, 0 82.87, 0 68.04 M22.24 90.28 C7.41 90.28, 0 82.87, 0 68.04 M0 68.04 C0 53.18, 0 38.32, 0 22.24 M0 68.04 C0 54.76, 0 41.48, 0 22.24 M0 22.24 C0 7.41, 7.41 0, 22.24 0 M0 22.24 C0 7.41, 7.41 0, 22.24 0" stroke="#263238" stroke-width="4" fill="none"></path></g><g stroke-linecap="round"><g transform="translate(70.96861722541598 214.07903306315234) rotate(0 14.902274343501631 15.168802064873887)" fill-rule="evenodd"><path d="M0 0 L-8.52 0.05 L-9.54 -0.06 L-10.16 -0.92 L-10.1 -14.95 L-9.76 -15.84 L-8.73 -16.08 L9.75 -16.18 L10.76 -15.94 L11.43 -15.11 L33.53 30.31 L38.43 30.42 L39.53 30.68 L39.91 31.69 L39.96 45.12 L39.5 46.17 L38.74 46.44 L23.02 46.52 L22.19 45.99 L0 0" stroke="none" stroke-width="0" fill="#e67700" fill-rule="evenodd"></path><path d="M0 0 C-3.15 0.02, -6.31 0.04, -8.52 0.05 M0 0 C-1.86 0.01, -3.72 0.02, -8.52 0.05 M-8.52 0.05 C-8.81 0.02, -9.1 -0.01, -9.54 -0.06 M-8.52 0.05 C-8.75 0.03, -8.97 0, -9.54 -0.06 M-9.54 -0.06 C-9.69 -0.27, -9.85 -0.49, -10.16 -0.92 M-9.54 -0.06 C-9.7 -0.28, -9.86 -0.5, -10.16 -0.92 M-10.16 -0.92 C-10.14 -6.45, -10.12 -11.97, -10.1 -14.95 M-10.16 -0.92 C-10.14 -5.85, -10.12 -10.78, -10.1 -14.95 M-10.1 -14.95 C-9.99 -15.25, -9.88 -15.55, -9.76 -15.84 M-10.1 -14.95 C-10.01 -15.21, -9.91 -15.47, -9.76 -15.84 M-9.76 -15.84 C-9.37 -15.93, -8.99 -16.02, -8.73 -16.08 M-9.76 -15.84 C-9.52 -15.9, -9.27 -15.95, -8.73 -16.08 M-8.73 -16.08 C-3.45 -16.11, 1.82 -16.13, 9.75 -16.18 M-8.73 -16.08 C-2.45 -16.11, 3.82 -16.15, 9.75 -16.18 M9.75 -16.18 C10.05 -16.11, 10.35 -16.04, 10.76 -15.94 M9.75 -16.18 C10.09 -16.1, 10.44 -16.01, 10.76 -15.94 M10.76 -15.94 C10.95 -15.7, 11.14 -15.47, 11.43 -15.11 M10.76 -15.94 C10.9 -15.77, 11.04 -15.6, 11.43 -15.11 M11.43 -15.11 C19.18 0.81, 26.92 16.73, 33.53 30.31 M11.43 -15.11 C18.29 -1, 25.16 13.1, 33.53 30.31 M33.53 30.31 C34.64 30.34, 35.75 30.36, 38.43 30.42 M33.53 30.31 C34.87 30.34, 36.22 30.37, 38.43 30.42 M38.43 30.42 C38.7 30.48, 38.97 30.55, 39.53 30.68 M38.43 30.42 C38.83 30.51, 39.23 30.61, 39.53 30.68 M39.53 30.68 C39.66 31.02, 39.78 31.36, 39.91 31.69 M39.53 30.68 C39.65 31, 39.76 31.31, 39.91 31.69 M39.91 31.69 C39.92 34.44, 39.93 37.19, 39.96 45.12 M39.91 31.69 C39.93 35.85, 39.94 40.01, 39.96 45.12 M39.96 45.12 C39.81 45.47, 39.65 45.83, 39.5 46.17 M39.96 45.12 C39.84 45.38, 39.73 45.65, 39.5 46.17 M39.5 46.17 C39.21 46.27, 38.92 46.38, 38.74 46.44 M39.5 46.17 C39.25 46.26, 38.99 46.35, 38.74 46.44 M38.74 46.44 C33.98 46.46, 29.22 46.49, 23.02 46.52 M38.74 46.44 C34.91 46.46, 31.09 46.48, 23.02 46.52 M23.02 46.52 C22.83 46.4, 22.64 46.28, 22.19 45.99 M23.02 46.52 C22.85 46.41, 22.68 46.3, 22.19 45.99 M22.19 45.99 C13.41 27.8, 4.64 9.62, 0 0 M22.19 45.99 C13.77 28.55, 5.36 11.11, 0 0 M0 0 C0 0, 0 0, 0 0 M0 0 C0 0, 0 0, 0 0" stroke="white" stroke-width="2" fill="none"></path></g></g><mask></mask><g stroke-linecap="round"><g transform="translate(59.99311458086959 239.7776781662012) rotate(0 4.617441714687288 1.6238437946085753)" fill-rule="evenodd"><path d="M0 0 L-8.55 17.96 L-9 19.13 L-9.08 19.98 L-8.35 20.55 L-7.61 20.74 L8.33 20.64 L9.22 20.26 L17.93 1.29 L18.31 0.26 L18.03 -0.66 L10.02 -16.88 L8.75 -17.49 L7.76 -16.55 L0 0" stroke="none" stroke-width="0" fill="#e67700" fill-rule="evenodd"></path><path d="M0 0 C-3.41 7.16, -6.82 14.32, -8.55 17.96 M0 0 C-3.23 6.77, -6.45 13.55, -8.55 17.96 M-8.55 17.96 C-8.66 18.23, -8.76 18.5, -9 19.13 M-8.55 17.96 C-8.7 18.35, -8.85 18.75, -9 19.13 M-9 19.13 C-9.02 19.31, -9.03 19.48, -9.08 19.98 M-9 19.13 C-9.02 19.35, -9.04 19.57, -9.08 19.98 M-9.08 19.98 C-8.88 20.14, -8.68 20.29, -8.35 20.55 M-9.08 19.98 C-8.8 20.2, -8.52 20.41, -8.35 20.55 M-8.35 20.55 C-8.1 20.61, -7.85 20.68, -7.61 20.74 M-8.35 20.55 C-8.18 20.59, -8.02 20.63, -7.61 20.74 M-7.61 20.74 C-2.55 20.71, 2.52 20.68, 8.33 20.64 M-7.61 20.74 C-1.82 20.7, 3.96 20.67, 8.33 20.64 M8.33 20.64 C8.6 20.52, 8.88 20.41, 9.22 20.26 M8.33 20.64 C8.52 20.56, 8.71 20.48, 9.22 20.26 M9.22 20.26 C11.17 16.02, 13.11 11.78, 17.93 1.29 M9.22 20.26 C11.15 16.05, 13.08 11.84, 17.93 1.29 M17.93 1.29 C18 1.08, 18.08 0.87, 18.31 0.26 M17.93 1.29 C18.03 1.02, 18.13 0.75, 18.31 0.26 M18.31 0.26 C18.25 0.05, 18.18 -0.15, 18.03 -0.66 M18.31 0.26 C18.25 0.06, 18.19 -0.14, 18.03 -0.66 M18.03 -0.66 C15.6 -5.57, 13.18 -10.47, 10.02 -16.88 M18.03 -0.66 C15.21 -6.36, 12.39 -12.06, 10.02 -16.88 M10.02 -16.88 C9.6 -17.08, 9.18 -17.28, 8.75 -17.49 M10.02 -16.88 C9.6 -17.08, 9.19 -17.28, 8.75 -17.49 M8.75 -17.49 C8.49 -17.25, 8.23 -17, 7.76 -16.55 M8.75 -17.49 C8.39 -17.15, 8.03 -16.81, 7.76 -16.55 M7.76 -16.55 C5.12 -10.93, 2.49 -5.31, 0 0 M7.76 -16.55 C5.88 -12.55, 4.01 -8.56, 0 0 M0 0 C0 0, 0 0, 0 0 M0 0 C0 0, 0 0, 0 0" stroke="white" stroke-width="2" fill="none"></path></g></g><mask></mask><g stroke-linecap="round"><g transform="translate(154.0277863519059 349.8424071493108) rotate(0 60.04927991183331 -0.5056626903403867)"><path d="M0 0 C35.12 -0.3, 70.23 -0.59, 120.1 -1.01" stroke="#e67700" stroke-width="2.5" fill="none" stroke-dasharray="1.5 8"></path></g><g transform="translate(154.0277863519059 349.8424071493108) rotate(0 60.04927991183331 -0.5056626903403867)"><path d="M0 0 L13.54 -6.45 L13.65 6.22 L0 0" stroke="none" stroke-width="0" fill="#e67700" fill-rule="evenodd"></path><path d="M0 0 C3.96 -1.89, 7.92 -3.77, 13.54 -6.45 M13.54 -6.45 C13.58 -2.1, 13.61 2.25, 13.65 6.22 M13.65 6.22 C9.72 4.43, 5.8 2.64, 0 0 M0 0 C0 0, 0 0, 0 0" stroke="#e67700" stroke-width="2.5" fill="none"></path></g><g transform="translate(154.0277863519059 349.8424071493108) rotate(0 60.04927991183331 -0.5056626903403867)"><path d="M120.1 -1.01 L106.56 5.44 L106.45 -7.24 L120.1 -1.01" stroke="none" stroke-width="0" fill="#e67700" fill-rule="evenodd"></path><path d="M120.1 -1.01 C116.14 0.88, 112.18 2.76, 106.56 5.44 M106.56 5.44 C106.52 1.09, 106.48 -3.26, 106.45 -7.24 M106.45 -7.24 C110.38 -5.45, 114.3 -3.65, 120.1 -1.01 M120.1 -1.01 C120.1 -1.01, 120.1 -1.01, 120.1 -1.01" stroke="#e67700" stroke-width="2.5" fill="none"></path></g></g><mask></mask><g stroke-linecap="round"><g transform="translate(153.71074152254414 239.7514394208041) rotate(0 115.86304660358826 -1.1122618822481627)"><path d="M0 0 C57.25 -0.55, 114.5 -1.1, 231.73 -2.22" stroke="#e67700" stroke-width="2.5" fill="none" stroke-dasharray="1.5 8"></path></g><g transform="translate(153.71074152254414 239.7514394208041) rotate(0 115.86304660358826 -1.1122618822481627)"><path d="M0 0 L13.53 -6.47 L13.65 6.21 L0 0" stroke="none" stroke-width="0" fill="#e67700" fill-rule="evenodd"></path><path d="M0 0 C3.34 -1.6, 6.69 -3.2, 13.53 -6.47 M13.53 -6.47 C13.56 -3.53, 13.59 -0.6, 13.65 6.21 M13.65 6.21 C10.76 4.89, 7.86 3.57, 0 0 M0 0 C0 0, 0 0, 0 0" stroke="#e67700" stroke-width="2.5" fill="none"></path></g><g transform="translate(153.71074152254414 239.7514394208041) rotate(0 115.86304660358826 -1.1122618822481627)"><path d="M231.73 -2.22 L218.19 4.24 L218.07 -8.43 L231.73 -2.22" stroke="none" stroke-width="0" fill="#e67700" fill-rule="evenodd"></path><path d="M231.73 -2.22 C228.38 -0.63, 225.04 0.97, 218.19 4.24 M218.19 4.24 C218.16 1.31, 218.14 -1.63, 218.07 -8.43 M218.07 -8.43 C220.97 -7.11, 223.87 -5.8, 231.73 -2.22 M231.73 -2.22 C231.73 -2.22, 231.73 -2.22, 231.73 -2.22" stroke="#e67700" stroke-width="2.5" fill="none"></path></g></g><mask></mask><g stroke-linecap="round"><g transform="translate(149.81355478429555 114.70117086699281) rotate(0 60.04927991183331 -0.5056626903403867)"><path d="M0 0 C34.42 -0.29, 68.83 -0.58, 120.1 -1.01" stroke="#e67700" stroke-width="2.5" fill="none" stroke-dasharray="1.5 8"></path></g><g transform="translate(149.81355478429555 114.70117086699281) rotate(0 60.04927991183331 -0.5056626903403867)"><path d="M0 0 L13.54 -6.45 L13.65 6.22 L0 0" stroke="none" stroke-width="0" fill="#e67700" fill-rule="evenodd"></path><path d="M0 0 C3.88 -1.85, 7.76 -3.7, 13.54 -6.45 M13.54 -6.45 C13.58 -1.66, 13.62 3.13, 13.65 6.22 M13.65 6.22 C8.71 3.97, 3.77 1.72, 0 0 M0 0 C0 0, 0 0, 0 0" stroke="#e67700" stroke-width="2.5" fill="none"></path></g><g transform="translate(149.81355478429555 114.70117086699281) rotate(0 60.04927991183331 -0.5056626903403867)"><path d="M120.1 -1.01 L106.56 5.44 L106.45 -7.24 L120.1 -1.01" stroke="none" stroke-width="0" fill="#e67700" fill-rule="evenodd"></path><path d="M120.1 -1.01 C116.22 0.84, 112.34 2.69, 106.56 5.44 M106.56 5.44 C106.52 0.65, 106.48 -4.14, 106.45 -7.24 M106.45 -7.24 C111.39 -4.98, 116.33 -2.73, 120.1 -1.01 M120.1 -1.01 C120.1 -1.01, 120.1 -1.01, 120.1 -1.01" stroke="#e67700" stroke-width="2.5" fill="none"></path></g></g><mask></mask><g stroke-linecap="round" transform="translate(266.2274724109318 10) rotate(0 17.5899167921566 17.446909338561795)"><path d="M10.24 0.58 L25.53 0.7 L34.06 1.25 L34.27 9.19 L35.97 27.21 L34.08 33.74 L27.83 36.41 L9.61 36.09 L2.01 33.82 L-1.29 27.58 L2.1 2.99 L4.06 0.29 L9.06 0.32" stroke="none" stroke-width="0" fill="#ced4da"></path><path d="M8.72 0 M8.72 0 C14.49 0.25, 17.16 -1.62, 26.46 0 M8.72 0 C13.51 0.75, 19.76 0.18, 26.46 0 M26.46 0 C30.82 0.39, 34.58 4.24, 35.18 8.72 M26.46 0 C30.34 0.04, 36.18 1.54, 35.18 8.72 M35.18 8.72 C33.63 16.27, 33.8 21.29, 35.18 26.17 M35.18 8.72 C35 13.96, 34.85 18.55, 35.18 26.17 M35.18 26.17 C35.97 32.5, 32.7 34.69, 26.46 34.89 M35.18 26.17 C35.21 31.31, 31.31 35.82, 26.46 34.89 M26.46 34.89 C23.1 35.67, 20.34 33.32, 8.72 34.89 M26.46 34.89 C21.48 35.38, 15.98 34.94, 8.72 34.89 M8.72 34.89 C1.39 35.75, -1.11 31.48, 0 26.17 M8.72 34.89 C4.6 36.14, 1.24 33.05, 0 26.17 M0 26.17 C-0.47 21.57, -1.62 14.82, 0 8.72 M0 26.17 C-0.57 21.44, -0.65 15.01, 0 8.72 M0 8.72 C-1.94 3.37, 4.56 -0.85, 8.72 0 M0 8.72 C-0.31 4.86, 2.51 0.02, 8.72 0" stroke="#28343c" stroke-width="2" fill="none"></path></g><g stroke-linecap="round"><g transform="translate(277.539075312377 39.57109052294311) rotate(0 0.0614303108304739 -11.974032866245636)"><path d="M1.06 -0.93 C-0.8 -7.24, 0.9 -14.38, 1.08 -22.42 M0.6 -0.08 C0.38 -9.29, 0.53 -16.51, -0.96 -23.86" stroke="#343a40" stroke-width="2" fill="none"></path></g></g><mask></mask><g stroke-linecap="round"><g transform="translate(275.3307383278875 39.57109052294311) rotate(0 2.3891378175113687 0.055273567137703594)"><path d="M-0.22 -0.22 C1.32 0.16, 2.66 0.23, 5 0.33 M-0.02 0.13 C1.63 0.14, 3.76 -0.26, 4.66 -0.03" stroke="#343a40" stroke-width="2" fill="none"></path></g></g><mask></mask><g stroke-linecap="round"><g transform="translate(277.6202059895418 18.50695313240351) rotate(0 8.273397520499884 5.150775113350505)" fill-rule="evenodd"><path d="M1.39 -1.04 L14.07 0.4 L12.58 3.48 L17.8 10.8 L0.82 12.06 L-1.55 -0.34" stroke="none" stroke-width="0" fill="#ffffff" fill-rule="evenodd"></path><path d="M-0.72 0.37 C5.89 0.89, 11.38 0.88, 16.8 1.19 M0.44 -0.51 C5.96 0.63, 10.07 -0.32, 15.62 0.13 M15.12 0.47 C14.34 1.42, 12.2 3.52, 11.19 5.62 M15.81 -0.25 C14.88 1.07, 14.09 2.05, 11.31 5.59 M11.15 4.89 C12.82 6.14, 13.32 7.47, 16.41 10.74 M11.63 5.57 C12.71 6.81, 13.86 8.02, 15.96 10.05 M17.26 10.51 C11.13 11.41, 3.48 9.89, 1.07 10.77 M16.04 9.58 C11.6 9.65, 6.24 10.71, 0.31 10.68 M0.17 10.03 C0.78 5.8, 0.49 3.36, 0.29 -0.47 M-0.12 9.75 C-0.08 8.21, -0.39 5.25, 0.43 -0.09 M0 0 C0 0, 0 0, 0 0 M0 0 C0 0, 0 0, 0 0" stroke="#343a40" stroke-width="2" fill="none"></path></g></g><mask></mask><g stroke-linecap="round" transform="translate(277.02945908518814 14.769767466343865) rotate(0 0.6794883029205039 0.6794883029205039)"><path d="M1.33 0.7 C1.5 0.7, 1.86 0.71, 1.97 0.7 C2.07 0.68, 1.99 0.65, 1.95 0.61 C1.92 0.58, 1.82 0.23, 1.74 0.49 C1.67 0.74, 1.88 2.07, 1.48 2.13 C1.09 2.19, -0.37 1.02, -0.63 0.84 C-0.89 0.66, -0.23 1.2, -0.09 1.06 C0.05 0.93, 0.14 0.32, 0.21 0.02 C0.27 -0.28, 0.07 -0.78, 0.3 -0.76 C0.52 -0.75, 1.52 0.12, 1.57 0.09 C1.61 0.07, 0.66 -0.89, 0.56 -0.91 M0.73 0.38 C0.89 0.22, 0.06 0.3, 0.09 0.52 C0.12 0.73, 0.93 1.55, 0.91 1.65 C0.89 1.75, -0.14 1.32, -0.04 1.12 C0.05 0.92, 1.2 0.63, 1.48 0.45 C1.76 0.27, 1.91 0.16, 1.61 0.04 C1.32 -0.08, -0.13 -0.16, -0.27 -0.27 C-0.41 -0.37, 0.79 -0.54, 0.77 -0.59 C0.75 -0.63, -0.51 -0.84, -0.38 -0.54 C-0.24 -0.24, 1.45 0.92, 1.56 1.23 C1.67 1.54, 0.55 1.27, 0.3 1.32" stroke="#343a40" stroke-width="2" fill="none"></path></g><g stroke-linecap="round" transform="translate(386.72355955571834 128.99247127913338) rotate(0 17.5899167921566 17.446909338561795)"><path d="M10.54 0.69 L24.54 1.81 L31.3 0.97 L36.99 9.39 L35.19 26.01 L32.55 33.5 L28.06 35.75 L9.85 33.88 L0.27 33.18 L0.76 27.88 L1.44 3.84 L5.94 1.55 L10.49 -1.87" stroke="none" stroke-width="0" fill="#ced4da"></path><path d="M8.72 0 M8.72 0 C16.24 -0.3, 22.57 -1.2, 26.46 0 M8.72 0 C12.69 -0.28, 17.1 -0.69, 26.46 0 M26.46 0 C30.97 0.7, 36.1 1.38, 35.18 8.72 M26.46 0 C31.95 0.73, 35.66 4.91, 35.18 8.72 M35.18 8.72 C34.69 16.89, 35.23 22.23, 35.18 26.17 M35.18 8.72 C35.73 15.21, 35.12 20.32, 35.18 26.17 M35.18 26.17 C35.92 31.24, 31.87 36.81, 26.46 34.89 M35.18 26.17 C33.06 30.01, 32 32.64, 26.46 34.89 M26.46 34.89 C20.85 34.33, 16.65 33.76, 8.72 34.89 M26.46 34.89 C21.22 34.93, 17.63 34.79, 8.72 34.89 M8.72 34.89 C2.08 36.1, -1.62 32, 0 26.17 M8.72 34.89 C3.8 37.07, 1.08 30.13, 0 26.17 M0 26.17 C0.4 23.9, -1.4 20.78, 0 8.72 M0 26.17 C-0.18 20.39, -0.75 14.29, 0 8.72 M0 8.72 C-0.3 1.27, 2.33 0.26, 8.72 0 M0 8.72 C-0.12 3.92, 3.16 0.45, 8.72 0" stroke="#28343c" stroke-width="2" fill="none"></path></g><g stroke-linecap="round"><g transform="translate(398.0351624571633 158.56356180207638) rotate(0 -0.5562439453293564 -11.93881176639212)"><path d="M-1.7 -1.21 C2.04 -7.17, 0.23 -15.84, -0.45 -22.65 M-0.51 -0.95 C0.14 -8.53, 0.75 -17.37, -0.53 -22.92" stroke="#343a40" stroke-width="2" fill="none"></path></g></g><mask></mask><g stroke-linecap="round"><g transform="translate(395.8268254726738 158.56356180207638) rotate(0 2.3281711712158994 0.23536600090392312)"><path d="M-0.29 0.43 C1.13 0.04, 1.91 -0.07, 4.94 0.38 M-0.23 0.06 C1.72 0.23, 3.37 -0.1, 4.88 0.12" stroke="#343a40" stroke-width="2" fill="none"></path></g></g><mask></mask><g stroke-linecap="round"><g transform="translate(398.1162931343281 137.49942441153678) rotate(0 7.7497162436402505 4.977521022040776)" fill-rule="evenodd"><path d="M0.11 1.91 L14.89 -0.9 L9.86 4.44 L14.17 8.28 L-0.86 12.06 L1.83 -0.06" stroke="none" stroke-width="0" fill="#ffffff" fill-rule="evenodd"></path><path d="M1.42 0.53 C6.14 -0.03, 11.91 0.72, 16.97 0.68 M0.19 0.3 C6.27 0.5, 10.78 0.56, 16.11 0.69 M16.02 0.55 C14.74 1.71, 13.48 1.64, 11.74 5.26 M15.43 -0.23 C14.44 1.89, 12.67 3.38, 11.41 5.51 M11.69 5.29 C13.85 7.37, 15.27 9.49, 16.2 10.17 M11.04 5.56 C12.9 7.08, 15.06 8.55, 15.77 10.15 M16.52 10.36 C12.23 11.94, 8.44 9.87, -1.47 9.2 M16.06 9.86 C12.45 9.7, 7.86 10.68, 0.63 10.63 M-0.72 10.48 C0.72 7.17, 0.96 6.34, 0.95 -0.99 M0.22 10.17 C-0.57 7.05, -0.04 4.12, 0.23 0.06 M0 0 C0 0, 0 0, 0 0 M0 0 C0 0, 0 0, 0 0" stroke="#343a40" stroke-width="2" fill="none"></path></g></g><mask></mask><g stroke-linecap="round" transform="translate(397.52554622997445 133.76223874547702) rotate(0 0.6794883029205039 0.6794883029205039)"><path d="M1.08 0.8 C1.3 0.92, 1.59 0.92, 1.55 0.72 C1.51 0.52, 0.85 -0.5, 0.84 -0.39 C0.84 -0.28, 1.35 1.04, 1.5 1.4 C1.66 1.76, 2.03 1.69, 1.76 1.76 C1.5 1.84, 0.11 1.81, -0.09 1.84 C-0.28 1.86, 0.73 2.04, 0.59 1.9 C0.45 1.77, -0.75 1.24, -0.93 1.02 C-1.1 0.8, -0.88 0.78, -0.46 0.59 C-0.04 0.41, 1.23 0.09, 1.62 -0.1 C2.01 -0.29, 2.14 -0.68, 1.87 -0.55 M1.7 -1.24 C1.65 -1.09, 0.02 0.54, 0.07 0.63 C0.12 0.73, 1.85 -0.79, 2.02 -0.66 C2.19 -0.53, 1.22 0.88, 1.1 1.42 C0.98 1.96, 1.23 2.76, 1.3 2.59 C1.38 2.41, 1.59 0.68, 1.55 0.37 C1.5 0.07, 1.02 0.7, 1.01 0.77 C1.01 0.83, 1.54 0.75, 1.5 0.78 C1.46 0.82, 0.86 1.13, 0.76 0.99 C0.66 0.85, 0.79 0.02, 0.91 -0.04 C1.03 -0.1, 1.56 0.81, 1.48 0.63" stroke="#343a40" stroke-width="2" fill="none"></path></g><g stroke-linecap="round" transform="translate(272.76804319383405 247.47003194109163) rotate(0 17.5899167921566 17.446909338561795)"><path d="M9.73 -1.12 L27.42 -0.18 L32 3.39 L33.47 9.27 L36.05 25.27 L33.36 33.86 L25.2 36.15 L7.83 34.4 L0.57 33.48 L0.11 28.08 L-0.28 4 L3.47 -0.45 L6.83 -1.92" stroke="none" stroke-width="0" fill="#ced4da"></path><path d="M8.72 0 M8.72 0 C13.34 0.45, 19.61 -1.42, 26.46 0 M8.72 0 C12.61 -0.32, 17.83 0.31, 26.46 0 M26.46 0 C32.63 -1.52, 37.16 2.75, 35.18 8.72 M26.46 0 C29.98 1.65, 34.21 4.9, 35.18 8.72 M35.18 8.72 C34.63 16.23, 33.87 24.03, 35.18 26.17 M35.18 8.72 C35.56 12.93, 35.03 16.13, 35.18 26.17 M35.18 26.17 C34.08 33.11, 33.21 35.4, 26.46 34.89 M35.18 26.17 C36.04 34.27, 30.74 34.05, 26.46 34.89 M26.46 34.89 C21.91 35.29, 12.48 34.28, 8.72 34.89 M26.46 34.89 C21.62 34.38, 17.2 35.04, 8.72 34.89 M8.72 34.89 C3.65 33.8, -1.53 30.6, 0 26.17 M8.72 34.89 C3.93 35.29, 0.79 30.07, 0 26.17 M0 26.17 C0.58 19.33, -0.23 15.5, 0 8.72 M0 26.17 C-0.79 21.76, -0.41 16.66, 0 8.72 M0 8.72 C-1.64 0.96, 4.15 0.07, 8.72 0 M0 8.72 C1.74 2.77, 1.73 1.7, 8.72 0" stroke="#28343c" stroke-width="2" fill="none"></path></g><g stroke-linecap="round"><g transform="translate(284.0796460952795 277.04112246403463) rotate(0 -0.3803933420908834 -11.476266406884918)"><path d="M-1 1.21 C-1.82 -5.17, 0.76 -12.33, 0.36 -22.3 M-0.25 -0.81 C0.24 -5.51, 0.81 -11.54, -0.45 -24.16" stroke="#343a40" stroke-width="2" fill="none"></path></g></g><mask></mask><g stroke-linecap="round"><g transform="translate(281.87130911079 277.04112246403463) rotate(0 2.4186755389317796 -0.1387154594668516)"><path d="M0.29 -0.41 C1.79 0.23, 3.1 0.11, 5.03 -0.3 M-0.19 0.09 C1.74 0.24, 3.35 -0.1, 4.59 -0.12" stroke="#343a40" stroke-width="2" fill="none"></path></g></g><mask></mask><g stroke-linecap="round"><g transform="translate(284.16077677244425 255.97698507349503) rotate(0 7.9122472536570285 5.5274216468390875)" fill-rule="evenodd"><path d="M1.91 -0.03 L17.11 -0.88 L10.87 4.64 L16.58 12.01 L1.68 8.64 L1.81 -1.04" stroke="none" stroke-width="0" fill="#ffffff" fill-rule="evenodd"></path><path d="M-1.34 0.43 C5.25 -0.8, 9.42 0.81, 14.73 0.99 M0.3 0.04 C4.77 -0.2, 7.68 -0.44, 15.33 -0.74 M16.36 -0.02 C15.04 1.76, 13.4 2, 10.91 4.93 M15.79 0.06 C14.48 1.49, 13.78 1.96, 11.55 5.29 M11.85 5.22 C13.4 6.77, 15.56 8.58, 16.05 10.83 M11.2 5.25 C13.14 7.24, 14.67 8.84, 16.39 9.97 M17.17 11.8 C12.05 8.86, 6.87 9.6, 0.1 11.48 M16.07 10.49 C10.89 9.64, 6.04 10.63, 0.01 10.52 M-0.29 10.54 C-0.63 7.85, 0.69 5.35, -0.4 -0.49 M-0.49 9.83 C-0.61 8.5, -0.07 6.5, -0.03 -0.26 M0 0 C0 0, 0 0, 0 0 M0 0 C0 0, 0 0, 0 0" stroke="#343a40" stroke-width="2" fill="none"></path></g></g><mask></mask><g stroke-linecap="round" transform="translate(283.57002986809016 252.23979940743527) rotate(0 0.6794883029205039 0.6794883029205323)"><path d="M1.4 -0.61 C1.72 -0.69, 1.89 -0.26, 1.85 -0.18 C1.8 -0.09, 1.16 -0.33, 1.11 -0.1 C1.07 0.13, 1.46 1.02, 1.56 1.19 C1.67 1.37, 2.01 1.05, 1.72 0.94 C1.44 0.83, 0.23 0.7, -0.14 0.53 C-0.5 0.37, -0.34 0.02, -0.47 -0.06 C-0.59 -0.14, -1.2 -0.12, -0.91 0.05 C-0.62 0.23, 0.98 0.94, 1.27 0.99 C1.57 1.05, 0.77 0.65, 0.87 0.38 C0.96 0.11, 1.89 -0.49, 1.83 -0.63 M0.09 0.35 C0.48 0.23, 0.73 -1.08, 1.17 -1.11 C1.61 -1.13, 2.97 -0.28, 2.75 0.21 C2.53 0.71, 0.23 1.49, -0.14 1.87 C-0.52 2.25, 0.1 2.58, 0.49 2.49 C0.88 2.4, 2.01 1.62, 2.17 1.33 C2.33 1.03, 1.75 1.01, 1.47 0.73 C1.19 0.46, 0.52 -0.06, 0.49 -0.32 C0.45 -0.58, 1.29 -1.15, 1.28 -0.85 C1.27 -0.55, 0.46 1.21, 0.43 1.47 C0.4 1.73, 1.13 1, 1.1 0.69" stroke="#343a40" stroke-width="2" fill="none"></path></g></svg>