<svg version="1.1" xmlns="http://www.w3.org/2000/svg" viewBox="0 0 1732.7337231575816 548.6518941718468" width="1732.7337231575816" height="548.6518941718468">
  <!-- svg-source:excalidraw -->
  
  <defs>
    <style class="style-fonts">
      @font-face {
        font-family: "Virgil";
        src: url("https://excalidraw.com/Virgil.woff2");
      }
      @font-face {
        font-family: "Cascadia";
        src: url("https://excalidraw.com/Cascadia.woff2");
      }
    </style>
  </defs>
  <g stroke-linecap="round" transform="translate(10 153.47332274327619) rotate(0 114.5 23)"><path d="M11.5 0 L220.2 0.18 L224.51 1.62 L226.13 2.88 L228.28 6.47 L229 11.5 L228.82 37.2 L226.13 43.13 L222.53 45.28 L217.5 46 L8.8 45.82 L2.87 43.13 L0.72 39.53 L0 34.5 L0 11.5 L0.72 6.47 L2.88 2.87 L6.47 0.72 L11.5 0" stroke="none" stroke-width="0" fill="#4c6ef5"></path><path d="M11.5 0 M11.5 0 C64.91 0, 118.31 0, 217.5 0 M217.5 0 C225.17 0, 229 3.83, 229 11.5 M229 11.5 C229 16.74, 229 21.99, 229 34.5 M229 34.5 C229 42.17, 225.17 46, 217.5 46 M217.5 46 C147.13 46, 76.75 46, 11.5 46 M11.5 46 C3.83 46, 0 42.17, 0 34.5 M0 34.5 C0 25.52, 0 16.54, 0 11.5 M0 11.5 C0 3.83, 3.83 0, 11.5 0" stroke="transparent" stroke-width="4.5" fill="none" stroke-dasharray="8 12"></path></g><g transform="translate(67 158.47332274327619) rotate(0 57.5 17.5)"><text x="57.5" y="25" font-family="Virgil, Segoe UI Emoji" font-size="28px" fill="white" text-anchor="middle" style="white-space: pre;" direction="ltr">Region-A</text></g><g stroke-linecap="round" transform="translate(237.5 197.97332274327619) rotate(0 219.5 23)"><path d="M11.5 0 L430.2 0.18 L434.51 1.62 L436.13 2.88 L438.28 6.47 L439 11.5 L438.82 37.2 L436.13 43.13 L432.53 45.28 L427.5 46 L8.8 45.82 L2.87 43.13 L0.72 39.53 L0 34.5 L0 11.5 L0.72 6.47 L2.88 2.87 L6.47 0.72 L11.5 0" stroke="none" stroke-width="0" fill="#fa5252"></path><path d="M11.5 0 M11.5 0 C120.4 0, 229.31 0, 427.5 0 M427.5 0 C435.17 0, 439 3.83, 439 11.5 M439 11.5 C439 17.55, 439 23.6, 439 34.5 M439 34.5 C439 42.17, 435.17 46, 427.5 46 M427.5 46 C297.84 46, 168.19 46, 11.5 46 M11.5 46 C3.83 46, 0 42.17, 0 34.5 M0 34.5 C0 28.25, 0 22, 0 11.5 M0 11.5 C0 3.83, 3.83 0, 11.5 0" stroke="transparent" stroke-width="4.5" fill="none" stroke-dasharray="8 12"></path></g><g transform="translate(398.5 202.97332274327619) rotate(0 58.5 17.5)"><text x="58.5" y="25" font-family="Virgil, Segoe UI Emoji" font-size="28px" fill="white" text-anchor="middle" style="white-space: pre;" direction="ltr">Region-B</text></g><g stroke-linecap="round" transform="translate(679.2499999999995 236.97332274327619) rotate(0 81.5 23)"><path d="M11.5 0 L151.5 0 L156.53 0.72 L160.13 2.88 L162.82 8.8 L163 34.5 L162.28 39.53 L161.38 41.51 L158.51 44.38 L151.5 46 L11.5 46 L6.47 45.28 L2.87 43.13 L0.18 37.2 L0.18 8.8 L2.88 2.87 L6.47 0.72 L11.5 0" stroke="none" stroke-width="0" fill="#82c91e"></path><path d="M11.5 0 M11.5 0 C48.15 0, 84.8 0, 151.5 0 M151.5 0 C159.17 0, 163 3.83, 163 11.5 M163 11.5 C163 17.55, 163 23.6, 163 34.5 M163 34.5 C163 42.17, 159.17 46, 151.5 46 M151.5 46 C107.87 46, 64.23 46, 11.5 46 M11.5 46 C3.83 46, 0 42.17, 0 34.5 M0 34.5 C0 28.25, 0 22, 0 11.5 M0 11.5 C0 3.83, 3.83 0, 11.5 0" stroke="transparent" stroke-width="4.5" fill="none" stroke-dasharray="8 12"></path></g><g transform="translate(703.2499999999995 241.97332274327619) rotate(0 57.5 17.5)"><text x="57.5" y="25" font-family="Virgil, Segoe UI Emoji" font-size="28px" fill="white" text-anchor="middle" style="white-space: pre;" direction="ltr">Region-C</text></g><g stroke-linecap="round" transform="translate(15.634117647059611 310.4733227432762) rotate(0 111 12)"><path d="M0 0 L222 0 L222 24 L0 24" stroke="none" stroke-width="0" fill="#4c6ef5"></path><path d="M0 0 C73.78 0, 147.56 0, 222 0 M222 0 C222 8.56, 222 17.11, 222 24 M222 24 C164.17 24, 106.35 24, 0 24 M0 24 C0 18.53, 0 13.06, 0 0" stroke="transparent" stroke-width="4.5" fill="none" stroke-dasharray="8 12"></path></g><g stroke-linecap="round" transform="translate(243.6341176470596 310.4733227432762) rotate(0 214 11)"><path d="M0 0 L428 0 L428 22 L0 22" stroke="none" stroke-width="0" fill="#fa5252"></path><path d="M0 0 C107.13 0, 214.25 0, 428 0 M428 0 C428 8.67, 428 17.35, 428 22 M428 22 C290.99 22, 153.97 22, 0 22 M0 22 C0 16.24, 0 10.48, 0 0" stroke="transparent" stroke-width="4.5" fill="none" stroke-dasharray="8 12"></path></g><g stroke-linecap="round" transform="translate(679.6341176470592 310.2233227432762) rotate(0 77.375 11)"><path d="M0 0 L154.75 0 L154.75 22 L0 22" stroke="none" stroke-width="0" fill="#82c91e"></path><path d="M0 0 C48.5 0, 97 0, 154.75 0 M154.75 0 C154.75 6.72, 154.75 13.44, 154.75 22 M154.75 22 C119.38 22, 84.01 22, 0 22 M0 22 C0 15.37, 0 8.74, 0 0" stroke="transparent" stroke-width="4.5" fill="none" stroke-dasharray="8 12"></path></g><g transform="translate(735.8841176470592 330.7233227432762) rotate(0 23.5 22.5)"><text x="23.5" y="32" font-family="Virgil, Segoe UI Emoji" font-size="36px" fill="#82c91e" text-anchor="middle" style="white-space: pre;" direction="ltr">t3</text></g><g transform="translate(423.6341176470596 331.2233227432762) rotate(0 24 22.5)"><text x="24" y="32" font-family="Virgil, Segoe UI Emoji" font-size="36px" fill="#fa5252" text-anchor="middle" style="white-space: pre;" direction="ltr">t2</text></g><g transform="translate(114.13411764705961 333.2233227432762) rotate(0 16 22.5)"><text x="16" y="32" font-family="Virgil, Segoe UI Emoji" font-size="36px" fill="#4c6ef5" text-anchor="middle" style="white-space: pre;" direction="ltr">t1</text></g><g stroke-linecap="round"><g transform="translate(19.13411764705961 392.9733227432762) rotate(0 414.6868072416637 -0.46998679239300145)"><path d="M-0.3 -0.63 C137.95 -0.75, 691.18 -0.69, 829.67 -0.82 M1.74 1.65 C139.83 1.2, 690.7 -2.3, 828.82 -2.59" stroke="#000000" stroke-width="4" fill="none"></path></g><g transform="translate(19.13411764705961 392.9733227432762) rotate(0 414.6868072416637 -0.46998679239300145)"><path d="M-1.09 -15.42 C0.53 -9.47, -0.23 -5.12, -1.09 0.74 M-0.43 -15.09 C-0.7 -10.4, -0.94 -6.14, -0.32 -1.09" stroke="#000000" stroke-width="4" fill="none"></path></g><g transform="translate(19.13411764705961 392.9733227432762) rotate(0 414.6868072416637 -0.46998679239300145)"><path d="M-1.09 14.58 C0.57 11.03, -0.2 5.89, -1.09 0.74 M-0.43 14.91 C-0.49 9.44, -0.73 3.54, -0.32 -1.09" stroke="#000000" stroke-width="4" fill="none"></path></g><g transform="translate(19.13411764705961 392.9733227432762) rotate(0 414.6868072416637 -0.46998679239300145)"><path d="M829.73 -1.89 L813.54 3.81 L814.53 -8.37 L827.69 -1.39" stroke="none" stroke-width="0" fill="#000000" fill-rule="evenodd"></path><path d="M828.02 -2.37 C825.36 0.82, 820.31 2.45, 814.45 5.18 M828.68 -2.05 C823.88 -0.16, 819.05 1.2, 815.23 3.35 M814.64 3.3 C814.27 0.33, 815.19 -2.28, 814.1 -9.39 M814.65 3.36 C814.69 0.29, 815.39 -3.17, 814.66 -8.78 M814.27 -8.24 C820.51 -6.59, 823.93 -3.7, 828.37 -2.66 M815.5 -8.19 C820.6 -6.72, 824.37 -3.92, 829.1 -3 M828.82 -2.59 C828.82 -2.59, 828.82 -2.59, 828.82 -2.59 M828.82 -2.59 C828.82 -2.59, 828.82 -2.59, 828.82 -2.59" stroke="#000000" stroke-width="4" fill="none"></path></g></g><mask></mask><g transform="translate(286.8841176470596 403.7233227432762) rotate(0 139.5 45)"><text x="139.5" y="32" font-family="Virgil, Segoe UI Emoji" font-size="36px" fill="#000000" text-anchor="middle" style="white-space: pre;" direction="ltr">time to deploy: </text><text x="139.5" y="77" font-family="Virgil, Segoe UI Emoji" font-size="36px" fill="#000000" text-anchor="middle" style="white-space: pre;" direction="ltr">t1 + t2 + t3</text></g><g transform="translate(220.48672852645723 72.57142857142844) rotate(0 212 22.5)"><text x="212" y="32" font-family="Virgil, Segoe UI Emoji" font-size="36px" fill="#000000" text-anchor="middle" style="white-space: pre;" direction="ltr">Synchronized Deployment</text></g><g stroke-linecap="round"><g transform="translate(1236.3009442109592 419.15189417184683) rotate(0 227.07103907327155 -0.62449409569615)"><path d="M0.68 1.13 C76.55 0.99, 379.04 -0.43, 454.57 -0.69 M-0.42 0.68 C75.35 0.19, 378.12 -1.91, 453.65 -2.38" stroke="#000000" stroke-width="4" fill="none"></path></g><g transform="translate(1236.3009442109592 419.15189417184683) rotate(0 227.07103907327155 -0.62449409569615)"><path d="M2.03 -13.79 C1.67 -10.96, 2.04 -5.87, -0.33 2.39 M0.77 -14.4 C0.08 -9.65, 0.3 -5.87, 0.99 1.77" stroke="#000000" stroke-width="4" fill="none"></path></g><g transform="translate(1236.3009442109592 419.15189417184683) rotate(0 227.07103907327155 -0.62449409569615)"><path d="M2.15 16.21 C1.72 11.63, 2.06 9.3, -0.33 2.39 M0.89 15.6 C-0.05 11.88, 0.14 7.19, 0.99 1.77" stroke="#000000" stroke-width="4" fill="none"></path></g><g transform="translate(1236.3009442109592 419.15189417184683) rotate(0 227.07103907327155 -0.62449409569615)"><path d="M453.66 -3.04 L440.6 2.92 L441.22 -6.8 L451.84 -2.94" stroke="none" stroke-width="0" fill="#000000" fill-rule="evenodd"></path><path d="M455.07 -2.3 C451.33 -1.51, 448.33 1.45, 439.09 5.31 M453.8 -2.92 C449.21 -0.64, 445.59 0.72, 440.42 4.69 M439.62 4.07 C440.04 -0.23, 439.59 -2.84, 439.77 -9.59 M439.87 4.19 C439.78 0.92, 440.24 -0.95, 440.33 -8.79 M440.19 -8.91 C444.29 -7.66, 446.48 -4.75, 452.28 -3.13 M439.81 -9.32 C445.03 -6.31, 448.96 -5.21, 454.23 -2.29 M453.65 -2.38 C453.65 -2.38, 453.65 -2.38, 453.65 -2.38 M453.65 -2.38 C453.65 -2.38, 453.65 -2.38, 453.65 -2.38" stroke="#000000" stroke-width="4" fill="none"></path></g></g><mask></mask><g transform="translate(1326.3009442109592 448.65189417184683) rotate(0 136 45)"><text x="136" y="32" font-family="Virgil, Segoe UI Emoji" font-size="36px" fill="#000000" text-anchor="middle" style="white-space: pre;" direction="ltr">time to deploy:</text><text x="136" y="77" font-family="Virgil, Segoe UI Emoji" font-size="36px" fill="#000000" text-anchor="middle" style="white-space: pre;" direction="ltr">max(t1, t2, t3)</text></g><g stroke-linecap="round" transform="translate(1231.2337231575816 105.92857142857247) rotate(0 114.5 23)"><path d="M11.5 0 L220.2 0.18 L224.51 1.62 L226.13 2.88 L228.28 6.47 L229 11.5 L228.82 37.2 L226.13 43.13 L222.53 45.28 L217.5 46 L8.8 45.82 L2.87 43.13 L0.72 39.53 L0 34.5 L0 11.5 L0.72 6.47 L2.88 2.87 L6.47 0.72 L11.5 0" stroke="none" stroke-width="0" fill="#4c6ef5"></path><path d="M11.5 0 M11.5 0 C76.05 0, 140.6 0, 217.5 0 M217.5 0 C225.17 0, 229 3.83, 229 11.5 M229 11.5 C229 18.3, 229 25.09, 229 34.5 M229 34.5 C229 42.17, 225.17 46, 217.5 46 M217.5 46 C166.91 46, 116.32 46, 11.5 46 M11.5 46 C3.83 46, 0 42.17, 0 34.5 M0 34.5 C0 27.53, 0 20.57, 0 11.5 M0 11.5 C0 3.83, 3.83 0, 11.5 0" stroke="transparent" stroke-width="4.5" fill="none" stroke-dasharray="8 12"></path></g><g transform="translate(1288.2337231575816 110.92857142857247) rotate(0 57.5 17.5)"><text x="57.5" y="25" font-family="Virgil, Segoe UI Emoji" font-size="28px" fill="white" text-anchor="middle" style="white-space: pre;" direction="ltr">Region-A</text></g><g stroke-linecap="round" transform="translate(1231.2337231575816 164.428571428572) rotate(0 219.5 23)"><path d="M11.5 0 L430.2 0.18 L434.51 1.62 L436.13 2.88 L438.28 6.47 L439 11.5 L438.82 37.2 L436.13 43.13 L432.53 45.28 L427.5 46 L8.8 45.82 L2.87 43.13 L0.72 39.53 L0 34.5 L0 11.5 L0.72 6.47 L2.88 2.87 L6.47 0.72 L11.5 0" stroke="none" stroke-width="0" fill="#fa5252"></path><path d="M11.5 0 M11.5 0 C156.66 0, 301.82 0, 427.5 0 M427.5 0 C435.17 0, 439 3.83, 439 11.5 M439 11.5 C439 16.29, 439 21.08, 439 34.5 M439 34.5 C439 42.17, 435.17 46, 427.5 46 M427.5 46 C270.54 46, 113.57 46, 11.5 46 M11.5 46 C3.83 46, 0 42.17, 0 34.5 M0 34.5 C0 28.28, 0 22.06, 0 11.5 M0 11.5 C0 3.83, 3.83 0, 11.5 0" stroke="transparent" stroke-width="4.5" fill="none" stroke-dasharray="8 12"></path></g><g transform="translate(1392.2337231575816 169.428571428572) rotate(0 58.5 17.5)"><text x="58.5" y="25" font-family="Virgil, Segoe UI Emoji" font-size="28px" fill="white" text-anchor="middle" style="white-space: pre;" direction="ltr">Region-B</text></g><g stroke-linecap="round" transform="translate(1232.9837231575816 223.928571428572) rotate(0 81.5 23)"><path d="M11.5 0 L151.5 0 L156.53 0.72 L160.13 2.88 L162.82 8.8 L163 34.5 L162.28 39.53 L161.38 41.51 L158.51 44.38 L151.5 46 L11.5 46 L6.47 45.28 L2.87 43.13 L0.18 37.2 L0.18 8.8 L2.88 2.87 L6.47 0.72 L11.5 0" stroke="none" stroke-width="0" fill="#82c91e"></path><path d="M11.5 0 M11.5 0 C60.35 0, 109.2 0, 151.5 0 M151.5 0 C159.17 0, 163 3.83, 163 11.5 M163 11.5 C163 16.29, 163 21.08, 163 34.5 M163 34.5 C163 42.17, 159.17 46, 151.5 46 M151.5 46 C98.68 46, 45.85 46, 11.5 46 M11.5 46 C3.83 46, 0 42.17, 0 34.5 M0 34.5 C0 28.28, 0 22.06, 0 11.5 M0 11.5 C0 3.83, 3.83 0, 11.5 0" stroke="transparent" stroke-width="4.5" fill="none" stroke-dasharray="8 12"></path></g><g transform="translate(1256.9837231575816 228.928571428572) rotate(0 57.5 17.5)"><text x="57.5" y="25" font-family="Virgil, Segoe UI Emoji" font-size="28px" fill="white" text-anchor="middle" style="white-space: pre;" direction="ltr">Region-C</text></g><g stroke-linecap="round" transform="translate(1233.7337231575816 289.178571428572) rotate(0 111 12)"><path d="M0 0 L222 0 L222 24 L0 24" stroke="none" stroke-width="0" fill="#4c6ef5"></path><path d="M0 0 C75.18 0, 150.36 0, 222 0 M222 0 C222 5.69, 222 11.37, 222 24 M222 24 C164.35 24, 106.7 24, 0 24 M0 24 C0 16.08, 0 8.16, 0 0" stroke="transparent" stroke-width="4.5" fill="none" stroke-dasharray="8 12"></path></g><g stroke-linecap="round" transform="translate(1232.7337231575816 326.928571428572) rotate(0 214 11)"><path d="M0 0 L428 0 L428 22 L0 22" stroke="none" stroke-width="0" fill="#fa5252"></path><path d="M0 0 C99.65 0, 199.3 0, 428 0 M428 0 C428 7.52, 428 15.04, 428 22 M428 22 C307.79 22, 187.58 22, 0 22 M0 22 C0 14.32, 0 6.65, 0 0" stroke="transparent" stroke-width="4.5" fill="none" stroke-dasharray="8 12"></path></g><g stroke-linecap="round" transform="translate(1232.1087231575816 364.928571428572) rotate(0 77.375 11)"><path d="M0 0 L154.75 0 L154.75 22 L0 22" stroke="none" stroke-width="0" fill="#82c91e"></path><path d="M0 0 C59.4 0, 118.8 0, 154.75 0 M154.75 0 C154.75 8.48, 154.75 16.96, 154.75 22 M154.75 22 C120.01 22, 85.26 22, 0 22 M0 22 C0 15.95, 0 9.91, 0 0" stroke="transparent" stroke-width="4.5" fill="none" stroke-dasharray="8 12"></path></g><g transform="translate(1468.9837231575816 277.42857142857156) rotate(0 16 22.5)"><text x="16" y="32" font-family="Virgil, Segoe UI Emoji" font-size="36px" fill="#4c6ef5" text-anchor="middle" style="white-space: pre;" direction="ltr">t1</text></g><g transform="translate(1674.7337231575816 314.17857142857156) rotate(0 24 22.5)"><text x="24" y="32" font-family="Virgil, Segoe UI Emoji" font-size="36px" fill="#fa5252" text-anchor="middle" style="white-space: pre;" direction="ltr">t2</text></g><g transform="translate(1395.9837231575816 349.17857142857156) rotate(0 23.5 22.5)"><text x="23.5" y="32" font-family="Virgil, Segoe UI Emoji" font-size="36px" fill="#82c91e" text-anchor="middle" style="white-space: pre;" direction="ltr">t3</text></g><g transform="translate(1253.7337231575816 10) rotate(0 208 22.5)"><text x="208" y="32" font-family="Virgil, Segoe UI Emoji" font-size="36px" fill="#000000" text-anchor="middle" style="white-space: pre;" direction="ltr">Parallelized Deployment</text></g><g stroke-linecap="round"><g transform="translate(905.0422714332667 291.8191788990948) rotate(0 127.92640190330076 -0.45846744573532305)"><path d="M-0.03 -0.74 C42.62 -0.65, 212.24 -0.4, 255.05 -0.55 M-1.51 1.49 C41.6 1.31, 214.34 -2.06, 257.36 -2.41" stroke="#000000" stroke-width="4" fill="none"></path></g><g transform="translate(905.0422714332667 291.8191788990948) rotate(0 127.92640190330076 -0.45846744573532305)"><path d="M257.81 -1.94 L245.64 5.03 L243.81 -9.2 L257.51 -0.99" stroke="none" stroke-width="0" fill="#000000" fill-rule="evenodd"></path><path d="M256.44 -3.35 C254.84 0.36, 250.4 -0.03, 242.78 3.55 M257.05 -2.71 C253.14 -1.12, 248.5 0.88, 243.19 3.85 M244.03 4.51 C244.5 -0.28, 243.04 -3.52, 244.35 -8.4 M243.83 4.54 C243.14 0.24, 243.93 -2.43, 244.1 -8.73 M242.86 -10.04 C247.7 -7.16, 249.53 -6.49, 257.98 -2.82 M243.7 -9.19 C248.03 -7.07, 252.66 -3.77, 256.82 -2.35 M257.36 -2.41 C257.36 -2.41, 257.36 -2.41, 257.36 -2.41 M257.36 -2.41 C257.36 -2.41, 257.36 -2.41, 257.36 -2.41" stroke="#000000" stroke-width="4" fill="none"></path></g></g><mask></mask></svg>